<?xml version="1.0" encoding="UTF-8"?>
<svg xmlns="http://www.w3.org/2000/svg" viewBox="-200 -1495.9680118128292 1600 2377.96801181283">
  <title>cogncur strokes for a</title>
  <line x1="-200" y1="0" x2="1400" y2="0" stroke="#2F3A56" stroke-width="4" opacity="0.55"/>
  <line x1="-200" y1="-614.0003000000003" x2="1400" y2="-614.0003000000003" stroke="#457B9D" stroke-width="3" opacity="0.5" stroke-dasharray="24 14"/>
  <line x1="-200" y1="-1295.9680118128292" x2="1400" y2="-1295.9680118128292" stroke="#2F3A56" stroke-width="4" opacity="0.45"/>
  <line x1="-200" y1="682.0000000000005" x2="1400" y2="682.0000000000005" stroke="#ADB5BD" stroke-width="2" opacity="0.35"/>
  <path d="M 35.4,-1.0 L 39.7,-7.2 L 44.1,-13.4 L 48.4,-19.5 L 52.8,-25.7 L 57.2,-31.9 L 61.5,-38.1 L 65.9,-44.3 L 70.2,-50.4 L 74.6,-56.6 L 78.9,-62.8 L 83.3,-69.0 L 87.6,-75.2 L 92.0,-81.3 L 96.3,-87.5 L 100.7,-93.7 L 105.0,-99.9 L 109.4,-106.1 L 113.7,-112.2 L 118.1,-118.4 L 122.4,-124.6 L 126.8,-130.8 L 131.2,-137.0 L 135.5,-143.1 L 139.9,-149.3 L 144.2,-155.5 L 148.6,-161.7 L 152.9,-167.9 L 157.3,-174.1 L 161.6,-180.2 L 166.0,-186.4 L 170.3,-192.6 L 174.7,-198.8 L 179.0,-205.0 L 183.4,-211.1 L 187.7,-217.3 L 192.1,-223.5 L 196.4,-229.7 L 200.8,-235.9 L 205.1,-242.0 L 209.5,-248.2 L 213.8,-254.4 L 218.2,-260.6 L 222.6,-266.8 L 226.9,-272.9 L 231.3,-279.1 L 235.6,-285.3 L 240.0,-291.5 L 244.3,-297.7 L 248.7,-303.8 L 253.0,-310.0 L 257.4,-316.2 L 261.7,-322.4 L 266.1,-328.6 L 270.4,-334.8 L 274.8,-340.9 L 279.1,-347.1 L 283.5,-353.3 L 287.8,-359.5 L 292.2,-365.7 L 296.5,-371.8 L 300.9,-378.0 L 305.2,-384.2 L 309.6,-390.4 L 313.9,-396.6 L 318.3,-402.8 L 322.6,-408.9 L 327.0,-415.1 L 331.3,-421.3 L 335.7,-427.5 L 340.0,-433.7 L 344.4,-439.9 L 348.7,-446.0 L 353.1,-452.2 L 357.4,-458.4 L 361.8,-464.6 L 366.1,-470.8 L 370.4,-477.0 L 375.0,-483.0 L 379.8,-488.8 L 384.7,-494.6 L 389.7,-500.3 L 394.8,-505.8 L 400.1,-511.3 L 405.4,-516.6 L 410.9,-521.8 L 416.5,-526.9 L 422.2,-531.9 L 428.0,-536.7 L 433.9,-541.5 L 439.9,-546.0 L 446.0,-550.5 L 452.2,-554.8 L 458.5,-559.0 L 464.9,-563.0 L 471.4,-566.9 L 477.9,-570.7 L 484.6,-574.2 L 491.3,-577.7 L 498.1,-581.0 L 505.0,-584.1 L 512.0,-587.1 L 519.0,-589.9 L 526.0,-592.6 L 533.2,-595.1 L 540.4,-597.4 L 547.6,-599.6 L 554.9,-601.6 L 562.2,-603.5 L 569.6,-605.2 L 577.0,-606.8 L 584.4,-608.2 L 591.8,-609.4 L 599.3,-610.5 L 606.8,-611.5 L 614.3,-612.2 L 621.9,-612.9 L 629.4,-613.4 L 637.0,-613.7 L 644.5,-613.9 L 652.1,-614.0 L 659.6,-614.0 L 667.2,-614.0 L 674.8,-614.0 L 682.3,-614.0 L 689.9,-614.0 L 697.4,-614.0 L 705.0,-614.0" stroke="#FF6B6B" stroke-width="6" fill="none" opacity="0.85"/>
  <circle cx="35.4" cy="-1.0" r="10" fill="#FF6B6B"/>
  <circle cx="705.0" cy="-614.0" r="6" fill="#FF6B6B" opacity="0.6"/>
  <text x="53.4" y="-19.0" fill="#FF6B6B" font-size="36" font-family="monospace">1</text>
  <path d="M 705.0,-614.0 L 691.6,-614.0 L 678.3,-614.0 L 664.9,-614.0 L 651.5,-614.0 L 638.2,-613.8 L 624.8,-613.1 L 611.5,-612.0 L 598.2,-610.5 L 585.0,-608.5 L 571.9,-606.0 L 558.8,-603.0 L 545.9,-599.5 L 533.1,-595.5 L 520.5,-591.1 L 508.1,-586.1 L 495.9,-580.6 L 484.0,-574.7 L 472.2,-568.3 L 460.8,-561.4 L 449.6,-554.0 L 438.8,-546.2 L 428.3,-537.9 L 418.1,-529.3 L 408.2,-520.2 L 398.7,-510.8 L 389.6,-501.1 L 380.9,-490.9 L 372.5,-480.5 L 364.5,-469.8 L 356.9,-458.8 L 349.7,-447.6 L 342.9,-436.1 L 336.4,-424.4 L 330.3,-412.4 L 324.7,-400.3 L 319.4,-388.1 L 314.4,-375.6 L 309.9,-363.1 L 305.7,-350.4 L 301.9,-337.5 L 298.5,-324.6 L 295.4,-311.6 L 292.7,-298.5 L 290.4,-285.3 L 288.4,-272.1 L 286.8,-258.9 L 285.6,-245.5 L 284.7,-232.2 L 284.2,-218.8 L 284.0,-205.5 L 284.2,-192.1 L 284.9,-178.8 L 286.0,-165.4 L 287.6,-152.2 L 289.7,-139.0 L 292.4,-125.9 L 295.7,-112.9 L 299.6,-100.1 L 304.3,-87.6 L 309.8,-75.4 L 316.1,-63.6 L 323.3,-52.4 L 331.4,-41.8 L 340.5,-32.0 L 350.6,-23.2 L 361.6,-15.6 L 373.4,-9.4 L 385.9,-4.7 L 398.9,-1.6 L 412.2,-0.1 L 425.6,-0.2 L 438.9,-1.4 L 452.0,-3.7 L 465.0,-6.9 L 477.7,-11.1 L 490.2,-16.0 L 502.3,-21.6 L 514.1,-27.9 L 525.6,-34.7 L 536.8,-42.0 L 547.7,-49.8 L 558.2,-58.0 L 568.5,-66.5 L 578.4,-75.5 L 588.1,-84.7 L 597.5,-94.2 L 606.6,-104.0 L 615.4,-114.1 L 623.9,-124.4 L 632.1,-135.0 L 640.0,-145.7 L 647.6,-156.7 L 654.9,-167.9 L 661.9,-179.3 L 668.5,-191.0 L 674.7,-202.8 L 680.6,-214.8 L 686.0,-227.0 L 690.9,-239.5 L 695.2,-252.1 L 699.0,-264.9 L 702.0,-278.0 L 704.0,-291.2 L 705.0,-304.5 L 705.0,-317.9 L 705.0,-331.2 L 705.0,-344.6 L 705.0,-358.0 L 705.0,-371.4 L 705.0,-384.7 L 705.0,-398.1 L 705.0,-411.5 L 705.0,-424.8 L 705.0,-438.2 L 705.0,-451.6 L 705.0,-464.9 L 705.0,-478.3 L 705.0,-491.7 L 705.0,-505.0 L 705.0,-518.4 L 705.0,-531.8 L 705.0,-545.2 L 705.0,-558.5 L 705.0,-571.9 L 705.0,-585.3 L 705.0,-598.6 L 705.0,-612.0" stroke="#4ECDC4" stroke-width="6" fill="none" opacity="0.85"/>
  <circle cx="705.0" cy="-614.0" r="10" fill="#4ECDC4"/>
  <circle cx="705.0" cy="-612.0" r="6" fill="#4ECDC4" opacity="0.6"/>
  <text x="723.0" y="-632.0" fill="#4ECDC4" font-size="36" font-family="monospace">2</text>
  <path d="M 705.0,-614.0 L 704.8,-607.4 L 704.8,-600.8 L 704.7,-594.2 L 704.7,-587.5 L 704.7,-580.9 L 704.6,-574.3 L 704.6,-567.7 L 704.6,-561.0 L 704.6,-554.4 L 704.6,-547.8 L 704.6,-541.1 L 704.6,-534.5 L 704.6,-527.9 L 704.6,-521.3 L 704.6,-514.6 L 704.6,-508.0 L 704.6,-501.4 L 704.6,-494.7 L 704.6,-488.1 L 704.6,-481.5 L 704.6,-474.9 L 704.6,-468.2 L 704.6,-461.6 L 704.6,-455.0 L 704.6,-448.3 L 704.6,-441.7 L 704.6,-435.1 L 704.6,-428.5 L 704.6,-421.8 L 704.6,-415.2 L 704.6,-408.6 L 704.6,-401.9 L 704.6,-395.3 L 704.6,-388.7 L 704.6,-382.1 L 704.6,-375.4 L 704.6,-368.8 L 704.6,-362.2 L 704.6,-355.5 L 704.6,-348.9 L 704.6,-342.3 L 704.7,-335.7 L 704.7,-329.0 L 704.7,-322.4 L 704.7,-315.8 L 704.7,-309.1 L 704.7,-302.5 L 704.7,-295.9 L 704.7,-289.3 L 704.7,-282.6 L 704.7,-276.0 L 704.7,-269.4 L 704.7,-262.7 L 704.8,-256.1 L 704.8,-249.5 L 704.8,-242.9 L 704.8,-236.2 L 704.8,-229.6 L 704.8,-223.0 L 704.8,-216.3 L 704.8,-209.7 L 704.8,-203.1 L 704.8,-196.5 L 704.9,-189.8 L 704.9,-183.2 L 704.9,-176.6 L 704.9,-169.9 L 704.9,-163.3 L 704.9,-156.7 L 704.9,-150.1 L 704.9,-143.4 L 704.9,-136.8 L 705.0,-130.2 L 705.0,-123.5 L 705.0,-116.9 L 705.0,-110.3 L 705.0,-103.7 L 705.1,-97.0 L 705.3,-90.4 L 705.8,-83.8 L 706.5,-77.2 L 707.4,-70.6 L 708.6,-64.1 L 710.1,-57.7 L 711.9,-51.3 L 714.1,-45.0 L 716.7,-38.9 L 719.7,-33.0 L 723.2,-27.4 L 727.3,-22.2 L 731.8,-17.4 L 736.8,-13.1 L 742.3,-9.3 L 748.2,-6.3 L 754.4,-3.9 L 760.8,-2.1 L 767.3,-0.9 L 773.9,-0.2 L 780.5,-0.0 L 787.1,-0.4 L 793.6,-1.5 L 800.0,-3.3 L 806.2,-5.8 L 812.0,-8.9 L 817.5,-12.6 L 822.6,-16.8 L 827.4,-21.4 L 831.8,-26.3 L 836.0,-31.5 L 839.8,-36.9 L 843.5,-42.4 L 846.9,-48.1 L 850.2,-53.9 L 853.3,-59.7 L 856.3,-65.6 L 859.3,-71.5 L 862.2,-77.5 L 865.1,-83.4 L 868.0,-89.4 L 870.9,-95.3 L 873.9,-101.3 L 876.8,-107.2 L 879.7,-113.2 L 882.6,-119.1 L 885.5,-125.1 L 888.5,-131.1 L 891.4,-137.0" stroke="#45B7D1" stroke-width="6" fill="none" opacity="0.85"/>
  <circle cx="705.0" cy="-614.0" r="10" fill="#45B7D1"/>
  <circle cx="891.4" cy="-137.0" r="6" fill="#45B7D1" opacity="0.6"/>
  <text x="723.0" y="-632.0" fill="#45B7D1" font-size="36" font-family="monospace">3</text>
</svg>