<?xml version="1.0" encoding="UTF-8"?>
<svg xmlns="http://www.w3.org/2000/svg" viewBox="-200 -1495.9680118128292 1600 2377.96801181283">
  <title>cogncur strokes for A</title>
  <line x1="-200" y1="0" x2="1400" y2="0" stroke="#2F3A56" stroke-width="4" opacity="0.55"/>
  <line x1="-200" y1="-614.0003000000003" x2="1400" y2="-614.0003000000003" stroke="#457B9D" stroke-width="3" opacity="0.5" stroke-dasharray="24 14"/>
  <line x1="-200" y1="-1295.9680118128292" x2="1400" y2="-1295.9680118128292" stroke="#2F3A56" stroke-width="4" opacity="0.45"/>
  <line x1="-200" y1="682.0000000000005" x2="1400" y2="682.0000000000005" stroke="#ADB5BD" stroke-width="2" opacity="0.35"/>
  <path d="M 34.4,-35.0 L 42.1,-26.0 L 51.0,-18.1 L 60.9,-11.6 L 71.7,-6.5 L 83.1,-3.0 L 94.8,-0.9 L 106.7,-0.0 L 118.6,-0.3 L 130.4,-1.7 L 141.9,-4.5 L 153.0,-8.8 L 163.4,-14.6 L 172.8,-21.9 L 181.1,-30.3 L 188.5,-39.7 L 194.8,-49.8 L 200.4,-60.3 L 205.4,-71.1 L 209.9,-82.1 L 214.0,-93.3 L 217.9,-104.5 L 221.7,-115.8 L 225.5,-127.1 L 229.4,-138.3 L 233.3,-149.6 L 237.2,-160.8 L 241.1,-172.1 L 245.0,-183.3 L 248.9,-194.6 L 252.8,-205.8 L 256.7,-217.0 L 260.7,-228.3 L 264.6,-239.5 L 268.5,-250.8 L 272.4,-262.0 L 276.3,-273.2 L 280.2,-284.5 L 284.1,-295.7 L 288.1,-307.0 L 292.0,-318.2 L 295.9,-329.4 L 299.8,-340.7 L 303.7,-351.9 L 307.6,-363.2 L 311.6,-374.4 L 315.5,-385.6 L 319.4,-396.9 L 323.3,-408.1 L 327.2,-419.4 L 331.1,-430.6 L 335.1,-441.9 L 339.0,-453.1 L 342.9,-464.3 L 346.8,-475.6 L 350.7,-486.8 L 354.7,-498.1 L 358.6,-509.3 L 362.5,-520.5 L 366.4,-531.8 L 370.3,-543.0 L 374.2,-554.2 L 378.2,-565.5 L 382.1,-576.7 L 386.0,-588.0 L 389.9,-599.2 L 393.8,-610.4 L 397.8,-621.7 L 401.7,-632.9 L 405.6,-644.2 L 409.5,-655.4 L 413.4,-666.6 L 417.4,-677.9 L 421.3,-689.1 L 425.2,-700.4 L 429.1,-711.6 L 433.0,-722.8 L 437.0,-734.1 L 440.9,-745.3 L 444.8,-756.6 L 448.7,-767.8 L 452.6,-779.0 L 456.6,-790.3 L 460.5,-801.5 L 464.4,-812.7 L 468.3,-824.0 L 472.2,-835.2 L 476.2,-846.5 L 480.1,-857.7 L 484.0,-868.9 L 487.9,-880.2 L 491.8,-891.4 L 495.8,-902.7 L 499.7,-913.9 L 503.6,-925.1 L 507.5,-936.4 L 511.5,-947.6 L 515.4,-958.9 L 519.3,-970.1 L 523.2,-981.3 L 527.1,-992.6 L 531.1,-1003.8 L 535.0,-1015.0 L 538.9,-1026.3 L 542.8,-1037.5 L 546.8,-1048.8 L 550.7,-1060.0 L 554.6,-1071.2 L 558.5,-1082.5 L 562.4,-1093.7 L 566.4,-1105.0 L 570.3,-1116.2 L 574.2,-1127.4 L 578.1,-1138.7 L 582.1,-1149.9 L 586.0,-1161.1 L 589.9,-1172.4 L 593.8,-1183.6 L 597.8,-1194.9 L 601.7,-1206.1 L 605.6,-1217.3 L 609.5,-1228.6 L 613.4,-1239.8 L 617.4,-1251.0 L 621.3,-1262.3 L 625.2,-1273.5 L 629.1,-1284.8 L 633.1,-1296.0" stroke="#FF6B6B" stroke-width="6" fill="none" opacity="0.85"/>
  <circle cx="34.4" cy="-35.0" r="10" fill="#FF6B6B"/>
  <circle cx="633.1" cy="-1296.0" r="6" fill="#FF6B6B" opacity="0.6"/>
  <text x="52.4" y="-53.0" fill="#FF6B6B" font-size="36" font-family="monospace">1</text>
  <path d="M 633.1,-1296.0 L 636.5,-1285.8 L 640.0,-1275.6 L 643.5,-1265.4 L 646.9,-1255.2 L 650.4,-1245.0 L 653.9,-1234.8 L 657.3,-1224.6 L 660.8,-1214.4 L 664.3,-1204.2 L 667.7,-1194.0 L 671.2,-1183.7 L 674.7,-1173.5 L 678.1,-1163.3 L 681.6,-1153.1 L 685.0,-1142.9 L 688.5,-1132.7 L 692.0,-1122.5 L 695.4,-1112.3 L 698.9,-1102.1 L 702.4,-1091.9 L 705.8,-1081.7 L 709.3,-1071.5 L 712.8,-1061.3 L 716.2,-1051.1 L 719.7,-1040.9 L 723.2,-1030.7 L 726.6,-1020.5 L 730.1,-1010.3 L 733.6,-1000.1 L 737.0,-989.9 L 740.5,-979.7 L 744.0,-969.4 L 747.4,-959.2 L 750.9,-949.0 L 754.4,-938.8 L 757.8,-928.6 L 761.3,-918.4 L 764.8,-908.2 L 768.2,-898.0 L 771.7,-887.8 L 775.2,-877.6 L 778.6,-867.4 L 782.1,-857.2 L 785.6,-847.0 L 789.0,-836.8 L 792.5,-826.6 L 796.0,-816.4 L 799.4,-806.2 L 802.9,-796.0 L 806.4,-785.8 L 809.8,-775.6 L 813.3,-765.4 L 816.7,-755.1 L 820.2,-744.9 L 823.7,-734.7 L 827.1,-724.5 L 830.6,-714.3 L 834.1,-704.1 L 837.5,-693.9 L 841.0,-683.7 L 844.5,-673.5 L 847.9,-663.3 L 851.4,-653.1 L 854.9,-642.9 L 858.3,-632.7 L 861.8,-622.5 L 865.3,-612.3 L 868.7,-602.1 L 872.2,-591.9 L 875.7,-581.7 L 879.1,-571.5 L 882.6,-561.3 L 886.1,-551.1 L 889.5,-540.9 L 893.0,-530.6 L 896.5,-520.4 L 899.9,-510.2 L 903.4,-500.0 L 906.9,-489.8 L 910.3,-479.6 L 913.8,-469.4 L 917.3,-459.2 L 920.7,-449.0 L 924.2,-438.8 L 927.7,-428.6 L 931.1,-418.4 L 934.6,-408.2 L 938.0,-398.0 L 941.5,-387.8 L 945.0,-377.6 L 948.4,-367.4 L 951.9,-357.2 L 955.4,-347.0 L 958.8,-336.8 L 962.3,-326.6 L 965.8,-316.3 L 969.2,-306.1 L 972.7,-295.9 L 976.2,-285.7 L 979.6,-275.5 L 983.1,-265.3 L 986.6,-255.1 L 990.0,-244.9 L 993.5,-234.7 L 997.0,-224.5 L 1000.4,-214.3 L 1003.9,-204.1 L 1007.4,-193.9 L 1010.8,-183.7 L 1014.3,-173.5 L 1017.8,-163.3 L 1021.2,-153.1 L 1024.7,-142.9 L 1028.2,-132.7 L 1031.6,-122.5 L 1035.1,-112.3 L 1038.6,-102.0 L 1042.0,-91.8 L 1045.5,-81.6 L 1049.0,-71.4 L 1052.4,-61.2 L 1055.9,-51.0 L 1059.4,-40.8 L 1062.8,-30.6 L 1066.3,-20.4 L 1069.7,-10.2 L 1073.2,-0.0" stroke="#4ECDC4" stroke-width="6" fill="none" opacity="0.85"/>
  <circle cx="633.1" cy="-1296.0" r="10" fill="#4ECDC4"/>
  <circle cx="1073.2" cy="-0.0" r="6" fill="#4ECDC4" opacity="0.6"/>
  <text x="651.1" y="-1314.0" fill="#4ECDC4" font-size="36" font-family="monospace">2</text>
  <path d="M 1073.1,-0.0 L 1067.6,-15.5 L 1062.2,-30.9 L 1056.8,-46.4 L 1051.5,-61.9 L 1046.1,-77.4 L 1040.8,-92.9 L 1035.5,-108.4 L 1030.2,-123.9 L 1025.0,-139.4 L 1019.7,-154.9 L 1014.4,-170.4 L 1009.2,-186.0 L 1003.9,-201.5 L 998.6,-217.0 L 993.3,-232.5 L 987.9,-248.0 L 982.5,-263.4 L 977.0,-278.9 L 971.3,-294.2 L 965.5,-309.6 L 959.5,-324.8 L 953.0,-339.8 L 945.7,-354.5 L 937.9,-368.9 L 929.5,-383.0 L 920.6,-396.7 L 910.9,-410.0 L 900.6,-422.7 L 889.5,-434.7 L 877.7,-446.1 L 865.1,-456.5 L 851.8,-466.1 L 837.8,-474.6 L 823.2,-482.1 L 808.1,-488.6 L 792.7,-494.0 L 776.9,-498.5 L 761.0,-502.2 L 744.9,-505.1 L 728.6,-507.4 L 712.3,-509.0 L 696.0,-510.3 L 679.6,-511.1 L 663.2,-511.6 L 646.9,-511.9 L 630.5,-512.0 L 614.1,-511.9 L 597.7,-511.4 L 581.3,-510.7 L 565.0,-509.6 L 548.7,-508.2 L 532.4,-506.5 L 516.1,-504.4 L 499.9,-501.9 L 483.8,-499.0 L 467.7,-495.7 L 451.8,-491.9 L 436.0,-487.6 L 420.4,-482.7 L 405.0,-477.1 L 389.9,-470.7 L 375.3,-463.3 L 361.3,-454.8 L 348.3,-444.8 L 336.9,-433.1 L 328.0,-419.3 L 323.0,-403.8 L 323.5,-387.5 L 329.7,-372.4 L 339.9,-359.7 L 352.4,-349.0 L 366.1,-340.1 L 380.5,-332.4 L 395.5,-325.7 L 410.8,-319.8 L 426.4,-314.7 L 442.1,-310.1 L 457.9,-306.0 L 473.9,-302.4 L 490.0,-299.2 L 506.1,-296.3 L 522.3,-293.9 L 538.6,-291.8 L 554.9,-290.0 L 571.2,-288.6 L 587.5,-287.4 L 603.9,-286.6 L 620.3,-286.2 L 636.7,-286.0 L 653.1,-286.1 L 669.4,-286.3 L 685.8,-286.7 L 702.2,-287.2 L 718.6,-287.9 L 734.9,-288.8 L 751.3,-289.8 L 767.6,-291.0 L 784.0,-292.4 L 800.3,-294.0 L 816.6,-295.8 L 832.8,-297.8 L 849.1,-300.0 L 865.3,-302.4 L 881.4,-305.1 L 897.6,-308.0 L 913.6,-311.1 L 929.7,-314.5 L 945.6,-318.2 L 961.5,-322.1 L 977.4,-326.4 L 993.1,-330.9 L 1008.8,-335.7 L 1024.3,-340.9 L 1039.8,-346.4 L 1055.1,-352.2 L 1070.2,-358.4 L 1085.2,-365.0 L 1100.1,-372.0 L 1114.7,-379.4 L 1129.1,-387.1 L 1143.3,-395.3 L 1157.2,-404.0 L 1170.9,-413.1 L 1184.2,-422.6 L 1197.1,-432.6 L 1209.8,-443.1 L 1222.0,-454.0" stroke="#45B7D1" stroke-width="6" fill="none" opacity="0.85"/>
  <circle cx="1073.1" cy="-0.0" r="10" fill="#45B7D1"/>
  <circle cx="1222.0" cy="-454.0" r="6" fill="#45B7D1" opacity="0.6"/>
  <text x="1091.1" y="-18.0" fill="#45B7D1" font-size="36" font-family="monospace">3</text>
</svg>