<?xml version="1.0" encoding="UTF-8"?>
<svg xmlns="http://www.w3.org/2000/svg" viewBox="-200 -1495.9680118128292 1600 2377.96801181283">
  <title>cogncur strokes for e</title>
  <line x1="-200" y1="0" x2="1400" y2="0" stroke="#2F3A56" stroke-width="4" opacity="0.55"/>
  <line x1="-200" y1="-614.0003000000003" x2="1400" y2="-614.0003000000003" stroke="#457B9D" stroke-width="3" opacity="0.5" stroke-dasharray="24 14"/>
  <line x1="-200" y1="-1295.9680118128292" x2="1400" y2="-1295.9680118128292" stroke="#2F3A56" stroke-width="4" opacity="0.45"/>
  <line x1="-200" y1="682.0000000000005" x2="1400" y2="682.0000000000005" stroke="#ADB5BD" stroke-width="2" opacity="0.35"/>
  <path d="M 34.4,-0.0 L 47.4,-9.5 L 60.4,-19.1 L 73.4,-28.6 L 86.4,-38.1 L 99.4,-47.7 L 112.4,-57.2 L 125.4,-66.8 L 138.4,-76.3 L 151.4,-85.8 L 164.4,-95.4 L 177.4,-104.9 L 190.4,-114.4 L 203.4,-124.0 L 216.4,-133.5 L 229.4,-143.0 L 242.4,-152.6 L 255.5,-162.1 L 268.5,-171.7 L 281.5,-181.2 L 294.5,-190.7 L 307.5,-200.3 L 320.5,-209.8 L 333.5,-219.3 L 346.5,-228.9 L 359.5,-238.4 L 372.5,-247.9 L 385.5,-257.5 L 398.5,-267.0 L 411.5,-276.6 L 424.5,-286.1 L 437.5,-295.6 L 450.5,-305.2 L 463.5,-314.7 L 476.5,-324.2 L 489.5,-333.8 L 502.5,-343.3 L 515.5,-352.8 L 528.5,-362.4 L 541.5,-371.9 L 554.5,-381.4 L 567.5,-391.0 L 580.4,-400.7 L 592.4,-411.5 L 602.8,-423.8 L 611.5,-437.3 L 618.3,-452.0 L 623.1,-467.3 L 626.0,-483.2 L 627.3,-499.3 L 626.9,-515.4 L 623.9,-531.2 L 618.2,-546.2 L 609.9,-560.1 L 599.5,-572.3 L 587.4,-583.0 L 574.1,-592.0 L 559.8,-599.5 L 544.8,-605.4 L 529.2,-609.7 L 513.4,-612.6 L 497.3,-613.9 L 481.2,-613.6 L 465.2,-611.5 L 449.6,-607.7 L 434.4,-602.2 L 419.8,-595.3 L 406.0,-587.0 L 392.9,-577.6 L 380.6,-567.2 L 369.1,-555.9 L 358.4,-543.8 L 348.5,-531.1 L 339.3,-517.9 L 330.9,-504.1 L 323.2,-490.0 L 316.1,-475.4 L 309.8,-460.6 L 304.1,-445.5 L 299.1,-430.2 L 294.7,-414.7 L 290.9,-399.0 L 287.8,-383.2 L 285.2,-367.3 L 283.3,-351.3 L 282.0,-335.2 L 281.2,-319.1 L 281.0,-303.0 L 281.4,-286.8 L 282.4,-270.8 L 284.0,-254.7 L 286.1,-238.7 L 288.9,-222.8 L 292.3,-207.1 L 296.3,-191.5 L 301.0,-176.0 L 306.3,-160.8 L 312.3,-145.8 L 319.0,-131.1 L 326.3,-116.8 L 334.4,-102.8 L 343.2,-89.3 L 352.8,-76.4 L 363.1,-64.0 L 374.2,-52.3 L 386.1,-41.4 L 398.8,-31.5 L 412.3,-22.7 L 426.6,-15.1 L 441.4,-8.9 L 456.9,-4.3 L 472.7,-1.3 L 488.8,-0.0 L 504.9,-0.3 L 521.0,-1.5 L 536.9,-3.7 L 552.7,-7.2 L 568.1,-11.8 L 583.2,-17.6 L 597.8,-24.5 L 611.9,-32.3 L 625.6,-40.8 L 638.9,-49.8 L 651.9,-59.4 L 664.4,-69.5 L 676.6,-80.2 L 688.2,-91.3 L 699.3,-103.0" stroke="#FF6B6B" stroke-width="6" fill="none" opacity="0.85"/>
  <circle cx="34.4" cy="-0.0" r="10" fill="#FF6B6B"/>
  <circle cx="699.3" cy="-103.0" r="6" fill="#FF6B6B" opacity="0.6"/>
  <text x="52.4" y="-18.0" fill="#FF6B6B" font-size="36" font-family="monospace">1</text>
</svg>