<?xml version="1.0" encoding="UTF-8"?>
<svg xmlns="http://www.w3.org/2000/svg" viewBox="-200 -1495.9680118128292 1600 2377.96801181283">
  <title>cogncur strokes for f</title>
  <line x1="-200" y1="0" x2="1400" y2="0" stroke="#2F3A56" stroke-width="4" opacity="0.55"/>
  <line x1="-200" y1="-614.0003000000003" x2="1400" y2="-614.0003000000003" stroke="#457B9D" stroke-width="3" opacity="0.5" stroke-dasharray="24 14"/>
  <line x1="-200" y1="-1295.9680118128292" x2="1400" y2="-1295.9680118128292" stroke="#2F3A56" stroke-width="4" opacity="0.45"/>
  <line x1="-200" y1="682.0000000000005" x2="1400" y2="682.0000000000005" stroke="#ADB5BD" stroke-width="2" opacity="0.35"/>
  <path d="M 35.4,-1.0 L 50.8,-32.3 L 66.1,-63.5 L 81.5,-94.8 L 96.8,-126.0 L 112.2,-157.3 L 127.6,-188.5 L 142.9,-219.8 L 158.3,-251.0 L 173.7,-282.3 L 189.0,-313.5 L 204.4,-344.8 L 219.8,-376.0 L 235.1,-407.3 L 250.5,-438.5 L 265.8,-469.8 L 281.2,-501.1 L 296.6,-532.3 L 311.9,-563.6 L 327.3,-594.8 L 342.7,-626.1 L 358.0,-657.3 L 373.4,-688.6 L 388.8,-719.8 L 404.1,-751.1 L 419.5,-782.3 L 434.8,-813.6 L 450.2,-844.8 L 465.6,-876.1 L 480.9,-907.3 L 496.3,-938.6 L 511.7,-969.8 L 527.0,-1001.1 L 542.4,-1032.4 L 557.8,-1063.6 L 571.5,-1095.6 L 580.4,-1129.2 L 584.9,-1163.7 L 584.3,-1198.5 L 575.8,-1232.2 L 557.8,-1261.8 L 530.7,-1283.3 L 497.8,-1294.2 L 463.0,-1295.6 L 428.9,-1289.1 L 398.1,-1273.2 L 373.8,-1248.5 L 356.6,-1218.3 L 345.3,-1185.3 L 338.4,-1151.2 L 334.6,-1116.6 L 333.1,-1081.8 L 333.0,-1047.0 L 333.0,-1012.2 L 333.0,-977.4 L 333.0,-942.5 L 333.0,-907.7 L 333.0,-872.9 L 333.0,-838.1 L 333.0,-803.2 L 333.0,-768.4 L 333.0,-733.6 L 333.0,-698.8 L 333.0,-663.9 L 333.0,-629.1 L 333.0,-594.3 L 333.0,-559.5 L 333.0,-524.6 L 333.0,-489.8 L 333.0,-455.0 L 333.0,-420.2 L 333.0,-385.3 L 333.0,-350.5 L 333.0,-315.7 L 333.0,-280.9 L 333.0,-246.0 L 333.0,-211.2 L 333.0,-176.4 L 333.0,-141.6 L 333.0,-106.7 L 333.0,-71.9 L 333.0,-37.1 L 333.0,-2.3 L 333.0,32.6 L 333.0,67.4 L 333.0,102.2 L 333.0,137.1 L 333.0,171.9 L 333.0,206.7 L 333.0,241.5 L 333.0,276.4 L 333.0,311.2 L 333.0,346.0 L 333.0,380.8 L 333.0,415.7 L 333.0,450.5 L 333.8,485.3 L 337.0,520.0 L 342.9,554.3 L 352.2,587.8 L 365.9,619.8 L 385.3,648.6 L 412.0,670.7 L 445.0,680.7 L 479.4,676.4 L 509.0,658.6 L 531.2,631.8 L 546.9,600.8 L 557.8,567.8 L 565.0,533.7 L 569.2,499.2 L 570.9,464.4 L 570.3,429.6 L 567.6,394.9 L 563.0,360.3 L 556.8,326.1 L 549.1,292.1 L 539.9,258.6 L 529.2,225.4 L 517.0,192.8 L 503.1,160.8 L 487.6,129.7 L 469.9,99.7 L 449.9,71.2 L 427.0,45.0 L 400.4,22.5 L 369.8,6.3 L 335.7,0.1" stroke="#FF6B6B" stroke-width="6" fill="none" opacity="0.85"/>
  <circle cx="35.4" cy="-1.0" r="10" fill="#FF6B6B"/>
  <circle cx="335.7" cy="0.1" r="6" fill="#FF6B6B" opacity="0.6"/>
  <text x="53.4" y="-19.0" fill="#FF6B6B" font-size="36" font-family="monospace">1</text>
  <path d="M 337.0,-0.0 L 338.7,-0.0 L 340.5,-0.0 L 342.2,-0.1 L 343.9,-0.2 L 345.6,-0.3 L 347.4,-0.4 L 349.1,-0.6 L 350.8,-0.8 L 352.5,-1.0 L 354.2,-1.3 L 355.9,-1.5 L 357.6,-1.8 L 359.3,-2.1 L 361.0,-2.5 L 362.7,-2.9 L 364.4,-3.3 L 366.1,-3.7 L 367.8,-4.2 L 369.4,-4.7 L 371.1,-5.2 L 372.7,-5.7 L 374.3,-6.3 L 376.0,-6.9 L 377.6,-7.5 L 379.2,-8.1 L 380.8,-8.8 L 382.4,-9.5 L 383.9,-10.2 L 385.5,-10.9 L 387.1,-11.7 L 388.6,-12.5 L 390.1,-13.3 L 391.7,-14.1 L 393.2,-14.9 L 394.7,-15.8 L 396.2,-16.7 L 397.6,-17.6 L 399.1,-18.5 L 400.6,-19.5 L 402.0,-20.4 L 403.4,-21.4 L 404.8,-22.4 L 406.3,-23.4 L 407.7,-24.4 L 409.0,-25.4 L 410.4,-26.5 L 411.8,-27.6 L 413.1,-28.6 L 414.5,-29.7 L 415.8,-30.8 L 417.1,-31.9 L 418.4,-33.1 L 419.7,-34.2 L 421.0,-35.4 L 422.3,-36.5 L 423.6,-37.7 L 424.8,-38.9 L 426.1,-40.1 L 427.3,-41.3 L 428.5,-42.5 L 429.8,-43.8 L 431.0,-45.0 L 432.2,-46.2 L 433.4,-47.5 L 434.5,-48.8 L 435.7,-50.0 L 436.9,-51.3 L 438.0,-52.6 L 439.2,-53.9 L 440.3,-55.2 L 441.5,-56.5 L 442.6,-57.8 L 443.7,-59.1 L 444.8,-60.5 L 445.9,-61.8 L 447.0,-63.1 L 448.1,-64.5 L 449.2,-65.8 L 450.2,-67.2 L 451.3,-68.5 L 452.4,-69.9 L 453.4,-71.3 L 454.5,-72.7 L 455.5,-74.0 L 456.5,-75.4 L 457.6,-76.8 L 458.6,-78.2 L 459.6,-79.6 L 460.6,-81.0 L 461.6,-82.5 L 462.6,-83.9 L 463.6,-85.3 L 464.5,-86.7 L 465.5,-88.1 L 466.5,-89.6 L 467.5,-91.0 L 468.4,-92.4 L 469.4,-93.9 L 470.3,-95.3 L 471.3,-96.8 L 472.2,-98.2 L 473.1,-99.7 L 474.1,-101.2 L 475.0,-102.6 L 475.9,-104.1 L 476.8,-105.6 L 477.7,-107.0 L 478.6,-108.5 L 479.5,-110.0 L 480.4,-111.5 L 481.3,-112.9 L 482.2,-114.4 L 483.1,-115.9 L 484.0,-117.4 L 484.8,-118.9 L 485.7,-120.4 L 486.6,-121.9 L 487.4,-123.4 L 488.3,-124.9 L 489.1,-126.4 L 490.0,-127.9 L 490.8,-129.4 L 491.7,-130.9 L 492.5,-132.4 L 493.3,-134.0 L 494.2,-135.5 L 495.0,-137.0" stroke="#4ECDC4" stroke-width="6" fill="none" opacity="0.85"/>
  <circle cx="337.0" cy="-0.0" r="10" fill="#4ECDC4"/>
  <circle cx="495.0" cy="-137.0" r="6" fill="#4ECDC4" opacity="0.6"/>
  <text x="355.0" y="-18.0" fill="#4ECDC4" font-size="36" font-family="monospace">2</text>
</svg>