<?xml version="1.0" encoding="UTF-8"?>
<svg xmlns="http://www.w3.org/2000/svg" viewBox="-200 -1495.9680118128292 1600 2377.96801181283">
  <title>cogncur strokes for g</title>
  <line x1="-200" y1="0" x2="1400" y2="0" stroke="#2F3A56" stroke-width="4" opacity="0.55"/>
  <line x1="-200" y1="-614.0003000000003" x2="1400" y2="-614.0003000000003" stroke="#457B9D" stroke-width="3" opacity="0.5" stroke-dasharray="24 14"/>
  <line x1="-200" y1="-1295.9680118128292" x2="1400" y2="-1295.9680118128292" stroke="#2F3A56" stroke-width="4" opacity="0.45"/>
  <line x1="-200" y1="682.0000000000005" x2="1400" y2="682.0000000000005" stroke="#ADB5BD" stroke-width="2" opacity="0.35"/>
  <path d="M 35.4,-1.0 L 39.7,-7.2 L 44.1,-13.4 L 48.4,-19.5 L 52.8,-25.7 L 57.2,-31.9 L 61.5,-38.1 L 65.9,-44.3 L 70.2,-50.4 L 74.6,-56.6 L 78.9,-62.8 L 83.3,-69.0 L 87.6,-75.2 L 92.0,-81.3 L 96.3,-87.5 L 100.7,-93.7 L 105.0,-99.9 L 109.4,-106.1 L 113.7,-112.2 L 118.1,-118.4 L 122.4,-124.6 L 126.8,-130.8 L 131.2,-137.0 L 135.5,-143.1 L 139.9,-149.3 L 144.2,-155.5 L 148.6,-161.7 L 152.9,-167.9 L 157.3,-174.1 L 161.6,-180.2 L 166.0,-186.4 L 170.3,-192.6 L 174.7,-198.8 L 179.0,-205.0 L 183.4,-211.1 L 187.7,-217.3 L 192.1,-223.5 L 196.4,-229.7 L 200.8,-235.9 L 205.1,-242.0 L 209.5,-248.2 L 213.8,-254.4 L 218.2,-260.6 L 222.6,-266.8 L 226.9,-272.9 L 231.3,-279.1 L 235.6,-285.3 L 240.0,-291.5 L 244.3,-297.7 L 248.7,-303.8 L 253.0,-310.0 L 257.4,-316.2 L 261.7,-322.4 L 266.1,-328.6 L 270.4,-334.8 L 274.8,-340.9 L 279.1,-347.1 L 283.5,-353.3 L 287.8,-359.5 L 292.2,-365.7 L 296.5,-371.8 L 300.9,-378.0 L 305.2,-384.2 L 309.6,-390.4 L 313.9,-396.6 L 318.3,-402.8 L 322.6,-408.9 L 327.0,-415.1 L 331.3,-421.3 L 335.7,-427.5 L 340.0,-433.7 L 344.4,-439.9 L 348.7,-446.0 L 353.1,-452.2 L 357.4,-458.4 L 361.8,-464.6 L 366.1,-470.8 L 370.4,-477.0 L 375.0,-483.0 L 379.8,-488.8 L 384.7,-494.6 L 389.7,-500.3 L 394.8,-505.8 L 400.1,-511.3 L 405.4,-516.6 L 410.9,-521.8 L 416.5,-526.9 L 422.2,-531.9 L 428.0,-536.7 L 433.9,-541.5 L 439.9,-546.0 L 446.0,-550.5 L 452.2,-554.8 L 458.5,-559.0 L 464.9,-563.0 L 471.4,-566.9 L 477.9,-570.7 L 484.6,-574.2 L 491.3,-577.7 L 498.1,-581.0 L 505.0,-584.1 L 512.0,-587.1 L 519.0,-589.9 L 526.0,-592.6 L 533.2,-595.1 L 540.4,-597.4 L 547.6,-599.6 L 554.9,-601.6 L 562.2,-603.5 L 569.6,-605.2 L 577.0,-606.8 L 584.4,-608.2 L 591.8,-609.4 L 599.3,-610.5 L 606.8,-611.5 L 614.3,-612.2 L 621.9,-612.9 L 629.4,-613.4 L 637.0,-613.7 L 644.5,-613.9 L 652.1,-614.0 L 659.6,-614.0 L 667.2,-614.0 L 674.8,-614.0 L 682.3,-614.0 L 689.9,-614.0 L 697.4,-614.0 L 705.0,-614.0" stroke="#FF6B6B" stroke-width="6" fill="none" opacity="0.85"/>
  <circle cx="35.4" cy="-1.0" r="10" fill="#FF6B6B"/>
  <circle cx="705.0" cy="-614.0" r="6" fill="#FF6B6B" opacity="0.6"/>
  <text x="53.4" y="-19.0" fill="#FF6B6B" font-size="36" font-family="monospace">1</text>
  <path d="M 704.6,-614.0 L 691.2,-614.0 L 677.8,-614.0 L 664.5,-614.0 L 651.1,-614.0 L 637.7,-613.8 L 624.3,-613.1 L 611.0,-612.0 L 597.7,-610.4 L 584.5,-608.4 L 571.3,-605.8 L 558.3,-602.8 L 545.4,-599.3 L 532.6,-595.4 L 520.0,-590.9 L 507.6,-585.9 L 495.4,-580.4 L 483.4,-574.4 L 471.7,-567.9 L 460.2,-561.0 L 449.1,-553.6 L 438.2,-545.8 L 427.7,-537.5 L 417.5,-528.8 L 407.7,-519.7 L 398.2,-510.3 L 389.1,-500.5 L 380.4,-490.4 L 372.0,-479.9 L 364.0,-469.1 L 356.5,-458.1 L 349.3,-446.8 L 342.4,-435.3 L 336.0,-423.6 L 330.0,-411.7 L 324.3,-399.5 L 319.0,-387.2 L 314.1,-374.8 L 309.6,-362.2 L 305.4,-349.5 L 301.7,-336.6 L 298.3,-323.7 L 295.2,-310.7 L 292.5,-297.5 L 290.2,-284.4 L 288.3,-271.1 L 286.7,-257.8 L 285.5,-244.5 L 284.6,-231.1 L 284.1,-217.8 L 284.0,-204.4 L 284.3,-191.0 L 284.9,-177.6 L 286.1,-164.3 L 287.7,-151.0 L 289.9,-137.8 L 292.6,-124.7 L 296.0,-111.8 L 300.0,-99.0 L 304.8,-86.5 L 310.3,-74.3 L 316.7,-62.6 L 324.0,-51.4 L 332.2,-40.8 L 341.4,-31.1 L 351.6,-22.4 L 362.7,-14.9 L 374.6,-8.9 L 387.2,-4.3 L 400.2,-1.4 L 413.6,-0.1 L 426.9,-0.3 L 440.2,-1.6 L 453.4,-4.0 L 466.4,-7.3 L 479.1,-11.6 L 491.5,-16.6 L 503.6,-22.3 L 515.4,-28.6 L 526.9,-35.5 L 538.0,-42.8 L 548.9,-50.7 L 559.4,-58.9 L 569.6,-67.5 L 579.6,-76.5 L 589.2,-85.8 L 598.6,-95.4 L 607.6,-105.2 L 616.4,-115.3 L 624.9,-125.7 L 633.1,-136.3 L 640.9,-147.1 L 648.5,-158.1 L 655.8,-169.4 L 662.7,-180.8 L 669.3,-192.5 L 675.5,-204.3 L 681.3,-216.4 L 686.6,-228.6 L 691.5,-241.1 L 695.8,-253.8 L 699.4,-266.7 L 702.3,-279.7 L 704.2,-293.0 L 705.0,-306.3 L 705.0,-319.7 L 705.0,-333.1 L 705.0,-346.5 L 704.9,-359.9 L 704.9,-373.2 L 704.9,-386.6 L 704.9,-400.0 L 704.9,-413.4 L 704.9,-426.8 L 704.9,-440.2 L 704.9,-453.5 L 704.9,-466.9 L 704.8,-480.3 L 704.8,-493.7 L 704.8,-507.1 L 704.8,-520.5 L 704.8,-533.8 L 704.8,-547.2 L 704.8,-560.6 L 704.8,-574.0 L 704.8,-587.4 L 704.7,-600.8 L 704.6,-614.0" stroke="#4ECDC4" stroke-width="6" fill="none" opacity="0.85"/>
  <circle cx="704.6" cy="-614.0" r="10" fill="#4ECDC4"/>
  <text x="722.6" y="-632.0" fill="#4ECDC4" font-size="36" font-family="monospace">2</text>
  <path d="M 705.0,-614.0 L 705.0,-595.5 L 705.0,-576.9 L 705.0,-558.4 L 705.0,-539.8 L 705.0,-521.3 L 705.0,-502.8 L 705.0,-484.2 L 705.0,-465.7 L 705.0,-447.2 L 705.0,-428.6 L 705.0,-410.1 L 705.0,-391.5 L 705.0,-373.0 L 705.0,-354.5 L 705.0,-335.9 L 705.0,-317.4 L 705.0,-298.8 L 705.0,-280.3 L 705.0,-261.8 L 705.0,-243.2 L 705.0,-224.7 L 705.0,-206.2 L 705.0,-187.6 L 705.0,-169.1 L 705.0,-150.5 L 705.0,-132.0 L 705.0,-113.5 L 705.0,-94.9 L 705.0,-76.4 L 705.0,-57.8 L 705.0,-39.3 L 705.0,-20.8 L 705.0,-2.2 L 705.0,16.3 L 705.0,34.8 L 705.0,53.4 L 705.0,71.9 L 705.0,90.5 L 705.0,109.0 L 705.0,127.5 L 705.0,146.1 L 705.0,164.6 L 705.0,183.2 L 705.0,201.7 L 705.0,220.2 L 705.0,238.8 L 705.0,257.3 L 705.0,275.9 L 705.0,294.4 L 705.0,312.9 L 705.0,331.5 L 705.0,350.0 L 705.0,368.5 L 705.0,387.1 L 705.0,405.6 L 705.0,424.2 L 705.0,442.7 L 705.0,461.2 L 704.6,479.8 L 703.7,498.3 L 702.1,516.8 L 699.7,535.1 L 696.5,553.4 L 692.3,571.4 L 686.8,589.1 L 679.8,606.3 L 671.2,622.7 L 660.6,637.9 L 647.9,651.4 L 633.2,662.6 L 616.8,671.2 L 599.2,677.0 L 580.9,680.1 L 562.4,681.0 L 543.9,679.7 L 525.9,675.6 L 508.8,668.4 L 493.7,657.8 L 481.0,644.3 L 470.9,628.8 L 463.3,611.9 L 458.5,594.0 L 456.3,575.6 L 456.1,557.0 L 457.1,538.5 L 459.2,520.1 L 462.5,501.9 L 467.1,483.9 L 473.1,466.4 L 480.5,449.4 L 489.3,433.1 L 499.0,417.3 L 508.6,401.4 L 518.2,385.6 L 527.9,369.8 L 537.5,353.9 L 547.1,338.1 L 556.8,322.2 L 566.4,306.4 L 576.1,290.6 L 585.7,274.7 L 595.3,258.9 L 605.0,243.1 L 614.6,227.2 L 624.3,211.4 L 633.9,195.6 L 643.5,179.7 L 653.2,163.9 L 662.8,148.1 L 672.4,132.2 L 682.1,116.4 L 691.7,100.5 L 701.4,84.7 L 711.0,68.9 L 720.6,53.0 L 730.3,37.2 L 739.9,21.4 L 749.6,5.5 L 759.2,-10.3 L 768.8,-26.1 L 778.5,-42.0 L 788.1,-57.8 L 797.7,-73.7 L 807.4,-89.5 L 817.0,-105.3 L 826.7,-121.2 L 836.3,-137.0" stroke="#45B7D1" stroke-width="6" fill="none" opacity="0.85"/>
  <circle cx="705.0" cy="-614.0" r="10" fill="#45B7D1"/>
  <circle cx="836.3" cy="-137.0" r="6" fill="#45B7D1" opacity="0.6"/>
  <text x="723.0" y="-632.0" fill="#45B7D1" font-size="36" font-family="monospace">3</text>
</svg>