<?xml version="1.0" encoding="UTF-8"?>
<svg xmlns="http://www.w3.org/2000/svg" viewBox="-200 -1495.9680118128292 1600 2377.96801181283">
  <title>cogncur strokes for G</title>
  <line x1="-200" y1="0" x2="1400" y2="0" stroke="#2F3A56" stroke-width="4" opacity="0.55"/>
  <line x1="-200" y1="-614.0003000000003" x2="1400" y2="-614.0003000000003" stroke="#457B9D" stroke-width="3" opacity="0.5" stroke-dasharray="24 14"/>
  <line x1="-200" y1="-1295.9680118128292" x2="1400" y2="-1295.9680118128292" stroke="#2F3A56" stroke-width="4" opacity="0.45"/>
  <line x1="-200" y1="682.0000000000005" x2="1400" y2="682.0000000000005" stroke="#ADB5BD" stroke-width="2" opacity="0.35"/>
  <path d="M 33.4,-905.0 L 52.8,-887.4 L 74.1,-872.0 L 96.8,-858.8 L 120.7,-847.9 L 145.4,-839.2 L 170.9,-832.6 L 196.8,-828.3 L 222.9,-826.2 L 249.2,-826.2 L 275.4,-827.2 L 301.6,-829.2 L 327.7,-832.1 L 353.7,-835.9 L 379.5,-840.5 L 405.2,-845.9 L 430.7,-852.1 L 456.0,-859.1 L 481.1,-866.9 L 505.9,-875.5 L 530.5,-884.8 L 554.7,-895.0 L 578.5,-906.0 L 602.0,-917.9 L 624.9,-930.6 L 647.3,-944.4 L 669.0,-959.2 L 689.9,-975.0 L 709.8,-992.1 L 728.5,-1010.6 L 745.6,-1030.5 L 760.7,-1051.9 L 773.2,-1075.0 L 782.2,-1099.7 L 786.9,-1125.5 L 787.0,-1151.7 L 784.0,-1177.8 L 777.9,-1203.3 L 768.4,-1227.7 L 754.9,-1250.2 L 737.0,-1269.4 L 715.2,-1283.9 L 690.5,-1292.7 L 664.5,-1295.9 L 638.3,-1295.2 L 612.2,-1292.2 L 586.5,-1287.0 L 561.3,-1279.6 L 536.7,-1270.3 L 513.0,-1259.1 L 490.1,-1246.2 L 468.2,-1231.8 L 447.2,-1216.0 L 427.2,-1199.0 L 408.3,-1180.8 L 390.3,-1161.7 L 373.3,-1141.7 L 357.2,-1120.9 L 342.2,-1099.4 L 328.0,-1077.3 L 314.8,-1054.6 L 302.4,-1031.4 L 291.0,-1007.8 L 280.4,-983.8 L 270.6,-959.4 L 261.7,-934.7 L 253.5,-909.7 L 246.2,-884.5 L 239.7,-859.1 L 233.9,-833.5 L 228.9,-807.7 L 224.7,-781.8 L 221.2,-755.7 L 218.5,-729.6 L 216.5,-703.4 L 215.3,-677.2 L 214.8,-651.0 L 215.0,-624.7 L 215.9,-598.5 L 217.6,-572.2 L 220.0,-546.1 L 223.2,-520.0 L 227.2,-494.1 L 231.9,-468.2 L 237.3,-442.6 L 243.6,-417.1 L 250.7,-391.8 L 258.5,-366.7 L 267.2,-341.9 L 276.7,-317.5 L 287.1,-293.3 L 298.4,-269.6 L 310.5,-246.3 L 323.5,-223.5 L 337.5,-201.3 L 352.4,-179.7 L 368.2,-158.7 L 385.0,-138.6 L 402.8,-119.3 L 421.6,-100.9 L 441.4,-83.7 L 462.2,-67.7 L 484.0,-53.0 L 506.7,-39.8 L 530.3,-28.3 L 554.7,-18.6 L 579.8,-10.8 L 605.4,-5.2 L 631.4,-1.6 L 657.6,-0.3 L 683.9,-1.0 L 710.0,-3.7 L 735.8,-8.5 L 761.1,-15.6 L 785.5,-25.2 L 808.8,-37.3 L 830.6,-51.8 L 850.7,-68.7 L 868.9,-87.7 L 884.9,-108.4 L 898.9,-130.7 L 910.8,-154.1 L 920.7,-178.4 L 928.7,-203.4 L 935.0,-228.9 L 939.6,-254.7 L 942.7,-280.8 L 944.4,-307.0" stroke="#FF6B6B" stroke-width="6" fill="none" opacity="0.85"/>
  <circle cx="33.4" cy="-905.0" r="10" fill="#FF6B6B"/>
  <circle cx="944.4" cy="-307.0" r="6" fill="#FF6B6B" opacity="0.6"/>
  <text x="51.4" y="-923.0" fill="#FF6B6B" font-size="36" font-family="monospace">1</text>
  <path d="M 944.4,-307.0 L 944.4,-290.9 L 944.4,-274.8 L 944.4,-258.6 L 944.4,-242.5 L 944.4,-226.4 L 944.4,-210.3 L 944.4,-194.1 L 944.4,-178.0 L 944.4,-161.9 L 944.4,-145.8 L 944.4,-129.6 L 944.4,-113.5 L 944.4,-97.4 L 944.4,-81.3 L 944.4,-65.1 L 944.4,-49.0 L 944.4,-32.9 L 944.4,-16.8 L 944.4,-0.6 L 944.4,15.5 L 944.4,31.6 L 944.4,47.7 L 944.4,63.9 L 944.4,80.0 L 944.4,96.1 L 944.4,112.2 L 944.4,128.4 L 944.4,144.5 L 944.4,160.6 L 944.4,176.7 L 944.4,192.9 L 944.4,209.0 L 944.4,225.1 L 944.4,241.2 L 944.4,257.4 L 944.4,273.5 L 944.4,289.6 L 944.4,305.7 L 944.4,321.9 L 944.4,338.0 L 944.4,354.1 L 944.4,370.2 L 944.4,386.4 L 944.4,402.5 L 944.4,418.6 L 944.4,434.7 L 944.4,450.8 L 944.3,467.0 L 943.9,483.1 L 943.1,499.2 L 941.8,515.3 L 940.0,531.3 L 937.5,547.2 L 934.3,563.0 L 930.3,578.6 L 925.2,593.9 L 919.0,608.8 L 911.5,623.1 L 902.4,636.4 L 891.7,648.5 L 879.5,658.9 L 865.8,667.4 L 851.0,673.7 L 835.4,678.0 L 819.5,680.3 L 803.4,681.0 L 787.3,680.0 L 771.5,677.0 L 756.3,671.6 L 742.1,663.9 L 729.6,653.8 L 718.9,641.8 L 710.3,628.1 L 703.9,613.4 L 699.4,597.9 L 696.8,582.0 L 696.0,565.9 L 696.2,549.8 L 697.1,533.7 L 698.9,517.6 L 701.7,501.8 L 705.8,486.2 L 710.9,470.9 L 717.2,456.0 L 724.4,441.6 L 732.6,427.7 L 741.0,414.0 L 749.4,400.2 L 757.7,386.4 L 766.1,372.6 L 774.5,358.9 L 782.9,345.1 L 791.3,331.3 L 799.7,317.5 L 808.0,303.8 L 816.4,290.0 L 824.8,276.2 L 833.2,262.4 L 841.6,248.7 L 850.0,234.9 L 858.3,221.1 L 866.7,207.3 L 875.1,193.6 L 883.5,179.8 L 891.9,166.0 L 900.3,152.3 L 908.6,138.5 L 917.0,124.7 L 925.4,110.9 L 933.8,97.2 L 942.2,83.4 L 950.5,69.6 L 958.9,55.8 L 967.3,42.1 L 975.7,28.3 L 984.1,14.5 L 992.5,0.7 L 1000.8,-13.0 L 1009.2,-26.8 L 1017.6,-40.6 L 1026.0,-54.4 L 1034.4,-68.1 L 1042.8,-81.9 L 1051.1,-95.7 L 1059.5,-109.5 L 1067.9,-123.2 L 1076.3,-137.0" stroke="#4ECDC4" stroke-width="6" fill="none" opacity="0.85"/>
  <circle cx="944.4" cy="-307.0" r="10" fill="#4ECDC4"/>
  <circle cx="1076.3" cy="-137.0" r="6" fill="#4ECDC4" opacity="0.6"/>
  <text x="962.4" y="-325.0" fill="#4ECDC4" font-size="36" font-family="monospace">2</text>
</svg>