<?xml version="1.0" encoding="UTF-8"?>
<svg xmlns="http://www.w3.org/2000/svg" viewBox="-200 -1495.9680118128292 1600 2377.96801181283">
  <title>cogncur strokes for I</title>
  <line x1="-200" y1="0" x2="1400" y2="0" stroke="#2F3A56" stroke-width="4" opacity="0.55"/>
  <line x1="-200" y1="-614.0003000000003" x2="1400" y2="-614.0003000000003" stroke="#457B9D" stroke-width="3" opacity="0.5" stroke-dasharray="24 14"/>
  <line x1="-200" y1="-1295.9680118128292" x2="1400" y2="-1295.9680118128292" stroke="#2F3A56" stroke-width="4" opacity="0.45"/>
  <line x1="-200" y1="682.0000000000005" x2="1400" y2="682.0000000000005" stroke="#ADB5BD" stroke-width="2" opacity="0.35"/>
  <path d="M 33.4,-1230.3 L 34.3,-1233.4 L 35.4,-1236.3 L 36.7,-1239.3 L 38.0,-1242.1 L 39.5,-1244.9 L 41.1,-1247.7 L 42.8,-1250.3 L 44.6,-1252.9 L 46.5,-1255.5 L 48.5,-1257.9 L 50.6,-1260.3 L 52.7,-1262.7 L 55.0,-1264.9 L 57.3,-1267.1 L 59.6,-1269.2 L 62.1,-1271.3 L 64.5,-1273.3 L 67.1,-1275.2 L 69.7,-1277.0 L 72.3,-1278.8 L 75.0,-1280.4 L 77.7,-1282.0 L 80.5,-1283.6 L 83.3,-1285.0 L 86.2,-1286.4 L 89.1,-1287.7 L 92.0,-1288.9 L 95.0,-1290.0 L 98.0,-1291.0 L 101.1,-1291.9 L 104.1,-1292.6 L 107.2,-1293.3 L 110.4,-1293.8 L 113.5,-1294.1 L 116.7,-1294.3 L 119.9,-1294.3 L 123.0,-1294.1 L 126.2,-1293.8 L 129.3,-1293.3 L 132.4,-1292.6 L 135.5,-1291.9 L 138.5,-1291.0 L 141.5,-1290.0 L 144.5,-1288.9 L 147.5,-1287.7 L 150.4,-1286.4 L 153.2,-1285.0 L 156.1,-1283.6 L 158.9,-1282.1 L 161.6,-1280.6 L 164.4,-1279.0 L 167.1,-1277.4 L 169.8,-1275.8 L 172.5,-1274.1 L 175.2,-1272.4 L 177.9,-1270.6 L 180.5,-1268.9 L 183.2,-1267.2 L 185.8,-1265.4 L 188.4,-1263.6 L 191.1,-1261.9 L 193.7,-1260.1 L 196.4,-1258.4 L 199.0,-1256.6 L 201.7,-1254.9 L 204.4,-1253.2 L 207.1,-1251.5 L 209.8,-1249.9 L 212.5,-1248.3 L 215.2,-1246.7 L 218.0,-1245.2 L 220.8,-1243.7 L 223.7,-1242.3 L 226.5,-1240.9 L 229.4,-1239.6 L 232.3,-1238.3 L 235.3,-1237.2 L 238.3,-1236.1 L 241.3,-1235.1 L 244.3,-1234.2 L 247.4,-1233.5 L 250.5,-1232.8 L 253.6,-1232.3 L 256.8,-1231.8 L 259.9,-1231.5 L 263.1,-1231.4 L 266.3,-1231.3 L 269.4,-1231.4 L 272.6,-1231.7 L 275.7,-1232.0 L 278.9,-1232.5 L 282.0,-1233.1 L 285.1,-1233.8 L 288.2,-1234.6 L 291.2,-1235.5 L 294.2,-1236.5 L 297.2,-1237.5 L 300.2,-1238.7 L 303.1,-1239.9 L 306.0,-1241.2 L 308.8,-1242.6 L 311.6,-1244.1 L 314.4,-1245.6 L 317.2,-1247.1 L 319.9,-1248.8 L 322.6,-1250.4 L 325.3,-1252.1 L 327.9,-1253.9 L 330.5,-1255.7 L 333.1,-1257.6 L 335.6,-1259.5 L 338.2,-1261.4 L 340.6,-1263.4 L 343.1,-1265.4 L 345.5,-1267.4 L 347.9,-1269.5 L 350.3,-1271.6 L 352.6,-1273.7 L 355.0,-1275.9 L 357.2,-1278.1 L 359.5,-1280.3 L 361.7,-1282.6 L 363.9,-1284.9 L 366.1,-1287.2 L 368.2,-1289.5 L 370.3,-1291.9 L 372.4,-1294.3" stroke="#FF6B6B" stroke-width="6" fill="none" opacity="0.85"/>
  <circle cx="33.4" cy="-1230.3" r="10" fill="#FF6B6B"/>
  <circle cx="372.4" cy="-1294.3" r="6" fill="#FF6B6B" opacity="0.6"/>
  <text x="51.4" y="-1248.3" fill="#FF6B6B" font-size="36" font-family="monospace">1</text>
  <path d="M 371.4,-1293.3 L 371.4,-1280.9 L 371.4,-1268.4 L 371.4,-1255.9 L 371.4,-1243.4 L 371.4,-1230.9 L 371.4,-1218.5 L 371.4,-1206.0 L 371.4,-1193.5 L 371.4,-1181.0 L 371.4,-1168.6 L 371.4,-1156.1 L 371.4,-1143.6 L 371.4,-1131.1 L 371.4,-1118.6 L 371.4,-1106.2 L 371.4,-1093.7 L 371.4,-1081.2 L 371.4,-1068.7 L 371.4,-1056.3 L 371.4,-1043.8 L 371.4,-1031.3 L 371.4,-1018.8 L 371.4,-1006.4 L 371.4,-993.9 L 371.4,-981.4 L 371.4,-968.9 L 371.4,-956.4 L 371.4,-944.0 L 371.4,-931.5 L 371.4,-919.0 L 371.4,-906.5 L 371.4,-894.1 L 371.4,-881.6 L 371.4,-869.1 L 371.4,-856.6 L 371.4,-844.1 L 371.4,-831.7 L 371.4,-819.2 L 371.4,-806.7 L 371.4,-794.2 L 371.4,-781.8 L 371.4,-769.3 L 371.4,-756.8 L 371.4,-744.3 L 371.4,-731.9 L 371.4,-719.4 L 371.4,-706.9 L 371.4,-694.4 L 371.4,-681.9 L 371.4,-669.5 L 371.4,-657.0 L 371.4,-644.5 L 371.4,-632.0 L 371.4,-619.6 L 371.4,-607.1 L 371.4,-594.6 L 371.4,-582.1 L 371.4,-569.6 L 371.4,-557.2 L 371.4,-544.7 L 371.4,-532.2 L 371.4,-519.7 L 371.4,-507.3 L 371.4,-494.8 L 371.4,-482.3 L 371.4,-469.8 L 371.4,-457.4 L 371.4,-444.9 L 371.4,-432.4 L 371.4,-419.9 L 371.4,-407.4 L 371.4,-395.0 L 371.4,-382.5 L 371.4,-370.0 L 371.4,-357.5 L 371.4,-345.1 L 371.4,-332.6 L 371.4,-320.1 L 371.4,-307.6 L 371.4,-295.1 L 371.4,-282.7 L 371.4,-270.2 L 371.4,-257.7 L 371.4,-245.2 L 371.4,-232.8 L 371.4,-220.3 L 371.4,-207.8 L 371.4,-195.3 L 371.4,-182.9 L 371.2,-170.4 L 370.5,-157.9 L 369.3,-145.5 L 367.6,-133.1 L 365.2,-120.9 L 362.1,-108.8 L 358.3,-96.9 L 353.7,-85.3 L 348.2,-74.2 L 341.7,-63.5 L 334.3,-53.5 L 325.9,-44.2 L 316.7,-35.8 L 306.7,-28.4 L 296.0,-21.9 L 284.8,-16.4 L 273.2,-11.9 L 261.3,-8.2 L 249.1,-5.3 L 236.9,-3.1 L 224.5,-1.6 L 212.0,-0.7 L 199.6,-0.3 L 187.1,-0.4 L 174.6,-0.9 L 162.2,-2.0 L 149.8,-3.7 L 137.6,-6.0 L 125.5,-9.1 L 113.7,-13.1 L 102.2,-17.9 L 91.1,-23.7 L 80.7,-30.5 L 70.9,-38.3 L 62.0,-47.0 L 54.0,-56.5 L 46.9,-66.8 L 40.8,-77.7" stroke="#4ECDC4" stroke-width="6" fill="none" opacity="0.85"/>
  <circle cx="371.4" cy="-1293.3" r="10" fill="#4ECDC4"/>
  <circle cx="40.8" cy="-77.7" r="6" fill="#4ECDC4" opacity="0.6"/>
  <text x="389.4" y="-1311.3" fill="#4ECDC4" font-size="36" font-family="monospace">2</text>
</svg>