<?xml version="1.0" encoding="UTF-8"?>
<svg xmlns="http://www.w3.org/2000/svg" viewBox="-200 -1495.9680118128292 1600 2377.96801181283">
  <title>cogncur strokes for J</title>
  <line x1="-200" y1="0" x2="1400" y2="0" stroke="#2F3A56" stroke-width="4" opacity="0.55"/>
  <line x1="-200" y1="-614.0003000000003" x2="1400" y2="-614.0003000000003" stroke="#457B9D" stroke-width="3" opacity="0.5" stroke-dasharray="24 14"/>
  <line x1="-200" y1="-1295.9680118128292" x2="1400" y2="-1295.9680118128292" stroke="#2F3A56" stroke-width="4" opacity="0.45"/>
  <line x1="-200" y1="682.0000000000005" x2="1400" y2="682.0000000000005" stroke="#ADB5BD" stroke-width="2" opacity="0.35"/>
  <path d="M 33.4,-1230.3 L 34.3,-1233.4 L 35.4,-1236.3 L 36.7,-1239.3 L 38.0,-1242.1 L 39.5,-1244.9 L 41.1,-1247.7 L 42.8,-1250.3 L 44.6,-1252.9 L 46.5,-1255.5 L 48.5,-1257.9 L 50.6,-1260.3 L 52.7,-1262.7 L 55.0,-1264.9 L 57.3,-1267.1 L 59.6,-1269.2 L 62.1,-1271.3 L 64.5,-1273.3 L 67.1,-1275.2 L 69.7,-1277.0 L 72.3,-1278.8 L 75.0,-1280.4 L 77.7,-1282.0 L 80.5,-1283.6 L 83.3,-1285.0 L 86.2,-1286.4 L 89.1,-1287.7 L 92.0,-1288.9 L 95.0,-1290.0 L 98.0,-1291.0 L 101.1,-1291.9 L 104.1,-1292.6 L 107.2,-1293.3 L 110.4,-1293.8 L 113.5,-1294.1 L 116.7,-1294.3 L 119.9,-1294.3 L 123.0,-1294.1 L 126.2,-1293.8 L 129.3,-1293.3 L 132.4,-1292.6 L 135.5,-1291.9 L 138.5,-1291.0 L 141.5,-1290.0 L 144.5,-1288.9 L 147.5,-1287.7 L 150.4,-1286.4 L 153.2,-1285.0 L 156.1,-1283.6 L 158.9,-1282.1 L 161.6,-1280.6 L 164.4,-1279.0 L 167.1,-1277.4 L 169.8,-1275.8 L 172.5,-1274.1 L 175.2,-1272.4 L 177.9,-1270.6 L 180.5,-1268.9 L 183.2,-1267.2 L 185.8,-1265.4 L 188.4,-1263.6 L 191.1,-1261.9 L 193.7,-1260.1 L 196.4,-1258.4 L 199.0,-1256.6 L 201.7,-1254.9 L 204.4,-1253.2 L 207.1,-1251.5 L 209.8,-1249.9 L 212.5,-1248.3 L 215.2,-1246.7 L 218.0,-1245.2 L 220.8,-1243.7 L 223.7,-1242.3 L 226.5,-1240.9 L 229.4,-1239.6 L 232.3,-1238.3 L 235.3,-1237.2 L 238.3,-1236.1 L 241.3,-1235.1 L 244.3,-1234.2 L 247.4,-1233.5 L 250.5,-1232.8 L 253.6,-1232.3 L 256.8,-1231.8 L 259.9,-1231.5 L 263.1,-1231.4 L 266.3,-1231.3 L 269.4,-1231.4 L 272.6,-1231.7 L 275.7,-1232.0 L 278.9,-1232.5 L 282.0,-1233.1 L 285.1,-1233.8 L 288.2,-1234.6 L 291.2,-1235.5 L 294.2,-1236.5 L 297.2,-1237.5 L 300.2,-1238.7 L 303.1,-1239.9 L 306.0,-1241.2 L 308.8,-1242.6 L 311.6,-1244.1 L 314.4,-1245.6 L 317.2,-1247.1 L 319.9,-1248.8 L 322.6,-1250.4 L 325.3,-1252.1 L 327.9,-1253.9 L 330.5,-1255.7 L 333.1,-1257.6 L 335.6,-1259.5 L 338.2,-1261.4 L 340.6,-1263.4 L 343.1,-1265.4 L 345.5,-1267.4 L 347.9,-1269.5 L 350.3,-1271.6 L 352.6,-1273.7 L 355.0,-1275.9 L 357.2,-1278.1 L 359.5,-1280.3 L 361.7,-1282.6 L 363.9,-1284.9 L 366.1,-1287.2 L 368.2,-1289.5 L 370.3,-1291.9 L 372.4,-1294.3" stroke="#FF6B6B" stroke-width="6" fill="none" opacity="0.85"/>
  <circle cx="33.4" cy="-1230.3" r="10" fill="#FF6B6B"/>
  <circle cx="372.4" cy="-1294.3" r="6" fill="#FF6B6B" opacity="0.6"/>
  <text x="51.4" y="-1248.3" fill="#FF6B6B" font-size="36" font-family="monospace">1</text>
  <path d="M 371.4,-1295.0 L 371.4,-1271.1 L 371.4,-1247.2 L 371.4,-1223.3 L 371.4,-1199.4 L 371.4,-1175.4 L 371.4,-1151.5 L 371.4,-1127.6 L 371.4,-1103.7 L 371.4,-1079.8 L 371.4,-1055.9 L 371.4,-1032.0 L 371.4,-1008.1 L 371.4,-984.1 L 371.4,-960.2 L 371.4,-936.3 L 371.4,-912.4 L 371.4,-888.5 L 371.4,-864.6 L 371.4,-840.7 L 371.4,-816.8 L 371.4,-792.9 L 371.4,-768.9 L 371.4,-745.0 L 371.4,-721.1 L 371.4,-697.2 L 371.4,-673.3 L 371.4,-649.4 L 371.4,-625.5 L 371.4,-601.6 L 371.4,-577.6 L 371.4,-553.7 L 371.4,-529.8 L 371.4,-505.9 L 371.4,-482.0 L 371.4,-458.1 L 371.4,-434.2 L 371.4,-410.3 L 371.4,-386.4 L 371.4,-362.4 L 371.4,-338.5 L 371.4,-314.6 L 371.4,-290.7 L 371.4,-266.8 L 371.4,-242.9 L 371.4,-219.0 L 371.4,-195.1 L 371.4,-171.1 L 371.4,-147.2 L 371.4,-123.3 L 371.4,-99.4 L 371.4,-75.5 L 371.4,-51.6 L 371.4,-27.7 L 371.4,-3.8 L 371.4,20.1 L 371.4,44.1 L 371.4,68.0 L 371.4,91.9 L 371.4,115.8 L 371.4,139.7 L 371.4,163.6 L 371.4,187.5 L 371.4,211.4 L 371.4,235.4 L 371.4,259.3 L 371.4,283.2 L 371.4,307.1 L 371.4,331.0 L 371.4,354.9 L 371.4,378.8 L 371.4,402.7 L 371.4,426.6 L 371.4,450.6 L 371.2,474.5 L 370.1,498.4 L 367.9,522.2 L 364.4,545.8 L 359.3,569.2 L 352.2,592.0 L 342.6,613.9 L 329.9,634.1 L 313.8,651.7 L 294.4,665.6 L 272.4,675.0 L 249.0,679.9 L 225.2,680.9 L 201.5,678.2 L 178.8,670.5 L 158.8,657.6 L 142.7,640.1 L 131.1,619.2 L 124.1,596.4 L 121.1,572.7 L 121.2,548.8 L 122.9,524.9 L 126.8,501.3 L 133.3,478.3 L 142.1,456.1 L 153.2,434.9 L 165.6,414.5 L 178.1,394.1 L 190.5,373.7 L 202.9,353.2 L 215.4,332.8 L 227.8,312.4 L 240.2,291.9 L 252.7,271.5 L 265.1,251.1 L 277.5,230.7 L 290.0,210.2 L 302.4,189.8 L 314.8,169.4 L 327.3,149.0 L 339.7,128.5 L 352.1,108.1 L 364.5,87.7 L 377.0,67.3 L 389.4,46.8 L 401.8,26.4 L 414.3,6.0 L 426.7,-14.4 L 439.1,-34.9 L 451.6,-55.3 L 464.0,-75.7 L 476.4,-96.1 L 488.9,-116.6 L 501.3,-137.0" stroke="#4ECDC4" stroke-width="6" fill="none" opacity="0.85"/>
  <circle cx="371.4" cy="-1295.0" r="10" fill="#4ECDC4"/>
  <circle cx="501.3" cy="-137.0" r="6" fill="#4ECDC4" opacity="0.6"/>
  <text x="389.4" y="-1313.0" fill="#4ECDC4" font-size="36" font-family="monospace">2</text>
</svg>