<?xml version="1.0" encoding="UTF-8"?>
<svg xmlns="http://www.w3.org/2000/svg" viewBox="-200 -1495.9680118128292 1600 2377.96801181283">
  <title>cogncur strokes for K</title>
  <line x1="-200" y1="0" x2="1400" y2="0" stroke="#2F3A56" stroke-width="4" opacity="0.55"/>
  <line x1="-200" y1="-614.0003000000003" x2="1400" y2="-614.0003000000003" stroke="#457B9D" stroke-width="3" opacity="0.5" stroke-dasharray="24 14"/>
  <line x1="-200" y1="-1295.9680118128292" x2="1400" y2="-1295.9680118128292" stroke="#2F3A56" stroke-width="4" opacity="0.45"/>
  <line x1="-200" y1="682.0000000000005" x2="1400" y2="682.0000000000005" stroke="#ADB5BD" stroke-width="2" opacity="0.35"/>
  <path d="M 33.4,-1230.3 L 34.3,-1233.4 L 35.4,-1236.3 L 36.7,-1239.3 L 38.0,-1242.1 L 39.5,-1244.9 L 41.1,-1247.7 L 42.8,-1250.3 L 44.6,-1252.9 L 46.5,-1255.5 L 48.5,-1257.9 L 50.6,-1260.3 L 52.7,-1262.7 L 55.0,-1264.9 L 57.3,-1267.1 L 59.6,-1269.2 L 62.1,-1271.3 L 64.5,-1273.3 L 67.1,-1275.2 L 69.7,-1277.0 L 72.3,-1278.8 L 75.0,-1280.4 L 77.7,-1282.0 L 80.5,-1283.6 L 83.3,-1285.0 L 86.2,-1286.4 L 89.1,-1287.7 L 92.0,-1288.9 L 95.0,-1290.0 L 98.0,-1291.0 L 101.1,-1291.9 L 104.1,-1292.6 L 107.2,-1293.3 L 110.4,-1293.8 L 113.5,-1294.1 L 116.7,-1294.3 L 119.9,-1294.3 L 123.0,-1294.1 L 126.2,-1293.8 L 129.3,-1293.3 L 132.4,-1292.6 L 135.5,-1291.9 L 138.5,-1291.0 L 141.5,-1290.0 L 144.5,-1288.9 L 147.5,-1287.7 L 150.4,-1286.4 L 153.2,-1285.0 L 156.1,-1283.6 L 158.9,-1282.1 L 161.6,-1280.6 L 164.4,-1279.0 L 167.1,-1277.4 L 169.8,-1275.8 L 172.5,-1274.1 L 175.2,-1272.4 L 177.9,-1270.6 L 180.5,-1268.9 L 183.2,-1267.2 L 185.8,-1265.4 L 188.4,-1263.6 L 191.1,-1261.9 L 193.7,-1260.1 L 196.4,-1258.4 L 199.0,-1256.6 L 201.7,-1254.9 L 204.4,-1253.2 L 207.1,-1251.5 L 209.8,-1249.9 L 212.5,-1248.3 L 215.2,-1246.7 L 218.0,-1245.2 L 220.8,-1243.7 L 223.7,-1242.3 L 226.5,-1240.9 L 229.4,-1239.6 L 232.3,-1238.3 L 235.3,-1237.2 L 238.3,-1236.1 L 241.3,-1235.1 L 244.3,-1234.2 L 247.4,-1233.5 L 250.5,-1232.8 L 253.6,-1232.3 L 256.8,-1231.8 L 259.9,-1231.5 L 263.1,-1231.4 L 266.3,-1231.3 L 269.4,-1231.4 L 272.6,-1231.7 L 275.7,-1232.0 L 278.9,-1232.5 L 282.0,-1233.1 L 285.1,-1233.8 L 288.2,-1234.6 L 291.2,-1235.5 L 294.2,-1236.5 L 297.2,-1237.5 L 300.2,-1238.7 L 303.1,-1239.9 L 306.0,-1241.2 L 308.8,-1242.6 L 311.6,-1244.1 L 314.4,-1245.6 L 317.2,-1247.1 L 319.9,-1248.8 L 322.6,-1250.4 L 325.3,-1252.1 L 327.9,-1253.9 L 330.5,-1255.7 L 333.1,-1257.6 L 335.6,-1259.5 L 338.2,-1261.4 L 340.6,-1263.4 L 343.1,-1265.4 L 345.5,-1267.4 L 347.9,-1269.5 L 350.3,-1271.6 L 352.6,-1273.7 L 355.0,-1275.9 L 357.2,-1278.1 L 359.5,-1280.3 L 361.7,-1282.6 L 363.9,-1284.9 L 366.1,-1287.2 L 368.2,-1289.5 L 370.3,-1291.9 L 372.4,-1294.3" stroke="#FF6B6B" stroke-width="6" fill="none" opacity="0.85"/>
  <circle cx="33.4" cy="-1230.3" r="10" fill="#FF6B6B"/>
  <circle cx="372.4" cy="-1294.3" r="6" fill="#FF6B6B" opacity="0.6"/>
  <text x="51.4" y="-1248.3" fill="#FF6B6B" font-size="36" font-family="monospace">1</text>
  <path d="M 371.4,-1293.3 L 371.4,-1280.9 L 371.4,-1268.4 L 371.4,-1255.9 L 371.4,-1243.4 L 371.4,-1230.9 L 371.4,-1218.5 L 371.4,-1206.0 L 371.4,-1193.5 L 371.4,-1181.0 L 371.4,-1168.6 L 371.4,-1156.1 L 371.4,-1143.6 L 371.4,-1131.1 L 371.4,-1118.6 L 371.4,-1106.2 L 371.4,-1093.7 L 371.4,-1081.2 L 371.4,-1068.7 L 371.4,-1056.3 L 371.4,-1043.8 L 371.4,-1031.3 L 371.4,-1018.8 L 371.4,-1006.4 L 371.4,-993.9 L 371.4,-981.4 L 371.4,-968.9 L 371.4,-956.4 L 371.4,-944.0 L 371.4,-931.5 L 371.4,-919.0 L 371.4,-906.5 L 371.4,-894.1 L 371.4,-881.6 L 371.4,-869.1 L 371.4,-856.6 L 371.4,-844.1 L 371.4,-831.7 L 371.4,-819.2 L 371.4,-806.7 L 371.4,-794.2 L 371.4,-781.8 L 371.4,-769.3 L 371.4,-756.8 L 371.4,-744.3 L 371.4,-731.9 L 371.4,-719.4 L 371.4,-706.9 L 371.4,-694.4 L 371.4,-681.9 L 371.4,-669.5 L 371.4,-657.0 L 371.4,-644.5 L 371.4,-632.0 L 371.4,-619.6 L 371.4,-607.1 L 371.4,-594.6 L 371.4,-582.1 L 371.4,-569.6 L 371.4,-557.2 L 371.4,-544.7 L 371.4,-532.2 L 371.4,-519.7 L 371.4,-507.3 L 371.4,-494.8 L 371.4,-482.3 L 371.4,-469.8 L 371.4,-457.4 L 371.4,-444.9 L 371.4,-432.4 L 371.4,-419.9 L 371.4,-407.4 L 371.4,-395.0 L 371.4,-382.5 L 371.4,-370.0 L 371.4,-357.5 L 371.4,-345.1 L 371.4,-332.6 L 371.4,-320.1 L 371.4,-307.6 L 371.4,-295.1 L 371.4,-282.7 L 371.4,-270.2 L 371.4,-257.7 L 371.4,-245.2 L 371.4,-232.8 L 371.4,-220.3 L 371.4,-207.8 L 371.4,-195.3 L 371.4,-182.9 L 371.2,-170.4 L 370.5,-157.9 L 369.3,-145.5 L 367.6,-133.1 L 365.2,-120.9 L 362.1,-108.8 L 358.3,-96.9 L 353.7,-85.3 L 348.2,-74.2 L 341.7,-63.5 L 334.3,-53.5 L 325.9,-44.2 L 316.7,-35.8 L 306.7,-28.4 L 296.0,-21.9 L 284.8,-16.4 L 273.2,-11.9 L 261.3,-8.2 L 249.1,-5.3 L 236.9,-3.1 L 224.5,-1.6 L 212.0,-0.7 L 199.6,-0.3 L 187.1,-0.4 L 174.6,-0.9 L 162.2,-2.0 L 149.8,-3.7 L 137.6,-6.0 L 125.5,-9.1 L 113.7,-13.1 L 102.2,-17.9 L 91.1,-23.7 L 80.7,-30.5 L 70.9,-38.3 L 62.0,-47.0 L 54.0,-56.5 L 46.9,-66.8 L 40.8,-77.7" stroke="#4ECDC4" stroke-width="6" fill="none" opacity="0.85"/>
  <circle cx="371.4" cy="-1293.3" r="10" fill="#4ECDC4"/>
  <circle cx="40.8" cy="-77.7" r="6" fill="#4ECDC4" opacity="0.6"/>
  <text x="389.4" y="-1311.3" fill="#4ECDC4" font-size="36" font-family="monospace">2</text>
  <path d="M 897.0,-1295.0 L 893.2,-1289.7 L 889.3,-1284.3 L 885.5,-1279.0 L 881.6,-1273.6 L 877.8,-1268.3 L 874.0,-1262.9 L 870.1,-1257.6 L 866.3,-1252.3 L 862.4,-1246.9 L 858.6,-1241.6 L 854.7,-1236.2 L 850.9,-1230.9 L 847.0,-1225.6 L 843.2,-1220.2 L 839.4,-1214.9 L 835.5,-1209.5 L 831.7,-1204.2 L 827.8,-1198.9 L 824.0,-1193.5 L 820.1,-1188.2 L 816.3,-1182.8 L 812.4,-1177.5 L 808.6,-1172.2 L 804.7,-1166.8 L 800.9,-1161.5 L 797.0,-1156.2 L 793.2,-1150.8 L 789.3,-1145.5 L 785.5,-1140.2 L 781.6,-1134.8 L 777.8,-1129.5 L 773.9,-1124.1 L 770.1,-1118.8 L 766.2,-1113.5 L 762.4,-1108.1 L 758.5,-1102.8 L 754.7,-1097.5 L 750.8,-1092.1 L 747.0,-1086.8 L 743.1,-1081.5 L 739.3,-1076.1 L 735.4,-1070.8 L 731.6,-1065.5 L 727.7,-1060.1 L 723.9,-1054.8 L 720.0,-1049.5 L 716.1,-1044.1 L 712.3,-1038.8 L 708.4,-1033.5 L 704.6,-1028.1 L 700.7,-1022.8 L 696.9,-1017.5 L 693.0,-1012.1 L 689.1,-1006.8 L 685.3,-1001.5 L 681.4,-996.2 L 677.6,-990.8 L 673.7,-985.5 L 669.8,-980.2 L 666.0,-974.8 L 662.1,-969.5 L 658.3,-964.2 L 654.4,-958.9 L 650.5,-953.5 L 646.7,-948.2 L 642.8,-942.9 L 639.0,-937.5 L 635.1,-932.2 L 631.2,-926.9 L 627.4,-921.6 L 623.5,-916.2 L 619.6,-910.9 L 615.8,-905.6 L 611.9,-900.3 L 608.0,-894.9 L 604.2,-889.6 L 600.3,-884.3 L 596.4,-879.0 L 592.6,-873.7 L 588.7,-868.3 L 584.8,-863.0 L 580.9,-857.7 L 577.1,-852.4 L 573.2,-847.0 L 569.3,-841.7 L 565.5,-836.4 L 561.6,-831.1 L 557.7,-825.8 L 553.8,-820.5 L 550.0,-815.1 L 546.1,-809.8 L 542.2,-804.5 L 538.3,-799.2 L 534.5,-793.9 L 530.6,-788.5 L 526.7,-783.2 L 522.8,-777.9 L 518.9,-772.6 L 515.1,-767.3 L 511.2,-762.0 L 507.3,-756.7 L 503.4,-751.4 L 499.5,-746.0 L 495.6,-740.7 L 491.8,-735.4 L 487.9,-730.1 L 484.0,-724.8 L 480.1,-719.5 L 476.1,-714.2 L 472.1,-709.0 L 468.0,-703.9 L 463.8,-698.8 L 459.6,-693.8 L 455.2,-688.9 L 450.7,-684.1 L 446.1,-679.4 L 441.3,-674.8 L 436.4,-670.5 L 431.3,-666.3 L 426.0,-662.5 L 420.4,-658.9 L 414.7,-655.8 L 408.7,-653.0 L 402.5,-650.9 L 396.1,-649.3 L 389.6,-648.3 L 383.0,-648.0" stroke="#45B7D1" stroke-width="6" fill="none" opacity="0.85"/>
  <circle cx="897.0" cy="-1295.0" r="10" fill="#45B7D1"/>
  <circle cx="383.0" cy="-648.0" r="6" fill="#45B7D1" opacity="0.6"/>
  <text x="915.0" y="-1313.0" fill="#45B7D1" font-size="36" font-family="monospace">3</text>
  <path d="M 383.0,-648.0 L 391.4,-647.5 L 399.7,-646.0 L 407.7,-643.5 L 415.5,-640.3 L 422.9,-636.3 L 429.9,-631.7 L 436.6,-626.6 L 443.0,-621.2 L 449.1,-615.4 L 455.0,-609.3 L 460.5,-603.0 L 465.9,-596.5 L 471.1,-589.9 L 476.0,-583.1 L 480.8,-576.2 L 485.8,-569.4 L 490.7,-562.6 L 495.7,-555.8 L 500.6,-549.0 L 505.5,-542.2 L 510.5,-535.4 L 515.4,-528.6 L 520.4,-521.8 L 525.3,-514.9 L 530.2,-508.1 L 535.2,-501.3 L 540.1,-494.5 L 545.1,-487.7 L 550.0,-480.9 L 554.9,-474.1 L 559.9,-467.3 L 564.8,-460.5 L 569.8,-453.7 L 574.7,-446.8 L 579.6,-440.0 L 584.6,-433.2 L 589.5,-426.4 L 594.5,-419.6 L 599.4,-412.8 L 604.3,-406.0 L 609.3,-399.2 L 614.2,-392.4 L 619.1,-385.6 L 624.1,-378.7 L 629.0,-371.9 L 634.0,-365.1 L 638.9,-358.3 L 643.8,-351.5 L 648.8,-344.7 L 653.7,-337.9 L 658.6,-331.1 L 663.6,-324.3 L 668.5,-317.4 L 673.5,-310.6 L 678.4,-303.8 L 683.3,-297.0 L 688.3,-290.2 L 693.2,-283.4 L 698.1,-276.6 L 703.1,-269.8 L 708.0,-263.0 L 713.0,-256.1 L 717.9,-249.3 L 722.8,-242.5 L 727.8,-235.7 L 732.7,-228.9 L 737.6,-222.1 L 742.6,-215.3 L 747.5,-208.5 L 752.5,-201.7 L 757.4,-194.8 L 762.3,-188.0 L 767.3,-181.2 L 772.2,-174.4 L 777.1,-167.6 L 782.1,-160.8 L 787.0,-154.0 L 792.0,-147.2 L 796.9,-140.4 L 801.8,-133.6 L 806.8,-126.7 L 811.7,-119.9 L 816.6,-113.1 L 821.6,-106.3 L 826.5,-99.5 L 831.5,-92.7 L 836.4,-85.9 L 841.3,-79.1 L 846.3,-72.3 L 851.2,-65.5 L 856.2,-58.6 L 861.1,-51.8 L 866.0,-45.0 L 871.0,-38.2 L 876.2,-31.6 L 881.9,-25.4 L 888.1,-19.8 L 894.9,-14.9 L 902.2,-10.6 L 909.8,-7.1 L 917.8,-4.3 L 925.9,-2.3 L 934.2,-0.9 L 942.6,-0.2 L 951.0,-0.0 L 959.4,-0.7 L 967.6,-2.5 L 975.5,-5.4 L 982.9,-9.4 L 989.7,-14.3 L 996.0,-20.0 L 1001.7,-26.1 L 1006.9,-32.7 L 1011.7,-39.6 L 1016.1,-46.8 L 1020.3,-54.1 L 1024.2,-61.5 L 1028.0,-69.0 L 1031.7,-76.6 L 1035.4,-84.1 L 1039.1,-91.7 L 1042.8,-99.2 L 1046.6,-106.8 L 1050.3,-114.3 L 1054.0,-121.9 L 1057.7,-129.4 L 1061.4,-137.0" stroke="#96CEB4" stroke-width="6" fill="none" opacity="0.85"/>
  <circle cx="383.0" cy="-648.0" r="10" fill="#96CEB4"/>
  <circle cx="1061.4" cy="-137.0" r="6" fill="#96CEB4" opacity="0.6"/>
  <text x="401.0" y="-666.0" fill="#96CEB4" font-size="36" font-family="monospace">4</text>
</svg>