<?xml version="1.0" encoding="UTF-8"?>
<svg xmlns="http://www.w3.org/2000/svg" viewBox="-200 -1495.9680118128292 1600 2377.96801181283">
  <title>cogncur strokes for M</title>
  <line x1="-200" y1="0" x2="1400" y2="0" stroke="#2F3A56" stroke-width="4" opacity="0.55"/>
  <line x1="-200" y1="-614.0003000000003" x2="1400" y2="-614.0003000000003" stroke="#457B9D" stroke-width="3" opacity="0.5" stroke-dasharray="24 14"/>
  <line x1="-200" y1="-1295.9680118128292" x2="1400" y2="-1295.9680118128292" stroke="#2F3A56" stroke-width="4" opacity="0.45"/>
  <line x1="-200" y1="682.0000000000005" x2="1400" y2="682.0000000000005" stroke="#ADB5BD" stroke-width="2" opacity="0.35"/>
  <path d="M 34.4,-35.0 L 41.9,-26.3 L 50.4,-18.6 L 59.9,-12.2 L 70.2,-7.1 L 81.1,-3.5 L 92.4,-1.2 L 103.8,-0.1 L 115.3,-0.1 L 126.8,-1.1 L 138.1,-3.2 L 149.0,-6.7 L 159.5,-11.5 L 169.1,-17.8 L 177.9,-25.2 L 185.6,-33.7 L 192.4,-43.0 L 198.2,-52.9 L 203.2,-63.3 L 207.5,-73.9 L 211.2,-84.8 L 214.4,-95.9 L 217.2,-107.0 L 219.6,-118.3 L 221.7,-129.6 L 223.8,-140.9 L 225.8,-152.2 L 227.8,-163.5 L 229.8,-174.9 L 231.8,-186.2 L 233.8,-197.5 L 235.8,-208.8 L 237.8,-220.2 L 239.8,-231.5 L 241.8,-242.8 L 243.8,-254.1 L 245.8,-265.5 L 247.8,-276.8 L 249.8,-288.1 L 251.8,-299.4 L 253.8,-310.8 L 255.8,-322.1 L 257.8,-333.4 L 259.8,-344.7 L 261.8,-356.1 L 263.8,-367.4 L 265.8,-378.7 L 267.8,-390.0 L 269.8,-401.4 L 271.8,-412.7 L 273.8,-424.0 L 275.8,-435.3 L 277.8,-446.7 L 279.8,-458.0 L 281.8,-469.3 L 283.8,-480.6 L 285.8,-492.0 L 287.8,-503.3 L 289.8,-514.6 L 291.8,-525.9 L 293.8,-537.3 L 295.8,-548.6 L 297.8,-559.9 L 299.8,-571.2 L 301.8,-582.6 L 303.8,-593.9 L 305.9,-605.2 L 307.9,-616.5 L 309.9,-627.9 L 311.9,-639.2 L 313.9,-650.5 L 315.9,-661.8 L 317.9,-673.2 L 319.9,-684.5 L 321.9,-695.8 L 323.9,-707.1 L 325.9,-718.4 L 327.9,-729.8 L 329.9,-741.1 L 331.9,-752.4 L 333.9,-763.7 L 335.9,-775.1 L 337.9,-786.4 L 339.9,-797.7 L 341.9,-809.0 L 343.9,-820.4 L 345.9,-831.7 L 347.9,-843.0 L 349.9,-854.3 L 351.9,-865.7 L 353.9,-877.0 L 355.9,-888.3 L 357.9,-899.6 L 359.9,-911.0 L 361.9,-922.3 L 363.9,-933.6 L 365.9,-944.9 L 367.9,-956.3 L 369.9,-967.6 L 371.9,-978.9 L 373.9,-990.2 L 375.9,-1001.6 L 377.9,-1012.9 L 379.9,-1024.2 L 381.9,-1035.5 L 383.9,-1046.9 L 385.9,-1058.2 L 388.0,-1069.5 L 390.0,-1080.8 L 392.0,-1092.2 L 394.0,-1103.5 L 396.0,-1114.8 L 398.0,-1126.1 L 400.0,-1137.5 L 402.0,-1148.8 L 404.0,-1160.1 L 406.0,-1171.4 L 408.0,-1182.8 L 410.0,-1194.1 L 412.0,-1205.4 L 414.0,-1216.7 L 416.0,-1228.1 L 418.0,-1239.4 L 420.0,-1250.7 L 422.0,-1262.0 L 424.0,-1273.4 L 426.0,-1284.7 L 428.0,-1296.0" stroke="#FF6B6B" stroke-width="6" fill="none" opacity="0.85"/>
  <circle cx="34.4" cy="-35.0" r="10" fill="#FF6B6B"/>
  <circle cx="428.0" cy="-1296.0" r="6" fill="#FF6B6B" opacity="0.6"/>
  <text x="52.4" y="-53.0" fill="#FF6B6B" font-size="36" font-family="monospace">1</text>
  <path d="M 428.0,-1296.0 L 431.4,-1285.8 L 434.9,-1275.6 L 438.3,-1265.4 L 441.8,-1255.2 L 445.2,-1245.0 L 448.7,-1234.7 L 452.1,-1224.5 L 455.5,-1214.3 L 459.0,-1204.1 L 462.4,-1193.9 L 465.9,-1183.7 L 469.3,-1173.5 L 472.8,-1163.3 L 476.2,-1153.1 L 479.6,-1142.9 L 483.1,-1132.7 L 486.5,-1122.4 L 490.0,-1112.2 L 493.4,-1102.0 L 496.9,-1091.8 L 500.3,-1081.6 L 503.8,-1071.4 L 507.2,-1061.2 L 510.6,-1051.0 L 514.1,-1040.8 L 517.5,-1030.6 L 521.0,-1020.4 L 524.4,-1010.1 L 527.9,-999.9 L 531.3,-989.7 L 534.8,-979.5 L 538.2,-969.3 L 541.7,-959.1 L 545.1,-948.9 L 548.5,-938.7 L 552.0,-928.5 L 555.4,-918.3 L 558.9,-908.1 L 562.3,-897.9 L 565.8,-887.6 L 569.2,-877.4 L 572.7,-867.2 L 576.1,-857.0 L 579.6,-846.8 L 583.0,-836.6 L 586.5,-826.4 L 589.9,-816.2 L 593.3,-806.0 L 596.8,-795.8 L 600.2,-785.6 L 603.7,-775.4 L 607.1,-765.1 L 610.6,-754.9 L 614.0,-744.7 L 617.5,-734.5 L 620.9,-724.3 L 624.4,-714.1 L 627.8,-703.9 L 631.3,-693.7 L 634.7,-683.5 L 638.2,-673.3 L 641.6,-663.1 L 645.1,-652.9 L 648.5,-642.7 L 652.0,-632.5 L 655.4,-622.2 L 658.9,-612.0 L 662.3,-601.8 L 665.8,-591.6 L 669.2,-581.4 L 672.7,-571.2 L 676.1,-561.0 L 679.6,-550.8 L 683.0,-540.6 L 686.5,-530.4 L 689.9,-520.2 L 693.4,-510.0 L 696.8,-499.8 L 700.3,-489.6 L 703.7,-479.4 L 707.2,-469.1 L 710.6,-458.9 L 714.1,-448.7 L 717.5,-438.5 L 721.0,-428.3 L 724.4,-418.1 L 727.9,-407.9 L 731.3,-397.7 L 734.8,-387.5 L 738.2,-377.3 L 741.7,-367.1 L 745.2,-356.9 L 748.6,-346.7 L 752.1,-336.5 L 755.5,-326.3 L 759.0,-316.1 L 762.4,-305.9 L 765.9,-295.7 L 769.4,-285.4 L 772.8,-275.2 L 776.3,-265.0 L 779.7,-254.8 L 783.2,-244.6 L 786.7,-234.4 L 790.1,-224.2 L 793.6,-214.0 L 797.0,-203.8 L 800.5,-193.6 L 804.0,-183.4 L 807.4,-173.2 L 810.9,-163.0 L 814.4,-152.8 L 817.8,-142.6 L 821.3,-132.4 L 824.8,-122.2 L 828.2,-112.0 L 831.7,-101.8 L 835.2,-91.6 L 838.7,-81.4 L 842.2,-71.2 L 845.6,-61.0 L 849.1,-50.8 L 852.6,-40.6 L 856.1,-30.5 L 859.7,-20.3 L 863.2,-10.1 L 866.9,0.0" stroke="#4ECDC4" stroke-width="6" fill="none" opacity="0.85"/>
  <circle cx="428.0" cy="-1296.0" r="10" fill="#4ECDC4"/>
  <circle cx="866.9" cy="0.0" r="6" fill="#4ECDC4" opacity="0.6"/>
  <text x="446.0" y="-1314.0" fill="#4ECDC4" font-size="36" font-family="monospace">2</text>
  <path d="M 866.9,-0.0 L 870.6,-10.1 L 874.1,-20.3 L 877.7,-30.5 L 881.2,-40.7 L 884.7,-50.9 L 888.2,-61.0 L 891.6,-71.2 L 895.1,-81.4 L 898.6,-91.6 L 902.1,-101.8 L 905.6,-112.0 L 909.0,-122.2 L 912.5,-132.4 L 916.0,-142.6 L 919.4,-152.8 L 922.9,-163.0 L 926.4,-173.2 L 929.8,-183.4 L 933.3,-193.6 L 936.8,-203.8 L 940.2,-214.0 L 943.7,-224.2 L 947.2,-234.4 L 950.6,-244.6 L 954.1,-254.8 L 957.5,-265.1 L 961.0,-275.3 L 964.5,-285.5 L 967.9,-295.7 L 971.4,-305.9 L 974.8,-316.1 L 978.3,-326.3 L 981.7,-336.5 L 985.2,-346.7 L 988.7,-356.9 L 992.1,-367.1 L 995.6,-377.3 L 999.0,-387.5 L 1002.5,-397.7 L 1005.9,-407.9 L 1009.4,-418.1 L 1012.8,-428.3 L 1016.3,-438.5 L 1019.7,-448.7 L 1023.2,-458.9 L 1026.6,-469.2 L 1030.1,-479.4 L 1033.5,-489.6 L 1037.0,-499.8 L 1040.4,-510.0 L 1043.9,-520.2 L 1047.3,-530.4 L 1050.8,-540.6 L 1054.2,-550.8 L 1057.7,-561.0 L 1061.1,-571.2 L 1064.6,-581.4 L 1068.0,-591.6 L 1071.5,-601.8 L 1074.9,-612.0 L 1078.4,-622.2 L 1081.8,-632.5 L 1085.3,-642.7 L 1088.7,-652.9 L 1092.2,-663.1 L 1095.6,-673.3 L 1099.1,-683.5 L 1102.5,-693.7 L 1106.0,-703.9 L 1109.4,-714.1 L 1112.9,-724.3 L 1116.3,-734.5 L 1119.8,-744.7 L 1123.2,-754.9 L 1126.7,-765.2 L 1130.1,-775.4 L 1133.6,-785.6 L 1137.0,-795.8 L 1140.4,-806.0 L 1143.9,-816.2 L 1147.3,-826.4 L 1150.8,-836.6 L 1154.2,-846.8 L 1157.7,-857.0 L 1161.1,-867.2 L 1164.6,-877.4 L 1168.0,-887.6 L 1171.5,-897.9 L 1174.9,-908.1 L 1178.3,-918.3 L 1181.8,-928.5 L 1185.2,-938.7 L 1188.7,-948.9 L 1192.1,-959.1 L 1195.6,-969.3 L 1199.0,-979.5 L 1202.5,-989.7 L 1205.9,-999.9 L 1209.4,-1010.1 L 1212.8,-1020.4 L 1216.2,-1030.6 L 1219.7,-1040.8 L 1223.1,-1051.0 L 1226.6,-1061.2 L 1230.0,-1071.4 L 1233.5,-1081.6 L 1236.9,-1091.8 L 1240.3,-1102.0 L 1243.8,-1112.2 L 1247.2,-1122.4 L 1250.7,-1132.7 L 1254.1,-1142.9 L 1257.6,-1153.1 L 1261.0,-1163.3 L 1264.5,-1173.5 L 1267.9,-1183.7 L 1271.3,-1193.9 L 1274.8,-1204.1 L 1278.2,-1214.3 L 1281.7,-1224.5 L 1285.1,-1234.7 L 1288.5,-1245.0 L 1292.0,-1255.2 L 1295.4,-1265.4 L 1298.9,-1275.6 L 1302.3,-1285.8 L 1305.8,-1296.0" stroke="#45B7D1" stroke-width="6" fill="none" opacity="0.85"/>
  <circle cx="866.9" cy="-0.0" r="10" fill="#45B7D1"/>
  <circle cx="1305.8" cy="-1296.0" r="6" fill="#45B7D1" opacity="0.6"/>
  <text x="884.9" y="-18.0" fill="#45B7D1" font-size="36" font-family="monospace">3</text>
  <path d="M 1305.8,-1296.0 L 1307.8,-1284.7 L 1309.8,-1273.4 L 1311.8,-1262.1 L 1313.8,-1250.8 L 1315.8,-1239.4 L 1317.8,-1228.1 L 1319.9,-1216.8 L 1321.9,-1205.5 L 1323.9,-1194.2 L 1325.9,-1182.9 L 1327.9,-1171.6 L 1329.9,-1160.2 L 1331.9,-1148.9 L 1333.9,-1137.6 L 1335.9,-1126.3 L 1338.0,-1115.0 L 1340.0,-1103.7 L 1342.0,-1092.4 L 1344.0,-1081.0 L 1346.0,-1069.7 L 1348.0,-1058.4 L 1350.0,-1047.1 L 1352.0,-1035.8 L 1354.0,-1024.5 L 1356.0,-1013.2 L 1358.0,-1001.9 L 1360.1,-990.5 L 1362.1,-979.2 L 1364.1,-967.9 L 1366.1,-956.6 L 1368.1,-945.3 L 1370.1,-934.0 L 1372.1,-922.7 L 1374.1,-911.3 L 1376.1,-900.0 L 1378.1,-888.7 L 1380.1,-877.4 L 1382.1,-866.1 L 1384.1,-854.8 L 1386.1,-843.5 L 1388.2,-832.1 L 1390.2,-820.8 L 1392.2,-809.5 L 1394.2,-798.2 L 1396.2,-786.9 L 1398.2,-775.6 L 1400.2,-764.3 L 1402.2,-752.9 L 1404.2,-741.6 L 1406.2,-730.3 L 1408.2,-719.0 L 1410.2,-707.7 L 1412.2,-696.4 L 1414.2,-685.1 L 1416.2,-673.7 L 1418.2,-662.4 L 1420.2,-651.1 L 1422.2,-639.8 L 1424.2,-628.5 L 1426.2,-617.2 L 1428.2,-605.9 L 1430.2,-594.5 L 1432.2,-583.2 L 1434.2,-571.9 L 1436.2,-560.6 L 1438.2,-549.3 L 1440.3,-538.0 L 1442.3,-526.6 L 1444.3,-515.3 L 1446.3,-504.0 L 1448.3,-492.7 L 1450.3,-481.4 L 1452.3,-470.1 L 1454.3,-458.8 L 1456.3,-447.4 L 1458.3,-436.1 L 1460.3,-424.8 L 1462.3,-413.5 L 1464.2,-402.2 L 1466.2,-390.9 L 1468.2,-379.5 L 1470.2,-368.2 L 1472.2,-356.9 L 1474.2,-345.6 L 1476.2,-334.3 L 1478.2,-323.0 L 1480.2,-311.7 L 1482.2,-300.3 L 1484.2,-289.0 L 1486.2,-277.7 L 1488.2,-266.4 L 1490.2,-255.1 L 1492.2,-243.8 L 1494.2,-232.4 L 1496.2,-221.1 L 1498.2,-209.8 L 1500.2,-198.5 L 1502.2,-187.2 L 1504.1,-175.9 L 1506.1,-164.5 L 1508.1,-153.2 L 1510.1,-141.9 L 1512.1,-130.6 L 1514.3,-119.3 L 1516.7,-108.1 L 1519.4,-96.9 L 1522.6,-85.8 L 1526.2,-74.9 L 1530.3,-64.2 L 1535.2,-53.8 L 1540.9,-43.9 L 1547.5,-34.5 L 1555.1,-25.9 L 1563.7,-18.3 L 1573.3,-12.0 L 1583.7,-7.0 L 1594.6,-3.4 L 1605.9,-1.2 L 1617.3,-0.1 L 1628.8,-0.1 L 1640.2,-1.1 L 1651.5,-3.4 L 1662.4,-7.0 L 1672.7,-12.1 L 1682.1,-18.6 L 1690.6,-26.3 L 1698.1,-35.0" stroke="#96CEB4" stroke-width="6" fill="none" opacity="0.85"/>
  <circle cx="1305.8" cy="-1296.0" r="10" fill="#96CEB4"/>
  <circle cx="1698.1" cy="-35.0" r="6" fill="#96CEB4" opacity="0.6"/>
  <text x="1323.8" y="-1314.0" fill="#96CEB4" font-size="36" font-family="monospace">4</text>
</svg>