<?xml version="1.0" encoding="UTF-8"?>
<svg xmlns="http://www.w3.org/2000/svg" viewBox="-200 -1495.9680118128292 1600 2377.96801181283">
  <title>cogncur strokes for N</title>
  <line x1="-200" y1="0" x2="1400" y2="0" stroke="#2F3A56" stroke-width="4" opacity="0.55"/>
  <line x1="-200" y1="-614.0003000000003" x2="1400" y2="-614.0003000000003" stroke="#457B9D" stroke-width="3" opacity="0.5" stroke-dasharray="24 14"/>
  <line x1="-200" y1="-1295.9680118128292" x2="1400" y2="-1295.9680118128292" stroke="#2F3A56" stroke-width="4" opacity="0.45"/>
  <line x1="-200" y1="682.0000000000005" x2="1400" y2="682.0000000000005" stroke="#ADB5BD" stroke-width="2" opacity="0.35"/>
  <path d="M 33.3,-35.0 L 40.7,-26.4 L 49.1,-18.8 L 58.4,-12.4 L 68.6,-7.3 L 79.4,-3.7 L 90.5,-1.3 L 101.8,-0.2 L 113.1,-0.0 L 124.4,-0.9 L 135.6,-2.9 L 146.5,-6.1 L 156.9,-10.7 L 166.6,-16.6 L 175.4,-23.7 L 183.3,-31.8 L 190.2,-40.8 L 196.2,-50.5 L 201.3,-60.6 L 205.6,-71.1 L 209.3,-81.9 L 212.3,-92.8 L 214.8,-103.9 L 216.8,-115.1 L 218.4,-126.3 L 219.6,-137.6 L 220.5,-148.9 L 221.1,-160.3 L 221.5,-171.6 L 221.5,-183.0 L 221.5,-194.4 L 221.6,-205.7 L 221.6,-217.1 L 221.6,-228.4 L 221.6,-239.8 L 221.6,-251.1 L 221.6,-262.5 L 221.6,-273.9 L 221.6,-285.2 L 221.6,-296.6 L 221.6,-307.9 L 221.6,-319.3 L 221.6,-330.6 L 221.6,-342.0 L 221.6,-353.4 L 221.6,-364.7 L 221.6,-376.1 L 221.6,-387.4 L 221.6,-398.8 L 221.6,-410.1 L 221.6,-421.5 L 221.6,-432.9 L 221.6,-444.2 L 221.6,-455.6 L 221.6,-466.9 L 221.6,-478.3 L 221.7,-489.6 L 221.7,-501.0 L 221.7,-512.4 L 221.7,-523.7 L 221.7,-535.1 L 221.7,-546.4 L 221.7,-557.8 L 221.7,-569.1 L 221.7,-580.5 L 221.7,-591.9 L 221.7,-603.2 L 221.7,-614.6 L 221.7,-625.9 L 221.7,-637.3 L 221.7,-648.6 L 221.7,-660.0 L 221.7,-671.4 L 221.7,-682.7 L 221.7,-694.1 L 221.7,-705.4 L 221.7,-716.8 L 221.7,-728.1 L 221.8,-739.5 L 221.8,-750.9 L 221.8,-762.2 L 221.8,-773.6 L 221.8,-784.9 L 221.8,-796.3 L 221.8,-807.6 L 221.8,-819.0 L 221.8,-830.4 L 221.8,-841.7 L 221.8,-853.1 L 221.8,-864.4 L 221.8,-875.8 L 221.8,-887.1 L 221.8,-898.5 L 221.8,-909.9 L 221.8,-921.2 L 221.8,-932.6 L 221.8,-943.9 L 221.8,-955.3 L 221.8,-966.6 L 221.8,-978.0 L 221.9,-989.4 L 221.9,-1000.7 L 221.9,-1012.1 L 221.9,-1023.4 L 221.9,-1034.8 L 221.9,-1046.1 L 221.9,-1057.5 L 221.9,-1068.9 L 221.9,-1080.2 L 221.9,-1091.6 L 221.9,-1102.9 L 221.9,-1114.3 L 221.9,-1125.6 L 221.9,-1137.0 L 221.9,-1148.4 L 221.9,-1159.7 L 221.9,-1171.1 L 221.9,-1182.4 L 221.9,-1193.8 L 221.9,-1205.1 L 221.9,-1216.5 L 222.0,-1227.9 L 222.0,-1239.2 L 222.0,-1250.6 L 222.0,-1261.9 L 222.0,-1273.3 L 222.0,-1284.6 L 222.0,-1296.0" stroke="#FF6B6B" stroke-width="6" fill="none" opacity="0.85"/>
  <circle cx="33.3" cy="-35.0" r="10" fill="#FF6B6B"/>
  <circle cx="222.0" cy="-1296.0" r="6" fill="#FF6B6B" opacity="0.6"/>
  <text x="51.3" y="-53.0" fill="#FF6B6B" font-size="36" font-family="monospace">1</text>
  <path d="M 222.0,-1296.0 L 229.0,-1285.8 L 236.0,-1275.6 L 243.0,-1265.4 L 250.0,-1255.2 L 257.0,-1245.0 L 264.0,-1234.8 L 271.0,-1224.6 L 278.1,-1214.4 L 285.1,-1204.2 L 292.1,-1194.0 L 299.1,-1183.7 L 306.1,-1173.5 L 313.1,-1163.3 L 320.1,-1153.1 L 327.1,-1142.9 L 334.1,-1132.7 L 341.1,-1122.5 L 348.1,-1112.3 L 355.1,-1102.1 L 362.2,-1091.9 L 369.2,-1081.7 L 376.2,-1071.5 L 383.2,-1061.3 L 390.2,-1051.1 L 397.2,-1040.9 L 404.2,-1030.7 L 411.2,-1020.5 L 418.2,-1010.3 L 425.2,-1000.1 L 432.2,-989.8 L 439.2,-979.6 L 446.3,-969.4 L 453.3,-959.2 L 460.3,-949.0 L 467.3,-938.8 L 474.3,-928.6 L 481.3,-918.4 L 488.3,-908.2 L 495.3,-898.0 L 502.3,-887.8 L 509.3,-877.6 L 516.3,-867.4 L 523.4,-857.2 L 530.4,-847.0 L 537.4,-836.8 L 544.4,-826.6 L 551.4,-816.4 L 558.4,-806.2 L 565.4,-796.0 L 572.4,-785.7 L 579.4,-775.5 L 586.4,-765.3 L 593.4,-755.1 L 600.4,-744.9 L 607.5,-734.7 L 614.5,-724.5 L 621.5,-714.3 L 628.5,-704.1 L 635.5,-693.9 L 642.5,-683.7 L 649.5,-673.5 L 656.5,-663.3 L 663.5,-653.1 L 670.5,-642.9 L 677.5,-632.7 L 684.5,-622.5 L 691.6,-612.3 L 698.6,-602.1 L 705.6,-591.9 L 712.6,-581.6 L 719.6,-571.4 L 726.6,-561.2 L 733.6,-551.0 L 740.6,-540.8 L 747.6,-530.6 L 754.6,-520.4 L 761.6,-510.2 L 768.7,-500.0 L 775.7,-489.8 L 782.7,-479.6 L 789.7,-469.4 L 796.7,-459.2 L 803.7,-449.0 L 810.7,-438.8 L 817.7,-428.6 L 824.7,-418.4 L 831.7,-408.2 L 838.7,-398.0 L 845.8,-387.8 L 852.8,-377.5 L 859.8,-367.3 L 866.8,-357.1 L 873.8,-346.9 L 880.8,-336.7 L 887.8,-326.5 L 894.8,-316.3 L 901.8,-306.1 L 908.8,-295.9 L 915.8,-285.7 L 922.9,-275.5 L 929.9,-265.3 L 936.9,-255.1 L 943.9,-244.9 L 950.9,-234.7 L 957.9,-224.5 L 964.9,-214.3 L 971.9,-204.1 L 978.9,-193.9 L 985.9,-183.7 L 992.9,-173.5 L 1000.0,-163.3 L 1007.0,-153.0 L 1014.0,-142.8 L 1021.0,-132.6 L 1028.0,-122.4 L 1035.0,-112.2 L 1042.0,-102.0 L 1049.0,-91.8 L 1056.0,-81.6 L 1063.0,-71.4 L 1070.1,-61.2 L 1077.1,-51.0 L 1084.1,-40.8 L 1091.1,-30.6 L 1098.1,-20.4 L 1105.1,-10.2 L 1112.1,-0.0" stroke="#4ECDC4" stroke-width="6" fill="none" opacity="0.85"/>
  <circle cx="222.0" cy="-1296.0" r="10" fill="#4ECDC4"/>
  <circle cx="1112.1" cy="-0.0" r="6" fill="#4ECDC4" opacity="0.6"/>
  <text x="240.0" y="-1314.0" fill="#4ECDC4" font-size="36" font-family="monospace">2</text>
  <path d="M 1112.1,-0.0 L 1112.1,-11.4 L 1112.1,-22.7 L 1112.1,-34.1 L 1112.1,-45.4 L 1112.1,-56.8 L 1112.1,-68.2 L 1112.1,-79.5 L 1112.1,-90.9 L 1112.1,-102.2 L 1112.1,-113.6 L 1112.1,-125.0 L 1112.1,-136.3 L 1112.1,-147.7 L 1112.1,-159.0 L 1112.1,-170.4 L 1112.1,-181.8 L 1112.1,-193.1 L 1112.1,-204.5 L 1112.1,-215.8 L 1112.0,-227.2 L 1112.0,-238.6 L 1112.0,-249.9 L 1112.0,-261.3 L 1112.0,-272.6 L 1112.0,-284.0 L 1112.0,-295.4 L 1112.0,-306.7 L 1112.0,-318.1 L 1112.0,-329.4 L 1112.0,-340.8 L 1112.0,-352.2 L 1112.0,-363.5 L 1112.0,-374.9 L 1112.0,-386.2 L 1112.0,-397.6 L 1112.0,-409.0 L 1112.0,-420.3 L 1112.0,-431.7 L 1112.0,-443.0 L 1112.0,-454.4 L 1112.0,-465.8 L 1112.0,-477.1 L 1112.0,-488.5 L 1112.0,-499.8 L 1112.0,-511.2 L 1112.0,-522.5 L 1112.0,-533.9 L 1112.0,-545.3 L 1112.0,-556.6 L 1112.0,-568.0 L 1112.0,-579.3 L 1112.0,-590.7 L 1112.0,-602.1 L 1112.0,-613.4 L 1112.0,-624.8 L 1112.0,-636.1 L 1112.0,-647.5 L 1112.0,-658.9 L 1112.0,-670.2 L 1112.0,-681.6 L 1112.0,-692.9 L 1112.0,-704.3 L 1112.0,-715.7 L 1112.0,-727.0 L 1112.0,-738.4 L 1112.0,-749.7 L 1112.0,-761.1 L 1112.0,-772.5 L 1112.0,-783.8 L 1112.0,-795.2 L 1112.0,-806.5 L 1112.0,-817.9 L 1112.0,-829.3 L 1112.0,-840.6 L 1112.0,-852.0 L 1112.0,-863.3 L 1112.0,-874.7 L 1112.0,-886.1 L 1112.0,-897.4 L 1112.0,-908.8 L 1112.0,-920.1 L 1112.0,-931.5 L 1112.0,-942.9 L 1112.0,-954.2 L 1112.0,-965.6 L 1112.0,-976.9 L 1112.0,-988.3 L 1112.0,-999.7 L 1112.0,-1011.0 L 1112.0,-1022.4 L 1112.0,-1033.7 L 1112.0,-1045.1 L 1112.0,-1056.5 L 1112.0,-1067.8 L 1112.0,-1079.2 L 1112.0,-1090.5 L 1112.0,-1101.9 L 1112.0,-1113.3 L 1112.1,-1124.6 L 1112.4,-1136.0 L 1113.0,-1147.3 L 1113.9,-1158.6 L 1115.1,-1169.9 L 1116.7,-1181.2 L 1118.8,-1192.4 L 1121.2,-1203.4 L 1124.3,-1214.4 L 1127.9,-1225.1 L 1132.2,-1235.7 L 1137.3,-1245.8 L 1143.3,-1255.5 L 1150.2,-1264.5 L 1158.1,-1272.6 L 1167.0,-1279.8 L 1176.6,-1285.7 L 1187.0,-1290.2 L 1197.9,-1293.5 L 1209.1,-1295.5 L 1220.4,-1296.3 L 1231.8,-1296.1 L 1243.1,-1295.0 L 1254.2,-1292.7 L 1264.9,-1289.0 L 1275.1,-1284.0 L 1284.5,-1277.5 L 1292.9,-1269.9 L 1300.2,-1261.3" stroke="#45B7D1" stroke-width="6" fill="none" opacity="0.85"/>
  <circle cx="1112.1" cy="-0.0" r="10" fill="#45B7D1"/>
  <circle cx="1300.2" cy="-1261.3" r="6" fill="#45B7D1" opacity="0.6"/>
  <text x="1130.1" y="-18.0" fill="#45B7D1" font-size="36" font-family="monospace">3</text>
</svg>