<?xml version="1.0" encoding="UTF-8"?>
<svg xmlns="http://www.w3.org/2000/svg" viewBox="-200 -1495.9680118128292 1600 2377.96801181283">
  <title>cogncur strokes for p</title>
  <line x1="-200" y1="0" x2="1400" y2="0" stroke="#2F3A56" stroke-width="4" opacity="0.55"/>
  <line x1="-200" y1="-614.0003000000003" x2="1400" y2="-614.0003000000003" stroke="#457B9D" stroke-width="3" opacity="0.5" stroke-dasharray="24 14"/>
  <line x1="-200" y1="-1295.9680118128292" x2="1400" y2="-1295.9680118128292" stroke="#2F3A56" stroke-width="4" opacity="0.45"/>
  <line x1="-200" y1="682.0000000000005" x2="1400" y2="682.0000000000005" stroke="#ADB5BD" stroke-width="2" opacity="0.35"/>
  <path d="M 35.4,-1.0 L 37.8,-5.8 L 40.1,-10.7 L 42.5,-15.5 L 44.9,-20.3 L 47.2,-25.2 L 49.6,-30.0 L 52.0,-34.8 L 54.3,-39.7 L 56.7,-44.5 L 59.1,-49.3 L 61.5,-54.2 L 63.8,-59.0 L 66.2,-63.9 L 68.6,-68.7 L 70.9,-73.5 L 73.3,-78.4 L 75.7,-83.2 L 78.0,-88.0 L 80.4,-92.9 L 82.8,-97.7 L 85.2,-102.5 L 87.5,-107.4 L 89.9,-112.2 L 92.3,-117.0 L 94.6,-121.9 L 97.0,-126.7 L 99.4,-131.5 L 101.7,-136.4 L 104.1,-141.2 L 106.5,-146.0 L 108.9,-150.9 L 111.2,-155.7 L 113.6,-160.5 L 116.0,-165.4 L 118.3,-170.2 L 120.7,-175.0 L 123.1,-179.9 L 125.5,-184.7 L 127.8,-189.6 L 130.2,-194.4 L 132.6,-199.2 L 134.9,-204.1 L 137.3,-208.9 L 139.7,-213.7 L 142.0,-218.6 L 144.4,-223.4 L 146.8,-228.2 L 149.2,-233.1 L 151.5,-237.9 L 153.9,-242.7 L 156.3,-247.6 L 158.6,-252.4 L 161.0,-257.2 L 163.4,-262.1 L 165.7,-266.9 L 168.1,-271.7 L 170.5,-276.6 L 172.9,-281.4 L 175.2,-286.2 L 177.6,-291.1 L 180.0,-295.9 L 182.3,-300.7 L 184.7,-305.6 L 187.1,-310.4 L 189.4,-315.3 L 191.8,-320.1 L 194.2,-324.9 L 196.6,-329.8 L 198.9,-334.6 L 201.3,-339.4 L 203.7,-344.3 L 206.0,-349.1 L 208.4,-353.9 L 210.8,-358.8 L 213.1,-363.6 L 215.5,-368.4 L 217.9,-373.3 L 220.3,-378.1 L 222.6,-382.9 L 225.0,-387.8 L 227.4,-392.6 L 229.7,-397.4 L 232.1,-402.3 L 234.5,-407.1 L 236.8,-411.9 L 239.2,-416.8 L 241.6,-421.6 L 244.0,-426.4 L 246.3,-431.3 L 248.7,-436.1 L 251.1,-441.0 L 253.4,-445.8 L 255.8,-450.6 L 258.2,-455.5 L 260.5,-460.3 L 262.9,-465.1 L 265.3,-470.0 L 267.7,-474.8 L 270.0,-479.6 L 272.4,-484.5 L 274.8,-489.3 L 277.1,-494.1 L 279.5,-499.0 L 281.9,-503.8 L 284.2,-508.6 L 286.6,-513.5 L 289.0,-518.3 L 291.4,-523.1 L 293.7,-528.0 L 296.1,-532.8 L 298.5,-537.6 L 300.8,-542.5 L 303.2,-547.3 L 305.6,-552.1 L 307.9,-557.0 L 310.3,-561.8 L 312.7,-566.7 L 315.1,-571.5 L 317.4,-576.3 L 319.8,-581.2 L 322.2,-586.0 L 324.5,-590.8 L 326.9,-595.7 L 329.3,-600.5 L 331.6,-605.3 L 334.0,-610.2 L 336.4,-615.0" stroke="#FF6B6B" stroke-width="6" fill="none" opacity="0.85"/>
  <circle cx="35.4" cy="-1.0" r="10" fill="#FF6B6B"/>
  <circle cx="336.4" cy="-615.0" r="6" fill="#FF6B6B" opacity="0.6"/>
  <text x="53.4" y="-19.0" fill="#FF6B6B" font-size="36" font-family="monospace">1</text>
  <path d="M 335.0,-614.0 L 335.0,-603.8 L 335.0,-593.6 L 335.0,-583.4 L 335.0,-573.2 L 335.0,-563.0 L 335.0,-552.8 L 335.1,-542.6 L 335.1,-532.4 L 335.1,-522.2 L 335.1,-512.0 L 335.1,-501.7 L 335.1,-491.5 L 335.1,-481.3 L 335.1,-471.1 L 335.1,-460.9 L 335.1,-450.7 L 335.1,-440.5 L 335.1,-430.3 L 335.1,-420.1 L 335.1,-409.9 L 335.1,-399.7 L 335.2,-389.5 L 335.2,-379.3 L 335.2,-369.1 L 335.2,-358.9 L 335.2,-348.7 L 335.2,-338.5 L 335.2,-328.3 L 335.2,-318.1 L 335.2,-307.9 L 335.2,-297.7 L 335.2,-287.4 L 335.2,-277.2 L 335.2,-267.0 L 335.2,-256.8 L 335.2,-246.6 L 335.2,-236.4 L 335.3,-226.2 L 335.3,-216.0 L 335.3,-205.8 L 335.3,-195.6 L 335.3,-185.4 L 335.3,-175.2 L 335.3,-165.0 L 335.3,-154.8 L 335.3,-144.6 L 335.3,-134.4 L 335.3,-124.2 L 335.3,-114.0 L 335.3,-103.8 L 335.3,-93.6 L 335.3,-83.4 L 335.3,-73.1 L 335.3,-62.9 L 335.3,-52.7 L 335.3,-42.5 L 335.3,-32.3 L 335.4,-22.1 L 335.4,-11.9 L 335.4,-1.7 L 335.4,8.5 L 335.4,18.7 L 335.4,28.9 L 335.4,39.1 L 335.4,49.3 L 335.4,59.5 L 335.4,69.7 L 335.4,79.9 L 335.4,90.1 L 335.4,100.3 L 335.4,110.5 L 335.4,120.7 L 335.4,130.9 L 335.4,141.2 L 335.4,151.4 L 335.4,161.6 L 335.4,171.8 L 335.4,182.0 L 335.4,192.2 L 335.4,202.4 L 335.4,212.6 L 335.4,222.8 L 335.4,233.0 L 335.4,243.2 L 335.4,253.4 L 335.4,263.6 L 335.4,273.8 L 335.4,284.0 L 335.4,294.2 L 335.4,304.4 L 335.4,314.6 L 335.4,324.8 L 335.4,335.0 L 335.4,345.2 L 335.4,355.5 L 335.4,365.7 L 335.4,375.9 L 335.4,386.1 L 335.4,396.3 L 335.4,406.5 L 335.4,416.7 L 335.4,426.9 L 335.4,437.1 L 335.4,447.3 L 335.4,457.5 L 335.4,467.7 L 335.4,477.9 L 335.4,488.1 L 335.4,498.3 L 335.4,508.5 L 335.4,518.7 L 335.4,528.9 L 335.4,539.1 L 335.4,549.3 L 335.4,559.5 L 335.4,569.8 L 335.4,580.0 L 335.3,590.2 L 335.3,600.4 L 335.3,610.6 L 335.3,620.8 L 335.3,631.0 L 335.3,641.2 L 335.2,651.4 L 335.2,661.6 L 335.1,671.8 L 335.0,682.0" stroke="#4ECDC4" stroke-width="6" fill="none" opacity="0.85"/>
  <circle cx="335.0" cy="-614.0" r="10" fill="#4ECDC4"/>
  <circle cx="335.0" cy="682.0" r="6" fill="#4ECDC4" opacity="0.6"/>
  <text x="353.0" y="-632.0" fill="#4ECDC4" font-size="36" font-family="monospace">2</text>
  <path d="M 335.0,681.0 L 335.2,662.3 L 335.3,643.5 L 335.3,624.8 L 335.4,606.0 L 335.4,587.3 L 335.4,568.5 L 335.4,549.8 L 335.4,531.0 L 335.4,512.3 L 335.4,493.5 L 335.4,474.8 L 335.4,456.0 L 335.4,437.3 L 335.4,418.5 L 335.4,399.8 L 335.4,381.0 L 335.4,362.3 L 335.4,343.6 L 335.4,324.8 L 335.4,306.1 L 335.4,287.3 L 335.4,268.6 L 335.4,249.8 L 335.4,231.1 L 335.4,212.3 L 335.4,193.6 L 335.4,174.8 L 335.4,156.1 L 335.3,137.3 L 335.3,118.6 L 335.3,99.8 L 335.3,81.1 L 335.3,62.3 L 335.3,43.6 L 335.3,24.8 L 335.3,6.1 L 335.2,-12.6 L 335.2,-31.4 L 335.2,-50.1 L 335.2,-68.9 L 335.2,-87.6 L 335.2,-106.4 L 335.2,-125.1 L 335.1,-143.9 L 335.1,-162.6 L 335.1,-181.4 L 335.1,-200.1 L 335.1,-218.9 L 335.1,-237.6 L 335.0,-256.4 L 335.0,-275.1 L 335.0,-293.9 L 335.1,-312.6 L 337.2,-331.2 L 341.1,-349.5 L 346.6,-367.5 L 353.2,-385.0 L 360.8,-402.1 L 369.3,-418.9 L 378.5,-435.2 L 388.4,-451.1 L 398.9,-466.7 L 410.0,-481.8 L 421.7,-496.4 L 434.0,-510.6 L 446.8,-524.2 L 460.2,-537.3 L 474.2,-549.8 L 488.8,-561.6 L 504.0,-572.5 L 519.8,-582.6 L 536.2,-591.6 L 553.3,-599.5 L 570.9,-605.8 L 589.0,-610.5 L 607.6,-613.3 L 626.3,-613.9 L 644.9,-611.7 L 662.8,-606.2 L 679.5,-597.7 L 694.5,-586.6 L 707.7,-573.3 L 719.0,-558.3 L 728.4,-542.1 L 736.2,-525.1 L 742.5,-507.4 L 747.4,-489.3 L 751.0,-470.9 L 753.6,-452.4 L 755.2,-433.7 L 755.9,-415.0 L 755.9,-396.2 L 755.1,-377.5 L 753.6,-358.8 L 751.3,-340.2 L 748.4,-321.7 L 744.8,-303.3 L 740.4,-285.1 L 735.3,-267.0 L 729.5,-249.2 L 723.0,-231.6 L 715.7,-214.4 L 707.6,-197.4 L 698.8,-180.9 L 689.3,-164.7 L 678.9,-149.1 L 667.9,-134.0 L 656.1,-119.4 L 643.5,-105.5 L 630.2,-92.3 L 616.2,-79.8 L 601.6,-68.1 L 586.3,-57.2 L 570.4,-47.3 L 554.0,-38.2 L 537.1,-30.2 L 519.7,-23.0 L 502.0,-16.9 L 484.0,-11.7 L 465.7,-7.5 L 447.3,-4.3 L 428.7,-2.0 L 410.0,-0.6 L 391.2,-0.0 L 372.5,-0.0 L 353.7,-0.0 L 335.0,-0.0" stroke="#45B7D1" stroke-width="6" fill="none" opacity="0.85"/>
  <circle cx="335.0" cy="681.0" r="10" fill="#45B7D1"/>
  <circle cx="335.0" cy="-0.0" r="6" fill="#45B7D1" opacity="0.6"/>
  <text x="353.0" y="663.0" fill="#45B7D1" font-size="36" font-family="monospace">3</text>
  <path d="M 335.0,-0.0 L 339.0,-0.0 L 343.0,-0.1 L 347.0,-0.1 L 351.0,-0.1 L 355.0,-0.2 L 359.0,-0.3 L 363.0,-0.4 L 367.0,-0.6 L 371.0,-0.7 L 375.0,-0.8 L 379.0,-0.8 L 383.0,-0.8 L 387.0,-0.8 L 391.0,-0.7 L 395.0,-0.8 L 399.0,-0.9 L 403.0,-1.0 L 407.0,-1.2 L 411.0,-1.4 L 414.9,-1.6 L 418.9,-1.8 L 422.9,-2.1 L 426.9,-2.4 L 430.9,-2.7 L 434.9,-3.0 L 438.9,-3.4 L 442.9,-3.7 L 446.8,-4.1 L 450.8,-4.5 L 454.8,-5.0 L 458.8,-5.4 L 462.7,-5.9 L 466.7,-6.4 L 470.7,-6.9 L 474.6,-7.4 L 478.6,-8.0 L 482.6,-8.5 L 486.5,-9.1 L 490.5,-9.7 L 494.4,-10.3 L 498.4,-10.9 L 502.3,-11.6 L 506.3,-12.2 L 510.2,-12.9 L 514.2,-13.6 L 518.1,-14.3 L 522.0,-15.0 L 526.0,-15.8 L 529.9,-16.5 L 533.8,-17.3 L 537.7,-18.1 L 541.7,-18.8 L 545.6,-19.6 L 549.5,-20.5 L 553.4,-21.3 L 557.3,-22.1 L 561.2,-23.0 L 565.1,-23.9 L 569.0,-24.7 L 572.9,-25.6 L 576.8,-26.5 L 580.7,-27.4 L 584.6,-28.4 L 588.5,-29.3 L 592.4,-30.3 L 596.3,-31.3 L 600.1,-32.3 L 604.0,-33.3 L 607.8,-34.4 L 611.7,-35.5 L 615.5,-36.5 L 619.4,-37.7 L 623.2,-38.8 L 627.1,-40.0 L 630.9,-41.1 L 634.7,-42.3 L 638.5,-43.5 L 642.3,-44.8 L 646.1,-46.0 L 649.9,-47.3 L 653.7,-48.6 L 657.4,-50.0 L 661.2,-51.3 L 665.0,-52.7 L 668.7,-54.1 L 672.4,-55.5 L 676.2,-57.0 L 679.9,-58.5 L 683.6,-60.0 L 687.3,-61.5 L 691.0,-63.0 L 694.6,-64.6 L 698.3,-66.2 L 702.0,-67.9 L 705.6,-69.5 L 709.2,-71.2 L 712.8,-72.9 L 716.4,-74.7 L 720.0,-76.4 L 723.6,-78.2 L 727.2,-80.0 L 730.7,-81.9 L 734.2,-83.8 L 737.8,-85.7 L 741.2,-87.6 L 744.7,-89.6 L 748.2,-91.6 L 751.6,-93.6 L 755.1,-95.7 L 758.5,-97.8 L 761.9,-99.9 L 765.2,-102.1 L 768.6,-104.3 L 771.9,-106.5 L 775.2,-108.8 L 778.5,-111.0 L 781.7,-113.3 L 785.0,-115.7 L 788.3,-118.0 L 791.5,-120.3 L 794.8,-122.7 L 798.0,-125.0 L 801.2,-127.4 L 804.4,-129.8 L 807.6,-132.2 L 810.8,-134.6 L 814.0,-137.0" stroke="#96CEB4" stroke-width="6" fill="none" opacity="0.85"/>
  <circle cx="335.0" cy="-0.0" r="10" fill="#96CEB4"/>
  <circle cx="814.0" cy="-137.0" r="6" fill="#96CEB4" opacity="0.6"/>
  <text x="353.0" y="-18.0" fill="#96CEB4" font-size="36" font-family="monospace">4</text>
</svg>