<?xml version="1.0" encoding="UTF-8"?>
<svg xmlns="http://www.w3.org/2000/svg" viewBox="-200 -1495.9680118128292 1600 2377.96801181283">
  <title>cogncur strokes for P</title>
  <line x1="-200" y1="0" x2="1400" y2="0" stroke="#2F3A56" stroke-width="4" opacity="0.55"/>
  <line x1="-200" y1="-614.0003000000003" x2="1400" y2="-614.0003000000003" stroke="#457B9D" stroke-width="3" opacity="0.5" stroke-dasharray="24 14"/>
  <line x1="-200" y1="-1295.9680118128292" x2="1400" y2="-1295.9680118128292" stroke="#2F3A56" stroke-width="4" opacity="0.45"/>
  <line x1="-200" y1="682.0000000000005" x2="1400" y2="682.0000000000005" stroke="#ADB5BD" stroke-width="2" opacity="0.35"/>
  <path d="M 220.9,-1283.3 L 220.9,-1272.0 L 220.9,-1260.8 L 221.0,-1249.5 L 221.0,-1238.2 L 221.0,-1227.0 L 221.0,-1215.7 L 221.0,-1204.5 L 221.0,-1193.2 L 221.0,-1182.0 L 221.0,-1170.7 L 221.0,-1159.4 L 221.0,-1148.2 L 221.0,-1136.9 L 221.0,-1125.7 L 221.0,-1114.4 L 221.1,-1103.2 L 221.1,-1091.9 L 221.1,-1080.6 L 221.1,-1069.4 L 221.1,-1058.1 L 221.1,-1046.9 L 221.1,-1035.6 L 221.1,-1024.4 L 221.1,-1013.1 L 221.1,-1001.8 L 221.1,-990.6 L 221.1,-979.3 L 221.1,-968.1 L 221.2,-956.8 L 221.2,-945.6 L 221.2,-934.3 L 221.2,-923.0 L 221.2,-911.8 L 221.2,-900.5 L 221.2,-889.3 L 221.2,-878.0 L 221.2,-866.8 L 221.2,-855.5 L 221.2,-844.2 L 221.2,-833.0 L 221.2,-821.7 L 221.3,-810.5 L 221.3,-799.2 L 221.3,-788.0 L 221.3,-776.7 L 221.3,-765.5 L 221.3,-754.2 L 221.3,-742.9 L 221.3,-731.7 L 221.3,-720.4 L 221.3,-709.2 L 221.3,-697.9 L 221.3,-686.7 L 221.3,-675.4 L 221.3,-664.1 L 221.4,-652.9 L 221.4,-641.6 L 221.4,-630.4 L 221.4,-619.1 L 221.4,-607.9 L 221.4,-596.6 L 221.4,-585.3 L 221.4,-574.1 L 221.4,-562.8 L 221.4,-551.6 L 221.4,-540.3 L 221.4,-529.1 L 221.4,-517.8 L 221.4,-506.5 L 221.5,-495.3 L 221.5,-484.0 L 221.5,-472.8 L 221.5,-461.5 L 221.5,-450.3 L 221.5,-439.0 L 221.5,-427.7 L 221.5,-416.5 L 221.5,-405.2 L 221.5,-394.0 L 221.5,-382.7 L 221.5,-371.5 L 221.5,-360.2 L 221.5,-348.9 L 221.6,-337.7 L 221.6,-326.4 L 221.6,-315.2 L 221.6,-303.9 L 221.6,-292.7 L 221.6,-281.4 L 221.6,-270.1 L 221.6,-258.9 L 221.6,-247.6 L 221.6,-236.4 L 221.6,-225.1 L 221.6,-213.9 L 221.6,-202.6 L 221.6,-191.3 L 221.6,-180.1 L 221.5,-168.8 L 221.1,-157.6 L 220.4,-146.3 L 219.5,-135.1 L 218.2,-123.9 L 216.5,-112.8 L 214.4,-101.8 L 211.8,-90.8 L 208.7,-80.0 L 205.0,-69.4 L 200.6,-59.0 L 195.4,-49.0 L 189.4,-39.5 L 182.4,-30.7 L 174.5,-22.7 L 165.6,-15.8 L 155.9,-10.1 L 145.5,-5.7 L 134.7,-2.6 L 123.6,-0.8 L 112.4,-0.0 L 101.1,-0.2 L 90.0,-1.4 L 79.0,-3.8 L 68.3,-7.5 L 58.3,-12.5 L 49.0,-18.9 L 40.7,-26.5 L 33.4,-35.0" stroke="#FF6B6B" stroke-width="6" fill="none" opacity="0.85"/>
  <circle cx="220.9" cy="-1283.3" r="10" fill="#FF6B6B"/>
  <circle cx="33.4" cy="-35.0" r="6" fill="#FF6B6B" opacity="0.6"/>
  <text x="238.9" y="-1301.3" fill="#FF6B6B" font-size="36" font-family="monospace">1</text>
  <path d="M 97.0,-1245.0 L 107.6,-1249.0 L 118.2,-1252.9 L 128.8,-1256.8 L 139.4,-1260.6 L 150.1,-1264.2 L 160.8,-1267.8 L 171.6,-1271.2 L 182.4,-1274.4 L 193.3,-1277.5 L 204.3,-1280.3 L 215.2,-1283.0 L 226.3,-1285.3 L 237.4,-1287.4 L 248.6,-1289.2 L 259.7,-1290.8 L 271.0,-1292.1 L 282.2,-1293.2 L 293.5,-1294.0 L 304.8,-1294.7 L 316.1,-1295.1 L 327.3,-1295.5 L 338.6,-1295.7 L 349.9,-1295.8 L 361.2,-1295.8 L 372.5,-1295.6 L 383.8,-1295.0 L 395.1,-1294.1 L 406.3,-1292.8 L 417.5,-1291.1 L 428.6,-1289.1 L 439.6,-1286.6 L 450.6,-1283.8 L 461.4,-1280.6 L 472.1,-1277.1 L 482.7,-1273.2 L 493.2,-1268.9 L 503.5,-1264.2 L 513.6,-1259.2 L 523.5,-1253.8 L 533.3,-1248.1 L 542.8,-1242.0 L 552.1,-1235.7 L 561.2,-1229.0 L 570.1,-1221.9 L 578.7,-1214.6 L 587.0,-1207.0 L 595.1,-1199.0 L 602.8,-1190.8 L 610.3,-1182.4 L 617.5,-1173.7 L 624.4,-1164.7 L 631.0,-1155.5 L 637.2,-1146.1 L 643.1,-1136.4 L 648.7,-1126.6 L 653.9,-1116.6 L 658.8,-1106.4 L 663.3,-1096.0 L 667.5,-1085.5 L 671.3,-1074.9 L 674.7,-1064.1 L 677.8,-1053.3 L 680.5,-1042.3 L 682.8,-1031.2 L 684.8,-1020.1 L 686.4,-1008.9 L 687.6,-997.7 L 688.4,-986.4 L 688.9,-975.1 L 689.0,-963.8 L 688.8,-952.5 L 688.3,-941.3 L 687.4,-930.0 L 686.1,-918.8 L 684.5,-907.6 L 682.5,-896.5 L 680.1,-885.4 L 677.3,-874.5 L 674.1,-863.6 L 670.4,-853.0 L 666.4,-842.4 L 661.8,-832.1 L 656.9,-821.9 L 651.5,-812.0 L 645.7,-802.3 L 639.4,-792.9 L 632.8,-783.7 L 625.8,-774.9 L 618.4,-766.3 L 610.7,-758.1 L 602.6,-750.2 L 594.2,-742.6 L 585.6,-735.3 L 576.7,-728.3 L 567.6,-721.6 L 558.3,-715.2 L 548.8,-709.1 L 539.1,-703.3 L 529.3,-697.7 L 519.3,-692.3 L 509.3,-687.1 L 499.2,-682.0 L 488.9,-677.4 L 478.4,-673.3 L 467.7,-669.8 L 456.8,-666.7 L 445.8,-664.0 L 434.8,-661.6 L 423.7,-659.5 L 412.5,-657.6 L 401.4,-656.0 L 390.1,-654.5 L 378.9,-653.2 L 367.7,-652.0 L 356.4,-651.0 L 345.2,-650.1 L 333.9,-649.4 L 322.6,-648.8 L 311.3,-648.2 L 300.0,-647.8 L 288.7,-647.5 L 277.4,-647.3 L 266.1,-647.1 L 254.8,-647.1 L 243.5,-647.2 L 232.2,-647.4 L 220.9,-647.7" stroke="#4ECDC4" stroke-width="6" fill="none" opacity="0.85"/>
  <circle cx="97.0" cy="-1245.0" r="10" fill="#4ECDC4"/>
  <circle cx="220.9" cy="-647.7" r="6" fill="#4ECDC4" opacity="0.6"/>
  <text x="115.0" y="-1263.0" fill="#4ECDC4" font-size="36" font-family="monospace">2</text>
</svg>