<?xml version="1.0" encoding="UTF-8"?>
<svg xmlns="http://www.w3.org/2000/svg" viewBox="-200 -1495.9680118128292 1600 2377.96801181283">
  <title>cogncur strokes for q</title>
  <line x1="-200" y1="0" x2="1400" y2="0" stroke="#2F3A56" stroke-width="4" opacity="0.55"/>
  <line x1="-200" y1="-614.0003000000003" x2="1400" y2="-614.0003000000003" stroke="#457B9D" stroke-width="3" opacity="0.5" stroke-dasharray="24 14"/>
  <line x1="-200" y1="-1295.9680118128292" x2="1400" y2="-1295.9680118128292" stroke="#2F3A56" stroke-width="4" opacity="0.45"/>
  <line x1="-200" y1="682.0000000000005" x2="1400" y2="682.0000000000005" stroke="#ADB5BD" stroke-width="2" opacity="0.35"/>
  <path d="M 35.4,-1.0 L 39.7,-7.2 L 44.1,-13.4 L 48.4,-19.5 L 52.8,-25.7 L 57.2,-31.9 L 61.5,-38.1 L 65.9,-44.3 L 70.2,-50.4 L 74.6,-56.6 L 78.9,-62.8 L 83.3,-69.0 L 87.6,-75.2 L 92.0,-81.3 L 96.3,-87.5 L 100.7,-93.7 L 105.0,-99.9 L 109.4,-106.1 L 113.7,-112.2 L 118.1,-118.4 L 122.4,-124.6 L 126.8,-130.8 L 131.2,-137.0 L 135.5,-143.1 L 139.9,-149.3 L 144.2,-155.5 L 148.6,-161.7 L 152.9,-167.9 L 157.3,-174.1 L 161.6,-180.2 L 166.0,-186.4 L 170.3,-192.6 L 174.7,-198.8 L 179.0,-205.0 L 183.4,-211.1 L 187.7,-217.3 L 192.1,-223.5 L 196.4,-229.7 L 200.8,-235.9 L 205.1,-242.0 L 209.5,-248.2 L 213.8,-254.4 L 218.2,-260.6 L 222.6,-266.8 L 226.9,-272.9 L 231.3,-279.1 L 235.6,-285.3 L 240.0,-291.5 L 244.3,-297.7 L 248.7,-303.8 L 253.0,-310.0 L 257.4,-316.2 L 261.7,-322.4 L 266.1,-328.6 L 270.4,-334.8 L 274.8,-340.9 L 279.1,-347.1 L 283.5,-353.3 L 287.8,-359.5 L 292.2,-365.7 L 296.5,-371.8 L 300.9,-378.0 L 305.2,-384.2 L 309.6,-390.4 L 313.9,-396.6 L 318.3,-402.8 L 322.6,-408.9 L 327.0,-415.1 L 331.3,-421.3 L 335.7,-427.5 L 340.0,-433.7 L 344.4,-439.9 L 348.7,-446.0 L 353.1,-452.2 L 357.4,-458.4 L 361.8,-464.6 L 366.1,-470.8 L 370.4,-477.0 L 375.0,-483.0 L 379.8,-488.8 L 384.7,-494.6 L 389.7,-500.3 L 394.8,-505.8 L 400.1,-511.3 L 405.4,-516.6 L 410.9,-521.8 L 416.5,-526.9 L 422.2,-531.9 L 428.0,-536.7 L 433.9,-541.5 L 439.9,-546.0 L 446.0,-550.5 L 452.2,-554.8 L 458.5,-559.0 L 464.9,-563.0 L 471.4,-566.9 L 477.9,-570.7 L 484.6,-574.2 L 491.3,-577.7 L 498.1,-581.0 L 505.0,-584.1 L 512.0,-587.1 L 519.0,-589.9 L 526.0,-592.6 L 533.2,-595.1 L 540.4,-597.4 L 547.6,-599.6 L 554.9,-601.6 L 562.2,-603.5 L 569.6,-605.2 L 577.0,-606.8 L 584.4,-608.2 L 591.8,-609.4 L 599.3,-610.5 L 606.8,-611.5 L 614.3,-612.2 L 621.9,-612.9 L 629.4,-613.4 L 637.0,-613.7 L 644.5,-613.9 L 652.1,-614.0 L 659.6,-614.0 L 667.2,-614.0 L 674.8,-614.0 L 682.3,-614.0 L 689.9,-614.0 L 697.4,-614.0 L 705.0,-614.0" stroke="#FF6B6B" stroke-width="6" fill="none" opacity="0.85"/>
  <circle cx="35.4" cy="-1.0" r="10" fill="#FF6B6B"/>
  <circle cx="705.0" cy="-614.0" r="6" fill="#FF6B6B" opacity="0.6"/>
  <text x="53.4" y="-19.0" fill="#FF6B6B" font-size="36" font-family="monospace">1</text>
  <path d="M 705.0,-614.0 L 691.6,-614.0 L 678.3,-614.0 L 664.9,-614.0 L 651.5,-614.0 L 638.2,-613.8 L 624.8,-613.1 L 611.5,-612.0 L 598.2,-610.5 L 585.0,-608.5 L 571.9,-606.0 L 558.8,-603.0 L 545.9,-599.5 L 533.1,-595.5 L 520.5,-591.1 L 508.1,-586.1 L 495.9,-580.6 L 484.0,-574.7 L 472.2,-568.3 L 460.8,-561.4 L 449.6,-554.0 L 438.8,-546.2 L 428.3,-537.9 L 418.1,-529.3 L 408.2,-520.2 L 398.7,-510.8 L 389.6,-501.1 L 380.9,-490.9 L 372.5,-480.5 L 364.5,-469.8 L 356.9,-458.8 L 349.7,-447.6 L 342.9,-436.1 L 336.4,-424.4 L 330.3,-412.4 L 324.7,-400.3 L 319.4,-388.1 L 314.4,-375.6 L 309.9,-363.1 L 305.7,-350.4 L 301.9,-337.5 L 298.5,-324.6 L 295.4,-311.6 L 292.7,-298.5 L 290.4,-285.3 L 288.4,-272.1 L 286.8,-258.9 L 285.6,-245.5 L 284.7,-232.2 L 284.2,-218.8 L 284.0,-205.5 L 284.2,-192.1 L 284.9,-178.8 L 286.0,-165.4 L 287.6,-152.2 L 289.7,-139.0 L 292.4,-125.9 L 295.7,-112.9 L 299.6,-100.1 L 304.3,-87.6 L 309.8,-75.4 L 316.1,-63.6 L 323.3,-52.4 L 331.4,-41.8 L 340.5,-32.0 L 350.6,-23.2 L 361.6,-15.6 L 373.4,-9.4 L 385.9,-4.7 L 398.9,-1.6 L 412.2,-0.1 L 425.6,-0.2 L 438.9,-1.4 L 452.0,-3.7 L 465.0,-6.9 L 477.7,-11.1 L 490.2,-16.0 L 502.3,-21.6 L 514.1,-27.9 L 525.6,-34.7 L 536.8,-42.0 L 547.7,-49.8 L 558.2,-58.0 L 568.5,-66.5 L 578.4,-75.5 L 588.1,-84.7 L 597.5,-94.2 L 606.6,-104.0 L 615.4,-114.1 L 623.9,-124.4 L 632.1,-135.0 L 640.0,-145.7 L 647.6,-156.7 L 654.9,-167.9 L 661.9,-179.3 L 668.5,-191.0 L 674.7,-202.8 L 680.6,-214.8 L 686.0,-227.0 L 690.9,-239.5 L 695.2,-252.1 L 699.0,-264.9 L 702.0,-278.0 L 704.0,-291.2 L 705.0,-304.5 L 705.0,-317.9 L 705.0,-331.2 L 705.0,-344.6 L 705.0,-358.0 L 705.0,-371.4 L 705.0,-384.7 L 705.0,-398.1 L 705.0,-411.5 L 705.0,-424.8 L 705.0,-438.2 L 705.0,-451.6 L 705.0,-464.9 L 705.0,-478.3 L 705.0,-491.7 L 705.0,-505.0 L 705.0,-518.4 L 705.0,-531.8 L 705.0,-545.2 L 705.0,-558.5 L 705.0,-571.9 L 705.0,-585.3 L 705.0,-598.6 L 705.0,-612.0" stroke="#4ECDC4" stroke-width="6" fill="none" opacity="0.85"/>
  <circle cx="705.0" cy="-614.0" r="10" fill="#4ECDC4"/>
  <circle cx="705.0" cy="-612.0" r="6" fill="#4ECDC4" opacity="0.6"/>
  <text x="723.0" y="-632.0" fill="#4ECDC4" font-size="36" font-family="monospace">2</text>
  <path d="M 705.0,-614.0 L 705.0,-596.8 L 705.0,-579.7 L 705.0,-562.5 L 705.0,-545.4 L 705.0,-528.2 L 705.0,-511.1 L 705.0,-493.9 L 705.0,-476.7 L 705.0,-459.6 L 705.0,-442.4 L 705.0,-425.3 L 705.0,-408.1 L 705.0,-391.0 L 705.0,-373.8 L 705.0,-356.7 L 705.0,-339.5 L 705.0,-322.3 L 705.0,-305.2 L 705.0,-288.0 L 705.0,-270.9 L 705.0,-253.7 L 705.0,-236.6 L 705.0,-219.4 L 705.0,-202.2 L 705.0,-185.1 L 705.0,-167.9 L 705.0,-150.8 L 705.0,-133.6 L 705.0,-116.5 L 705.0,-99.3 L 705.0,-82.1 L 705.0,-65.0 L 705.0,-47.8 L 705.0,-30.7 L 705.0,-13.5 L 705.0,3.6 L 705.0,20.8 L 705.0,38.0 L 705.0,55.1 L 705.0,72.3 L 705.0,89.4 L 705.0,106.6 L 705.0,123.7 L 705.0,140.9 L 705.0,158.0 L 705.0,175.2 L 705.0,192.4 L 705.0,209.5 L 705.0,226.7 L 705.0,243.8 L 705.0,261.0 L 705.0,278.1 L 705.0,295.3 L 705.0,312.5 L 705.0,329.6 L 705.0,346.8 L 705.0,363.9 L 705.0,381.1 L 705.0,398.2 L 705.0,415.4 L 705.0,432.6 L 705.0,449.7 L 705.1,466.9 L 705.7,484.0 L 706.9,501.1 L 708.7,518.2 L 711.2,535.2 L 714.4,552.0 L 718.4,568.7 L 723.3,585.1 L 729.3,601.2 L 736.4,616.8 L 744.8,631.8 L 754.8,645.7 L 766.6,658.2 L 780.2,668.5 L 795.6,676.1 L 812.2,680.2 L 829.3,680.8 L 846.2,678.0 L 862.1,671.7 L 876.5,662.4 L 889.0,650.6 L 899.6,637.2 L 908.6,622.6 L 916.2,607.2 L 922.5,591.3 L 927.8,574.9 L 932.2,558.3 L 935.7,541.6 L 938.4,524.6 L 940.5,507.6 L 941.9,490.5 L 942.7,473.4 L 943.0,456.2 L 942.7,439.0 L 941.9,421.9 L 940.6,404.8 L 938.8,387.7 L 936.6,370.7 L 934.0,353.8 L 930.9,336.9 L 927.5,320.1 L 923.8,303.3 L 919.7,286.7 L 915.2,270.1 L 910.4,253.6 L 905.2,237.3 L 899.6,221.1 L 893.7,205.0 L 887.4,189.0 L 880.7,173.2 L 873.6,157.6 L 866.1,142.2 L 858.1,127.0 L 849.6,112.1 L 840.5,97.5 L 830.9,83.3 L 820.6,69.6 L 809.7,56.4 L 797.9,43.9 L 785.2,32.4 L 771.6,21.9 L 756.9,13.0 L 741.3,6.1 L 724.7,1.6 L 707.7,0.1" stroke="#45B7D1" stroke-width="6" fill="none" opacity="0.85"/>
  <circle cx="705.0" cy="-614.0" r="10" fill="#45B7D1"/>
  <circle cx="707.7" cy="0.1" r="6" fill="#45B7D1" opacity="0.6"/>
  <text x="723.0" y="-632.0" fill="#45B7D1" font-size="36" font-family="monospace">3</text>
  <path d="M 711.0,-0.0 L 712.7,-0.0 L 714.5,-0.1 L 716.2,-0.1 L 717.9,-0.2 L 719.6,-0.4 L 721.3,-0.5 L 723.1,-0.7 L 724.8,-0.9 L 726.5,-1.2 L 728.2,-1.4 L 729.9,-1.8 L 731.6,-2.1 L 733.3,-2.4 L 734.9,-2.8 L 736.6,-3.2 L 738.3,-3.7 L 739.9,-4.2 L 741.6,-4.6 L 743.2,-5.2 L 744.9,-5.7 L 746.5,-6.3 L 748.1,-6.9 L 749.7,-7.5 L 751.3,-8.1 L 752.9,-8.8 L 754.5,-9.5 L 756.1,-10.2 L 757.6,-10.9 L 759.2,-11.7 L 760.7,-12.5 L 762.3,-13.2 L 763.8,-14.1 L 765.3,-14.9 L 766.8,-15.7 L 768.3,-16.6 L 769.8,-17.5 L 771.2,-18.4 L 772.7,-19.3 L 774.2,-20.3 L 775.6,-21.2 L 777.0,-22.2 L 778.4,-23.2 L 779.8,-24.2 L 781.2,-25.2 L 782.6,-26.2 L 784.0,-27.3 L 785.3,-28.3 L 786.7,-29.4 L 788.0,-30.5 L 789.4,-31.6 L 790.7,-32.7 L 792.0,-33.8 L 793.3,-35.0 L 794.6,-36.1 L 795.9,-37.3 L 797.2,-38.4 L 798.4,-39.6 L 799.7,-40.8 L 800.9,-42.0 L 802.2,-43.2 L 803.4,-44.4 L 804.6,-45.6 L 805.8,-46.8 L 807.0,-48.1 L 808.2,-49.3 L 809.4,-50.6 L 810.6,-51.8 L 811.7,-53.1 L 812.9,-54.4 L 814.0,-55.7 L 815.2,-57.0 L 816.3,-58.3 L 817.4,-59.6 L 818.6,-60.9 L 819.7,-62.2 L 820.8,-63.5 L 821.9,-64.9 L 823.0,-66.2 L 824.0,-67.6 L 825.1,-68.9 L 826.2,-70.3 L 827.2,-71.6 L 828.3,-73.0 L 829.4,-74.4 L 830.4,-75.7 L 831.4,-77.1 L 832.5,-78.5 L 833.5,-79.9 L 834.5,-81.3 L 835.5,-82.7 L 836.5,-84.1 L 837.5,-85.5 L 838.5,-86.9 L 839.5,-88.3 L 840.4,-89.8 L 841.4,-91.2 L 842.4,-92.6 L 843.3,-94.1 L 844.3,-95.5 L 845.2,-96.9 L 846.2,-98.4 L 847.1,-99.8 L 848.1,-101.3 L 849.0,-102.7 L 849.9,-104.2 L 850.8,-105.7 L 851.7,-107.1 L 852.6,-108.6 L 853.5,-110.1 L 854.4,-111.5 L 855.3,-113.0 L 856.2,-114.5 L 857.1,-116.0 L 858.0,-117.5 L 858.9,-118.9 L 859.7,-120.4 L 860.6,-121.9 L 861.5,-123.4 L 862.3,-124.9 L 863.2,-126.4 L 864.0,-127.9 L 864.8,-129.4 L 865.7,-130.9 L 866.5,-132.5 L 867.4,-134.0 L 868.2,-135.5 L 869.0,-137.0" stroke="#96CEB4" stroke-width="6" fill="none" opacity="0.85"/>
  <circle cx="711.0" cy="-0.0" r="10" fill="#96CEB4"/>
  <circle cx="869.0" cy="-137.0" r="6" fill="#96CEB4" opacity="0.6"/>
  <text x="729.0" y="-18.0" fill="#96CEB4" font-size="36" font-family="monospace">4</text>
</svg>