<?xml version="1.0" encoding="UTF-8"?>
<svg xmlns="http://www.w3.org/2000/svg" viewBox="-200 -1495.9680118128292 1600 2377.96801181283">
  <title>cogncur strokes for Q</title>
  <line x1="-200" y1="0" x2="1400" y2="0" stroke="#2F3A56" stroke-width="4" opacity="0.55"/>
  <line x1="-200" y1="-614.0003000000003" x2="1400" y2="-614.0003000000003" stroke="#457B9D" stroke-width="3" opacity="0.5" stroke-dasharray="24 14"/>
  <line x1="-200" y1="-1295.9680118128292" x2="1400" y2="-1295.9680118128292" stroke="#2F3A56" stroke-width="4" opacity="0.45"/>
  <line x1="-200" y1="682.0000000000005" x2="1400" y2="682.0000000000005" stroke="#ADB5BD" stroke-width="2" opacity="0.35"/>
  <path d="M 600.2,-1271.9 L 567.4,-1283.0 L 533.7,-1291.0 L 499.4,-1295.3 L 464.9,-1295.6 L 430.5,-1292.0 L 396.7,-1284.5 L 364.0,-1273.4 L 332.5,-1259.1 L 302.6,-1241.8 L 274.3,-1221.9 L 247.7,-1199.7 L 222.8,-1175.7 L 199.7,-1150.0 L 178.3,-1122.8 L 158.5,-1094.4 L 140.3,-1065.0 L 123.7,-1034.7 L 108.6,-1003.5 L 95.0,-971.7 L 82.9,-939.3 L 72.2,-906.5 L 62.8,-873.2 L 54.8,-839.5 L 48.2,-805.5 L 42.8,-771.4 L 38.8,-737.0 L 36.1,-702.5 L 34.7,-668.0 L 34.5,-633.4 L 35.5,-598.8 L 37.9,-564.3 L 41.5,-529.9 L 46.5,-495.6 L 52.8,-461.6 L 60.4,-427.9 L 69.4,-394.5 L 79.8,-361.5 L 91.7,-329.0 L 104.9,-297.1 L 119.7,-265.8 L 136.0,-235.3 L 153.9,-205.7 L 173.4,-177.1 L 194.6,-149.8 L 217.5,-123.8 L 242.1,-99.5 L 268.4,-77.1 L 296.4,-56.8 L 326.1,-39.1 L 357.4,-24.2 L 389.9,-12.6 L 423.5,-4.5 L 457.8,-0.1 L 492.4,0.5 L 526.8,-2.9 L 560.6,-10.0 L 593.5,-20.7 L 625.1,-34.8 L 655.2,-51.8 L 683.7,-71.4 L 710.5,-93.3 L 735.5,-117.2 L 758.8,-142.8 L 780.4,-169.8 L 800.4,-198.0 L 818.7,-227.4 L 835.4,-257.6 L 850.6,-288.7 L 864.3,-320.5 L 876.6,-352.8 L 887.4,-385.7 L 896.8,-419.0 L 904.9,-452.6 L 911.6,-486.5 L 917.0,-520.7 L 921.1,-555.1 L 923.8,-589.5 L 925.3,-624.1 L 925.5,-658.7 L 924.5,-693.3 L 922.2,-727.8 L 918.6,-762.2 L 913.7,-796.4 L 907.5,-830.5 L 900.0,-864.2 L 891.1,-897.6 L 880.8,-930.7 L 869.1,-963.2 L 855.9,-995.2 L 841.3,-1026.6 L 825.2,-1057.2 L 807.5,-1086.9 L 788.2,-1115.6 L 767.3,-1143.1 L 744.6,-1169.3 L 720.3,-1193.9 L 694.2,-1216.6 L 666.4,-1237.2 L 636.9,-1255.3 L 605.7,-1270.0 L 572.2,-1278.3 L 537.7,-1277.4 L 505.6,-1265.0 L 479.6,-1242.4 L 461.4,-1213.2 L 450.9,-1180.3 L 448.1,-1145.9 L 454.5,-1112.0 L 468.9,-1080.6 L 489.5,-1052.9 L 514.7,-1029.3 L 543.6,-1010.3 L 575.4,-996.9 L 609.2,-989.8 L 643.8,-989.5 L 678.2,-992.7 L 712.3,-998.7 L 745.8,-1007.3 L 778.7,-1018.1 L 810.8,-1030.9 L 842.2,-1045.5 L 872.7,-1061.7 L 902.5,-1079.2 L 931.6,-1098.0 L 959.8,-1118.0 L 987.3,-1139.0 L 1014.0,-1161.0" stroke="#FF6B6B" stroke-width="6" fill="none" opacity="0.85"/>
  <circle cx="600.2" cy="-1271.9" r="10" fill="#FF6B6B"/>
  <circle cx="1014.0" cy="-1161.0" r="6" fill="#FF6B6B" opacity="0.6"/>
  <text x="618.2" y="-1289.9" fill="#FF6B6B" font-size="36" font-family="monospace">1</text>
  <path d="M 407.0,-163.0 L 411.2,-168.6 L 415.6,-174.0 L 420.1,-179.4 L 424.7,-184.6 L 429.5,-189.7 L 434.4,-194.7 L 439.5,-199.6 L 444.6,-204.3 L 449.9,-208.8 L 455.4,-213.2 L 460.9,-217.5 L 466.6,-221.5 L 472.5,-225.4 L 478.4,-229.0 L 484.5,-232.5 L 490.7,-235.7 L 497.0,-238.7 L 503.5,-241.5 L 510.0,-243.9 L 516.6,-246.1 L 523.4,-248.0 L 530.2,-249.6 L 537.1,-250.9 L 544.0,-251.9 L 550.9,-252.6 L 557.9,-252.9 L 564.9,-253.0 L 571.9,-252.8 L 578.9,-252.3 L 585.8,-251.6 L 592.8,-250.6 L 599.6,-249.4 L 606.5,-247.9 L 613.3,-246.1 L 620.0,-244.1 L 626.6,-241.9 L 633.1,-239.4 L 639.5,-236.6 L 645.9,-233.7 L 652.1,-230.5 L 658.2,-227.1 L 664.2,-223.5 L 670.1,-219.8 L 675.9,-215.8 L 681.5,-211.7 L 687.1,-207.4 L 692.5,-203.0 L 697.8,-198.4 L 703.0,-193.7 L 708.1,-188.9 L 713.1,-184.0 L 717.9,-179.0 L 722.7,-173.9 L 727.4,-168.7 L 732.0,-163.4 L 736.5,-158.1 L 740.9,-152.6 L 745.2,-147.2 L 749.5,-141.6 L 753.7,-136.0 L 757.9,-130.4 L 762.2,-124.9 L 766.4,-119.4 L 770.8,-113.9 L 775.1,-108.4 L 779.6,-103.0 L 784.0,-97.6 L 788.6,-92.3 L 793.2,-87.0 L 797.9,-81.8 L 802.6,-76.7 L 807.5,-71.7 L 812.4,-66.7 L 817.4,-61.8 L 822.5,-57.0 L 827.7,-52.4 L 833.0,-47.8 L 838.5,-43.4 L 844.0,-39.1 L 849.6,-35.0 L 855.4,-31.0 L 861.3,-27.2 L 867.2,-23.6 L 873.4,-20.2 L 879.6,-17.0 L 885.9,-14.1 L 892.4,-11.4 L 898.9,-8.9 L 905.6,-6.7 L 912.3,-4.9 L 919.1,-3.3 L 926.0,-2.0 L 932.9,-1.0 L 939.9,-0.4 L 946.9,-0.1 L 953.9,-0.0 L 960.9,-0.4 L 967.8,-1.2 L 974.7,-2.4 L 981.5,-4.1 L 988.1,-6.2 L 994.7,-8.7 L 1001.0,-11.7 L 1007.2,-15.0 L 1013.2,-18.6 L 1019.0,-22.5 L 1024.6,-26.6 L 1030.0,-31.0 L 1035.3,-35.6 L 1040.4,-40.4 L 1045.3,-45.4 L 1050.1,-50.5 L 1054.8,-55.7 L 1059.3,-61.0 L 1063.7,-66.5 L 1068.0,-72.0 L 1072.1,-77.6 L 1076.2,-83.3 L 1080.2,-89.1 L 1084.0,-94.9 L 1087.8,-100.8 L 1091.5,-106.7 L 1095.2,-112.7 L 1098.7,-118.7 L 1102.2,-124.8 L 1105.6,-130.9 L 1109.0,-137.0" stroke="#4ECDC4" stroke-width="6" fill="none" opacity="0.85"/>
  <circle cx="407.0" cy="-163.0" r="10" fill="#4ECDC4"/>
  <circle cx="1109.0" cy="-137.0" r="6" fill="#4ECDC4" opacity="0.6"/>
  <text x="425.0" y="-181.0" fill="#4ECDC4" font-size="36" font-family="monospace">2</text>
</svg>