<?xml version="1.0" encoding="UTF-8"?>
<svg xmlns="http://www.w3.org/2000/svg" viewBox="-200 -1495.9680118128292 1600 2377.96801181283">
  <title>cogncur strokes for R</title>
  <line x1="-200" y1="0" x2="1400" y2="0" stroke="#2F3A56" stroke-width="4" opacity="0.55"/>
  <line x1="-200" y1="-614.0003000000003" x2="1400" y2="-614.0003000000003" stroke="#457B9D" stroke-width="3" opacity="0.5" stroke-dasharray="24 14"/>
  <line x1="-200" y1="-1295.9680118128292" x2="1400" y2="-1295.9680118128292" stroke="#2F3A56" stroke-width="4" opacity="0.45"/>
  <line x1="-200" y1="682.0000000000005" x2="1400" y2="682.0000000000005" stroke="#ADB5BD" stroke-width="2" opacity="0.35"/>
  <path d="M 220.9,-1283.3 L 220.9,-1272.0 L 220.9,-1260.8 L 221.0,-1249.5 L 221.0,-1238.2 L 221.0,-1227.0 L 221.0,-1215.7 L 221.0,-1204.5 L 221.0,-1193.2 L 221.0,-1182.0 L 221.0,-1170.7 L 221.0,-1159.4 L 221.0,-1148.2 L 221.0,-1136.9 L 221.0,-1125.7 L 221.0,-1114.4 L 221.1,-1103.2 L 221.1,-1091.9 L 221.1,-1080.6 L 221.1,-1069.4 L 221.1,-1058.1 L 221.1,-1046.9 L 221.1,-1035.6 L 221.1,-1024.4 L 221.1,-1013.1 L 221.1,-1001.8 L 221.1,-990.6 L 221.1,-979.3 L 221.1,-968.1 L 221.2,-956.8 L 221.2,-945.6 L 221.2,-934.3 L 221.2,-923.0 L 221.2,-911.8 L 221.2,-900.5 L 221.2,-889.3 L 221.2,-878.0 L 221.2,-866.8 L 221.2,-855.5 L 221.2,-844.2 L 221.2,-833.0 L 221.2,-821.7 L 221.3,-810.5 L 221.3,-799.2 L 221.3,-788.0 L 221.3,-776.7 L 221.3,-765.5 L 221.3,-754.2 L 221.3,-742.9 L 221.3,-731.7 L 221.3,-720.4 L 221.3,-709.2 L 221.3,-697.9 L 221.3,-686.7 L 221.3,-675.4 L 221.3,-664.1 L 221.4,-652.9 L 221.4,-641.6 L 221.4,-630.4 L 221.4,-619.1 L 221.4,-607.9 L 221.4,-596.6 L 221.4,-585.3 L 221.4,-574.1 L 221.4,-562.8 L 221.4,-551.6 L 221.4,-540.3 L 221.4,-529.1 L 221.4,-517.8 L 221.4,-506.5 L 221.5,-495.3 L 221.5,-484.0 L 221.5,-472.8 L 221.5,-461.5 L 221.5,-450.3 L 221.5,-439.0 L 221.5,-427.7 L 221.5,-416.5 L 221.5,-405.2 L 221.5,-394.0 L 221.5,-382.7 L 221.5,-371.5 L 221.5,-360.2 L 221.5,-348.9 L 221.6,-337.7 L 221.6,-326.4 L 221.6,-315.2 L 221.6,-303.9 L 221.6,-292.7 L 221.6,-281.4 L 221.6,-270.1 L 221.6,-258.9 L 221.6,-247.6 L 221.6,-236.4 L 221.6,-225.1 L 221.6,-213.9 L 221.6,-202.6 L 221.6,-191.3 L 221.6,-180.1 L 221.5,-168.8 L 221.1,-157.6 L 220.4,-146.3 L 219.5,-135.1 L 218.2,-123.9 L 216.5,-112.8 L 214.4,-101.8 L 211.8,-90.8 L 208.7,-80.0 L 205.0,-69.4 L 200.6,-59.0 L 195.4,-49.0 L 189.4,-39.5 L 182.4,-30.7 L 174.5,-22.7 L 165.6,-15.8 L 155.9,-10.1 L 145.5,-5.7 L 134.7,-2.6 L 123.6,-0.8 L 112.4,-0.0 L 101.1,-0.2 L 90.0,-1.4 L 79.0,-3.8 L 68.3,-7.5 L 58.3,-12.5 L 49.0,-18.9 L 40.7,-26.5 L 33.4,-35.0" stroke="#FF6B6B" stroke-width="6" fill="none" opacity="0.85"/>
  <circle cx="220.9" cy="-1283.3" r="10" fill="#FF6B6B"/>
  <circle cx="33.4" cy="-35.0" r="6" fill="#FF6B6B" opacity="0.6"/>
  <text x="238.9" y="-1301.3" fill="#FF6B6B" font-size="36" font-family="monospace">1</text>
  <path d="M 97.0,-1245.0 L 107.6,-1249.0 L 118.2,-1252.9 L 128.8,-1256.8 L 139.4,-1260.6 L 150.1,-1264.2 L 160.8,-1267.8 L 171.6,-1271.2 L 182.4,-1274.4 L 193.3,-1277.5 L 204.3,-1280.3 L 215.2,-1283.0 L 226.3,-1285.3 L 237.4,-1287.4 L 248.6,-1289.2 L 259.7,-1290.8 L 271.0,-1292.1 L 282.2,-1293.2 L 293.5,-1294.0 L 304.8,-1294.7 L 316.1,-1295.1 L 327.3,-1295.5 L 338.6,-1295.7 L 349.9,-1295.8 L 361.2,-1295.8 L 372.5,-1295.6 L 383.8,-1295.0 L 395.1,-1294.1 L 406.3,-1292.8 L 417.5,-1291.1 L 428.6,-1289.1 L 439.6,-1286.6 L 450.6,-1283.8 L 461.4,-1280.6 L 472.1,-1277.1 L 482.7,-1273.2 L 493.2,-1268.9 L 503.5,-1264.2 L 513.6,-1259.2 L 523.5,-1253.8 L 533.3,-1248.1 L 542.8,-1242.0 L 552.1,-1235.7 L 561.2,-1229.0 L 570.1,-1221.9 L 578.7,-1214.6 L 587.0,-1207.0 L 595.1,-1199.0 L 602.8,-1190.8 L 610.3,-1182.4 L 617.5,-1173.7 L 624.4,-1164.7 L 631.0,-1155.5 L 637.2,-1146.1 L 643.1,-1136.4 L 648.7,-1126.6 L 653.9,-1116.6 L 658.8,-1106.4 L 663.3,-1096.0 L 667.5,-1085.5 L 671.3,-1074.9 L 674.7,-1064.1 L 677.8,-1053.3 L 680.5,-1042.3 L 682.8,-1031.2 L 684.8,-1020.1 L 686.4,-1008.9 L 687.6,-997.7 L 688.4,-986.4 L 688.9,-975.1 L 689.0,-963.8 L 688.8,-952.5 L 688.3,-941.3 L 687.4,-930.0 L 686.1,-918.8 L 684.5,-907.6 L 682.5,-896.5 L 680.1,-885.4 L 677.3,-874.5 L 674.1,-863.6 L 670.4,-853.0 L 666.4,-842.4 L 661.8,-832.1 L 656.9,-821.9 L 651.5,-812.0 L 645.7,-802.3 L 639.4,-792.9 L 632.8,-783.7 L 625.8,-774.9 L 618.4,-766.3 L 610.7,-758.1 L 602.6,-750.2 L 594.2,-742.6 L 585.6,-735.3 L 576.7,-728.3 L 567.6,-721.6 L 558.3,-715.2 L 548.8,-709.1 L 539.1,-703.3 L 529.3,-697.7 L 519.3,-692.3 L 509.3,-687.1 L 499.2,-682.0 L 488.9,-677.4 L 478.4,-673.3 L 467.7,-669.8 L 456.8,-666.7 L 445.8,-664.0 L 434.8,-661.6 L 423.7,-659.5 L 412.5,-657.6 L 401.4,-656.0 L 390.1,-654.5 L 378.9,-653.2 L 367.7,-652.0 L 356.4,-651.0 L 345.2,-650.1 L 333.9,-649.4 L 322.6,-648.8 L 311.3,-648.2 L 300.0,-647.8 L 288.7,-647.5 L 277.4,-647.3 L 266.1,-647.1 L 254.8,-647.1 L 243.5,-647.2 L 232.2,-647.4 L 220.9,-647.7" stroke="#4ECDC4" stroke-width="6" fill="none" opacity="0.85"/>
  <circle cx="97.0" cy="-1245.0" r="10" fill="#4ECDC4"/>
  <circle cx="220.9" cy="-647.7" r="6" fill="#4ECDC4" opacity="0.6"/>
  <text x="115.0" y="-1263.0" fill="#4ECDC4" font-size="36" font-family="monospace">2</text>
  <path d="M 222.0,-648.0 L 230.4,-647.7 L 238.8,-646.7 L 247.1,-644.9 L 255.2,-642.4 L 263.0,-639.1 L 270.4,-635.2 L 277.6,-630.6 L 284.3,-625.5 L 290.7,-620.0 L 296.8,-614.1 L 302.5,-608.0 L 308.0,-601.5 L 313.3,-594.9 L 318.4,-588.2 L 323.3,-581.3 L 328.2,-574.4 L 333.1,-567.6 L 338.1,-560.7 L 343.1,-553.9 L 348.0,-547.0 L 353.0,-540.2 L 358.0,-533.3 L 362.9,-526.5 L 367.9,-519.7 L 372.8,-512.8 L 377.8,-506.0 L 382.8,-499.1 L 387.7,-492.3 L 392.7,-485.5 L 397.7,-478.6 L 402.6,-471.8 L 407.6,-464.9 L 412.5,-458.1 L 417.5,-451.2 L 422.5,-444.4 L 427.4,-437.6 L 432.4,-430.7 L 437.4,-423.9 L 442.3,-417.0 L 447.3,-410.2 L 452.2,-403.3 L 457.2,-396.5 L 462.2,-389.7 L 467.1,-382.8 L 472.1,-376.0 L 477.1,-369.1 L 482.0,-362.3 L 487.0,-355.4 L 491.9,-348.6 L 496.9,-341.8 L 501.9,-334.9 L 506.8,-328.1 L 511.8,-321.2 L 516.7,-314.4 L 521.7,-307.5 L 526.7,-300.7 L 531.6,-293.9 L 536.6,-287.0 L 541.5,-280.2 L 546.5,-273.3 L 551.5,-266.5 L 556.4,-259.6 L 561.4,-252.8 L 566.4,-245.9 L 571.3,-239.1 L 576.3,-232.3 L 581.2,-225.4 L 586.2,-218.6 L 591.2,-211.7 L 596.1,-204.9 L 601.1,-198.0 L 606.0,-191.2 L 611.0,-184.4 L 616.0,-177.5 L 620.9,-170.7 L 625.9,-163.8 L 630.8,-157.0 L 635.8,-150.1 L 640.8,-143.3 L 645.7,-136.4 L 650.7,-129.6 L 655.6,-122.8 L 660.6,-115.9 L 665.6,-109.1 L 670.5,-102.2 L 675.5,-95.4 L 680.5,-88.6 L 685.4,-81.7 L 690.4,-74.9 L 695.3,-68.0 L 700.3,-61.2 L 705.3,-54.3 L 710.2,-47.5 L 715.2,-40.7 L 720.3,-33.9 L 725.8,-27.5 L 731.9,-21.7 L 738.6,-16.5 L 745.7,-12.0 L 753.3,-8.2 L 761.2,-5.2 L 769.3,-2.9 L 777.6,-1.3 L 786.0,-0.4 L 794.4,-0.0 L 802.9,-0.4 L 811.2,-2.0 L 819.1,-4.8 L 826.6,-8.8 L 833.5,-13.7 L 839.8,-19.3 L 845.5,-25.5 L 850.7,-32.2 L 855.5,-39.1 L 860.0,-46.3 L 864.1,-53.7 L 868.1,-61.1 L 871.9,-68.7 L 875.6,-76.3 L 879.3,-83.9 L 883.0,-91.5 L 886.8,-99.1 L 890.5,-106.6 L 894.2,-114.2 L 897.9,-121.8 L 901.7,-129.4 L 905.4,-137.0" stroke="#45B7D1" stroke-width="6" fill="none" opacity="0.85"/>
  <circle cx="222.0" cy="-648.0" r="10" fill="#45B7D1"/>
  <circle cx="905.4" cy="-137.0" r="6" fill="#45B7D1" opacity="0.6"/>
  <text x="240.0" y="-666.0" fill="#45B7D1" font-size="36" font-family="monospace">3</text>
</svg>