<?xml version="1.0" encoding="UTF-8"?>
<svg xmlns="http://www.w3.org/2000/svg" viewBox="-200 -1495.9680118128292 1600 2377.96801181283">
  <title>cogncur strokes for s</title>
  <line x1="-200" y1="0" x2="1400" y2="0" stroke="#2F3A56" stroke-width="4" opacity="0.55"/>
  <line x1="-200" y1="-614.0003000000003" x2="1400" y2="-614.0003000000003" stroke="#457B9D" stroke-width="3" opacity="0.5" stroke-dasharray="24 14"/>
  <line x1="-200" y1="-1295.9680118128292" x2="1400" y2="-1295.9680118128292" stroke="#2F3A56" stroke-width="4" opacity="0.45"/>
  <line x1="-200" y1="682.0000000000005" x2="1400" y2="682.0000000000005" stroke="#ADB5BD" stroke-width="2" opacity="0.35"/>
  <path d="M 34.0,-0.0 L 39.0,-4.8 L 43.9,-9.7 L 48.9,-14.5 L 53.9,-19.3 L 58.9,-24.2 L 63.9,-29.0 L 68.9,-33.8 L 73.8,-38.7 L 78.8,-43.5 L 83.8,-48.3 L 88.8,-53.2 L 93.8,-58.0 L 98.8,-62.9 L 103.8,-67.7 L 108.7,-72.5 L 113.7,-77.4 L 118.7,-82.2 L 123.7,-87.0 L 128.7,-91.9 L 133.7,-96.7 L 138.6,-101.5 L 143.6,-106.4 L 148.6,-111.2 L 153.6,-116.0 L 158.6,-120.9 L 163.6,-125.7 L 168.5,-130.5 L 173.5,-135.4 L 178.5,-140.2 L 183.5,-145.0 L 188.5,-149.9 L 193.5,-154.7 L 198.5,-159.5 L 203.4,-164.4 L 208.4,-169.2 L 213.4,-174.0 L 218.4,-178.9 L 223.4,-183.7 L 228.4,-188.6 L 233.3,-193.4 L 238.3,-198.2 L 243.3,-203.1 L 248.3,-207.9 L 253.3,-212.7 L 258.3,-217.6 L 263.2,-222.4 L 268.2,-227.2 L 273.2,-232.1 L 278.2,-236.9 L 283.2,-241.7 L 288.2,-246.6 L 293.2,-251.4 L 298.1,-256.2 L 303.1,-261.1 L 308.1,-265.9 L 313.1,-270.7 L 318.1,-275.6 L 323.1,-280.4 L 328.0,-285.2 L 333.0,-290.1 L 338.0,-294.9 L 343.0,-299.7 L 348.0,-304.6 L 353.0,-309.4 L 357.9,-314.3 L 362.9,-319.1 L 367.9,-323.9 L 372.9,-328.8 L 377.9,-333.6 L 382.9,-338.4 L 387.9,-343.3 L 392.8,-348.1 L 397.8,-352.9 L 402.8,-357.8 L 407.8,-362.6 L 412.8,-367.4 L 417.8,-372.3 L 422.7,-377.1 L 427.7,-381.9 L 432.7,-386.8 L 437.7,-391.6 L 442.7,-396.4 L 447.7,-401.3 L 452.7,-406.1 L 457.6,-410.9 L 462.6,-415.8 L 467.6,-420.6 L 472.6,-425.4 L 477.6,-430.3 L 482.6,-435.1 L 487.5,-440.0 L 492.5,-444.8 L 497.5,-449.6 L 502.5,-454.5 L 507.5,-459.3 L 512.5,-464.1 L 517.4,-469.0 L 522.4,-473.8 L 527.4,-478.6 L 532.4,-483.5 L 537.4,-488.3 L 542.4,-493.1 L 547.4,-498.0 L 552.3,-502.8 L 557.3,-507.6 L 562.3,-512.5 L 567.3,-517.3 L 572.3,-522.1 L 577.3,-527.0 L 582.2,-531.8 L 587.2,-536.6 L 592.2,-541.5 L 597.2,-546.3 L 602.2,-551.1 L 607.2,-556.0 L 612.1,-560.8 L 617.1,-565.7 L 622.1,-570.5 L 627.1,-575.3 L 632.1,-580.2 L 637.1,-585.0 L 642.1,-589.8 L 647.0,-594.7 L 652.0,-599.5 L 657.0,-604.3 L 662.0,-609.2 L 667.0,-614.0" stroke="#FF6B6B" stroke-width="6" fill="none" opacity="0.85"/>
  <circle cx="34.0" cy="-0.0" r="10" fill="#FF6B6B"/>
  <circle cx="667.0" cy="-614.0" r="6" fill="#FF6B6B" opacity="0.6"/>
  <text x="52.0" y="-18.0" fill="#FF6B6B" font-size="36" font-family="monospace">1</text>
  <path d="M 667.0,-614.0 L 667.0,-606.5 L 667.0,-599.1 L 667.0,-591.6 L 667.0,-584.1 L 667.0,-576.6 L 667.0,-569.2 L 667.0,-561.7 L 667.0,-554.2 L 667.0,-546.7 L 667.0,-539.3 L 667.0,-531.8 L 667.0,-524.3 L 667.0,-516.9 L 667.0,-509.4 L 667.0,-501.9 L 667.0,-494.4 L 667.0,-487.0 L 667.0,-479.5 L 667.0,-472.0 L 667.0,-464.6 L 667.0,-457.1 L 667.0,-449.6 L 667.0,-442.1 L 667.0,-434.7 L 667.0,-427.2 L 667.0,-419.7 L 667.0,-412.2 L 667.0,-404.8 L 667.0,-397.3 L 667.0,-389.8 L 667.0,-382.4 L 667.0,-374.9 L 667.0,-367.4 L 667.0,-359.9 L 667.0,-352.5 L 667.0,-345.0 L 667.0,-337.5 L 667.0,-330.0 L 667.0,-322.6 L 667.0,-315.1 L 667.0,-307.6 L 667.0,-300.2 L 667.0,-292.7 L 667.0,-285.2 L 667.0,-277.7 L 667.0,-270.3 L 667.0,-262.8 L 667.0,-255.3 L 667.0,-247.8 L 667.0,-240.4 L 667.0,-232.9 L 667.0,-225.4 L 667.0,-218.0 L 667.0,-210.5 L 667.0,-203.0 L 667.0,-195.5 L 667.0,-188.1 L 667.0,-180.6 L 666.8,-173.1 L 666.5,-165.7 L 665.9,-158.2 L 665.1,-150.8 L 664.1,-143.4 L 662.9,-136.0 L 661.3,-128.7 L 659.5,-121.4 L 657.4,-114.3 L 655.0,-107.2 L 652.3,-100.2 L 649.3,-93.4 L 645.9,-86.8 L 642.2,-80.3 L 638.1,-74.0 L 633.7,-67.9 L 629.0,-62.1 L 624.0,-56.6 L 618.7,-51.3 L 613.1,-46.4 L 607.3,-41.7 L 601.3,-37.3 L 595.0,-33.2 L 588.6,-29.4 L 581.9,-26.0 L 575.2,-22.7 L 568.3,-19.8 L 561.4,-17.1 L 554.3,-14.7 L 547.2,-12.5 L 540.0,-10.5 L 532.7,-8.7 L 525.4,-7.2 L 518.0,-5.8 L 510.7,-4.6 L 503.3,-3.5 L 495.9,-2.6 L 488.4,-1.9 L 481.0,-1.3 L 473.5,-0.8 L 466.0,-0.5 L 458.6,-0.3 L 451.1,-0.2 L 443.6,-0.2 L 436.2,-0.4 L 428.7,-0.8 L 421.3,-1.5 L 413.8,-2.3 L 406.4,-3.4 L 399.1,-4.7 L 391.8,-6.2 L 384.5,-7.9 L 377.3,-9.9 L 370.1,-12.1 L 363.1,-14.5 L 356.1,-17.1 L 349.2,-19.9 L 342.4,-23.0 L 335.7,-26.4 L 329.1,-30.0 L 322.7,-33.8 L 316.4,-37.9 L 310.3,-42.2 L 304.4,-46.8 L 298.7,-51.6 L 293.2,-56.7 L 288.0,-62.0 L 283.0,-67.6 L 278.3,-73.4" stroke="#4ECDC4" stroke-width="6" fill="none" opacity="0.85"/>
  <circle cx="667.0" cy="-614.0" r="10" fill="#4ECDC4"/>
  <circle cx="278.3" cy="-73.4" r="6" fill="#4ECDC4" opacity="0.6"/>
  <text x="685.0" y="-632.0" fill="#4ECDC4" font-size="36" font-family="monospace">2</text>
  <path d="M 278.3,-73.4 L 281.3,-69.6 L 284.5,-65.9 L 287.7,-62.3 L 291.1,-58.8 L 294.5,-55.4 L 298.1,-52.1 L 301.7,-49.0 L 305.5,-45.9 L 309.3,-42.9 L 313.2,-40.1 L 317.2,-37.3 L 321.3,-34.7 L 325.4,-32.1 L 329.6,-29.7 L 333.8,-27.4 L 338.1,-25.1 L 342.4,-23.0 L 346.8,-21.0 L 351.3,-19.0 L 355.8,-17.2 L 360.3,-15.5 L 364.8,-13.8 L 369.4,-12.3 L 374.0,-10.8 L 378.7,-9.5 L 383.4,-8.2 L 388.1,-7.1 L 392.8,-6.0 L 397.5,-5.0 L 402.3,-4.1 L 407.0,-3.3 L 411.8,-2.6 L 416.6,-2.0 L 421.4,-1.4 L 426.3,-1.0 L 431.1,-0.6 L 435.9,-0.4 L 440.8,-0.2 L 445.6,-0.1 L 450.4,-0.1 L 455.3,-0.2 L 460.1,-0.2 L 465.0,-0.3 L 469.8,-0.3 L 474.6,-0.4 L 479.5,-0.6 L 484.3,-0.7 L 489.2,-0.9 L 494.0,-1.0 L 498.8,-1.3 L 503.7,-1.5 L 508.5,-1.7 L 513.3,-2.0 L 518.2,-2.3 L 523.0,-2.6 L 527.8,-3.0 L 532.6,-3.4 L 537.5,-3.8 L 542.3,-4.2 L 547.1,-4.6 L 551.9,-5.1 L 556.7,-5.6 L 561.5,-6.2 L 566.4,-6.7 L 571.2,-7.3 L 576.0,-7.9 L 580.8,-8.6 L 585.5,-9.3 L 590.3,-10.0 L 595.1,-10.7 L 599.9,-11.5 L 604.7,-12.3 L 609.4,-13.2 L 614.2,-14.1 L 618.9,-15.0 L 623.7,-16.0 L 628.4,-17.0 L 633.1,-18.0 L 637.9,-19.1 L 642.6,-20.2 L 647.3,-21.4 L 651.9,-22.6 L 656.6,-23.9 L 661.3,-25.2 L 665.9,-26.6 L 670.5,-28.0 L 675.1,-29.5 L 679.7,-31.1 L 684.3,-32.7 L 688.9,-34.3 L 693.4,-36.0 L 697.9,-37.8 L 702.3,-39.7 L 706.8,-41.6 L 711.2,-43.7 L 715.5,-45.8 L 719.9,-47.9 L 724.1,-50.2 L 728.4,-52.5 L 732.6,-54.9 L 736.8,-57.3 L 741.0,-59.7 L 745.1,-62.3 L 749.2,-64.9 L 753.3,-67.5 L 757.3,-70.2 L 761.3,-72.9 L 765.2,-75.7 L 769.2,-78.5 L 773.1,-81.4 L 776.9,-84.3 L 780.7,-87.3 L 784.5,-90.3 L 788.2,-93.4 L 792.0,-96.5 L 795.6,-99.7 L 799.3,-102.9 L 802.9,-106.1 L 806.4,-109.4 L 809.9,-112.7 L 813.4,-116.1 L 816.9,-119.5 L 820.3,-122.9 L 823.7,-126.4 L 827.0,-129.9 L 830.3,-133.4 L 833.6,-137.0" stroke="#45B7D1" stroke-width="6" fill="none" opacity="0.85"/>
  <circle cx="278.3" cy="-73.4" r="10" fill="#45B7D1"/>
  <circle cx="833.6" cy="-137.0" r="6" fill="#45B7D1" opacity="0.6"/>
  <text x="296.3" y="-91.4" fill="#45B7D1" font-size="36" font-family="monospace">3</text>
</svg>