<?xml version="1.0" encoding="UTF-8"?>
<svg xmlns="http://www.w3.org/2000/svg" viewBox="-200 -1495.9680118128292 1600 2377.96801181283">
  <title>cogncur strokes for T</title>
  <line x1="-200" y1="0" x2="1400" y2="0" stroke="#2F3A56" stroke-width="4" opacity="0.55"/>
  <line x1="-200" y1="-614.0003000000003" x2="1400" y2="-614.0003000000003" stroke="#457B9D" stroke-width="3" opacity="0.5" stroke-dasharray="24 14"/>
  <line x1="-200" y1="-1295.9680118128292" x2="1400" y2="-1295.9680118128292" stroke="#2F3A56" stroke-width="4" opacity="0.45"/>
  <line x1="-200" y1="682.0000000000005" x2="1400" y2="682.0000000000005" stroke="#ADB5BD" stroke-width="2" opacity="0.35"/>
  <path d="M 483.4,-1262.0 L 483.4,-1250.9 L 483.4,-1239.8 L 483.4,-1228.7 L 483.4,-1217.6 L 483.4,-1206.6 L 483.4,-1195.5 L 483.4,-1184.4 L 483.4,-1173.3 L 483.4,-1162.2 L 483.4,-1151.1 L 483.4,-1140.0 L 483.4,-1128.9 L 483.4,-1117.8 L 483.4,-1106.7 L 483.4,-1095.7 L 483.4,-1084.6 L 483.4,-1073.5 L 483.4,-1062.4 L 483.4,-1051.3 L 483.4,-1040.2 L 483.4,-1029.1 L 483.4,-1018.0 L 483.4,-1006.9 L 483.5,-995.9 L 483.5,-984.8 L 483.5,-973.7 L 483.5,-962.6 L 483.5,-951.5 L 483.5,-940.4 L 483.5,-929.3 L 483.5,-918.2 L 483.5,-907.1 L 483.5,-896.0 L 483.5,-885.0 L 483.5,-873.9 L 483.5,-862.8 L 483.5,-851.7 L 483.5,-840.6 L 483.5,-829.5 L 483.5,-818.4 L 483.6,-807.3 L 483.6,-796.2 L 483.6,-785.2 L 483.6,-774.1 L 483.6,-763.0 L 483.6,-751.9 L 483.6,-740.8 L 483.6,-729.7 L 483.6,-718.6 L 483.6,-707.5 L 483.6,-696.4 L 483.6,-685.3 L 483.6,-674.3 L 483.7,-663.2 L 483.7,-652.1 L 483.7,-641.0 L 483.7,-629.9 L 483.7,-618.8 L 483.7,-607.7 L 483.7,-596.6 L 483.7,-585.5 L 483.7,-574.5 L 483.7,-563.4 L 483.7,-552.3 L 483.7,-541.2 L 483.8,-530.1 L 483.8,-519.0 L 483.8,-507.9 L 483.8,-496.8 L 483.8,-485.7 L 483.8,-474.6 L 483.8,-463.6 L 483.8,-452.5 L 483.8,-441.4 L 483.8,-430.3 L 483.8,-419.2 L 483.9,-408.1 L 483.9,-397.0 L 483.9,-385.9 L 483.9,-374.8 L 483.9,-363.8 L 483.9,-352.7 L 483.9,-341.6 L 483.9,-330.5 L 483.9,-319.4 L 483.9,-308.3 L 483.9,-297.2 L 484.0,-286.1 L 484.0,-275.0 L 484.0,-263.9 L 484.0,-252.9 L 484.0,-241.8 L 484.0,-230.7 L 484.0,-219.6 L 484.0,-208.5 L 484.0,-197.4 L 484.0,-186.3 L 484.0,-175.2 L 483.7,-164.1 L 483.3,-153.1 L 482.5,-142.0 L 481.4,-131.0 L 480.0,-120.0 L 478.2,-109.0 L 476.0,-98.2 L 473.3,-87.4 L 470.1,-76.8 L 466.2,-66.4 L 461.7,-56.3 L 456.4,-46.6 L 450.2,-37.4 L 443.1,-28.8 L 435.1,-21.2 L 426.2,-14.6 L 416.5,-9.2 L 406.2,-5.1 L 395.5,-2.3 L 384.5,-0.6 L 373.4,-0.0 L 362.4,-0.3 L 351.3,-1.6 L 340.5,-4.0 L 330.1,-7.7 L 320.2,-12.8 L 311.1,-19.1 L 303.0,-26.6 L 295.8,-35.0" stroke="#FF6B6B" stroke-width="6" fill="none" opacity="0.85"/>
  <circle cx="483.4" cy="-1262.0" r="10" fill="#FF6B6B"/>
  <circle cx="295.8" cy="-35.0" r="6" fill="#FF6B6B" opacity="0.6"/>
  <text x="501.4" y="-1280.0" fill="#FF6B6B" font-size="36" font-family="monospace">1</text>
  <path d="M 34.4,-1228.0 L 40.0,-1232.8 L 45.7,-1237.4 L 51.6,-1241.9 L 57.6,-1246.2 L 63.8,-1250.3 L 70.0,-1254.2 L 76.3,-1258.0 L 82.7,-1261.6 L 89.3,-1265.1 L 95.8,-1268.4 L 102.5,-1271.5 L 109.3,-1274.5 L 116.1,-1277.4 L 123.0,-1280.0 L 129.9,-1282.5 L 136.9,-1284.8 L 144.0,-1286.9 L 151.1,-1288.8 L 158.3,-1290.5 L 165.5,-1292.0 L 172.8,-1293.3 L 180.1,-1294.4 L 187.4,-1295.2 L 194.8,-1295.7 L 202.1,-1296.0 L 209.5,-1296.0 L 216.9,-1295.8 L 224.3,-1295.5 L 231.6,-1295.1 L 239.0,-1294.6 L 246.3,-1294.1 L 253.7,-1293.5 L 261.0,-1292.8 L 268.4,-1292.1 L 275.7,-1291.4 L 283.1,-1290.6 L 290.4,-1289.8 L 297.7,-1288.9 L 305.0,-1288.1 L 312.4,-1287.2 L 319.7,-1286.2 L 327.0,-1285.3 L 334.3,-1284.3 L 341.6,-1283.4 L 348.9,-1282.4 L 356.2,-1281.3 L 363.5,-1280.3 L 370.8,-1279.2 L 378.1,-1278.1 L 385.4,-1277.0 L 392.7,-1275.9 L 400.0,-1274.8 L 407.3,-1273.6 L 414.6,-1272.5 L 421.9,-1271.3 L 429.2,-1270.2 L 436.5,-1269.0 L 443.7,-1267.9 L 451.0,-1266.7 L 458.3,-1265.6 L 465.6,-1264.5 L 472.9,-1263.4 L 480.2,-1262.4 L 487.5,-1261.4 L 494.8,-1260.2 L 502.1,-1259.1 L 509.4,-1257.9 L 516.7,-1256.8 L 524.0,-1255.7 L 531.2,-1254.5 L 538.5,-1253.4 L 545.8,-1252.3 L 553.1,-1251.2 L 560.4,-1250.1 L 567.7,-1249.0 L 575.0,-1247.9 L 582.3,-1246.8 L 589.6,-1245.7 L 596.9,-1244.7 L 604.2,-1243.7 L 611.5,-1242.6 L 618.8,-1241.6 L 626.1,-1240.6 L 633.5,-1239.7 L 640.8,-1238.7 L 648.1,-1237.8 L 655.4,-1236.8 L 662.7,-1235.9 L 670.1,-1235.1 L 677.4,-1234.2 L 684.7,-1233.4 L 692.0,-1232.6 L 699.4,-1231.9 L 706.7,-1231.2 L 714.1,-1230.5 L 721.4,-1229.9 L 728.8,-1229.4 L 736.1,-1228.9 L 743.5,-1228.5 L 750.9,-1228.2 L 758.3,-1228.0 L 765.6,-1228.0 L 773.0,-1228.3 L 780.4,-1228.8 L 787.7,-1229.6 L 795.0,-1230.7 L 802.3,-1232.0 L 809.5,-1233.5 L 816.7,-1235.2 L 823.8,-1237.1 L 830.9,-1239.2 L 837.9,-1241.5 L 844.8,-1244.0 L 851.7,-1246.6 L 858.5,-1249.5 L 865.3,-1252.5 L 871.9,-1255.6 L 878.5,-1258.9 L 885.0,-1262.4 L 891.5,-1266.0 L 897.8,-1269.8 L 904.0,-1273.7 L 910.1,-1277.8 L 916.2,-1282.1 L 922.1,-1286.6 L 927.8,-1291.2 L 933.4,-1296.0" stroke="#4ECDC4" stroke-width="6" fill="none" opacity="0.85"/>
  <circle cx="34.4" cy="-1228.0" r="10" fill="#4ECDC4"/>
  <circle cx="933.4" cy="-1296.0" r="6" fill="#4ECDC4" opacity="0.6"/>
  <text x="52.4" y="-1246.0" fill="#4ECDC4" font-size="36" font-family="monospace">2</text>
</svg>