<?xml version="1.0" encoding="UTF-8"?>
<svg xmlns="http://www.w3.org/2000/svg" viewBox="-200 -1495.9680118128292 1600 2377.96801181283">
  <title>cogncur strokes for V</title>
  <line x1="-200" y1="0" x2="1400" y2="0" stroke="#2F3A56" stroke-width="4" opacity="0.55"/>
  <line x1="-200" y1="-614.0003000000003" x2="1400" y2="-614.0003000000003" stroke="#457B9D" stroke-width="3" opacity="0.5" stroke-dasharray="24 14"/>
  <line x1="-200" y1="-1295.9680118128292" x2="1400" y2="-1295.9680118128292" stroke="#2F3A56" stroke-width="4" opacity="0.45"/>
  <line x1="-200" y1="682.0000000000005" x2="1400" y2="682.0000000000005" stroke="#ADB5BD" stroke-width="2" opacity="0.35"/>
  <path d="M 34.6,-1103.0 L 46.0,-1126.2 L 57.4,-1149.3 L 68.7,-1172.5 L 80.1,-1195.6 L 91.5,-1218.8 L 103.3,-1241.8 L 117.0,-1263.6 L 134.7,-1282.2 L 157.5,-1293.9 L 183.1,-1295.5 L 207.8,-1288.4 L 227.5,-1272.0 L 240.0,-1249.6 L 246.6,-1224.7 L 248.9,-1199.0 L 249.0,-1173.2 L 249.0,-1147.4 L 249.0,-1121.6 L 249.0,-1095.8 L 249.0,-1070.0 L 249.0,-1044.2 L 249.0,-1018.4 L 249.0,-992.6 L 249.0,-966.8 L 249.0,-941.0 L 249.0,-915.2 L 249.0,-889.4 L 249.0,-863.6 L 249.0,-837.8 L 249.0,-812.0 L 249.0,-786.2 L 249.0,-760.4 L 249.0,-734.6 L 249.0,-708.8 L 249.0,-683.0 L 249.0,-657.2 L 248.9,-631.4 L 248.9,-605.6 L 248.9,-579.8 L 248.9,-554.0 L 248.9,-528.2 L 248.9,-502.4 L 248.9,-476.6 L 248.9,-450.8 L 248.9,-425.0 L 248.9,-399.2 L 248.9,-373.4 L 248.9,-347.6 L 248.9,-321.8 L 248.9,-296.0 L 249.7,-270.2 L 252.3,-244.5 L 256.8,-219.1 L 263.4,-194.2 L 272.0,-169.8 L 282.6,-146.3 L 295.3,-123.9 L 310.0,-102.7 L 326.7,-83.1 L 345.3,-65.1 L 365.5,-49.2 L 387.3,-35.3 L 410.3,-23.7 L 434.3,-14.4 L 459.2,-7.5 L 484.6,-2.8 L 510.2,-0.4 L 536.0,-0.1 L 561.8,-2.1 L 587.2,-6.1 L 612.3,-12.1 L 636.9,-20.0 L 660.8,-29.7 L 684.0,-41.0 L 706.3,-53.9 L 727.8,-68.2 L 748.4,-83.7 L 768.0,-100.5 L 786.6,-118.4 L 804.2,-137.2 L 820.9,-156.9 L 836.5,-177.4 L 851.3,-198.6 L 865.1,-220.4 L 877.6,-243.0 L 888.8,-266.2 L 899.0,-289.9 L 908.3,-313.9 L 916.9,-338.3 L 924.7,-362.9 L 932.0,-387.6 L 938.6,-412.5 L 944.8,-437.6 L 950.4,-462.8 L 955.6,-488.0 L 960.4,-513.4 L 964.8,-538.8 L 968.7,-564.3 L 972.3,-589.9 L 975.5,-615.5 L 978.3,-641.1 L 980.7,-666.8 L 982.8,-692.5 L 984.6,-718.3 L 986.0,-744.0 L 987.0,-769.8 L 987.7,-795.6 L 988.0,-821.4 L 987.9,-847.2 L 987.3,-873.0 L 986.2,-898.8 L 984.7,-924.5 L 982.6,-950.3 L 979.9,-975.9 L 976.8,-1001.5 L 973.2,-1027.1 L 969.0,-1052.5 L 964.2,-1077.9 L 958.9,-1103.1 L 952.9,-1128.2 L 946.3,-1153.2 L 939.1,-1177.9 L 931.0,-1202.5 L 922.1,-1226.7 L 912.2,-1250.5 L 901.0,-1273.7 L 888.0,-1296.0" stroke="#FF6B6B" stroke-width="6" fill="none" opacity="0.85"/>
  <circle cx="34.6" cy="-1103.0" r="10" fill="#FF6B6B"/>
  <circle cx="888.0" cy="-1296.0" r="6" fill="#FF6B6B" opacity="0.6"/>
  <text x="52.6" y="-1121.0" fill="#FF6B6B" font-size="36" font-family="monospace">1</text>
  <path d="M 888.0,-1296.0 L 889.6,-1293.3 L 891.2,-1290.6 L 892.9,-1287.9 L 894.6,-1285.3 L 896.3,-1282.7 L 898.1,-1280.1 L 900.0,-1277.6 L 901.9,-1275.1 L 903.8,-1272.6 L 905.9,-1270.2 L 907.9,-1267.8 L 910.0,-1265.5 L 912.2,-1263.2 L 914.5,-1261.0 L 916.7,-1258.9 L 919.1,-1256.8 L 921.5,-1254.7 L 923.9,-1252.7 L 926.4,-1250.8 L 928.9,-1248.9 L 931.4,-1247.0 L 934.0,-1245.2 L 936.6,-1243.5 L 939.3,-1241.8 L 941.9,-1240.1 L 944.6,-1238.5 L 947.3,-1236.9 L 950.0,-1235.3 L 952.8,-1233.8 L 955.5,-1232.2 L 958.3,-1230.7 L 961.1,-1229.3 L 963.8,-1227.8 L 966.6,-1226.3 L 969.4,-1224.9 L 972.3,-1223.6 L 975.2,-1222.3 L 978.0,-1221.1 L 981.0,-1219.9 L 983.9,-1218.8 L 986.9,-1217.8 L 989.9,-1216.8 L 992.9,-1215.9 L 995.9,-1215.0 L 998.9,-1214.2 L 1002.0,-1213.4 L 1005.0,-1212.7 L 1008.1,-1212.1 L 1011.2,-1211.5 L 1014.3,-1211.0 L 1017.4,-1210.5 L 1020.5,-1210.1 L 1023.6,-1209.7 L 1026.8,-1209.3 L 1029.9,-1209.0 L 1033.0,-1208.8 L 1036.2,-1208.6 L 1039.3,-1208.4 L 1042.4,-1208.2 L 1045.6,-1208.1 L 1048.7,-1208.1 L 1051.9,-1208.0 L 1055.0,-1208.0 L 1058.2,-1208.0 L 1061.3,-1208.0 L 1064.4,-1208.1 L 1067.6,-1208.2 L 1070.7,-1208.3 L 1073.9,-1208.5 L 1077.0,-1208.6 L 1080.1,-1208.9 L 1083.3,-1209.2 L 1086.4,-1209.5 L 1089.5,-1209.8 L 1092.6,-1210.3 L 1095.7,-1210.7 L 1098.8,-1211.2 L 1101.9,-1211.8 L 1105.0,-1212.4 L 1108.1,-1213.1 L 1111.1,-1213.9 L 1114.2,-1214.7 L 1117.2,-1215.5 L 1120.2,-1216.5 L 1123.2,-1217.4 L 1126.2,-1218.5 L 1129.1,-1219.6 L 1132.0,-1220.7 L 1134.9,-1221.9 L 1137.8,-1223.2 L 1140.7,-1224.5 L 1143.5,-1225.9 L 1146.3,-1227.3 L 1149.1,-1228.8 L 1151.8,-1230.3 L 1154.6,-1231.8 L 1157.4,-1233.3 L 1160.1,-1234.8 L 1162.8,-1236.4 L 1165.5,-1238.0 L 1168.2,-1239.6 L 1170.9,-1241.2 L 1173.6,-1242.9 L 1176.2,-1244.6 L 1178.8,-1246.4 L 1181.4,-1248.2 L 1183.9,-1250.0 L 1186.4,-1251.9 L 1188.9,-1253.9 L 1191.3,-1255.9 L 1193.7,-1257.9 L 1196.1,-1260.0 L 1198.3,-1262.2 L 1200.6,-1264.4 L 1202.8,-1266.6 L 1204.9,-1268.9 L 1207.0,-1271.3 L 1209.0,-1273.7 L 1211.0,-1276.1 L 1212.9,-1278.6 L 1214.8,-1281.1 L 1216.6,-1283.7 L 1218.4,-1286.3 L 1220.1,-1288.9 L 1221.8,-1291.6 L 1223.4,-1294.3 L 1225.0,-1297.0" stroke="#4ECDC4" stroke-width="6" fill="none" opacity="0.85"/>
  <circle cx="888.0" cy="-1296.0" r="10" fill="#4ECDC4"/>
  <circle cx="1225.0" cy="-1297.0" r="6" fill="#4ECDC4" opacity="0.6"/>
  <text x="906.0" y="-1314.0" fill="#4ECDC4" font-size="36" font-family="monospace">2</text>
</svg>