<?xml version="1.0" encoding="UTF-8"?>
<svg xmlns="http://www.w3.org/2000/svg" viewBox="-200 -1495.9680118128292 1600 2377.96801181283">
  <title>cogncur strokes for Y</title>
  <line x1="-200" y1="0" x2="1400" y2="0" stroke="#2F3A56" stroke-width="4" opacity="0.55"/>
  <line x1="-200" y1="-614.0003000000003" x2="1400" y2="-614.0003000000003" stroke="#457B9D" stroke-width="3" opacity="0.5" stroke-dasharray="24 14"/>
  <line x1="-200" y1="-1295.9680118128292" x2="1400" y2="-1295.9680118128292" stroke="#2F3A56" stroke-width="4" opacity="0.45"/>
  <line x1="-200" y1="682.0000000000005" x2="1400" y2="682.0000000000005" stroke="#ADB5BD" stroke-width="2" opacity="0.35"/>
  <path d="M 34.6,-1103.0 L 46.1,-1126.3 L 57.5,-1149.6 L 68.9,-1172.9 L 80.4,-1196.2 L 91.8,-1219.5 L 103.7,-1242.5 L 117.6,-1264.4 L 135.6,-1283.0 L 158.8,-1294.2 L 184.6,-1295.4 L 209.2,-1287.6 L 228.5,-1270.6 L 240.7,-1247.8 L 246.9,-1222.6 L 249.0,-1196.8 L 249.0,-1170.9 L 249.0,-1144.9 L 249.0,-1119.0 L 249.0,-1093.0 L 249.0,-1067.1 L 249.0,-1041.1 L 249.0,-1015.2 L 249.0,-989.2 L 249.0,-963.3 L 249.0,-937.3 L 249.0,-911.4 L 249.0,-885.4 L 249.0,-859.5 L 249.0,-833.5 L 249.0,-807.6 L 249.0,-781.6 L 249.0,-755.7 L 249.0,-729.7 L 249.0,-703.8 L 249.0,-677.8 L 249.0,-651.9 L 249.0,-625.9 L 249.0,-600.0 L 249.0,-574.0 L 249.0,-548.1 L 249.0,-522.2 L 249.0,-496.2 L 249.0,-470.3 L 249.0,-444.3 L 249.0,-418.4 L 249.0,-392.4 L 249.0,-366.5 L 249.0,-340.5 L 249.0,-314.6 L 249.0,-288.6 L 250.0,-262.7 L 253.0,-236.9 L 258.0,-211.5 L 265.2,-186.5 L 274.5,-162.3 L 285.9,-139.0 L 299.4,-116.9 L 315.0,-96.2 L 332.6,-77.1 L 352.0,-59.9 L 373.0,-44.6 L 395.4,-31.6 L 419.0,-20.8 L 443.5,-12.3 L 468.7,-6.1 L 494.3,-2.1 L 520.2,-0.2 L 546.1,-0.2 L 572.0,-1.8 L 597.8,-4.8 L 623.3,-9.3 L 648.6,-15.3 L 673.4,-22.8 L 697.8,-31.7 L 721.6,-42.0 L 744.8,-53.6 L 767.3,-66.6 L 789.0,-80.8 L 809.8,-96.2 L 829.8,-112.8 L 848.7,-130.5 L 866.6,-149.3 L 883.3,-169.2 L 898.6,-190.2 L 912.3,-212.1 L 924.3,-235.2 L 933.9,-259.3 L 940.4,-284.4 L 942.5,-310.2 L 942.6,-336.1 L 942.6,-362.1 L 942.6,-388.0 L 942.6,-414.0 L 942.6,-439.9 L 942.7,-465.9 L 942.7,-491.8 L 942.7,-517.8 L 942.7,-543.7 L 942.7,-569.7 L 942.7,-595.6 L 942.7,-621.6 L 942.8,-647.5 L 942.8,-673.5 L 942.8,-699.4 L 942.8,-725.4 L 942.8,-751.3 L 942.8,-777.2 L 942.8,-803.2 L 942.9,-829.1 L 942.9,-855.1 L 942.9,-881.0 L 942.9,-907.0 L 942.9,-932.9 L 942.9,-958.9 L 942.9,-984.8 L 942.9,-1010.8 L 942.9,-1036.7 L 943.0,-1062.7 L 943.0,-1088.6 L 943.0,-1114.6 L 943.0,-1140.5 L 943.0,-1166.5 L 943.0,-1192.4 L 943.0,-1218.4 L 943.0,-1244.3 L 943.0,-1270.3 L 943.0,-1296.2" stroke="#FF6B6B" stroke-width="6" fill="none" opacity="0.85"/>
  <circle cx="34.6" cy="-1103.0" r="10" fill="#FF6B6B"/>
  <circle cx="943.0" cy="-1296.2" r="6" fill="#FF6B6B" opacity="0.6"/>
  <text x="52.6" y="-1121.0" fill="#FF6B6B" font-size="36" font-family="monospace">1</text>
  <path d="M 943.3,-1295.5 L 943.3,-1271.6 L 943.2,-1247.7 L 943.2,-1223.8 L 943.1,-1199.9 L 943.1,-1176.0 L 943.1,-1152.1 L 943.0,-1128.2 L 943.0,-1104.3 L 943.0,-1080.3 L 942.9,-1056.4 L 942.9,-1032.5 L 942.9,-1008.6 L 942.8,-984.7 L 942.8,-960.8 L 942.8,-936.9 L 942.8,-913.0 L 942.7,-889.1 L 942.7,-865.2 L 942.7,-841.2 L 942.7,-817.3 L 942.6,-793.4 L 942.6,-769.5 L 942.6,-745.6 L 942.6,-721.7 L 942.5,-697.8 L 942.5,-673.9 L 942.5,-650.0 L 942.5,-626.1 L 942.5,-602.1 L 942.5,-578.2 L 942.4,-554.3 L 942.4,-530.4 L 942.4,-506.5 L 942.4,-482.6 L 942.4,-458.7 L 942.4,-434.8 L 942.4,-410.9 L 942.4,-386.9 L 942.4,-363.0 L 942.4,-339.1 L 942.4,-315.2 L 942.4,-291.3 L 942.4,-267.4 L 942.4,-243.5 L 942.4,-219.6 L 942.4,-195.7 L 942.4,-171.8 L 942.4,-147.8 L 942.4,-123.9 L 942.5,-100.0 L 942.4,-76.1 L 942.3,-52.2 L 942.3,-28.3 L 942.1,-4.4 L 942.0,19.5 L 942.0,43.4 L 942.0,67.3 L 942.0,91.3 L 942.0,115.2 L 942.0,139.1 L 942.0,163.0 L 942.0,186.9 L 942.0,210.8 L 942.0,234.7 L 942.0,258.6 L 942.0,282.5 L 942.0,306.4 L 942.0,330.4 L 942.0,354.3 L 942.0,378.2 L 942.0,402.1 L 942.0,426.0 L 942.0,449.9 L 941.8,473.8 L 940.8,497.7 L 938.7,521.5 L 935.3,545.2 L 930.3,568.6 L 923.4,591.4 L 913.9,613.4 L 901.4,633.7 L 885.4,651.5 L 866.1,665.4 L 844.2,674.9 L 820.8,679.8 L 797.0,680.9 L 773.2,678.2 L 750.6,670.6 L 730.6,657.7 L 714.5,640.1 L 703.0,619.1 L 696.0,596.3 L 693.1,572.6 L 693.2,548.7 L 694.9,524.9 L 698.8,501.3 L 705.3,478.3 L 714.2,456.1 L 725.3,434.9 L 737.7,414.5 L 750.1,394.0 L 762.5,373.6 L 775.0,353.2 L 787.4,332.8 L 799.8,312.3 L 812.2,291.9 L 824.7,271.5 L 837.1,251.1 L 849.5,230.6 L 862.0,210.2 L 874.4,189.8 L 886.8,169.4 L 899.3,148.9 L 911.7,128.5 L 924.1,108.1 L 936.6,87.7 L 949.0,67.2 L 961.4,46.8 L 973.8,26.4 L 986.3,6.0 L 998.7,-14.5 L 1011.1,-34.9 L 1023.6,-55.3 L 1036.0,-75.7 L 1048.4,-96.2 L 1060.9,-116.6 L 1073.3,-137.0" stroke="#4ECDC4" stroke-width="6" fill="none" opacity="0.85"/>
  <circle cx="943.3" cy="-1295.5" r="10" fill="#4ECDC4"/>
  <circle cx="1073.3" cy="-137.0" r="6" fill="#4ECDC4" opacity="0.6"/>
  <text x="961.3" y="-1313.5" fill="#4ECDC4" font-size="36" font-family="monospace">2</text>
</svg>