<?xml version="1.0" encoding="UTF-8"?>
<svg xmlns="http://www.w3.org/2000/svg" viewBox="-200 -1496.0 1600 2378.0" width="800" height="600" stroke-linecap="round" stroke-linejoin="round">
  <style>
    .guide { stroke-width: 4; opacity: 0.35; fill: none; }
    .guide.mid { stroke-dasharray: 24 14; opacity: 0.5; }
    .stroke { fill: none; stroke-width: 24; stroke-linecap: round; stroke-linejoin: round; }
  </style>
  <line class="guide" x1="-200" y1="0" x2="1400" y2="0" stroke="#2F3A56"/>
  <line class="guide mid" x1="-200" y1="-614.0" x2="1400" y2="-614.0" stroke="#457B9D"/>
  <line class="guide" x1="-200" y1="-1296.0" x2="1400" y2="-1296.0" stroke="#2F3A56"/>
  <line class="guide" x1="-200" y1="682.0" x2="1400" y2="682.0" stroke="#ADB5BD" stroke-width="2"/>
  <path class="stroke" d="M 33.387,-1230.330 C 44.387,-1268.330 89.387,-1294.330 117.789,-1294.330 C 168.387,-1294.330 209.590,-1231.330 265.389,-1231.330 C 321.590,-1231.330 372.387,-1294.330 372.387,-1294.330" stroke="#FF6B6B" pathLength="1" stroke-dasharray="1" stroke-dashoffset="1">
    <animate attributeName="stroke-dashoffset" values="1;0" dur="1.01s" begin="0.00s" fill="freeze"/>
  </path>
  <path class="stroke" d="M 371.385,-1295.000 C 371.382,-1295.003 371.382,-648.003 371.389,457.000 C 371.390,580.000 340.049,681.000 229.389,681.000 C 152.389,681.000 120.993,623.031 120.993,566.000 C 120.993,529.816 123.000,485.000 154.993,432.000 L 501.294,-137.000" stroke="#4ECDC4" pathLength="1" stroke-dasharray="1" stroke-dashoffset="1">
    <animate attributeName="stroke-dashoffset" values="1;0" dur="1.20s" begin="1.16s" fill="freeze"/>
  </path>
</svg>