<?xml version="1.0" encoding="UTF-8"?>
<svg xmlns="http://www.w3.org/2000/svg" viewBox="-200 -1496.0 1600 2378.0" width="800" height="600" stroke-linecap="round" stroke-linejoin="round">
  <style>
    .guide { stroke-width: 4; opacity: 0.35; fill: none; }
    .guide.mid { stroke-dasharray: 24 14; opacity: 0.5; }
    .stroke { fill: none; stroke-width: 24; stroke-linecap: round; stroke-linejoin: round; }
  </style>
  <line class="guide" x1="-200" y1="0" x2="1400" y2="0" stroke="#2F3A56"/>
  <line class="guide mid" x1="-200" y1="-614.0" x2="1400" y2="-614.0" stroke="#457B9D"/>
  <line class="guide" x1="-200" y1="-1296.0" x2="1400" y2="-1296.0" stroke="#2F3A56"/>
  <line class="guide" x1="-200" y1="682.0" x2="1400" y2="682.0" stroke="#ADB5BD" stroke-width="2"/>
  <path class="stroke" d="M 33.993,-1296.210 L 33.993,-289.070 C 33.993,-128.711 143.714,-0.001 316.733,-0.001 C 565.541,-0.001 727.541,-200.001 727.541,-307.001 C 727.541,-307.001 728.000,-910.001 728.304,-1295.540" stroke="#FF6B6B" pathLength="1" stroke-dasharray="1" stroke-dashoffset="1">
    <animate attributeName="stroke-dashoffset" values="1;0" dur="1.20s" begin="0.00s" fill="freeze"/>
  </path>
  <path class="stroke" d="M 728.304,-1295.540 C 728.304,-1295.540 731.882,-531.980 727.464,-102.790 C 726.910,-49.000 744.000,0.000 801.000,0.000 C 843.000,0.000 863.222,-38.891 878.000,-69.000 L 911.377,-137.000" stroke="#4ECDC4" pathLength="1" stroke-dasharray="1" stroke-dashoffset="1">
    <animate attributeName="stroke-dashoffset" values="1;0" dur="1.20s" begin="1.35s" fill="freeze"/>
  </path>
</svg>