<?xml version="1.0" encoding="UTF-8"?>
<svg xmlns="http://www.w3.org/2000/svg" viewBox="-200 -1496.0 1600 2378.0" width="800" height="600" stroke-linecap="round" stroke-linejoin="round">
  <style>
    .guide { stroke-width: 4; opacity: 0.35; fill: none; }
    .guide.mid { stroke-dasharray: 24 14; opacity: 0.5; }
    .stroke { fill: none; stroke-width: 24; stroke-linecap: round; stroke-linejoin: round; }
  </style>
  <line class="guide" x1="-200" y1="0" x2="1400" y2="0" stroke="#2F3A56"/>
  <line class="guide mid" x1="-200" y1="-614.0" x2="1400" y2="-614.0" stroke="#457B9D"/>
  <line class="guide" x1="-200" y1="-1296.0" x2="1400" y2="-1296.0" stroke="#2F3A56"/>
  <line class="guide" x1="-200" y1="682.0" x2="1400" y2="682.0" stroke="#ADB5BD" stroke-width="2"/>
  <path class="stroke" d="M 34.638,-1103.000 L 95.994,-1228.000 C 111.353,-1258.000 131.994,-1296.000 173.994,-1296.000 C 231.994,-1296.000 248.994,-1243.564 248.994,-1194.210 C 248.994,-844.410 248.899,-293.550 248.899,-293.550 C 248.899,-130.150 357.699,-0.000 527.000,-0.000 C 624.000,-0.000 759.000,-50.000 861.204,-214.000 C 936.111,-334.198 988.000,-580.000 988.000,-831.000 C 988.000,-1048.246 934.000,-1226.000 888.000,-1296.000" stroke="#FF6B6B" pathLength="1" stroke-dasharray="1" stroke-dashoffset="1">
    <animate attributeName="stroke-dashoffset" values="1;0" dur="1.20s" begin="0.00s" fill="freeze"/>
  </path>
  <path class="stroke" d="M 888.000,-1296.000 C 908.000,-1261.000 929.000,-1246.000 965.000,-1227.177 C 996.553,-1210.679 1027.897,-1208.000 1056.000,-1208.000 C 1084.103,-1208.000 1114.447,-1210.679 1146.000,-1227.177 C 1182.000,-1246.000 1205.000,-1262.000 1225.000,-1297.000" stroke="#4ECDC4" pathLength="1" stroke-dasharray="1" stroke-dashoffset="1">
    <animate attributeName="stroke-dashoffset" values="1;0" dur="1.00s" begin="1.35s" fill="freeze"/>
  </path>
</svg>