<?xml version="1.0" encoding="UTF-8"?>
<svg xmlns="http://www.w3.org/2000/svg" viewBox="-200 -1496.0 1600 2378.0" width="800" height="600" stroke-linecap="round" stroke-linejoin="round">
  <style>
    .guide { stroke-width: 4; opacity: 0.35; fill: none; }
    .guide.mid { stroke-dasharray: 24 14; opacity: 0.5; }
    .stroke { fill: none; stroke-width: 24; stroke-linecap: round; stroke-linejoin: round; }
  </style>
  <line class="guide" x1="-200" y1="0" x2="1400" y2="0" stroke="#2F3A56"/>
  <line class="guide mid" x1="-200" y1="-614.0" x2="1400" y2="-614.0" stroke="#457B9D"/>
  <line class="guide" x1="-200" y1="-1296.0" x2="1400" y2="-1296.0" stroke="#2F3A56"/>
  <line class="guide" x1="-200" y1="682.0" x2="1400" y2="682.0" stroke="#ADB5BD" stroke-width="2"/>
  <path class="stroke" d="M 34.638,-1103.000 L 95.994,-1228.000 C 111.353,-1258.000 131.994,-1296.000 173.994,-1296.000 C 231.994,-1296.000 248.994,-1243.564 248.993,-1194.210 L 248.993,-289.069 C 248.993,-128.710 358.714,-0.000 531.733,-0.000 C 780.541,-0.000 942.541,-200.000 942.541,-307.000 C 942.541,-307.000 943.000,-910.000 942.994,-1296.210" stroke="#FF6B6B" pathLength="1" stroke-dasharray="1" stroke-dashoffset="1">
    <animate attributeName="stroke-dashoffset" values="1;0" dur="1.20s" begin="0.00s" fill="freeze"/>
  </path>
  <path class="stroke" d="M 943.305,-1295.540 C 943.305,-1295.540 942.001,-568.001 942.465,-102.790 C 942.001,116.000 942.004,-207.503 942.004,457.000 C 942.004,580.000 911.664,681.000 800.993,681.000 C 723.993,681.000 692.993,623.031 692.993,566.000 C 692.993,529.816 695.000,485.000 726.993,432.000 L 1073.294,-137.000" stroke="#4ECDC4" pathLength="1" stroke-dasharray="1" stroke-dashoffset="1">
    <animate attributeName="stroke-dashoffset" values="1;0" dur="1.20s" begin="1.35s" fill="freeze"/>
  </path>
</svg>