<?xml version="1.0" encoding="UTF-8"?>
<svg xmlns="http://www.w3.org/2000/svg" viewBox="-200 -1496.0 1600 2378.0" width="800" height="600" stroke-linecap="round" stroke-linejoin="round">
  <style>
    .guide { stroke-width: 4; opacity: 0.35; fill: none; }
    .guide.mid { stroke-dasharray: 24 14; opacity: 0.5; }
    .stroke { fill: none; stroke-width: 24; stroke-linecap: round; stroke-linejoin: round; }
  </style>
  <line class="guide" x1="-200" y1="0" x2="1400" y2="0" stroke="#2F3A56"/>
  <line class="guide mid" x1="-200" y1="-614.0" x2="1400" y2="-614.0" stroke="#457B9D"/>
  <line class="guide" x1="-200" y1="-1296.0" x2="1400" y2="-1296.0" stroke="#2F3A56"/>
  <line class="guide" x1="-200" y1="682.0" x2="1400" y2="682.0" stroke="#ADB5BD" stroke-width="2"/>
  <path class="stroke" d="M 35.796,-1159.000 C 97.075,-1272.096 148.796,-1296.000 193.796,-1296.000 C 303.132,-1295.702 339.347,-1158.605 570.530,-1158.605 C 719.022,-1158.605 874.672,-1205.323 948.023,-1296.000" stroke="#FF6B6B" pathLength="1" stroke-dasharray="1" stroke-dashoffset="1">
    <animate attributeName="stroke-dashoffset" values="1;0" dur="1.20s" begin="0.00s" fill="freeze"/>
  </path>
  <path class="stroke" d="M 948.023,-1296.000 L 61.506,0.390" stroke="#4ECDC4" pathLength="1" stroke-dasharray="1" stroke-dashoffset="1">
    <animate attributeName="stroke-dashoffset" values="1;0" dur="1.20s" begin="1.35s" fill="freeze"/>
  </path>
  <path class="stroke" d="M 61.507,0.395 C 134.858,-90.282 290.508,-137.001 439.000,-137.001 C 670.184,-137.001 704.000,-0.001 817.000,-0.001 C 862.000,-0.001 913.721,-23.905 975.000,-137.001" stroke="#45B7D1" pathLength="1" stroke-dasharray="1" stroke-dashoffset="1">
    <animate attributeName="stroke-dashoffset" values="1;0" dur="1.20s" begin="2.70s" fill="freeze"/>
  </path>
</svg>