<?xml version="1.0" encoding="UTF-8"?>
<svg xmlns="http://www.w3.org/2000/svg" viewBox="-200 -1496.0 1600 2378.0" width="800" height="600" stroke-linecap="round" stroke-linejoin="round">
  <style>
    .guide { stroke-width: 4; opacity: 0.35; fill: none; }
    .guide.mid { stroke-dasharray: 24 14; opacity: 0.5; }
    .stroke { fill: none; stroke-width: 24; stroke-linecap: round; stroke-linejoin: round; }
  </style>
  <line class="guide" x1="-200" y1="0" x2="1400" y2="0" stroke="#2F3A56"/>
  <line class="guide mid" x1="-200" y1="-614.0" x2="1400" y2="-614.0" stroke="#457B9D"/>
  <line class="guide" x1="-200" y1="-1296.0" x2="1400" y2="-1296.0" stroke="#2F3A56"/>
  <line class="guide" x1="-200" y1="682.0" x2="1400" y2="682.0" stroke="#ADB5BD" stroke-width="2"/>
  <path class="stroke" d="M 222.062,-1282.000 C 222.062,-1282.000 221.627,-281.870 221.627,-181.330 C 221.627,-71.995 190.081,0.338 109.079,0.004 C 76.100,0.004 51.208,-11.527 33.386,-35.041" stroke="#FF6B6B" pathLength="1" stroke-dasharray="1" stroke-dashoffset="1">
    <animate attributeName="stroke-dashoffset" values="1;0" dur="1.20s" begin="0.00s" fill="freeze"/>
  </path>
  <path class="stroke" d="M 95.080,-1245.000 C 204.080,-1285.000 263.198,-1296.477 344.782,-1296.477 C 508.462,-1296.477 631.806,-1166.807 631.806,-1007.812 C 631.806,-843.995 521.079,-787.000 465.789,-759.267 C 392.276,-722.393 222.079,-730.000 222.079,-730.000" stroke="#4ECDC4" pathLength="1" stroke-dasharray="1" stroke-dashoffset="1">
    <animate attributeName="stroke-dashoffset" values="1;0" dur="1.20s" begin="1.35s" fill="freeze"/>
  </path>
  <path class="stroke" d="M 222.080,-730.000 C 222.080,-730.000 403.654,-736.560 498.827,-708.452 C 568.080,-688.000 724.545,-586.015 724.545,-388.528 C 724.545,-170.954 565.080,-1.000 348.852,0.136 C 285.082,0.471 246.081,-10.000 189.081,-40.000" stroke="#45B7D1" pathLength="1" stroke-dasharray="1" stroke-dashoffset="1">
    <animate attributeName="stroke-dashoffset" values="1;0" dur="1.20s" begin="2.70s" fill="freeze"/>
  </path>
</svg>