<?xml version="1.0" encoding="UTF-8"?>
<svg xmlns="http://www.w3.org/2000/svg" viewBox="-200 -1496.0 1600 2378.0" width="800" height="600" stroke-linecap="round" stroke-linejoin="round">
  <style>
    .guide { stroke-width: 4; opacity: 0.35; fill: none; }
    .guide.mid { stroke-dasharray: 24 14; opacity: 0.5; }
    .stroke { fill: none; stroke-width: 24; stroke-linecap: round; stroke-linejoin: round; }
  </style>
  <line class="guide" x1="-200" y1="0" x2="1400" y2="0" stroke="#2F3A56"/>
  <line class="guide mid" x1="-200" y1="-614.0" x2="1400" y2="-614.0" stroke="#457B9D"/>
  <line class="guide" x1="-200" y1="-1296.0" x2="1400" y2="-1296.0" stroke="#2F3A56"/>
  <line class="guide" x1="-200" y1="682.0" x2="1400" y2="682.0" stroke="#ADB5BD" stroke-width="2"/>
  <path class="stroke" d="M 34.387,-1232.000 C 45.387,-1270.000 90.387,-1296.000 118.789,-1296.000 C 169.387,-1296.000 210.590,-1233.000 266.389,-1233.000 C 322.590,-1233.000 373.387,-1296.000 373.387,-1296.000" stroke="#FF6B6B" pathLength="1" stroke-dasharray="1" stroke-dashoffset="1">
    <animate attributeName="stroke-dashoffset" values="1;0" dur="1.01s" begin="0.00s" fill="freeze"/>
  </path>
  <path class="stroke" d="M 372.386,-1296.000 C 372.386,-1296.004 372.383,-1330.003 372.390,-225.000 C 372.391,-102.000 342.050,-0.000 231.390,-0.000 C 154.390,-0.000 124.387,-58.969 124.387,-116.000 C 124.387,-243.006 239.387,-545.000 606.387,-648.000 C 973.387,-751.000 1087.774,-1047.794 1087.774,-1180.000 C 1087.774,-1237.032 1056.774,-1296.000 979.774,-1296.000 C 869.727,-1296.000 839.387,-1194.000 839.387,-1071.000 L 839.387,-103.000 C 839.387,-49.000 856.387,-0.000 914.387,-0.000 C 955.387,-0.000 976.222,-38.891 991.000,-69.000 L 1024.377,-137.000" stroke="#4ECDC4" pathLength="1" stroke-dasharray="1" stroke-dashoffset="1">
    <animate attributeName="stroke-dashoffset" values="1;0" dur="1.20s" begin="1.16s" fill="freeze"/>
  </path>
</svg>