<?xml version="1.0" encoding="UTF-8"?>
<svg xmlns="http://www.w3.org/2000/svg" viewBox="-200 -1496.0 1600 2378.0" width="800" height="600" stroke-linecap="round" stroke-linejoin="round">
  <style>
    .guide { stroke-width: 4; opacity: 0.35; fill: none; }
    .guide.mid { stroke-dasharray: 24 14; opacity: 0.5; }
    .stroke { fill: none; stroke-width: 24; stroke-linecap: round; stroke-linejoin: round; }
  </style>
  <line class="guide" x1="-200" y1="0" x2="1400" y2="0" stroke="#2F3A56"/>
  <line class="guide mid" x1="-200" y1="-614.0" x2="1400" y2="-614.0" stroke="#457B9D"/>
  <line class="guide" x1="-200" y1="-1296.0" x2="1400" y2="-1296.0" stroke="#2F3A56"/>
  <line class="guide" x1="-200" y1="682.0" x2="1400" y2="682.0" stroke="#ADB5BD" stroke-width="2"/>
  <path class="stroke" d="M 35.387,-0.000 L 303.390,-546.000 C 318.749,-576.000 336.390,-614.000 378.390,-614.000 C 436.000,-614.000 453.000,-566.000 453.000,-512.000 C 454.000,-512.000 453.000,-0.000 453.000,-0.000" stroke="#FF6B6B" pathLength="1" stroke-dasharray="1" stroke-dashoffset="1">
    <animate attributeName="stroke-dashoffset" values="1;0" dur="1.20s" begin="0.00s" fill="freeze"/>
  </path>
  <path class="stroke" d="M 453.000,-0.000 L 453.000,-307.000 Q 453.000,-347.000 478.500,-400.000 Q 504.000,-453.000 543.000,-500.500 Q 582.000,-548.000 635.500,-581.000 Q 689.000,-614.000 740.000,-614.000 Q 800.000,-614.000 837.000,-574.500 Q 874.000,-535.000 874.000,-477.000 L 874.000,-103.000 Q 874.000,-46.508 896.562,-21.000 Q 915.135,-0.000 949.004,-0.000 Q 962.000,-0.000 976.376,-6.498 Q 989.000,-12.000 998.554,-23.814 Q 1008.000,-35.999 1013.970,-44.998 Q 1019.374,-53.456 1027.004,-69.000 L 1060.381,-137.000" stroke="#4ECDC4" pathLength="1" stroke-dasharray="1" stroke-dashoffset="1">
    <animate attributeName="stroke-dashoffset" values="1;0" dur="1.20s" begin="1.35s" fill="freeze"/>
  </path>
</svg>