<?xml version="1.0" encoding="UTF-8"?>
<svg xmlns="http://www.w3.org/2000/svg" viewBox="-200 -1496.0 1600 2378.0" width="800" height="600" stroke-linecap="round" stroke-linejoin="round">
  <style>
    .guide { stroke-width: 4; opacity: 0.35; fill: none; }
    .guide.mid { stroke-dasharray: 24 14; opacity: 0.5; }
    .stroke { fill: none; stroke-width: 24; stroke-linecap: round; stroke-linejoin: round; }
  </style>
  <line class="guide" x1="-200" y1="0" x2="1400" y2="0" stroke="#2F3A56"/>
  <line class="guide mid" x1="-200" y1="-614.0" x2="1400" y2="-614.0" stroke="#457B9D"/>
  <line class="guide" x1="-200" y1="-1296.0" x2="1400" y2="-1296.0" stroke="#2F3A56"/>
  <line class="guide" x1="-200" y1="682.0" x2="1400" y2="682.0" stroke="#ADB5BD" stroke-width="2"/>
  <path class="stroke" d="M 35.387,-1.000 C 35.387,-1.000 371.387,-478.000 371.427,-478.429 C 433.157,-558.290 527.789,-614.000 652.000,-614.000 L 705.000,-614.000" stroke="#FF6B6B" pathLength="1" stroke-dasharray="1" stroke-dashoffset="1">
    <animate attributeName="stroke-dashoffset" values="1;0" dur="1.20s" begin="0.00s" fill="freeze"/>
  </path>
  <path class="stroke" d="M 705.000,-614.000 L 652.000,-614.000 C 409.926,-614.000 284.000,-410.000 284.000,-206.000 C 284.000,-74.000 342.000,-0.000 418.000,-0.000 C 560.000,-0.000 705.000,-200.000 705.000,-307.000 L 705.000,-612.000" stroke="#4ECDC4" pathLength="1" stroke-dasharray="1" stroke-dashoffset="1">
    <animate attributeName="stroke-dashoffset" values="1;0" dur="1.20s" begin="1.35s" fill="freeze"/>
  </path>
  <path class="stroke" d="M 705.000,-614.000 L 705.000,456.000 C 705.000,579.000 746.000,681.000 824.000,681.000 C 902.000,681.000 943.000,579.000 943.000,456.000 C 943.000,269.318 837.000,0.056 707.668,0.056" stroke="#45B7D1" pathLength="1" stroke-dasharray="1" stroke-dashoffset="1">
    <animate attributeName="stroke-dashoffset" values="1;0" dur="1.20s" begin="2.70s" fill="freeze"/>
  </path>
  <path class="stroke" d="M 711.000,-0.000 Q 795.000,-0.000 869.000,-137.000" stroke="#96CEB4" pathLength="1" stroke-dasharray="1" stroke-dashoffset="1">
    <animate attributeName="stroke-dashoffset" values="1;0" dur="0.55s" begin="4.05s" fill="freeze"/>
  </path>
</svg>