<?xml version="1.0" encoding="UTF-8"?>
<svg xmlns="http://www.w3.org/2000/svg" viewBox="-200 -1496.0 1600 2378.0" width="800" height="600" stroke-linecap="round" stroke-linejoin="round">
  <style>
    .guide { stroke-width: 4; opacity: 0.35; fill: none; }
    .guide.mid { stroke-dasharray: 24 14; opacity: 0.5; }
    .stroke { fill: none; stroke-width: 24; stroke-linecap: round; stroke-linejoin: round; }
  </style>
  <line class="guide" x1="-200" y1="0" x2="1400" y2="0" stroke="#2F3A56"/>
  <line class="guide mid" x1="-200" y1="-614.0" x2="1400" y2="-614.0" stroke="#457B9D"/>
  <line class="guide" x1="-200" y1="-1296.0" x2="1400" y2="-1296.0" stroke="#2F3A56"/>
  <line class="guide" x1="-200" y1="682.0" x2="1400" y2="682.0" stroke="#ADB5BD" stroke-width="2"/>
  <path class="stroke" d="M 600.155,-1271.920 C 561.890,-1286.610 521.584,-1296.007 480.000,-1296.007 C 235.019,-1296.007 34.387,-1002.452 34.387,-645.540 C 34.387,-288.627 235.019,0.704 480.000,0.704 C 538.294,0.704 594.079,-15.797 645.244,-45.758 C 809.103,-141.702 925.613,-375.666 925.613,-647.652 C 925.613,-934.173 796.316,-1179.502 618.575,-1264.732 C 509.000,-1314.001 448.000,-1228.001 448.000,-1151.002 C 448.000,-1070.473 533.978,-989.002 625.000,-989.002 C 787.373,-989.002 937.000,-1095.002 1014.000,-1161.002" stroke="#FF6B6B" pathLength="1" stroke-dasharray="1" stroke-dashoffset="1">
    <animate attributeName="stroke-dashoffset" values="1;0" dur="1.20s" begin="0.00s" fill="freeze"/>
  </path>
  <path class="stroke" d="M 407.000,-163.000 C 429.000,-193.000 483.769,-253.000 562.000,-253.000 C 649.144,-253.000 708.000,-197.300 753.000,-137.000 C 803.000,-70.000 865.000,-0.000 951.000,-0.000 C 996.000,-0.000 1047.721,-23.904 1109.000,-137.000" stroke="#4ECDC4" pathLength="1" stroke-dasharray="1" stroke-dashoffset="1">
    <animate attributeName="stroke-dashoffset" values="1;0" dur="1.20s" begin="1.35s" fill="freeze"/>
  </path>
</svg>