<?xml version="1.0" encoding="UTF-8"?>
<svg xmlns="http://www.w3.org/2000/svg" viewBox="-200 -1496.0 1600 2378.0" width="800" height="600" stroke-linecap="round" stroke-linejoin="round">
  <style>
    .guide { stroke-width: 4; opacity: 0.35; fill: none; }
    .guide.mid { stroke-dasharray: 24 14; opacity: 0.5; }
    .stroke { fill: none; stroke-width: 24; stroke-linecap: round; stroke-linejoin: round; }
  </style>
  <line class="guide" x1="-200" y1="0" x2="1400" y2="0" stroke="#2F3A56"/>
  <line class="guide mid" x1="-200" y1="-614.0" x2="1400" y2="-614.0" stroke="#457B9D"/>
  <line class="guide" x1="-200" y1="-1296.0" x2="1400" y2="-1296.0" stroke="#2F3A56"/>
  <line class="guide" x1="-200" y1="682.0" x2="1400" y2="682.0" stroke="#ADB5BD" stroke-width="2"/>
  <path class="stroke" d="M 35.387,-0.000 L 303.390,-546.000 C 318.749,-576.000 336.390,-614.000 378.390,-614.000 C 436.000,-614.000 453.000,-566.000 453.000,-512.000 C 454.000,-512.000 453.000,-137.000 453.000,-137.000 C 453.000,-61.000 505.000,-0.000 587.000,-0.000 C 729.000,-0.000 874.000,-183.005 874.000,-405.000 C 874.000,-506.045 847.000,-583.000 824.000,-614.000" stroke="#FF6B6B" pathLength="1" stroke-dasharray="1" stroke-dashoffset="1">
    <animate attributeName="stroke-dashoffset" values="1;0" dur="1.20s" begin="0.00s" fill="freeze"/>
  </path>
  <path class="stroke" d="M 824.000,-614.000 C 844.000,-579.000 867.000,-561.000 903.000,-542.177 C 934.553,-525.679 965.897,-523.000 994.000,-523.000 C 1022.103,-523.000 1052.447,-525.679 1084.000,-542.177 C 1120.000,-561.000 1145.000,-579.000 1165.000,-614.000" stroke="#4ECDC4" pathLength="1" stroke-dasharray="1" stroke-dashoffset="1">
    <animate attributeName="stroke-dashoffset" values="1;0" dur="1.01s" begin="1.35s" fill="freeze"/>
  </path>
</svg>