<?xml version="1.0" encoding="UTF-8"?>
<svg xmlns="http://www.w3.org/2000/svg" viewBox="-200 -1496.0 1600 2378.0" width="800" height="600" stroke-linecap="round" stroke-linejoin="round">
  <style>
    .guide { stroke-width: 4; opacity: 0.35; fill: none; }
    .guide.mid { stroke-dasharray: 24 14; opacity: 0.5; }
    .stroke { fill: none; stroke-width: 24; stroke-linecap: round; stroke-linejoin: round; }
  </style>
  <line class="guide" x1="-200" y1="0" x2="1400" y2="0" stroke="#2F3A56"/>
  <line class="guide mid" x1="-200" y1="-614.0" x2="1400" y2="-614.0" stroke="#457B9D"/>
  <line class="guide" x1="-200" y1="-1296.0" x2="1400" y2="-1296.0" stroke="#2F3A56"/>
  <line class="guide" x1="-200" y1="682.0" x2="1400" y2="682.0" stroke="#ADB5BD" stroke-width="2"/>
  <path class="stroke" d="M 34.386,-1296.210 L 34.386,-289.070 C 34.386,-128.711 144.107,-0.001 317.126,-0.001 C 565.934,-0.001 727.934,-200.001 727.934,-307.001 C 727.934,-307.001 728.000,-910.001 728.387,-1296.211" stroke="#FF6B6B" pathLength="1" stroke-dasharray="1" stroke-dashoffset="1">
    <animate attributeName="stroke-dashoffset" values="1;0" dur="1.20s" begin="0.00s" fill="freeze"/>
  </path>
  <path class="stroke" d="M 728.387,-1296.210 C 728.387,-946.410 728.292,-684.671 728.292,-293.550 C 728.292,-135.495 835.092,-0.000 1004.393,-0.000 C 1101.393,-0.000 1236.393,-50.000 1338.597,-214.000 C 1413.504,-334.198 1465.393,-580.000 1465.393,-831.000 C 1465.393,-1048.246 1411.343,-1226.700 1364.393,-1297.000" stroke="#4ECDC4" pathLength="1" stroke-dasharray="1" stroke-dashoffset="1">
    <animate attributeName="stroke-dashoffset" values="1;0" dur="1.20s" begin="1.35s" fill="freeze"/>
  </path>
  <path class="stroke" d="M 1364.390,-1297.000 C 1384.390,-1262.000 1406.390,-1246.000 1442.390,-1227.177 C 1473.943,-1210.679 1505.287,-1208.000 1533.390,-1208.000 C 1561.494,-1208.000 1591.837,-1210.679 1623.390,-1227.177 C 1659.390,-1246.000 1683.390,-1262.000 1703.390,-1297.000" stroke="#45B7D1" pathLength="1" stroke-dasharray="1" stroke-dashoffset="1">
    <animate attributeName="stroke-dashoffset" values="1;0" dur="1.00s" begin="2.70s" fill="freeze"/>
  </path>
</svg>