<?xml version="1.0" encoding="UTF-8"?>
<svg xmlns="http://www.w3.org/2000/svg" viewBox="-200 -1495.9680118128292 1600 2377.96801181283">
  <title>cogncur strokes for c</title>
  <line x1="-200" y1="0" x2="1400" y2="0" stroke="#2F3A56" stroke-width="4" opacity="0.55"/>
  <line x1="-200" y1="-614.0003000000003" x2="1400" y2="-614.0003000000003" stroke="#457B9D" stroke-width="3" opacity="0.5" stroke-dasharray="24 14"/>
  <line x1="-200" y1="-1295.9680118128292" x2="1400" y2="-1295.9680118128292" stroke="#2F3A56" stroke-width="4" opacity="0.45"/>
  <line x1="-200" y1="682.0000000000005" x2="1400" y2="682.0000000000005" stroke="#ADB5BD" stroke-width="2" opacity="0.35"/>
  <path d="M 35.4,-0.0 L 39.2,-6.3 L 43.1,-12.6 L 46.9,-18.9 L 50.7,-25.2 L 54.6,-31.5 L 58.4,-37.8 L 62.3,-44.1 L 66.1,-50.4 L 69.9,-56.7 L 73.8,-63.0 L 77.6,-69.3 L 81.5,-75.6 L 85.3,-81.9 L 89.1,-88.2 L 93.0,-94.5 L 96.8,-100.8 L 100.7,-107.1 L 104.5,-113.4 L 108.3,-119.7 L 112.2,-126.0 L 116.0,-132.3 L 119.9,-138.6 L 123.7,-144.9 L 127.5,-151.2 L 131.4,-157.5 L 135.2,-163.8 L 139.1,-170.1 L 142.9,-176.4 L 146.7,-182.7 L 150.6,-189.0 L 154.4,-195.3 L 158.2,-201.6 L 162.1,-207.9 L 165.9,-214.2 L 169.8,-220.5 L 173.6,-226.8 L 177.4,-233.1 L 181.3,-239.4 L 185.1,-245.7 L 189.0,-252.0 L 192.8,-258.3 L 196.6,-264.6 L 200.5,-270.9 L 204.3,-277.2 L 208.2,-283.5 L 212.0,-289.8 L 215.8,-296.1 L 219.7,-302.4 L 223.5,-308.7 L 227.4,-315.0 L 231.2,-321.3 L 235.0,-327.6 L 238.9,-333.9 L 242.7,-340.2 L 246.6,-346.5 L 250.4,-352.8 L 254.2,-359.1 L 258.1,-365.4 L 261.9,-371.7 L 265.8,-378.0 L 269.6,-384.3 L 273.4,-390.6 L 277.3,-396.9 L 281.1,-403.2 L 285.0,-409.5 L 288.8,-415.8 L 292.6,-422.1 L 296.5,-428.4 L 300.3,-434.7 L 304.1,-441.0 L 308.0,-447.3 L 311.8,-453.6 L 315.7,-459.9 L 319.5,-466.3 L 323.3,-472.6 L 327.2,-478.9 L 331.0,-485.2 L 334.9,-491.5 L 338.7,-497.8 L 342.5,-504.1 L 346.4,-510.4 L 350.3,-516.6 L 354.4,-522.8 L 358.6,-528.8 L 363.0,-534.7 L 367.6,-540.5 L 372.3,-546.2 L 377.2,-551.7 L 382.2,-557.1 L 387.4,-562.4 L 392.8,-567.4 L 398.3,-572.3 L 404.0,-577.0 L 409.9,-581.4 L 415.9,-585.7 L 422.1,-589.7 L 428.5,-593.5 L 435.0,-596.9 L 441.6,-600.1 L 448.4,-603.1 L 455.3,-605.6 L 462.3,-607.9 L 469.4,-609.8 L 476.7,-611.4 L 483.9,-612.6 L 491.3,-613.4 L 498.6,-613.9 L 506.0,-614.0 L 513.4,-613.7 L 520.7,-613.0 L 528.0,-611.9 L 535.3,-610.5 L 542.4,-608.7 L 549.5,-606.6 L 556.4,-604.1 L 563.2,-601.3 L 569.9,-598.2 L 576.5,-594.8 L 582.9,-591.1 L 589.2,-587.2 L 595.3,-583.1 L 601.2,-578.7 L 607.0,-574.2 L 612.6,-569.4 L 618.1,-564.4 L 623.4,-559.3 L 628.5,-554.0" stroke="#FF6B6B" stroke-width="6" fill="none" opacity="0.85"/>
  <circle cx="35.4" cy="-0.0" r="10" fill="#FF6B6B"/>
  <circle cx="628.5" cy="-554.0" r="6" fill="#FF6B6B" opacity="0.6"/>
  <text x="53.4" y="-18.0" fill="#FF6B6B" font-size="36" font-family="monospace">1</text>
  <path d="M 628.5,-554.0 L 621.9,-560.7 L 614.9,-567.1 L 607.7,-573.3 L 600.3,-579.1 L 592.6,-584.6 L 584.7,-589.8 L 576.5,-594.5 L 568.1,-598.8 L 559.5,-602.7 L 550.6,-606.0 L 541.6,-608.8 L 532.4,-611.0 L 523.1,-612.7 L 513.7,-613.7 L 504.2,-614.0 L 494.8,-613.7 L 485.4,-612.8 L 476.0,-611.3 L 466.8,-609.2 L 457.7,-606.5 L 448.9,-603.2 L 440.2,-599.5 L 431.7,-595.2 L 423.5,-590.5 L 415.6,-585.4 L 407.9,-579.9 L 400.5,-574.0 L 393.3,-567.8 L 386.5,-561.3 L 379.9,-554.5 L 373.6,-547.5 L 367.5,-540.2 L 361.7,-532.8 L 356.2,-525.1 L 350.9,-517.2 L 345.9,-509.2 L 341.1,-501.1 L 336.6,-492.8 L 332.3,-484.3 L 328.3,-475.8 L 324.5,-467.1 L 320.9,-458.4 L 317.5,-449.5 L 314.4,-440.6 L 311.5,-431.6 L 308.8,-422.5 L 306.4,-413.4 L 304.1,-404.2 L 302.1,-395.0 L 300.2,-385.7 L 298.6,-376.4 L 297.2,-367.0 L 296.0,-357.6 L 295.0,-348.2 L 294.2,-338.8 L 293.6,-329.4 L 293.2,-319.9 L 293.0,-310.5 L 293.0,-301.0 L 293.2,-291.6 L 293.6,-282.1 L 294.2,-272.7 L 295.1,-263.3 L 296.1,-253.9 L 297.3,-244.5 L 298.7,-235.1 L 300.4,-225.8 L 302.2,-216.5 L 304.3,-207.3 L 306.5,-198.1 L 309.0,-189.0 L 311.8,-180.0 L 314.7,-171.0 L 317.9,-162.1 L 321.3,-153.2 L 324.9,-144.5 L 328.7,-135.9 L 332.8,-127.3 L 337.2,-118.9 L 341.8,-110.7 L 346.6,-102.5 L 351.7,-94.6 L 357.0,-86.8 L 362.6,-79.1 L 368.5,-71.7 L 374.6,-64.5 L 381.0,-57.6 L 387.7,-50.9 L 394.6,-44.5 L 401.9,-38.4 L 409.4,-32.6 L 417.1,-27.2 L 425.2,-22.2 L 433.4,-17.6 L 442.0,-13.5 L 450.7,-9.9 L 459.6,-6.8 L 468.7,-4.3 L 478.0,-2.3 L 487.4,-0.9 L 496.8,-0.2 L 506.2,-0.0 L 515.7,-0.2 L 525.1,-0.8 L 534.5,-1.6 L 543.9,-2.9 L 553.2,-4.5 L 562.5,-6.6 L 571.6,-9.1 L 580.6,-12.0 L 589.4,-15.3 L 598.2,-19.0 L 606.7,-23.0 L 615.1,-27.3 L 623.4,-32.0 L 631.5,-36.8 L 639.4,-42.0 L 647.2,-47.3 L 654.9,-52.7 L 662.5,-58.4 L 670.0,-64.2 L 677.3,-70.2 L 684.4,-76.4 L 691.4,-82.8 L 698.2,-89.3 L 704.9,-96.1 L 711.3,-103.0" stroke="#4ECDC4" stroke-width="6" fill="none" opacity="0.85"/>
  <circle cx="628.5" cy="-554.0" r="10" fill="#4ECDC4"/>
  <circle cx="711.3" cy="-103.0" r="6" fill="#4ECDC4" opacity="0.6"/>
  <text x="646.5" y="-572.0" fill="#4ECDC4" font-size="36" font-family="monospace">2</text>
</svg>