<?xml version="1.0" encoding="UTF-8"?>
<svg xmlns="http://www.w3.org/2000/svg" viewBox="-200 -1495.9680118128292 1600 2377.96801181283">
  <title>cogncur strokes for C</title>
  <line x1="-200" y1="0" x2="1400" y2="0" stroke="#2F3A56" stroke-width="4" opacity="0.55"/>
  <line x1="-200" y1="-614.0003000000003" x2="1400" y2="-614.0003000000003" stroke="#457B9D" stroke-width="3" opacity="0.5" stroke-dasharray="24 14"/>
  <line x1="-200" y1="-1295.9680118128292" x2="1400" y2="-1295.9680118128292" stroke="#2F3A56" stroke-width="4" opacity="0.45"/>
  <line x1="-200" y1="682.0000000000005" x2="1400" y2="682.0000000000005" stroke="#ADB5BD" stroke-width="2" opacity="0.35"/>
  <path d="M 33.4,-905.0 L 51.4,-888.5 L 71.0,-874.0 L 91.9,-861.4 L 113.9,-850.7 L 136.7,-842.0 L 160.1,-835.1 L 184.0,-830.2 L 208.2,-827.1 L 232.6,-826.0 L 257.0,-826.4 L 281.4,-827.6 L 305.8,-829.6 L 330.0,-832.4 L 354.2,-836.0 L 378.2,-840.2 L 402.1,-845.2 L 425.9,-850.9 L 449.5,-857.2 L 472.9,-864.2 L 496.0,-871.9 L 519.0,-880.3 L 541.6,-889.4 L 564.0,-899.2 L 586.1,-909.7 L 607.7,-921.0 L 629.0,-933.0 L 649.7,-945.9 L 669.8,-959.8 L 689.3,-974.5 L 707.8,-990.4 L 725.4,-1007.3 L 741.7,-1025.5 L 756.3,-1045.1 L 768.8,-1066.0 L 778.6,-1088.4 L 785.0,-1111.9 L 787.4,-1136.2 L 786.3,-1160.6 L 782.7,-1184.7 L 776.3,-1208.3 L 766.9,-1230.8 L 753.9,-1251.5 L 737.3,-1269.2 L 717.1,-1282.9 L 694.4,-1291.8 L 670.3,-1295.7 L 645.9,-1295.7 L 621.6,-1293.5 L 597.5,-1289.5 L 573.8,-1283.6 L 550.7,-1275.9 L 528.1,-1266.5 L 506.3,-1255.6 L 485.2,-1243.2 L 465.0,-1229.5 L 445.6,-1214.7 L 427.1,-1198.8 L 409.4,-1182.0 L 392.6,-1164.2 L 376.6,-1145.8 L 361.5,-1126.6 L 347.2,-1106.8 L 333.7,-1086.4 L 321.0,-1065.6 L 309.1,-1044.2 L 298.0,-1022.5 L 287.6,-1000.4 L 278.0,-978.0 L 269.0,-955.2 L 260.8,-932.2 L 253.3,-909.0 L 246.5,-885.6 L 240.4,-861.9 L 234.9,-838.1 L 230.1,-814.2 L 226.0,-790.1 L 222.5,-765.9 L 219.7,-741.7 L 217.5,-717.4 L 216.0,-693.0 L 215.1,-668.6 L 214.8,-644.2 L 215.1,-619.8 L 216.1,-595.4 L 217.7,-571.0 L 220.0,-546.7 L 222.9,-522.4 L 226.5,-498.3 L 230.7,-474.2 L 235.6,-450.3 L 241.2,-426.5 L 247.5,-402.9 L 254.5,-379.5 L 262.2,-356.3 L 270.5,-333.4 L 279.7,-310.8 L 289.5,-288.4 L 300.1,-266.4 L 311.5,-244.8 L 323.7,-223.6 L 336.6,-202.9 L 350.4,-182.7 L 364.9,-163.2 L 380.4,-144.2 L 396.6,-126.0 L 413.7,-108.6 L 431.7,-92.1 L 450.6,-76.6 L 470.3,-62.1 L 490.8,-48.9 L 512.1,-37.0 L 534.2,-26.6 L 557.0,-17.8 L 580.3,-10.6 L 604.1,-5.2 L 628.3,-1.7 L 652.7,-0.1 L 677.1,-0.4 L 701.3,-3.0 L 725.1,-8.4 L 748.1,-16.7 L 770.0,-27.5 L 790.8,-40.2 L 810.9,-54.2 L 830.1,-69.2 L 848.3,-85.5 L 865.3,-103.0" stroke="#FF6B6B" stroke-width="6" fill="none" opacity="0.85"/>
  <circle cx="33.4" cy="-905.0" r="10" fill="#FF6B6B"/>
  <circle cx="865.3" cy="-103.0" r="6" fill="#FF6B6B" opacity="0.6"/>
  <text x="51.4" y="-923.0" fill="#FF6B6B" font-size="36" font-family="monospace">1</text>
</svg>