<?xml version="1.0" encoding="UTF-8"?>
<svg xmlns="http://www.w3.org/2000/svg" viewBox="-200 -1495.9680118128292 1600 2377.96801181283">
  <title>cogncur strokes for D</title>
  <line x1="-200" y1="0" x2="1400" y2="0" stroke="#2F3A56" stroke-width="4" opacity="0.55"/>
  <line x1="-200" y1="-614.0003000000003" x2="1400" y2="-614.0003000000003" stroke="#457B9D" stroke-width="3" opacity="0.5" stroke-dasharray="24 14"/>
  <line x1="-200" y1="-1295.9680118128292" x2="1400" y2="-1295.9680118128292" stroke="#2F3A56" stroke-width="4" opacity="0.45"/>
  <line x1="-200" y1="682.0000000000005" x2="1400" y2="682.0000000000005" stroke="#ADB5BD" stroke-width="2" opacity="0.35"/>
  <path d="M 431.8,-1254.5 L 431.8,-1216.5 L 431.8,-1178.5 L 431.8,-1140.6 L 431.8,-1102.6 L 431.8,-1064.6 L 431.8,-1026.6 L 431.9,-988.6 L 431.9,-950.6 L 431.9,-912.6 L 431.9,-874.6 L 431.9,-836.6 L 432.0,-798.6 L 432.0,-760.6 L 432.0,-722.6 L 432.0,-684.6 L 432.1,-646.6 L 432.1,-608.6 L 432.1,-570.6 L 432.2,-532.6 L 432.2,-494.6 L 432.2,-456.6 L 432.2,-418.6 L 432.3,-380.6 L 432.3,-342.6 L 432.3,-304.7 L 432.3,-266.7 L 432.4,-228.7 L 432.4,-190.7 L 432.4,-152.7 L 427.9,-115.1 L 412.7,-80.4 L 387.7,-52.0 L 356.0,-31.1 L 320.9,-16.7 L 284.1,-7.4 L 246.5,-2.0 L 208.6,-0.0 L 170.7,-2.5 L 133.7,-10.9 L 98.5,-25.2 L 67.3,-46.6 L 46.1,-77.6 L 47.1,-114.9 L 69.3,-145.3 L 101.5,-165.1 L 137.4,-177.5 L 174.7,-184.8 L 212.5,-188.3 L 250.5,-188.8 L 288.3,-184.9 L 325.3,-176.7 L 361.5,-165.1 L 396.8,-150.9 L 431.3,-135.1 L 465.3,-118.2 L 499.1,-100.8 L 532.8,-83.3 L 566.7,-66.2 L 601.1,-49.9 L 636.0,-35.1 L 671.7,-22.1 L 708.2,-11.6 L 745.5,-4.1 L 783.3,-0.4 L 821.3,-0.6 L 859.0,-4.5 L 896.2,-12.3 L 932.4,-23.8 L 967.2,-39.1 L 1000.2,-57.9 L 1031.2,-79.8 L 1060.1,-104.4 L 1086.8,-131.4 L 1111.4,-160.4 L 1133.8,-191.1 L 1154.1,-223.2 L 1172.5,-256.5 L 1189.0,-290.7 L 1203.7,-325.7 L 1216.6,-361.4 L 1227.9,-397.7 L 1237.6,-434.4 L 1245.7,-471.5 L 1252.3,-509.0 L 1257.3,-546.6 L 1260.8,-584.5 L 1262.7,-622.4 L 1262.9,-660.4 L 1261.7,-698.4 L 1259.0,-736.3 L 1254.8,-774.0 L 1249.1,-811.6 L 1241.8,-848.9 L 1232.8,-885.8 L 1222.1,-922.3 L 1209.7,-958.1 L 1195.4,-993.4 L 1179.3,-1027.7 L 1161.1,-1061.1 L 1141.0,-1093.3 L 1118.8,-1124.2 L 1094.5,-1153.4 L 1068.1,-1180.6 L 1039.5,-1205.7 L 1009.0,-1228.3 L 976.5,-1248.0 L 942.3,-1264.6 L 906.7,-1277.8 L 870.0,-1287.4 L 832.5,-1293.5 L 794.6,-1295.9 L 756.6,-1295.8 L 718.6,-1294.8 L 680.7,-1293.1 L 642.8,-1290.4 L 604.9,-1286.8 L 567.2,-1282.2 L 529.7,-1276.4 L 492.3,-1269.5 L 455.2,-1261.4 L 418.4,-1252.0 L 381.9,-1241.5 L 345.7,-1229.8 L 309.9,-1217.1 L 274.4,-1203.6 L 239.1,-1189.5 L 204.0,-1175.0" stroke="#FF6B6B" stroke-width="6" fill="none" opacity="0.85"/>
  <circle cx="431.8" cy="-1254.5" r="10" fill="#FF6B6B"/>
  <circle cx="204.0" cy="-1175.0" r="6" fill="#FF6B6B" opacity="0.6"/>
  <text x="449.8" y="-1272.5" fill="#FF6B6B" font-size="36" font-family="monospace">1</text>
</svg>