<?xml version="1.0" encoding="UTF-8"?>
<svg xmlns="http://www.w3.org/2000/svg" viewBox="-200 -1495.9680118128292 1600 2377.96801181283">
  <title>cogncur strokes for E</title>
  <line x1="-200" y1="0" x2="1400" y2="0" stroke="#2F3A56" stroke-width="4" opacity="0.55"/>
  <line x1="-200" y1="-614.0003000000003" x2="1400" y2="-614.0003000000003" stroke="#457B9D" stroke-width="3" opacity="0.5" stroke-dasharray="24 14"/>
  <line x1="-200" y1="-1295.9680118128292" x2="1400" y2="-1295.9680118128292" stroke="#2F3A56" stroke-width="4" opacity="0.45"/>
  <line x1="-200" y1="682.0000000000005" x2="1400" y2="682.0000000000005" stroke="#ADB5BD" stroke-width="2" opacity="0.35"/>
  <path d="M 626.7,-1211.0 L 620.0,-1217.3 L 613.1,-1223.5 L 606.1,-1229.4 L 598.9,-1235.1 L 591.4,-1240.5 L 583.9,-1245.8 L 576.2,-1250.8 L 568.3,-1255.5 L 560.3,-1260.1 L 552.1,-1264.4 L 543.9,-1268.4 L 535.5,-1272.2 L 527.0,-1275.7 L 518.3,-1278.9 L 509.6,-1281.9 L 500.8,-1284.7 L 492.0,-1287.1 L 483.0,-1289.3 L 474.0,-1291.1 L 465.0,-1292.7 L 455.8,-1294.1 L 446.7,-1295.1 L 437.5,-1295.8 L 428.3,-1296.3 L 419.1,-1296.5 L 409.9,-1296.3 L 400.7,-1295.9 L 391.6,-1295.2 L 382.4,-1294.3 L 373.3,-1293.0 L 364.2,-1291.5 L 355.2,-1289.7 L 346.2,-1287.7 L 337.3,-1285.3 L 328.5,-1282.7 L 319.7,-1279.8 L 311.1,-1276.7 L 302.5,-1273.3 L 294.1,-1269.6 L 285.8,-1265.7 L 277.6,-1261.5 L 269.5,-1257.0 L 261.6,-1252.3 L 253.8,-1247.4 L 246.2,-1242.2 L 238.8,-1236.8 L 231.5,-1231.2 L 224.4,-1225.3 L 217.5,-1219.3 L 210.7,-1213.0 L 204.2,-1206.5 L 197.9,-1199.8 L 191.8,-1192.9 L 185.9,-1185.8 L 180.3,-1178.5 L 174.9,-1171.1 L 169.7,-1163.5 L 164.8,-1155.7 L 160.1,-1147.8 L 155.7,-1139.7 L 151.5,-1131.5 L 147.6,-1123.2 L 144.0,-1114.7 L 140.7,-1106.1 L 137.6,-1097.4 L 134.9,-1088.7 L 132.4,-1079.8 L 130.2,-1070.9 L 128.3,-1061.8 L 126.7,-1052.8 L 125.4,-1043.7 L 124.4,-1034.5 L 123.7,-1025.3 L 123.2,-1016.2 L 123.1,-1006.9 L 123.3,-997.7 L 123.8,-988.6 L 124.6,-979.4 L 125.7,-970.2 L 127.1,-961.1 L 128.8,-952.1 L 130.8,-943.1 L 133.1,-934.2 L 135.6,-925.4 L 138.5,-916.6 L 141.6,-908.0 L 145.0,-899.4 L 148.7,-891.0 L 152.6,-882.6 L 156.8,-874.4 L 161.3,-866.4 L 166.0,-858.5 L 170.9,-850.7 L 176.1,-843.1 L 181.5,-835.7 L 187.2,-828.4 L 193.1,-821.3 L 199.2,-814.4 L 205.5,-807.7 L 212.0,-801.3 L 218.7,-795.0 L 225.7,-788.9 L 232.8,-783.1 L 240.1,-777.6 L 247.7,-772.2 L 255.3,-767.2 L 263.2,-762.4 L 271.2,-757.8 L 279.4,-753.6 L 287.8,-749.8 L 296.4,-746.6 L 305.2,-744.0 L 314.2,-741.8 L 323.2,-739.9 L 332.2,-738.2 L 341.3,-736.8 L 350.4,-735.5 L 359.6,-734.4 L 368.7,-733.5 L 377.9,-732.7 L 387.1,-732.0 L 396.2,-731.4 L 405.4,-730.9 L 414.6,-730.5 L 423.8,-730.2 L 433.0,-730.1 L 442.2,-730.0" stroke="#FF6B6B" stroke-width="6" fill="none" opacity="0.85"/>
  <circle cx="626.7" cy="-1211.0" r="10" fill="#FF6B6B"/>
  <circle cx="442.2" cy="-730.0" r="6" fill="#FF6B6B" opacity="0.6"/>
  <text x="644.7" y="-1229.0" fill="#FF6B6B" font-size="36" font-family="monospace">1</text>
  <path d="M 442.2,-730.0 L 430.9,-730.4 L 419.5,-730.6 L 408.1,-730.6 L 396.7,-730.5 L 385.3,-730.2 L 373.9,-729.8 L 362.5,-729.2 L 351.2,-728.4 L 339.8,-727.4 L 328.5,-726.2 L 317.2,-724.8 L 305.9,-723.0 L 294.7,-721.0 L 283.6,-718.5 L 272.6,-715.6 L 261.7,-712.1 L 251.1,-707.9 L 240.8,-703.0 L 230.7,-697.8 L 220.7,-692.3 L 211.0,-686.4 L 201.4,-680.3 L 192.0,-673.8 L 182.8,-667.1 L 173.9,-660.0 L 165.1,-652.7 L 156.6,-645.1 L 148.3,-637.3 L 140.3,-629.2 L 132.5,-620.9 L 125.0,-612.4 L 117.7,-603.6 L 110.7,-594.6 L 103.9,-585.5 L 97.5,-576.1 L 91.3,-566.5 L 85.4,-556.8 L 79.8,-546.8 L 74.5,-536.8 L 69.5,-526.5 L 64.8,-516.1 L 60.4,-505.6 L 56.4,-495.0 L 52.7,-484.2 L 49.3,-473.3 L 46.2,-462.3 L 43.5,-451.3 L 41.2,-440.1 L 39.1,-428.9 L 37.5,-417.6 L 36.2,-406.3 L 35.2,-395.0 L 34.6,-383.6 L 34.4,-372.2 L 34.5,-360.8 L 35.0,-349.4 L 35.8,-338.1 L 37.0,-326.7 L 38.5,-315.4 L 40.4,-304.2 L 42.6,-293.0 L 45.2,-281.9 L 48.1,-270.9 L 51.4,-260.0 L 55.0,-249.2 L 59.0,-238.5 L 63.3,-228.0 L 67.9,-217.6 L 72.9,-207.3 L 78.1,-197.2 L 83.7,-187.2 L 89.6,-177.5 L 95.8,-167.9 L 102.2,-158.5 L 109.0,-149.4 L 116.0,-140.4 L 123.3,-131.7 L 130.9,-123.2 L 138.7,-114.9 L 146.8,-106.8 L 155.1,-99.1 L 163.7,-91.5 L 172.5,-84.3 L 181.4,-77.3 L 190.6,-70.5 L 200.0,-64.1 L 209.6,-57.9 L 219.4,-52.0 L 229.3,-46.4 L 239.4,-41.2 L 249.6,-36.2 L 260.0,-31.5 L 270.6,-27.2 L 281.2,-23.1 L 292.0,-19.4 L 302.9,-16.0 L 313.8,-12.9 L 324.9,-10.2 L 336.0,-7.7 L 347.2,-5.6 L 358.5,-3.9 L 369.8,-2.4 L 381.1,-1.3 L 392.5,-0.6 L 403.9,-0.1 L 415.3,-0.0 L 426.7,-0.3 L 438.0,-1.0 L 449.3,-2.2 L 460.6,-4.0 L 471.8,-6.3 L 482.8,-9.2 L 493.6,-12.7 L 504.3,-16.7 L 514.7,-21.3 L 524.9,-26.3 L 534.9,-31.8 L 544.7,-37.7 L 554.2,-43.9 L 563.6,-50.4 L 572.8,-57.1 L 581.8,-64.1 L 590.6,-71.3 L 599.1,-78.9 L 607.5,-86.6 L 615.5,-94.7 L 623.3,-103.0" stroke="#4ECDC4" stroke-width="6" fill="none" opacity="0.85"/>
  <circle cx="442.2" cy="-730.0" r="10" fill="#4ECDC4"/>
  <circle cx="623.3" cy="-103.0" r="6" fill="#4ECDC4" opacity="0.6"/>
  <text x="460.2" y="-748.0" fill="#4ECDC4" font-size="36" font-family="monospace">2</text>
</svg>