<?xml version="1.0" encoding="UTF-8"?>
<svg xmlns="http://www.w3.org/2000/svg" viewBox="-200 -1495.9680118128292 1600 2377.96801181283">
  <title>cogncur strokes for l</title>
  <line x1="-200" y1="0" x2="1400" y2="0" stroke="#2F3A56" stroke-width="4" opacity="0.55"/>
  <line x1="-200" y1="-614.0003000000003" x2="1400" y2="-614.0003000000003" stroke="#457B9D" stroke-width="3" opacity="0.5" stroke-dasharray="24 14"/>
  <line x1="-200" y1="-1295.9680118128292" x2="1400" y2="-1295.9680118128292" stroke="#2F3A56" stroke-width="4" opacity="0.45"/>
  <line x1="-200" y1="682.0000000000005" x2="1400" y2="682.0000000000005" stroke="#ADB5BD" stroke-width="2" opacity="0.35"/>
  <path d="M 35.4,-1.0 L 46.1,-22.8 L 56.8,-44.6 L 67.5,-66.4 L 78.2,-88.2 L 89.0,-110.0 L 99.7,-131.8 L 110.4,-153.6 L 121.1,-175.4 L 131.8,-197.2 L 142.5,-219.0 L 153.3,-240.8 L 164.0,-262.6 L 174.7,-284.4 L 185.4,-306.2 L 196.1,-328.0 L 206.8,-349.8 L 217.6,-371.6 L 228.3,-393.4 L 239.0,-415.2 L 249.7,-437.0 L 260.4,-458.8 L 271.1,-480.6 L 281.9,-502.4 L 292.6,-524.2 L 303.3,-546.0 L 314.0,-567.8 L 324.7,-589.6 L 335.4,-611.4 L 346.1,-633.2 L 356.9,-655.0 L 367.6,-676.8 L 378.3,-698.6 L 389.0,-720.4 L 399.7,-742.1 L 410.4,-763.9 L 421.2,-785.7 L 431.9,-807.5 L 442.6,-829.3 L 453.3,-851.1 L 464.0,-872.9 L 474.7,-894.7 L 485.5,-916.5 L 496.2,-938.3 L 506.9,-960.1 L 517.6,-981.9 L 528.3,-1003.7 L 539.0,-1025.5 L 549.8,-1047.3 L 560.5,-1069.1 L 570.1,-1091.4 L 577.2,-1114.6 L 582.0,-1138.4 L 584.8,-1162.6 L 585.2,-1186.8 L 582.1,-1210.9 L 574.6,-1234.0 L 562.6,-1255.0 L 546.1,-1272.7 L 525.6,-1285.7 L 502.6,-1293.3 L 478.5,-1296.0 L 454.2,-1294.7 L 430.6,-1289.4 L 408.4,-1279.4 L 389.0,-1264.9 L 373.1,-1246.7 L 360.6,-1225.9 L 351.2,-1203.5 L 344.3,-1180.2 L 339.4,-1156.4 L 336.0,-1132.4 L 334.0,-1108.2 L 333.1,-1083.9 L 333.0,-1059.6 L 333.0,-1035.3 L 333.0,-1011.0 L 333.0,-986.7 L 333.0,-962.4 L 333.0,-938.1 L 333.0,-913.9 L 333.0,-889.6 L 333.0,-865.3 L 333.0,-841.0 L 333.0,-816.7 L 333.0,-792.4 L 333.0,-768.1 L 333.0,-743.8 L 333.0,-719.5 L 333.0,-695.2 L 333.0,-671.0 L 333.0,-646.7 L 333.0,-622.4 L 333.0,-598.1 L 333.0,-573.8 L 333.0,-549.5 L 333.0,-525.2 L 333.0,-500.9 L 333.0,-476.6 L 333.0,-452.3 L 333.0,-428.1 L 333.0,-403.8 L 333.0,-379.5 L 333.0,-355.2 L 333.0,-330.9 L 333.0,-306.6 L 333.0,-282.3 L 333.0,-258.0 L 333.0,-233.7 L 333.0,-209.4 L 333.0,-185.2 L 333.0,-160.9 L 333.0,-136.6 L 333.0,-112.3 L 333.5,-88.0 L 336.6,-63.9 L 343.8,-40.8 L 356.8,-20.4 L 376.3,-6.2 L 399.8,-0.3 L 423.9,-2.0 L 445.5,-12.7 L 462.7,-29.8 L 476.0,-50.1 L 487.3,-71.6 L 498.0,-93.4 L 508.7,-115.2 L 519.4,-137.0" stroke="#FF6B6B" stroke-width="6" fill="none" opacity="0.85"/>
  <circle cx="35.4" cy="-1.0" r="10" fill="#FF6B6B"/>
  <circle cx="519.4" cy="-137.0" r="6" fill="#FF6B6B" opacity="0.6"/>
  <text x="53.4" y="-19.0" fill="#FF6B6B" font-size="36" font-family="monospace">1</text>
</svg>