<?xml version="1.0" encoding="UTF-8"?>
<svg xmlns="http://www.w3.org/2000/svg" viewBox="-200 -1495.9680118128292 1600 2377.96801181283">
  <title>cogncur strokes for m</title>
  <line x1="-200" y1="0" x2="1400" y2="0" stroke="#2F3A56" stroke-width="4" opacity="0.55"/>
  <line x1="-200" y1="-614.0003000000003" x2="1400" y2="-614.0003000000003" stroke="#457B9D" stroke-width="3" opacity="0.5" stroke-dasharray="24 14"/>
  <line x1="-200" y1="-1295.9680118128292" x2="1400" y2="-1295.9680118128292" stroke="#2F3A56" stroke-width="4" opacity="0.45"/>
  <line x1="-200" y1="682.0000000000005" x2="1400" y2="682.0000000000005" stroke="#ADB5BD" stroke-width="2" opacity="0.35"/>
  <path d="M 35.4,-0.0 L 40.1,-9.7 L 44.9,-19.4 L 49.7,-29.1 L 54.4,-38.8 L 59.2,-48.5 L 63.9,-58.2 L 68.7,-67.9 L 73.5,-77.5 L 78.2,-87.2 L 83.0,-96.9 L 87.7,-106.6 L 92.5,-116.3 L 97.2,-126.0 L 102.0,-135.7 L 106.8,-145.4 L 111.5,-155.1 L 116.3,-164.8 L 121.0,-174.5 L 125.8,-184.2 L 130.5,-193.9 L 135.3,-203.6 L 140.1,-213.3 L 144.8,-222.9 L 149.6,-232.6 L 154.3,-242.3 L 159.1,-252.0 L 163.9,-261.7 L 168.6,-271.4 L 173.4,-281.1 L 178.1,-290.8 L 182.9,-300.5 L 187.6,-310.2 L 192.4,-319.9 L 197.2,-329.6 L 201.9,-339.3 L 206.7,-349.0 L 211.4,-358.7 L 216.2,-368.4 L 220.9,-378.0 L 225.7,-387.7 L 230.5,-397.4 L 235.2,-407.1 L 240.0,-416.8 L 244.7,-426.5 L 249.5,-436.2 L 254.3,-445.9 L 259.0,-455.6 L 263.8,-465.3 L 268.5,-475.0 L 273.3,-484.7 L 278.0,-494.4 L 282.8,-504.1 L 287.6,-513.8 L 292.3,-523.4 L 297.1,-533.1 L 301.8,-542.8 L 306.7,-552.5 L 311.7,-562.1 L 317.0,-571.5 L 322.7,-580.6 L 329.2,-589.2 L 336.6,-597.1 L 344.9,-603.9 L 354.4,-609.1 L 364.6,-612.5 L 375.3,-613.9 L 386.1,-613.7 L 396.8,-612.1 L 407.1,-609.0 L 416.8,-604.2 L 425.4,-597.8 L 432.7,-589.9 L 438.7,-580.9 L 443.4,-571.2 L 446.9,-561.0 L 449.5,-550.5 L 451.3,-539.8 L 452.4,-529.1 L 452.9,-518.3 L 453.1,-507.5 L 453.2,-496.7 L 453.3,-485.9 L 453.3,-475.1 L 453.4,-464.3 L 453.4,-453.5 L 453.4,-442.7 L 453.4,-431.9 L 453.4,-421.1 L 453.4,-410.3 L 453.4,-399.5 L 453.4,-388.7 L 453.4,-377.9 L 453.4,-367.1 L 453.4,-356.3 L 453.4,-345.5 L 453.4,-334.7 L 453.4,-323.9 L 453.4,-313.1 L 453.4,-302.4 L 453.4,-291.6 L 453.4,-280.8 L 453.4,-270.0 L 453.4,-259.2 L 453.4,-248.4 L 453.4,-237.6 L 453.3,-226.8 L 453.3,-216.0 L 453.3,-205.2 L 453.3,-194.4 L 453.3,-183.6 L 453.3,-172.8 L 453.3,-162.0 L 453.2,-151.2 L 453.2,-140.4 L 453.2,-129.6 L 453.2,-118.8 L 453.2,-108.0 L 453.2,-97.2 L 453.2,-86.4 L 453.1,-75.6 L 453.1,-64.8 L 453.1,-54.0 L 453.1,-43.2 L 453.1,-32.4 L 453.0,-21.6 L 453.0,-10.8 L 453.0,-0.0" stroke="#FF6B6B" stroke-width="6" fill="none" opacity="0.85"/>
  <circle cx="35.4" cy="-0.0" r="10" fill="#FF6B6B"/>
  <circle cx="453.0" cy="-0.0" r="6" fill="#FF6B6B" opacity="0.6"/>
  <text x="53.4" y="-18.0" fill="#FF6B6B" font-size="36" font-family="monospace">1</text>
  <path d="M 453.0,-0.0 L 453.0,-11.4 L 453.0,-22.8 L 453.0,-34.3 L 453.0,-45.7 L 453.0,-57.1 L 453.0,-68.5 L 453.0,-79.9 L 453.0,-91.3 L 453.0,-102.8 L 453.0,-114.2 L 453.0,-125.6 L 453.0,-137.0 L 453.0,-148.4 L 453.0,-159.8 L 453.0,-171.3 L 453.0,-182.7 L 453.0,-194.1 L 453.0,-205.5 L 453.0,-216.9 L 453.0,-228.3 L 453.0,-239.8 L 453.0,-251.2 L 453.0,-262.6 L 453.0,-274.0 L 453.0,-285.4 L 453.0,-296.8 L 453.0,-308.3 L 453.6,-319.7 L 455.1,-331.0 L 457.3,-342.2 L 460.2,-353.2 L 463.6,-364.1 L 467.5,-374.8 L 471.9,-385.4 L 476.5,-395.8 L 481.5,-406.1 L 486.7,-416.3 L 492.2,-426.3 L 497.9,-436.2 L 503.8,-445.9 L 509.9,-455.6 L 516.3,-465.0 L 522.9,-474.4 L 529.7,-483.6 L 536.6,-492.6 L 543.8,-501.5 L 551.2,-510.2 L 558.9,-518.6 L 566.8,-526.8 L 575.0,-534.8 L 583.5,-542.5 L 592.1,-549.9 L 601.0,-557.1 L 610.1,-563.9 L 619.4,-570.5 L 628.9,-576.9 L 638.6,-582.9 L 648.5,-588.6 L 658.7,-593.8 L 669.1,-598.6 L 679.7,-602.8 L 690.5,-606.4 L 701.5,-609.4 L 712.7,-611.7 L 724.0,-613.2 L 735.4,-613.9 L 746.8,-613.9 L 758.2,-613.0 L 769.5,-611.4 L 780.6,-608.8 L 791.5,-605.2 L 801.9,-600.7 L 811.9,-595.2 L 821.3,-588.7 L 830.1,-581.4 L 838.1,-573.3 L 845.5,-564.6 L 852.1,-555.3 L 857.9,-545.4 L 862.8,-535.1 L 866.8,-524.5 L 869.9,-513.5 L 872.1,-502.3 L 873.4,-490.9 L 874.0,-479.5 L 874.0,-468.1 L 874.0,-456.7 L 874.0,-445.3 L 874.0,-433.9 L 874.0,-422.4 L 874.0,-411.0 L 874.0,-399.6 L 874.0,-388.2 L 874.0,-376.8 L 874.0,-365.3 L 874.0,-353.9 L 874.0,-342.5 L 874.0,-331.1 L 874.0,-319.7 L 874.0,-308.3 L 874.0,-296.8 L 874.0,-285.4 L 874.0,-274.0 L 874.0,-262.6 L 874.0,-251.2 L 874.0,-239.8 L 874.0,-228.3 L 874.0,-216.9 L 874.0,-205.5 L 874.0,-194.1 L 874.0,-182.7 L 874.0,-171.3 L 874.0,-159.8 L 874.0,-148.4 L 874.0,-137.0 L 874.0,-125.6 L 874.0,-114.2 L 874.0,-102.8 L 874.0,-91.3 L 874.0,-79.9 L 874.0,-68.5 L 874.0,-57.1 L 874.0,-45.7 L 874.0,-34.3 L 874.0,-22.8 L 874.0,-11.4 L 874.0,-0.0" stroke="#4ECDC4" stroke-width="6" fill="none" opacity="0.85"/>
  <circle cx="453.0" cy="-0.0" r="10" fill="#4ECDC4"/>
  <circle cx="874.0" cy="-0.0" r="6" fill="#4ECDC4" opacity="0.6"/>
  <text x="471.0" y="-18.0" fill="#4ECDC4" font-size="36" font-family="monospace">2</text>
  <path d="M 874.0,-0.0 L 874.0,-13.2 L 874.0,-26.4 L 874.0,-39.6 L 874.0,-52.9 L 874.0,-66.1 L 874.0,-79.3 L 874.0,-92.5 L 874.0,-105.7 L 874.0,-118.9 L 874.0,-132.1 L 874.0,-145.4 L 874.0,-158.6 L 874.0,-171.8 L 874.0,-185.0 L 874.0,-198.2 L 874.0,-211.4 L 874.0,-224.6 L 874.0,-237.9 L 874.0,-251.1 L 874.0,-264.3 L 874.0,-277.5 L 874.0,-290.7 L 874.0,-303.9 L 874.4,-317.1 L 876.0,-330.2 L 878.6,-343.2 L 882.0,-356.0 L 886.2,-368.5 L 890.9,-380.8 L 896.2,-392.9 L 901.9,-404.9 L 907.9,-416.6 L 914.3,-428.2 L 920.9,-439.6 L 927.9,-450.9 L 935.1,-461.9 L 942.7,-472.7 L 950.5,-483.4 L 958.6,-493.8 L 967.0,-504.1 L 975.7,-514.0 L 984.7,-523.7 L 994.1,-533.0 L 1003.8,-541.9 L 1013.8,-550.5 L 1024.2,-558.7 L 1034.8,-566.6 L 1045.7,-574.1 L 1056.8,-581.2 L 1068.2,-587.9 L 1080.0,-593.9 L 1092.0,-599.4 L 1104.3,-604.1 L 1117.0,-608.0 L 1129.8,-611.0 L 1142.9,-613.0 L 1156.1,-613.9 L 1169.3,-613.8 L 1182.4,-612.6 L 1195.5,-610.3 L 1208.2,-606.8 L 1220.4,-601.9 L 1232.1,-595.7 L 1243.0,-588.2 L 1253.0,-579.6 L 1262.1,-570.0 L 1270.2,-559.6 L 1277.3,-548.4 L 1283.2,-536.6 L 1287.9,-524.3 L 1291.4,-511.5 L 1293.6,-498.5 L 1294.8,-485.3 L 1295.0,-472.1 L 1295.0,-458.9 L 1295.0,-445.7 L 1295.0,-432.5 L 1295.0,-419.3 L 1295.0,-406.1 L 1295.0,-392.8 L 1295.0,-379.6 L 1295.0,-366.4 L 1295.0,-353.2 L 1295.0,-340.0 L 1295.0,-326.8 L 1295.0,-313.6 L 1295.0,-300.3 L 1295.0,-287.1 L 1295.0,-273.9 L 1295.0,-260.7 L 1295.0,-247.5 L 1295.0,-234.3 L 1295.0,-221.1 L 1295.0,-207.8 L 1295.0,-194.6 L 1295.0,-181.4 L 1295.0,-168.2 L 1295.0,-155.0 L 1295.0,-141.8 L 1295.0,-128.6 L 1295.0,-115.4 L 1295.0,-102.1 L 1295.4,-88.9 L 1296.5,-75.8 L 1298.6,-62.7 L 1301.9,-49.9 L 1306.7,-37.6 L 1313.4,-26.2 L 1322.1,-16.4 L 1332.8,-8.7 L 1345.0,-3.5 L 1357.9,-0.7 L 1371.0,-0.0 L 1384.1,-1.8 L 1396.6,-6.1 L 1408.0,-12.7 L 1417.7,-21.6 L 1425.8,-32.1 L 1433.5,-42.8 L 1440.3,-54.1 L 1446.4,-65.8 L 1452.3,-77.7 L 1458.1,-89.6 L 1463.9,-101.4 L 1469.7,-113.3 L 1475.6,-125.1 L 1481.4,-137.0" stroke="#45B7D1" stroke-width="6" fill="none" opacity="0.85"/>
  <circle cx="874.0" cy="-0.0" r="10" fill="#45B7D1"/>
  <circle cx="1481.4" cy="-137.0" r="6" fill="#45B7D1" opacity="0.6"/>
  <text x="892.0" y="-18.0" fill="#45B7D1" font-size="36" font-family="monospace">3</text>
</svg>