<?xml version="1.0" encoding="UTF-8"?>
<svg xmlns="http://www.w3.org/2000/svg" viewBox="-200 -1495.9680118128292 1600 2377.96801181283">
  <title>cogncur strokes for o</title>
  <line x1="-200" y1="0" x2="1400" y2="0" stroke="#2F3A56" stroke-width="4" opacity="0.55"/>
  <line x1="-200" y1="-614.0003000000003" x2="1400" y2="-614.0003000000003" stroke="#457B9D" stroke-width="3" opacity="0.5" stroke-dasharray="24 14"/>
  <line x1="-200" y1="-1295.9680118128292" x2="1400" y2="-1295.9680118128292" stroke="#2F3A56" stroke-width="4" opacity="0.45"/>
  <line x1="-200" y1="682.0000000000005" x2="1400" y2="682.0000000000005" stroke="#ADB5BD" stroke-width="2" opacity="0.35"/>
  <path d="M 35.4,-0.0 L 39.2,-6.3 L 43.1,-12.6 L 46.9,-18.9 L 50.7,-25.2 L 54.6,-31.5 L 58.4,-37.8 L 62.3,-44.1 L 66.1,-50.4 L 69.9,-56.7 L 73.8,-63.0 L 77.6,-69.3 L 81.5,-75.6 L 85.3,-81.9 L 89.1,-88.2 L 93.0,-94.5 L 96.8,-100.8 L 100.7,-107.1 L 104.5,-113.4 L 108.3,-119.7 L 112.2,-126.0 L 116.0,-132.3 L 119.9,-138.6 L 123.7,-144.9 L 127.5,-151.2 L 131.4,-157.5 L 135.2,-163.8 L 139.1,-170.1 L 142.9,-176.4 L 146.7,-182.7 L 150.6,-189.0 L 154.4,-195.3 L 158.2,-201.6 L 162.1,-207.9 L 165.9,-214.2 L 169.8,-220.5 L 173.6,-226.8 L 177.4,-233.1 L 181.3,-239.4 L 185.1,-245.7 L 189.0,-252.0 L 192.8,-258.3 L 196.6,-264.6 L 200.5,-270.9 L 204.3,-277.2 L 208.2,-283.5 L 212.0,-289.8 L 215.8,-296.1 L 219.7,-302.4 L 223.5,-308.7 L 227.4,-315.0 L 231.2,-321.3 L 235.0,-327.6 L 238.9,-333.9 L 242.7,-340.2 L 246.6,-346.5 L 250.4,-352.8 L 254.2,-359.1 L 258.1,-365.4 L 261.9,-371.7 L 265.8,-378.0 L 269.6,-384.3 L 273.4,-390.6 L 277.3,-396.9 L 281.1,-403.2 L 285.0,-409.5 L 288.8,-415.8 L 292.6,-422.1 L 296.5,-428.4 L 300.3,-434.7 L 304.1,-441.0 L 308.0,-447.3 L 311.8,-453.6 L 315.7,-459.9 L 319.5,-466.3 L 323.3,-472.6 L 327.2,-478.9 L 331.0,-485.2 L 334.9,-491.5 L 338.7,-497.8 L 342.5,-504.1 L 346.4,-510.4 L 350.3,-516.6 L 354.4,-522.8 L 358.6,-528.8 L 363.0,-534.7 L 367.6,-540.5 L 372.3,-546.2 L 377.2,-551.7 L 382.2,-557.1 L 387.4,-562.4 L 392.8,-567.4 L 398.3,-572.3 L 404.0,-577.0 L 409.9,-581.4 L 415.9,-585.7 L 422.1,-589.7 L 428.5,-593.5 L 435.0,-596.9 L 441.6,-600.1 L 448.4,-603.1 L 455.3,-605.6 L 462.3,-607.9 L 469.4,-609.8 L 476.7,-611.4 L 483.9,-612.6 L 491.3,-613.4 L 498.6,-613.9 L 506.0,-614.0 L 513.4,-613.7 L 520.7,-613.0 L 528.0,-611.9 L 535.3,-610.5 L 542.4,-608.7 L 549.5,-606.6 L 556.4,-604.1 L 563.2,-601.3 L 569.9,-598.2 L 576.5,-594.8 L 582.9,-591.1 L 589.2,-587.2 L 595.3,-583.1 L 601.2,-578.7 L 607.0,-574.2 L 612.6,-569.4 L 618.1,-564.4 L 623.4,-559.3 L 628.5,-554.0" stroke="#FF6B6B" stroke-width="6" fill="none" opacity="0.85"/>
  <circle cx="35.4" cy="-0.0" r="10" fill="#FF6B6B"/>
  <circle cx="628.5" cy="-554.0" r="6" fill="#FF6B6B" opacity="0.6"/>
  <text x="53.4" y="-18.0" fill="#FF6B6B" font-size="36" font-family="monospace">1</text>
  <path d="M 628.7,-554.3 L 619.6,-563.5 L 610.1,-572.1 L 600.0,-580.2 L 589.4,-587.6 L 578.3,-594.2 L 566.8,-600.0 L 554.8,-604.9 L 542.5,-608.8 L 529.9,-611.7 L 517.1,-613.4 L 504.2,-614.0 L 491.3,-613.4 L 478.5,-611.7 L 465.9,-608.9 L 453.6,-605.0 L 441.6,-600.1 L 430.1,-594.3 L 419.0,-587.7 L 408.4,-580.3 L 398.3,-572.2 L 388.8,-563.6 L 379.7,-554.4 L 371.1,-544.7 L 363.1,-534.6 L 355.5,-524.1 L 348.4,-513.3 L 341.8,-502.2 L 335.6,-490.9 L 329.9,-479.3 L 324.6,-467.5 L 319.8,-455.5 L 315.4,-443.4 L 311.4,-431.1 L 307.8,-418.7 L 304.6,-406.2 L 301.8,-393.6 L 299.4,-380.9 L 297.4,-368.1 L 295.7,-355.3 L 294.5,-342.4 L 293.6,-329.6 L 293.1,-316.7 L 293.0,-303.7 L 293.3,-290.8 L 293.9,-277.9 L 294.9,-265.0 L 296.3,-252.2 L 298.0,-239.4 L 300.2,-226.7 L 302.8,-214.0 L 305.7,-201.4 L 309.1,-188.9 L 312.8,-176.6 L 317.0,-164.4 L 321.6,-152.3 L 326.7,-140.4 L 332.1,-128.7 L 338.1,-117.2 L 344.5,-106.0 L 351.3,-95.1 L 358.7,-84.4 L 366.5,-74.2 L 374.8,-64.3 L 383.7,-54.9 L 393.0,-45.9 L 402.8,-37.6 L 413.2,-29.9 L 424.1,-22.9 L 435.4,-16.6 L 447.1,-11.3 L 459.3,-6.9 L 471.8,-3.6 L 484.5,-1.3 L 497.3,-0.2 L 510.2,-0.1 L 523.1,-1.3 L 535.8,-3.5 L 548.3,-6.9 L 560.5,-11.2 L 572.2,-16.6 L 583.5,-22.8 L 594.4,-29.8 L 604.8,-37.5 L 614.6,-45.9 L 623.9,-54.8 L 632.8,-64.2 L 641.1,-74.1 L 648.9,-84.4 L 656.3,-95.0 L 663.1,-105.9 L 669.5,-117.1 L 675.5,-128.6 L 681.0,-140.3 L 686.0,-152.2 L 690.7,-164.2 L 694.9,-176.5 L 698.7,-188.8 L 702.0,-201.3 L 705.0,-213.8 L 707.6,-226.5 L 709.8,-239.2 L 711.6,-252.0 L 713.0,-264.9 L 714.0,-277.7 L 714.7,-290.6 L 715.0,-303.6 L 714.9,-316.5 L 714.4,-329.4 L 713.6,-342.3 L 712.4,-355.1 L 710.8,-368.0 L 708.8,-380.7 L 706.4,-393.4 L 703.7,-406.0 L 700.5,-418.6 L 696.9,-431.0 L 693.0,-443.3 L 688.5,-455.4 L 683.7,-467.4 L 678.5,-479.2 L 672.8,-490.8 L 666.6,-502.1 L 660.0,-513.2 L 652.9,-524.0 L 645.3,-534.5 L 637.3,-544.6 L 628.7,-554.3" stroke="#4ECDC4" stroke-width="6" fill="none" opacity="0.85"/>
  <circle cx="628.7" cy="-554.3" r="10" fill="#4ECDC4"/>
  <text x="646.7" y="-572.3" fill="#4ECDC4" font-size="36" font-family="monospace">2</text>
  <path d="M 628.5,-555.0 L 630.7,-553.2 L 632.8,-551.5 L 635.0,-549.8 L 637.1,-548.1 L 639.3,-546.5 L 641.6,-544.8 L 643.8,-543.2 L 646.1,-541.7 L 648.4,-540.1 L 650.7,-538.6 L 653.0,-537.2 L 655.4,-535.8 L 657.8,-534.4 L 660.2,-533.0 L 662.6,-531.7 L 665.1,-530.5 L 667.5,-529.2 L 670.0,-528.1 L 672.5,-526.9 L 675.1,-525.8 L 677.6,-524.8 L 680.2,-523.8 L 682.7,-522.8 L 685.3,-521.9 L 688.0,-521.0 L 690.6,-520.2 L 693.2,-519.4 L 695.9,-518.7 L 698.6,-518.0 L 701.2,-517.3 L 703.9,-516.7 L 706.6,-516.1 L 709.3,-515.6 L 712.0,-515.1 L 714.8,-514.7 L 717.5,-514.3 L 720.2,-513.9 L 723.0,-513.6 L 725.7,-513.3 L 728.4,-513.0 L 731.2,-512.8 L 733.9,-512.6 L 736.7,-512.5 L 739.4,-512.3 L 742.2,-512.2 L 744.9,-512.1 L 747.7,-512.1 L 750.5,-512.0 L 753.2,-512.0 L 756.0,-512.0 L 758.7,-512.1 L 761.5,-512.2 L 764.2,-512.4 L 767.0,-512.6 L 769.7,-512.8 L 772.5,-513.1 L 775.2,-513.5 L 777.9,-513.8 L 780.6,-514.2 L 783.4,-514.7 L 786.1,-515.2 L 788.8,-515.7 L 791.5,-516.2 L 794.2,-516.8 L 796.9,-517.5 L 799.5,-518.1 L 802.2,-518.8 L 804.9,-519.5 L 807.5,-520.3 L 810.2,-521.0 L 812.8,-521.8 L 815.4,-522.7 L 818.0,-523.6 L 820.6,-524.5 L 823.2,-525.4 L 825.8,-526.4 L 828.4,-527.3 L 831.0,-528.4 L 833.5,-529.4 L 836.0,-530.5 L 838.6,-531.6 L 841.1,-532.8 L 843.5,-533.9 L 846.0,-535.2 L 848.5,-536.4 L 850.9,-537.7 L 853.4,-539.0 L 855.8,-540.3 L 858.2,-541.6 L 860.6,-543.0 L 863.0,-544.4 L 865.3,-545.8 L 867.7,-547.3 L 870.0,-548.7 L 872.3,-550.3 L 874.6,-551.8 L 876.9,-553.4 L 879.1,-554.9 L 881.3,-556.6 L 883.5,-558.2 L 885.7,-559.9 L 887.9,-561.6 L 890.0,-563.4 L 892.1,-565.2 L 894.2,-567.0 L 896.2,-568.8 L 898.2,-570.7 L 900.2,-572.6 L 902.2,-574.5 L 904.1,-576.5 L 906.0,-578.5 L 907.9,-580.5 L 909.7,-582.6 L 911.5,-584.7 L 913.3,-586.8 L 915.0,-588.9 L 916.7,-591.1 L 918.4,-593.3 L 920.1,-595.5 L 921.7,-597.7 L 923.2,-600.0 L 924.8,-602.3 L 926.3,-604.6 L 927.8,-606.9 L 929.2,-609.2 L 930.6,-611.6 L 932.0,-614.0" stroke="#45B7D1" stroke-width="6" fill="none" opacity="0.85"/>
  <circle cx="628.5" cy="-555.0" r="10" fill="#45B7D1"/>
  <circle cx="932.0" cy="-614.0" r="6" fill="#45B7D1" opacity="0.6"/>
  <text x="646.5" y="-573.0" fill="#45B7D1" font-size="36" font-family="monospace">3</text>
</svg>