<?xml version="1.0" encoding="UTF-8"?>
<svg xmlns="http://www.w3.org/2000/svg" viewBox="-200 -1495.9680118128292 1600 2377.96801181283">
  <title>cogncur strokes for t</title>
  <line x1="-200" y1="0" x2="1400" y2="0" stroke="#2F3A56" stroke-width="4" opacity="0.55"/>
  <line x1="-200" y1="-614.0003000000003" x2="1400" y2="-614.0003000000003" stroke="#457B9D" stroke-width="3" opacity="0.5" stroke-dasharray="24 14"/>
  <line x1="-200" y1="-1295.9680118128292" x2="1400" y2="-1295.9680118128292" stroke="#2F3A56" stroke-width="4" opacity="0.45"/>
  <line x1="-200" y1="682.0000000000005" x2="1400" y2="682.0000000000005" stroke="#ADB5BD" stroke-width="2" opacity="0.35"/>
  <path d="M 33.1,-1.0 L 37.4,-9.7 L 41.6,-18.3 L 45.9,-27.0 L 50.1,-35.6 L 54.4,-44.3 L 58.7,-53.0 L 62.9,-61.6 L 67.2,-70.3 L 71.4,-79.0 L 75.7,-87.6 L 80.0,-96.3 L 84.2,-104.9 L 88.5,-113.6 L 92.7,-122.3 L 97.0,-130.9 L 101.3,-139.6 L 105.5,-148.2 L 109.8,-156.9 L 114.0,-165.6 L 118.3,-174.2 L 122.6,-182.9 L 126.8,-191.6 L 131.1,-200.2 L 135.3,-208.9 L 139.6,-217.5 L 143.9,-226.2 L 148.1,-234.9 L 152.4,-243.5 L 156.6,-252.2 L 160.9,-260.8 L 165.2,-269.5 L 169.4,-278.2 L 173.7,-286.8 L 177.9,-295.5 L 182.2,-304.1 L 186.5,-312.8 L 190.7,-321.5 L 195.0,-330.1 L 199.2,-338.8 L 203.5,-347.5 L 207.8,-356.1 L 212.0,-364.8 L 216.3,-373.4 L 220.5,-382.1 L 224.8,-390.8 L 229.1,-399.4 L 233.3,-408.1 L 237.6,-416.7 L 241.8,-425.4 L 246.1,-434.1 L 250.4,-442.7 L 254.6,-451.4 L 258.9,-460.1 L 263.1,-468.7 L 267.4,-477.4 L 271.7,-486.0 L 275.9,-494.7 L 280.2,-503.4 L 284.4,-512.0 L 288.7,-520.7 L 293.0,-529.3 L 297.2,-538.0 L 301.5,-546.7 L 305.7,-555.3 L 310.0,-564.0 L 314.3,-572.7 L 318.5,-581.3 L 322.8,-590.0 L 327.0,-598.6 L 331.3,-607.3 L 335.6,-616.0 L 339.8,-624.6 L 344.1,-633.3 L 348.3,-641.9 L 352.6,-650.6 L 356.9,-659.3 L 361.1,-667.9 L 365.4,-676.6 L 369.6,-685.3 L 373.9,-693.9 L 378.2,-702.6 L 382.4,-711.2 L 386.7,-719.9 L 390.9,-728.6 L 395.2,-737.2 L 399.5,-745.9 L 403.7,-754.5 L 408.0,-763.2 L 412.2,-771.9 L 416.5,-780.5 L 420.8,-789.2 L 425.0,-797.9 L 429.3,-806.5 L 433.5,-815.2 L 437.8,-823.8 L 442.0,-832.5 L 446.3,-841.2 L 450.6,-849.8 L 454.8,-858.5 L 459.1,-867.1 L 463.3,-875.8 L 467.6,-884.5 L 471.9,-893.1 L 476.1,-901.8 L 480.4,-910.4 L 484.6,-919.1 L 488.9,-927.8 L 493.2,-936.4 L 497.4,-945.1 L 501.7,-953.8 L 505.9,-962.4 L 510.2,-971.1 L 514.5,-979.7 L 518.7,-988.4 L 523.0,-997.1 L 527.2,-1005.7 L 531.5,-1014.4 L 535.8,-1023.0 L 540.0,-1031.7 L 544.3,-1040.4 L 548.5,-1049.0 L 552.8,-1057.7 L 557.1,-1066.4 L 561.3,-1075.0 L 565.6,-1083.7 L 569.8,-1092.3 L 574.1,-1101.0" stroke="#FF6B6B" stroke-width="6" fill="none" opacity="0.85"/>
  <circle cx="33.1" cy="-1.0" r="10" fill="#FF6B6B"/>
  <circle cx="574.1" cy="-1101.0" r="6" fill="#FF6B6B" opacity="0.6"/>
  <text x="51.1" y="-19.0" fill="#FF6B6B" font-size="36" font-family="monospace">1</text>
  <path d="M 573.4,-1103.0 L 573.4,-1094.3 L 573.4,-1085.6 L 573.4,-1076.9 L 573.4,-1068.3 L 573.4,-1059.6 L 573.4,-1050.9 L 573.4,-1042.2 L 573.4,-1033.5 L 573.4,-1024.8 L 573.4,-1016.1 L 573.4,-1007.5 L 573.4,-998.8 L 573.4,-990.1 L 573.4,-981.4 L 573.4,-972.7 L 573.4,-964.0 L 573.4,-955.4 L 573.4,-946.7 L 573.4,-938.0 L 573.4,-929.3 L 573.4,-920.6 L 573.4,-911.9 L 573.4,-903.2 L 573.4,-894.6 L 573.4,-885.9 L 573.4,-877.2 L 573.4,-868.5 L 573.4,-859.8 L 573.4,-851.1 L 573.4,-842.4 L 573.4,-833.8 L 573.4,-825.1 L 573.4,-816.4 L 573.4,-807.7 L 573.4,-799.0 L 573.4,-790.3 L 573.4,-781.7 L 573.4,-773.0 L 573.4,-764.3 L 573.4,-755.6 L 573.4,-746.9 L 573.4,-738.2 L 573.4,-729.5 L 573.4,-720.9 L 573.4,-712.2 L 573.4,-703.5 L 573.4,-694.8 L 573.4,-686.1 L 573.4,-677.4 L 573.4,-668.7 L 573.4,-660.1 L 573.4,-651.4 L 573.4,-642.7 L 573.4,-634.0 L 573.4,-625.3 L 573.4,-616.6 L 573.4,-608.0 L 573.4,-599.3 L 573.4,-590.6 L 573.4,-581.9 L 573.4,-573.2 L 573.4,-564.5 L 573.4,-555.8 L 573.4,-547.2 L 573.4,-538.5 L 573.4,-529.8 L 573.4,-521.1 L 573.4,-512.4 L 573.4,-503.7 L 573.4,-495.0 L 573.4,-486.4 L 573.4,-477.7 L 573.4,-469.0 L 573.4,-460.3 L 573.4,-451.6 L 573.4,-442.9 L 573.4,-434.3 L 573.4,-425.6 L 573.4,-416.9 L 573.4,-408.2 L 573.4,-399.5 L 573.4,-390.8 L 573.4,-382.1 L 573.4,-373.5 L 573.4,-364.8 L 573.4,-356.1 L 573.4,-347.4 L 573.4,-338.7 L 573.4,-330.0 L 573.4,-321.3 L 573.4,-312.7 L 573.4,-304.0 L 573.4,-295.3 L 573.4,-286.6 L 573.4,-277.9 L 573.4,-269.2 L 573.4,-260.6 L 573.4,-251.9 L 573.4,-243.2 L 573.4,-234.5 L 573.4,-225.8 L 573.4,-217.1 L 573.4,-208.4 L 573.4,-199.8 L 573.4,-191.1 L 573.4,-182.4 L 573.4,-173.7 L 573.4,-165.0 L 573.4,-156.3 L 573.4,-147.6 L 573.4,-139.0 L 573.4,-130.3 L 573.4,-121.6 L 573.4,-112.9 L 573.4,-104.2 L 573.4,-95.5 L 573.4,-86.8 L 573.4,-78.2 L 573.4,-69.5 L 573.4,-60.8 L 573.4,-52.1 L 573.4,-43.4 L 573.4,-34.7 L 573.4,-26.1 L 573.4,-17.4 L 573.4,-8.7 L 573.4,-0.0" stroke="#4ECDC4" stroke-width="6" fill="none" opacity="0.85"/>
  <circle cx="573.4" cy="-1103.0" r="10" fill="#4ECDC4"/>
  <circle cx="573.4" cy="-0.0" r="6" fill="#4ECDC4" opacity="0.6"/>
  <text x="591.4" y="-1121.0" fill="#4ECDC4" font-size="36" font-family="monospace">2</text>
  <path d="M 573.4,-0.0 L 573.4,-10.7 L 573.4,-21.3 L 573.3,-32.0 L 573.3,-42.7 L 573.3,-53.3 L 573.3,-64.0 L 573.3,-74.6 L 573.3,-85.3 L 573.3,-96.0 L 573.3,-106.6 L 573.2,-117.3 L 573.2,-128.0 L 573.2,-138.6 L 573.2,-149.3 L 573.2,-160.0 L 573.2,-170.6 L 573.2,-181.3 L 573.2,-192.0 L 573.1,-202.6 L 573.1,-213.3 L 573.1,-223.9 L 573.1,-234.6 L 573.1,-245.3 L 573.1,-255.9 L 573.1,-266.6 L 573.1,-277.3 L 573.0,-287.9 L 573.0,-298.6 L 573.0,-309.3 L 573.0,-319.9 L 573.0,-330.6 L 572.6,-341.2 L 571.8,-351.9 L 570.6,-362.5 L 568.9,-373.0 L 566.8,-383.4 L 564.2,-393.8 L 561.1,-404.0 L 557.6,-414.0 L 553.5,-423.9 L 549.1,-433.6 L 544.1,-443.0 L 538.7,-452.2 L 532.8,-461.1 L 526.5,-469.7 L 519.7,-478.0 L 512.5,-485.8 L 504.9,-493.3 L 496.9,-500.3 L 488.5,-506.9 L 479.7,-512.9 L 470.6,-518.5 L 461.2,-523.4 L 451.4,-527.8 L 441.5,-531.6 L 431.3,-534.7 L 420.9,-537.1 L 410.4,-538.8 L 399.7,-539.8 L 389.1,-540.0 L 378.4,-539.7 L 367.8,-538.9 L 357.2,-537.6 L 346.7,-535.7 L 336.4,-533.1 L 326.2,-529.8 L 316.5,-525.6 L 307.1,-520.4 L 298.5,-514.1 L 290.8,-506.8 L 284.1,-498.5 L 278.8,-489.2 L 274.9,-479.3 L 272.4,-469.0 L 271.2,-458.4 L 271.1,-447.7 L 272.2,-437.1 L 274.6,-426.7 L 278.3,-416.7 L 283.1,-407.2 L 288.9,-398.3 L 295.5,-389.9 L 302.9,-382.2 L 310.8,-375.1 L 319.3,-368.6 L 328.1,-362.5 L 337.2,-357.0 L 346.5,-351.9 L 356.1,-347.2 L 365.8,-342.8 L 375.7,-338.8 L 385.7,-335.2 L 395.8,-331.8 L 406.0,-328.7 L 416.3,-325.8 L 426.6,-323.2 L 437.0,-320.8 L 447.5,-318.7 L 458.0,-316.7 L 468.5,-315.0 L 479.0,-313.4 L 489.6,-312.0 L 500.2,-310.8 L 510.8,-309.8 L 521.4,-308.9 L 532.1,-308.2 L 542.7,-307.7 L 553.4,-307.3 L 564.1,-307.1 L 574.7,-307.0 L 585.4,-307.1 L 596.0,-307.3 L 606.7,-307.8 L 617.3,-308.3 L 628.0,-309.1 L 638.6,-310.0 L 649.2,-311.0 L 659.8,-312.3 L 670.4,-313.7 L 680.9,-315.3 L 691.4,-317.2 L 701.9,-319.2 L 712.3,-321.4 L 722.7,-323.8 L 733.0,-326.5 L 743.3,-329.5 L 753.5,-332.6" stroke="#45B7D1" stroke-width="6" fill="none" opacity="0.85"/>
  <circle cx="573.4" cy="-0.0" r="10" fill="#45B7D1"/>
  <circle cx="753.5" cy="-332.6" r="6" fill="#45B7D1" opacity="0.6"/>
  <text x="591.4" y="-18.0" fill="#45B7D1" font-size="36" font-family="monospace">3</text>
</svg>