<?xml version="1.0" encoding="UTF-8"?>
<svg xmlns="http://www.w3.org/2000/svg" viewBox="-200 -1495.9680118128292 1600 2377.96801181283">
  <title>cogncur strokes for u</title>
  <line x1="-200" y1="0" x2="1400" y2="0" stroke="#2F3A56" stroke-width="4" opacity="0.55"/>
  <line x1="-200" y1="-614.0003000000003" x2="1400" y2="-614.0003000000003" stroke="#457B9D" stroke-width="3" opacity="0.5" stroke-dasharray="24 14"/>
  <line x1="-200" y1="-1295.9680118128292" x2="1400" y2="-1295.9680118128292" stroke="#2F3A56" stroke-width="4" opacity="0.45"/>
  <line x1="-200" y1="682.0000000000005" x2="1400" y2="682.0000000000005" stroke="#ADB5BD" stroke-width="2" opacity="0.35"/>
  <path d="M 35.4,-1.0 L 37.8,-5.8 L 40.1,-10.7 L 42.5,-15.5 L 44.9,-20.3 L 47.2,-25.2 L 49.6,-30.0 L 52.0,-34.8 L 54.3,-39.7 L 56.7,-44.5 L 59.1,-49.3 L 61.5,-54.2 L 63.8,-59.0 L 66.2,-63.9 L 68.6,-68.7 L 70.9,-73.5 L 73.3,-78.4 L 75.7,-83.2 L 78.0,-88.0 L 80.4,-92.9 L 82.8,-97.7 L 85.2,-102.5 L 87.5,-107.4 L 89.9,-112.2 L 92.3,-117.0 L 94.6,-121.9 L 97.0,-126.7 L 99.4,-131.5 L 101.7,-136.4 L 104.1,-141.2 L 106.5,-146.0 L 108.9,-150.9 L 111.2,-155.7 L 113.6,-160.5 L 116.0,-165.4 L 118.3,-170.2 L 120.7,-175.0 L 123.1,-179.9 L 125.5,-184.7 L 127.8,-189.6 L 130.2,-194.4 L 132.6,-199.2 L 134.9,-204.1 L 137.3,-208.9 L 139.7,-213.7 L 142.0,-218.6 L 144.4,-223.4 L 146.8,-228.2 L 149.2,-233.1 L 151.5,-237.9 L 153.9,-242.7 L 156.3,-247.6 L 158.6,-252.4 L 161.0,-257.2 L 163.4,-262.1 L 165.7,-266.9 L 168.1,-271.7 L 170.5,-276.6 L 172.9,-281.4 L 175.2,-286.2 L 177.6,-291.1 L 180.0,-295.9 L 182.3,-300.7 L 184.7,-305.6 L 187.1,-310.4 L 189.4,-315.3 L 191.8,-320.1 L 194.2,-324.9 L 196.6,-329.8 L 198.9,-334.6 L 201.3,-339.4 L 203.7,-344.3 L 206.0,-349.1 L 208.4,-353.9 L 210.8,-358.8 L 213.1,-363.6 L 215.5,-368.4 L 217.9,-373.3 L 220.3,-378.1 L 222.6,-382.9 L 225.0,-387.8 L 227.4,-392.6 L 229.7,-397.4 L 232.1,-402.3 L 234.5,-407.1 L 236.8,-411.9 L 239.2,-416.8 L 241.6,-421.6 L 244.0,-426.4 L 246.3,-431.3 L 248.7,-436.1 L 251.1,-441.0 L 253.4,-445.8 L 255.8,-450.6 L 258.2,-455.5 L 260.5,-460.3 L 262.9,-465.1 L 265.3,-470.0 L 267.7,-474.8 L 270.0,-479.6 L 272.4,-484.5 L 274.8,-489.3 L 277.1,-494.1 L 279.5,-499.0 L 281.9,-503.8 L 284.2,-508.6 L 286.6,-513.5 L 289.0,-518.3 L 291.4,-523.1 L 293.7,-528.0 L 296.1,-532.8 L 298.5,-537.6 L 300.8,-542.5 L 303.2,-547.3 L 305.6,-552.1 L 307.9,-557.0 L 310.3,-561.8 L 312.7,-566.7 L 315.1,-571.5 L 317.4,-576.3 L 319.8,-581.2 L 322.2,-586.0 L 324.5,-590.8 L 326.9,-595.7 L 329.3,-600.5 L 331.6,-605.3 L 334.0,-610.2 L 336.4,-615.0" stroke="#FF6B6B" stroke-width="6" fill="none" opacity="0.85"/>
  <circle cx="35.4" cy="-1.0" r="10" fill="#FF6B6B"/>
  <circle cx="336.4" cy="-615.0" r="6" fill="#FF6B6B" opacity="0.6"/>
  <text x="53.4" y="-19.0" fill="#FF6B6B" font-size="36" font-family="monospace">1</text>
  <path d="M 335.0,-614.0 L 335.0,-602.6 L 335.0,-591.2 L 335.0,-579.8 L 335.0,-568.4 L 335.0,-557.0 L 335.0,-545.5 L 335.0,-534.1 L 335.0,-522.7 L 335.0,-511.3 L 335.0,-499.9 L 335.0,-488.5 L 335.0,-477.1 L 335.0,-465.7 L 335.0,-454.3 L 335.0,-442.9 L 335.0,-431.4 L 335.0,-420.0 L 335.0,-408.6 L 335.0,-397.2 L 335.0,-385.8 L 335.0,-374.4 L 335.0,-363.0 L 335.0,-351.6 L 335.0,-340.2 L 335.0,-328.8 L 335.0,-317.4 L 335.0,-305.9 L 335.0,-294.5 L 335.0,-283.1 L 335.0,-271.7 L 335.0,-260.3 L 335.0,-248.9 L 335.0,-237.5 L 335.0,-226.1 L 335.0,-214.7 L 335.0,-203.3 L 335.0,-191.8 L 335.0,-180.4 L 335.0,-169.0 L 335.0,-157.6 L 335.0,-146.2 L 335.0,-134.8 L 335.6,-123.4 L 336.9,-112.1 L 339.1,-100.9 L 342.2,-89.9 L 346.1,-79.2 L 350.9,-68.8 L 356.6,-58.9 L 363.1,-49.6 L 370.5,-40.9 L 378.6,-32.8 L 387.4,-25.6 L 396.8,-19.2 L 406.8,-13.7 L 417.3,-9.2 L 428.1,-5.6 L 439.2,-2.9 L 450.5,-1.1 L 461.8,-0.2 L 473.2,-0.1 L 484.6,-0.8 L 495.9,-2.3 L 507.1,-4.6 L 518.1,-7.6 L 528.9,-11.1 L 539.6,-15.3 L 550.0,-20.0 L 560.1,-25.1 L 570.1,-30.7 L 579.8,-36.7 L 589.3,-43.0 L 598.6,-49.7 L 607.6,-56.7 L 616.4,-63.9 L 625.0,-71.4 L 633.4,-79.2 L 641.6,-87.1 L 649.5,-95.3 L 657.3,-103.7 L 664.8,-112.3 L 672.1,-121.0 L 679.2,-129.9 L 686.1,-139.0 L 692.8,-148.3 L 699.2,-157.7 L 705.5,-167.2 L 711.4,-177.0 L 717.2,-186.8 L 722.6,-196.8 L 727.8,-207.0 L 732.7,-217.3 L 737.3,-227.8 L 741.5,-238.4 L 745.3,-249.1 L 748.6,-260.0 L 751.5,-271.1 L 753.8,-282.3 L 755.3,-293.6 L 756.0,-305.0 L 756.0,-316.4 L 756.0,-327.8 L 756.0,-339.2 L 756.0,-350.6 L 756.0,-362.0 L 756.0,-373.4 L 756.0,-384.8 L 756.0,-396.2 L 756.0,-407.6 L 756.0,-419.0 L 756.0,-430.5 L 756.0,-441.9 L 756.0,-453.3 L 756.0,-464.7 L 756.0,-476.1 L 756.0,-487.5 L 756.0,-498.9 L 756.0,-510.3 L 756.0,-521.7 L 756.0,-533.1 L 756.0,-544.6 L 756.0,-556.0 L 756.0,-567.4 L 756.0,-578.8 L 756.0,-590.2 L 756.0,-601.6 L 756.0,-613.0" stroke="#4ECDC4" stroke-width="6" fill="none" opacity="0.85"/>
  <circle cx="335.0" cy="-614.0" r="10" fill="#4ECDC4"/>
  <circle cx="756.0" cy="-613.0" r="6" fill="#4ECDC4" opacity="0.6"/>
  <text x="353.0" y="-632.0" fill="#4ECDC4" font-size="36" font-family="monospace">2</text>
  <path d="M 756.0,-614.0 L 756.0,-607.4 L 756.0,-600.8 L 756.0,-594.2 L 756.0,-587.6 L 756.0,-581.0 L 756.0,-574.4 L 756.0,-567.8 L 756.0,-561.2 L 756.0,-554.6 L 756.0,-548.0 L 756.0,-541.4 L 756.0,-534.8 L 756.0,-528.2 L 756.0,-521.6 L 756.0,-515.0 L 756.0,-508.4 L 756.0,-501.8 L 756.0,-495.2 L 756.0,-488.5 L 756.0,-481.9 L 756.0,-475.3 L 756.0,-468.7 L 756.0,-462.1 L 756.0,-455.5 L 756.0,-448.9 L 756.0,-442.3 L 756.0,-435.7 L 756.0,-429.1 L 756.0,-422.5 L 756.0,-415.9 L 756.0,-409.3 L 756.0,-402.7 L 756.0,-396.1 L 756.0,-389.5 L 756.0,-382.9 L 756.0,-376.3 L 756.0,-369.7 L 756.0,-363.1 L 756.0,-356.5 L 756.0,-349.9 L 756.0,-343.3 L 756.0,-336.7 L 756.0,-330.1 L 756.0,-323.5 L 756.0,-316.9 L 756.0,-310.3 L 756.0,-303.7 L 756.0,-297.1 L 756.0,-290.5 L 756.0,-283.9 L 756.0,-277.3 L 756.0,-270.7 L 756.0,-264.1 L 756.0,-257.5 L 756.0,-250.8 L 756.0,-244.2 L 756.0,-237.6 L 756.0,-231.0 L 756.0,-224.4 L 756.0,-217.8 L 756.0,-211.2 L 756.0,-204.6 L 756.0,-198.0 L 756.0,-191.4 L 756.0,-184.8 L 756.0,-178.2 L 756.0,-171.6 L 756.0,-165.0 L 756.0,-158.4 L 756.0,-151.8 L 756.0,-145.2 L 756.0,-138.6 L 756.0,-132.0 L 756.0,-125.4 L 756.0,-118.8 L 756.0,-112.2 L 756.0,-105.6 L 756.0,-99.0 L 756.2,-92.4 L 756.6,-85.8 L 757.1,-79.2 L 757.9,-72.7 L 758.9,-66.1 L 760.1,-59.7 L 761.7,-53.2 L 763.7,-46.9 L 766.0,-40.8 L 768.7,-34.8 L 772.0,-29.0 L 775.7,-23.6 L 780.0,-18.5 L 784.8,-14.0 L 790.1,-10.1 L 795.8,-6.8 L 801.9,-4.2 L 808.2,-2.3 L 814.7,-1.0 L 821.2,-0.2 L 827.8,-0.0 L 834.4,-0.3 L 841.0,-1.3 L 847.3,-3.1 L 853.4,-5.5 L 859.2,-8.7 L 864.7,-12.4 L 869.7,-16.7 L 874.4,-21.3 L 878.7,-26.3 L 882.7,-31.6 L 886.5,-37.0 L 890.0,-42.6 L 893.3,-48.3 L 896.4,-54.1 L 899.5,-60.0 L 902.4,-65.9 L 905.4,-71.8 L 908.3,-77.7 L 911.2,-83.7 L 914.1,-89.6 L 917.0,-95.5 L 919.9,-101.4 L 922.8,-107.4 L 925.7,-113.3 L 928.7,-119.2 L 931.6,-125.1 L 934.5,-131.1 L 937.4,-137.0" stroke="#45B7D1" stroke-width="6" fill="none" opacity="0.85"/>
  <circle cx="756.0" cy="-614.0" r="10" fill="#45B7D1"/>
  <circle cx="937.4" cy="-137.0" r="6" fill="#45B7D1" opacity="0.6"/>
  <text x="774.0" y="-632.0" fill="#45B7D1" font-size="36" font-family="monospace">3</text>
</svg>