<?xml version="1.0" encoding="UTF-8"?>
<svg xmlns="http://www.w3.org/2000/svg" viewBox="-200 -1495.9680118128292 1600 2377.96801181283">
  <title>cogncur strokes for w</title>
  <line x1="-200" y1="0" x2="1400" y2="0" stroke="#2F3A56" stroke-width="4" opacity="0.55"/>
  <line x1="-200" y1="-614.0003000000003" x2="1400" y2="-614.0003000000003" stroke="#457B9D" stroke-width="3" opacity="0.5" stroke-dasharray="24 14"/>
  <line x1="-200" y1="-1295.9680118128292" x2="1400" y2="-1295.9680118128292" stroke="#2F3A56" stroke-width="4" opacity="0.45"/>
  <line x1="-200" y1="682.0000000000005" x2="1400" y2="682.0000000000005" stroke="#ADB5BD" stroke-width="2" opacity="0.35"/>
  <path d="M 35.4,-1.0 L 37.8,-5.8 L 40.1,-10.7 L 42.5,-15.5 L 44.9,-20.3 L 47.2,-25.2 L 49.6,-30.0 L 52.0,-34.8 L 54.3,-39.7 L 56.7,-44.5 L 59.1,-49.3 L 61.5,-54.2 L 63.8,-59.0 L 66.2,-63.9 L 68.6,-68.7 L 70.9,-73.5 L 73.3,-78.4 L 75.7,-83.2 L 78.0,-88.0 L 80.4,-92.9 L 82.8,-97.7 L 85.2,-102.5 L 87.5,-107.4 L 89.9,-112.2 L 92.3,-117.0 L 94.6,-121.9 L 97.0,-126.7 L 99.4,-131.5 L 101.7,-136.4 L 104.1,-141.2 L 106.5,-146.0 L 108.9,-150.9 L 111.2,-155.7 L 113.6,-160.5 L 116.0,-165.4 L 118.3,-170.2 L 120.7,-175.0 L 123.1,-179.9 L 125.5,-184.7 L 127.8,-189.6 L 130.2,-194.4 L 132.6,-199.2 L 134.9,-204.1 L 137.3,-208.9 L 139.7,-213.7 L 142.0,-218.6 L 144.4,-223.4 L 146.8,-228.2 L 149.2,-233.1 L 151.5,-237.9 L 153.9,-242.7 L 156.3,-247.6 L 158.6,-252.4 L 161.0,-257.2 L 163.4,-262.1 L 165.7,-266.9 L 168.1,-271.7 L 170.5,-276.6 L 172.9,-281.4 L 175.2,-286.2 L 177.6,-291.1 L 180.0,-295.9 L 182.3,-300.7 L 184.7,-305.6 L 187.1,-310.4 L 189.4,-315.3 L 191.8,-320.1 L 194.2,-324.9 L 196.6,-329.8 L 198.9,-334.6 L 201.3,-339.4 L 203.7,-344.3 L 206.0,-349.1 L 208.4,-353.9 L 210.8,-358.8 L 213.1,-363.6 L 215.5,-368.4 L 217.9,-373.3 L 220.3,-378.1 L 222.6,-382.9 L 225.0,-387.8 L 227.4,-392.6 L 229.7,-397.4 L 232.1,-402.3 L 234.5,-407.1 L 236.8,-411.9 L 239.2,-416.8 L 241.6,-421.6 L 244.0,-426.4 L 246.3,-431.3 L 248.7,-436.1 L 251.1,-441.0 L 253.4,-445.8 L 255.8,-450.6 L 258.2,-455.5 L 260.5,-460.3 L 262.9,-465.1 L 265.3,-470.0 L 267.7,-474.8 L 270.0,-479.6 L 272.4,-484.5 L 274.8,-489.3 L 277.1,-494.1 L 279.5,-499.0 L 281.9,-503.8 L 284.2,-508.6 L 286.6,-513.5 L 289.0,-518.3 L 291.4,-523.1 L 293.7,-528.0 L 296.1,-532.8 L 298.5,-537.6 L 300.8,-542.5 L 303.2,-547.3 L 305.6,-552.1 L 307.9,-557.0 L 310.3,-561.8 L 312.7,-566.7 L 315.1,-571.5 L 317.4,-576.3 L 319.8,-581.2 L 322.2,-586.0 L 324.5,-590.8 L 326.9,-595.7 L 329.3,-600.5 L 331.6,-605.3 L 334.0,-610.2 L 336.4,-615.0" stroke="#FF6B6B" stroke-width="6" fill="none" opacity="0.85"/>
  <circle cx="35.4" cy="-1.0" r="10" fill="#FF6B6B"/>
  <circle cx="336.4" cy="-615.0" r="6" fill="#FF6B6B" opacity="0.6"/>
  <text x="53.4" y="-19.0" fill="#FF6B6B" font-size="36" font-family="monospace">1</text>
  <path d="M 335.0,-614.0 L 335.0,-602.6 L 335.0,-591.2 L 335.0,-579.8 L 335.0,-568.4 L 335.0,-557.0 L 335.0,-545.5 L 335.0,-534.1 L 335.0,-522.7 L 335.0,-511.3 L 335.0,-499.9 L 335.0,-488.5 L 335.0,-477.1 L 335.0,-465.7 L 335.0,-454.3 L 335.0,-442.9 L 335.0,-431.4 L 335.0,-420.0 L 335.0,-408.6 L 335.0,-397.2 L 335.0,-385.8 L 335.0,-374.4 L 335.0,-363.0 L 335.0,-351.6 L 335.0,-340.2 L 335.0,-328.8 L 335.0,-317.4 L 335.0,-305.9 L 335.0,-294.5 L 335.0,-283.1 L 335.0,-271.7 L 335.0,-260.3 L 335.0,-248.9 L 335.0,-237.5 L 335.0,-226.1 L 335.0,-214.7 L 335.0,-203.3 L 335.0,-191.8 L 335.0,-180.4 L 335.0,-169.0 L 335.0,-157.6 L 335.0,-146.2 L 335.0,-134.8 L 335.6,-123.4 L 336.9,-112.1 L 339.1,-100.9 L 342.2,-89.9 L 346.1,-79.2 L 350.9,-68.8 L 356.6,-58.9 L 363.1,-49.6 L 370.5,-40.9 L 378.6,-32.8 L 387.4,-25.6 L 396.8,-19.2 L 406.8,-13.7 L 417.3,-9.2 L 428.1,-5.6 L 439.2,-2.9 L 450.5,-1.1 L 461.8,-0.2 L 473.2,-0.1 L 484.6,-0.8 L 495.9,-2.3 L 507.1,-4.6 L 518.1,-7.6 L 528.9,-11.1 L 539.6,-15.3 L 550.0,-20.0 L 560.1,-25.1 L 570.1,-30.7 L 579.8,-36.7 L 589.3,-43.0 L 598.6,-49.7 L 607.6,-56.7 L 616.4,-63.9 L 625.0,-71.4 L 633.4,-79.2 L 641.6,-87.1 L 649.5,-95.3 L 657.3,-103.7 L 664.8,-112.3 L 672.1,-121.0 L 679.2,-129.9 L 686.1,-139.0 L 692.8,-148.3 L 699.2,-157.7 L 705.5,-167.2 L 711.4,-177.0 L 717.2,-186.8 L 722.6,-196.8 L 727.8,-207.0 L 732.7,-217.3 L 737.3,-227.8 L 741.5,-238.4 L 745.3,-249.1 L 748.6,-260.0 L 751.5,-271.1 L 753.8,-282.3 L 755.3,-293.6 L 756.0,-305.0 L 756.0,-316.4 L 756.0,-327.8 L 756.0,-339.2 L 756.0,-350.6 L 756.0,-362.0 L 756.0,-373.4 L 756.0,-384.8 L 756.0,-396.2 L 756.0,-407.6 L 756.0,-419.0 L 756.0,-430.5 L 756.0,-441.9 L 756.0,-453.3 L 756.0,-464.7 L 756.0,-476.1 L 756.0,-487.5 L 756.0,-498.9 L 756.0,-510.3 L 756.0,-521.7 L 756.0,-533.1 L 756.0,-544.6 L 756.0,-556.0 L 756.0,-567.4 L 756.0,-578.8 L 756.0,-590.2 L 756.0,-601.6 L 756.0,-613.0" stroke="#4ECDC4" stroke-width="6" fill="none" opacity="0.85"/>
  <circle cx="335.0" cy="-614.0" r="10" fill="#4ECDC4"/>
  <circle cx="756.0" cy="-613.0" r="6" fill="#4ECDC4" opacity="0.6"/>
  <text x="353.0" y="-632.0" fill="#4ECDC4" font-size="36" font-family="monospace">2</text>
  <path d="M 756.0,-614.0 L 756.0,-602.6 L 756.0,-591.1 L 756.0,-579.7 L 756.0,-568.2 L 756.0,-556.8 L 756.0,-545.4 L 756.0,-533.9 L 756.0,-522.5 L 756.0,-511.1 L 756.0,-499.6 L 756.0,-488.2 L 756.0,-476.7 L 756.0,-465.3 L 756.0,-453.9 L 756.0,-442.4 L 756.0,-431.0 L 756.0,-419.6 L 756.0,-408.1 L 756.0,-396.7 L 756.0,-385.2 L 756.0,-373.8 L 756.0,-362.4 L 756.0,-350.9 L 756.0,-339.5 L 756.0,-328.1 L 756.0,-316.6 L 756.0,-305.2 L 756.0,-293.7 L 756.0,-282.3 L 756.0,-270.9 L 756.0,-259.4 L 756.0,-248.0 L 756.0,-236.6 L 756.0,-225.1 L 756.0,-213.7 L 756.0,-202.2 L 756.0,-190.8 L 756.0,-179.4 L 756.0,-167.9 L 756.0,-156.5 L 756.0,-145.1 L 756.0,-133.6 L 756.7,-122.2 L 758.1,-110.9 L 760.4,-99.7 L 763.6,-88.7 L 767.6,-78.0 L 772.5,-67.6 L 778.3,-57.8 L 785.0,-48.5 L 792.4,-39.8 L 800.7,-31.9 L 809.6,-24.7 L 819.1,-18.4 L 829.2,-13.1 L 839.8,-8.6 L 850.7,-5.1 L 861.8,-2.6 L 873.1,-0.9 L 884.5,-0.1 L 896.0,-0.1 L 907.4,-0.9 L 918.7,-2.4 L 929.9,-4.7 L 941.0,-7.6 L 951.8,-11.2 L 962.5,-15.4 L 972.9,-20.1 L 983.1,-25.3 L 993.0,-31.0 L 1002.7,-37.1 L 1012.0,-43.6 L 1021.2,-50.5 L 1030.0,-57.8 L 1038.6,-65.3 L 1046.9,-73.2 L 1055.0,-81.3 L 1062.7,-89.7 L 1070.3,-98.3 L 1077.5,-107.2 L 1084.5,-116.2 L 1091.2,-125.5 L 1097.7,-134.9 L 1103.9,-144.5 L 1109.9,-154.3 L 1115.6,-164.2 L 1121.0,-174.2 L 1126.2,-184.4 L 1131.2,-194.7 L 1135.8,-205.2 L 1140.3,-215.7 L 1144.5,-226.4 L 1148.4,-237.1 L 1152.1,-247.9 L 1155.5,-258.8 L 1158.7,-269.8 L 1161.6,-280.9 L 1164.3,-292.0 L 1166.7,-303.2 L 1168.9,-314.4 L 1170.8,-325.7 L 1172.4,-337.0 L 1173.8,-348.4 L 1175.0,-359.7 L 1175.9,-371.1 L 1176.5,-382.6 L 1176.9,-394.0 L 1177.0,-405.4 L 1176.9,-416.9 L 1176.5,-428.3 L 1175.9,-439.7 L 1175.1,-451.1 L 1174.0,-462.5 L 1172.7,-473.9 L 1171.1,-485.2 L 1169.3,-496.5 L 1167.2,-507.7 L 1164.8,-518.9 L 1162.1,-530.0 L 1159.2,-541.1 L 1155.9,-552.0 L 1152.2,-562.9 L 1148.2,-573.6 L 1143.8,-584.1 L 1138.8,-594.5 L 1133.3,-604.5 L 1127.0,-614.0" stroke="#45B7D1" stroke-width="6" fill="none" opacity="0.85"/>
  <circle cx="756.0" cy="-614.0" r="10" fill="#45B7D1"/>
  <circle cx="1127.0" cy="-614.0" r="6" fill="#45B7D1" opacity="0.6"/>
  <text x="774.0" y="-632.0" fill="#45B7D1" font-size="36" font-family="monospace">3</text>
  <path d="M 1128.0,-614.0 L 1129.6,-611.2 L 1131.3,-608.5 L 1132.9,-605.8 L 1134.7,-603.1 L 1136.5,-600.5 L 1138.3,-597.8 L 1140.2,-595.3 L 1142.1,-592.7 L 1144.1,-590.2 L 1146.1,-587.8 L 1148.2,-585.3 L 1150.3,-583.0 L 1152.5,-580.6 L 1154.7,-578.4 L 1157.0,-576.1 L 1159.4,-573.9 L 1161.7,-571.8 L 1164.2,-569.7 L 1166.6,-567.7 L 1169.1,-565.7 L 1171.7,-563.8 L 1174.2,-561.9 L 1176.8,-560.1 L 1179.5,-558.3 L 1182.2,-556.5 L 1184.8,-554.8 L 1187.6,-553.1 L 1190.3,-551.5 L 1193.0,-549.8 L 1195.8,-548.2 L 1198.6,-546.7 L 1201.4,-545.2 L 1204.2,-543.6 L 1207.0,-542.2 L 1209.9,-540.7 L 1212.8,-539.3 L 1215.7,-538.0 L 1218.6,-536.7 L 1221.5,-535.5 L 1224.5,-534.4 L 1227.5,-533.3 L 1230.5,-532.2 L 1233.6,-531.3 L 1236.6,-530.4 L 1239.7,-529.5 L 1242.8,-528.7 L 1245.9,-528.0 L 1249.0,-527.3 L 1252.2,-526.7 L 1255.3,-526.1 L 1258.5,-525.6 L 1261.6,-525.2 L 1264.8,-524.8 L 1268.0,-524.4 L 1271.1,-524.1 L 1274.3,-523.8 L 1277.5,-523.6 L 1280.7,-523.4 L 1283.9,-523.3 L 1287.1,-523.2 L 1290.3,-523.1 L 1293.5,-523.0 L 1296.7,-523.0 L 1299.8,-523.0 L 1303.0,-523.0 L 1306.2,-523.1 L 1309.4,-523.2 L 1312.6,-523.3 L 1315.8,-523.4 L 1319.0,-523.6 L 1322.2,-523.9 L 1325.4,-524.2 L 1328.5,-524.5 L 1331.7,-524.9 L 1334.9,-525.3 L 1338.0,-525.8 L 1341.2,-526.3 L 1344.3,-526.9 L 1347.4,-527.5 L 1350.5,-528.2 L 1353.7,-529.0 L 1356.7,-529.8 L 1359.8,-530.7 L 1362.9,-531.7 L 1365.9,-532.7 L 1368.9,-533.7 L 1371.9,-534.9 L 1374.8,-536.0 L 1377.8,-537.3 L 1380.7,-538.6 L 1383.6,-540.0 L 1386.4,-541.4 L 1389.3,-542.8 L 1392.1,-544.3 L 1394.9,-545.9 L 1397.7,-547.4 L 1400.5,-548.9 L 1403.3,-550.5 L 1406.0,-552.1 L 1408.8,-553.8 L 1411.5,-555.4 L 1414.2,-557.2 L 1416.9,-558.9 L 1419.5,-560.7 L 1422.1,-562.5 L 1424.7,-564.4 L 1427.3,-566.3 L 1429.8,-568.2 L 1432.3,-570.2 L 1434.8,-572.2 L 1437.2,-574.3 L 1439.5,-576.5 L 1441.9,-578.7 L 1444.1,-580.9 L 1446.4,-583.2 L 1448.5,-585.5 L 1450.7,-587.9 L 1452.7,-590.4 L 1454.7,-592.8 L 1456.7,-595.4 L 1458.6,-597.9 L 1460.5,-600.5 L 1462.3,-603.1 L 1464.0,-605.8 L 1465.7,-608.5 L 1467.4,-611.2 L 1469.0,-614.0" stroke="#96CEB4" stroke-width="6" fill="none" opacity="0.85"/>
  <circle cx="1128.0" cy="-614.0" r="10" fill="#96CEB4"/>
  <circle cx="1469.0" cy="-614.0" r="6" fill="#96CEB4" opacity="0.6"/>
  <text x="1146.0" y="-632.0" fill="#96CEB4" font-size="36" font-family="monospace">4</text>
</svg>