<?xml version="1.0" encoding="UTF-8"?>
<svg xmlns="http://www.w3.org/2000/svg" viewBox="-200 -1495.9680118128292 1600 2377.96801181283">
  <title>cogncur strokes for y</title>
  <line x1="-200" y1="0" x2="1400" y2="0" stroke="#2F3A56" stroke-width="4" opacity="0.55"/>
  <line x1="-200" y1="-614.0003000000003" x2="1400" y2="-614.0003000000003" stroke="#457B9D" stroke-width="3" opacity="0.5" stroke-dasharray="24 14"/>
  <line x1="-200" y1="-1295.9680118128292" x2="1400" y2="-1295.9680118128292" stroke="#2F3A56" stroke-width="4" opacity="0.45"/>
  <line x1="-200" y1="682.0000000000005" x2="1400" y2="682.0000000000005" stroke="#ADB5BD" stroke-width="2" opacity="0.35"/>
  <path d="M 35.4,-0.0 L 43.0,-15.6 L 50.7,-31.2 L 58.4,-46.8 L 66.0,-62.4 L 73.7,-78.0 L 81.3,-93.6 L 89.0,-109.2 L 96.7,-124.8 L 104.3,-140.5 L 112.0,-156.1 L 119.6,-171.7 L 127.3,-187.3 L 135.0,-202.9 L 142.6,-218.5 L 150.3,-234.1 L 157.9,-249.7 L 165.6,-265.3 L 173.3,-280.9 L 180.9,-296.5 L 188.6,-312.1 L 196.3,-327.7 L 203.9,-343.3 L 211.6,-358.9 L 219.2,-374.5 L 226.9,-390.2 L 234.6,-405.8 L 242.2,-421.4 L 249.9,-437.0 L 257.5,-452.6 L 265.2,-468.2 L 272.9,-483.8 L 280.5,-499.4 L 288.2,-515.0 L 295.8,-530.6 L 303.5,-546.2 L 311.6,-561.6 L 320.7,-576.4 L 331.3,-590.1 L 344.1,-601.9 L 359.3,-610.2 L 376.3,-613.8 L 393.6,-613.2 L 410.4,-608.7 L 425.2,-599.8 L 436.6,-586.7 L 444.4,-571.2 L 449.2,-554.5 L 451.8,-537.3 L 452.9,-520.0 L 453.0,-502.6 L 453.0,-485.2 L 453.0,-467.9 L 453.0,-450.5 L 453.0,-433.1 L 453.0,-415.7 L 453.0,-398.3 L 453.0,-380.9 L 453.0,-363.5 L 453.0,-346.2 L 453.0,-328.8 L 453.0,-311.4 L 453.0,-294.0 L 453.0,-276.6 L 453.0,-259.2 L 453.0,-241.8 L 453.0,-224.5 L 453.0,-207.1 L 453.0,-189.7 L 453.0,-172.3 L 453.0,-154.9 L 453.0,-137.5 L 453.9,-120.2 L 456.6,-103.0 L 461.4,-86.3 L 468.2,-70.3 L 477.0,-55.3 L 487.7,-41.7 L 500.2,-29.7 L 514.3,-19.5 L 529.7,-11.5 L 546.1,-5.6 L 563.0,-1.8 L 580.3,-0.1 L 597.7,-0.4 L 614.9,-2.5 L 631.9,-6.3 L 648.4,-11.7 L 664.5,-18.4 L 680.0,-26.2 L 695.0,-34.9 L 709.5,-44.6 L 723.4,-55.0 L 736.9,-66.0 L 749.8,-77.6 L 762.2,-89.8 L 774.1,-102.4 L 785.6,-115.5 L 796.5,-129.0 L 807.0,-142.9 L 816.9,-157.2 L 826.3,-171.8 L 835.1,-186.8 L 843.4,-202.1 L 850.9,-217.7 L 857.7,-233.8 L 863.6,-250.1 L 868.5,-266.8 L 872.0,-283.8 L 873.9,-301.1 L 874.0,-318.5 L 874.0,-335.8 L 874.0,-353.2 L 874.0,-370.6 L 874.0,-388.0 L 874.0,-405.4 L 874.0,-422.8 L 874.0,-440.2 L 874.0,-457.5 L 874.0,-474.9 L 874.0,-492.3 L 874.0,-509.7 L 874.0,-527.1 L 874.0,-544.5 L 874.0,-561.8 L 874.0,-579.2 L 874.0,-596.6 L 874.0,-614.0" stroke="#FF6B6B" stroke-width="6" fill="none" opacity="0.85"/>
  <circle cx="35.4" cy="-0.0" r="10" fill="#FF6B6B"/>
  <circle cx="874.0" cy="-614.0" r="6" fill="#FF6B6B" opacity="0.6"/>
  <text x="53.4" y="-18.0" fill="#FF6B6B" font-size="36" font-family="monospace">1</text>
  <path d="M 874.0,-614.0 L 874.0,-595.5 L 874.0,-576.9 L 874.0,-558.4 L 874.0,-539.8 L 874.0,-521.3 L 874.0,-502.8 L 874.0,-484.2 L 874.0,-465.7 L 874.0,-447.2 L 874.0,-428.6 L 874.0,-410.1 L 874.0,-391.5 L 874.0,-373.0 L 874.0,-354.5 L 874.0,-335.9 L 874.0,-317.4 L 874.0,-298.8 L 874.0,-280.3 L 874.0,-261.8 L 874.0,-243.2 L 874.0,-224.7 L 874.0,-206.2 L 874.0,-187.6 L 874.0,-169.1 L 874.0,-150.5 L 874.0,-132.0 L 874.0,-113.5 L 874.0,-94.9 L 874.0,-76.4 L 874.0,-57.8 L 874.0,-39.3 L 874.0,-20.8 L 874.0,-2.2 L 874.0,16.3 L 874.0,34.8 L 874.0,53.4 L 874.0,71.9 L 874.0,90.5 L 874.0,109.0 L 874.0,127.5 L 874.0,146.1 L 874.0,164.6 L 874.0,183.2 L 874.0,201.7 L 874.0,220.2 L 874.0,238.8 L 874.0,257.3 L 874.0,275.9 L 874.0,294.4 L 874.0,312.9 L 874.0,331.5 L 874.0,350.0 L 874.0,368.5 L 874.0,387.1 L 874.0,405.6 L 874.0,424.2 L 874.0,442.7 L 874.0,461.2 L 873.6,479.8 L 872.7,498.3 L 871.1,516.8 L 868.7,535.1 L 865.5,553.4 L 861.3,571.4 L 855.8,589.1 L 848.8,606.3 L 840.2,622.7 L 829.6,637.9 L 816.9,651.4 L 802.2,662.6 L 785.8,671.2 L 768.2,677.0 L 749.9,680.1 L 731.4,681.0 L 712.9,679.7 L 694.9,675.6 L 677.8,668.4 L 662.7,657.8 L 650.0,644.3 L 639.9,628.8 L 632.3,611.9 L 627.5,594.0 L 625.3,575.6 L 625.1,557.0 L 626.1,538.5 L 628.2,520.1 L 631.5,501.9 L 636.1,483.9 L 642.1,466.4 L 649.5,449.4 L 658.3,433.1 L 668.0,417.3 L 677.6,401.4 L 687.2,385.6 L 696.9,369.8 L 706.5,353.9 L 716.1,338.1 L 725.8,322.2 L 735.4,306.4 L 745.1,290.6 L 754.7,274.7 L 764.3,258.9 L 774.0,243.1 L 783.6,227.2 L 793.3,211.4 L 802.9,195.6 L 812.5,179.7 L 822.2,163.9 L 831.8,148.1 L 841.4,132.2 L 851.1,116.4 L 860.7,100.5 L 870.4,84.7 L 880.0,68.9 L 889.6,53.0 L 899.3,37.2 L 908.9,21.4 L 918.6,5.5 L 928.2,-10.3 L 937.8,-26.1 L 947.5,-42.0 L 957.1,-57.8 L 966.7,-73.7 L 976.4,-89.5 L 986.0,-105.3 L 995.7,-121.2 L 1005.3,-137.0" stroke="#4ECDC4" stroke-width="6" fill="none" opacity="0.85"/>
  <circle cx="874.0" cy="-614.0" r="10" fill="#4ECDC4"/>
  <circle cx="1005.3" cy="-137.0" r="6" fill="#4ECDC4" opacity="0.6"/>
  <text x="892.0" y="-632.0" fill="#4ECDC4" font-size="36" font-family="monospace">2</text>
</svg>