<?xml version="1.0" encoding="UTF-8"?>
<svg xmlns="http://www.w3.org/2000/svg" viewBox="-200 -1495.9680118128292 1600 2377.96801181283">
  <title>cogncur strokes for b</title>
  <line x1="-200" y1="0" x2="1400" y2="0" stroke="#2F3A56" stroke-width="4" opacity="0.55"/>
  <line x1="-200" y1="-614.0003000000003" x2="1400" y2="-614.0003000000003" stroke="#457B9D" stroke-width="3" opacity="0.5" stroke-dasharray="24 14"/>
  <line x1="-200" y1="-1295.9680118128292" x2="1400" y2="-1295.9680118128292" stroke="#2F3A56" stroke-width="4" opacity="0.45"/>
  <line x1="-200" y1="682.0000000000005" x2="1400" y2="682.0000000000005" stroke="#ADB5BD" stroke-width="2" opacity="0.35"/>
  <path d="M 35.4,-1.0 L 48.2,-27.1 L 61.1,-53.2 L 73.9,-79.3 L 86.7,-105.5 L 99.6,-131.6 L 112.4,-157.7 L 125.3,-183.8 L 138.1,-209.9 L 150.9,-236.0 L 163.8,-262.1 L 176.6,-288.3 L 189.4,-314.4 L 202.3,-340.5 L 215.1,-366.6 L 228.0,-392.7 L 240.8,-418.8 L 253.6,-445.0 L 266.5,-471.1 L 279.3,-497.2 L 292.1,-523.3 L 305.0,-549.4 L 317.8,-575.5 L 330.7,-601.6 L 343.5,-627.8 L 356.3,-653.9 L 369.2,-680.0 L 382.0,-706.1 L 394.8,-732.2 L 407.7,-758.3 L 420.5,-784.4 L 433.4,-810.6 L 446.2,-836.7 L 459.0,-862.8 L 471.9,-888.9 L 484.7,-915.0 L 497.5,-941.1 L 510.4,-967.2 L 523.2,-993.4 L 536.1,-1019.5 L 548.9,-1045.6 L 561.7,-1071.7 L 572.6,-1098.7 L 579.9,-1126.8 L 584.2,-1155.6 L 585.3,-1184.7 L 581.5,-1213.4 L 571.4,-1240.7 L 554.8,-1264.5 L 532.0,-1282.3 L 504.9,-1292.8 L 476.1,-1296.0 L 447.1,-1293.5 L 419.4,-1285.1 L 394.7,-1269.8 L 374.6,-1248.8 L 359.7,-1223.9 L 349.0,-1196.9 L 341.7,-1168.7 L 336.9,-1140.0 L 334.2,-1111.1 L 333.1,-1082.0 L 333.0,-1052.9 L 333.0,-1023.8 L 333.0,-994.7 L 333.0,-965.6 L 333.0,-936.5 L 333.0,-907.4 L 333.0,-878.3 L 333.0,-849.2 L 333.0,-820.1 L 333.0,-791.0 L 333.0,-761.9 L 333.0,-732.8 L 333.0,-703.7 L 333.0,-674.6 L 333.0,-645.5 L 333.0,-616.4 L 333.0,-587.3 L 333.0,-558.2 L 333.0,-529.1 L 333.0,-500.0 L 333.0,-470.9 L 333.0,-441.8 L 333.0,-412.7 L 333.0,-383.6 L 333.0,-354.5 L 333.0,-325.4 L 333.0,-296.3 L 333.0,-267.2 L 333.0,-238.1 L 333.0,-209.0 L 333.0,-179.9 L 333.0,-150.8 L 333.7,-121.7 L 339.2,-93.2 L 350.3,-66.3 L 366.9,-42.5 L 388.6,-23.3 L 414.2,-9.6 L 442.3,-2.0 L 471.3,-0.1 L 500.1,-3.3 L 528.2,-11.0 L 554.9,-22.6 L 579.9,-37.3 L 603.3,-54.6 L 624.9,-74.1 L 644.7,-95.4 L 662.9,-118.1 L 679.4,-142.1 L 694.2,-167.1 L 707.4,-193.1 L 718.9,-219.8 L 728.8,-247.1 L 737.1,-275.0 L 743.7,-303.3 L 748.7,-332.0 L 752.1,-360.9 L 753.8,-390.0 L 753.8,-419.1 L 752.3,-448.1 L 749.3,-477.0 L 744.6,-505.8 L 738.1,-534.1 L 729.6,-561.9 L 718.6,-588.9 L 704.0,-614.0" stroke="#FF6B6B" stroke-width="6" fill="none" opacity="0.85"/>
  <circle cx="35.4" cy="-1.0" r="10" fill="#FF6B6B"/>
  <circle cx="704.0" cy="-614.0" r="6" fill="#FF6B6B" opacity="0.6"/>
  <text x="53.4" y="-19.0" fill="#FF6B6B" font-size="36" font-family="monospace">1</text>
  <path d="M 703.0,-614.0 L 704.6,-611.2 L 706.3,-608.5 L 707.9,-605.8 L 709.7,-603.1 L 711.5,-600.5 L 713.3,-597.8 L 715.2,-595.3 L 717.1,-592.7 L 719.1,-590.2 L 721.1,-587.8 L 723.2,-585.3 L 725.3,-583.0 L 727.5,-580.6 L 729.7,-578.4 L 732.0,-576.1 L 734.4,-573.9 L 736.7,-571.8 L 739.2,-569.7 L 741.6,-567.7 L 744.1,-565.7 L 746.7,-563.8 L 749.2,-561.9 L 751.9,-560.1 L 754.5,-558.3 L 757.2,-556.5 L 759.8,-554.8 L 762.6,-553.1 L 765.3,-551.5 L 768.0,-549.8 L 770.8,-548.2 L 773.6,-546.7 L 776.4,-545.2 L 779.2,-543.6 L 782.0,-542.2 L 784.9,-540.7 L 787.8,-539.3 L 790.7,-538.0 L 793.6,-536.7 L 796.5,-535.5 L 799.5,-534.4 L 802.5,-533.3 L 805.5,-532.2 L 808.6,-531.3 L 811.6,-530.4 L 814.7,-529.5 L 817.8,-528.7 L 820.9,-528.0 L 824.0,-527.3 L 827.2,-526.7 L 830.3,-526.1 L 833.5,-525.6 L 836.6,-525.2 L 839.8,-524.8 L 843.0,-524.4 L 846.1,-524.1 L 849.3,-523.8 L 852.5,-523.6 L 855.7,-523.4 L 858.9,-523.3 L 862.1,-523.2 L 865.3,-523.1 L 868.5,-523.0 L 871.7,-523.0 L 874.9,-523.0 L 878.0,-523.0 L 881.2,-523.1 L 884.4,-523.2 L 887.6,-523.3 L 890.8,-523.4 L 894.0,-523.6 L 897.2,-523.9 L 900.4,-524.2 L 903.5,-524.5 L 906.7,-524.9 L 909.9,-525.3 L 913.0,-525.8 L 916.2,-526.3 L 919.3,-526.9 L 922.4,-527.5 L 925.5,-528.2 L 928.6,-529.0 L 931.7,-529.8 L 934.8,-530.7 L 937.9,-531.7 L 940.9,-532.7 L 943.9,-533.7 L 946.9,-534.9 L 949.8,-536.0 L 952.8,-537.3 L 955.7,-538.6 L 958.6,-540.0 L 961.4,-541.4 L 964.3,-542.8 L 967.1,-544.3 L 969.9,-545.9 L 972.7,-547.4 L 975.5,-548.9 L 978.3,-550.5 L 981.0,-552.1 L 983.8,-553.8 L 986.5,-555.4 L 989.2,-557.2 L 991.9,-558.9 L 994.5,-560.7 L 997.1,-562.5 L 999.7,-564.4 L 1002.3,-566.3 L 1004.8,-568.2 L 1007.3,-570.2 L 1009.8,-572.2 L 1012.2,-574.3 L 1014.5,-576.5 L 1016.9,-578.7 L 1019.1,-580.9 L 1021.4,-583.2 L 1023.5,-585.5 L 1025.7,-587.9 L 1027.7,-590.4 L 1029.7,-592.8 L 1031.7,-595.4 L 1033.6,-597.9 L 1035.5,-600.5 L 1037.3,-603.1 L 1039.0,-605.8 L 1040.7,-608.5 L 1042.4,-611.2 L 1044.0,-614.0" stroke="#4ECDC4" stroke-width="6" fill="none" opacity="0.85"/>
  <circle cx="703.0" cy="-614.0" r="10" fill="#4ECDC4"/>
  <circle cx="1044.0" cy="-614.0" r="6" fill="#4ECDC4" opacity="0.6"/>
  <text x="721.0" y="-632.0" fill="#4ECDC4" font-size="36" font-family="monospace">2</text>
</svg>