<?xml version="1.0" encoding="UTF-8"?>
<svg xmlns="http://www.w3.org/2000/svg" viewBox="-200 -1495.9680118128292 1600 2377.96801181283">
  <title>cogncur strokes for B</title>
  <line x1="-200" y1="0" x2="1400" y2="0" stroke="#2F3A56" stroke-width="4" opacity="0.55"/>
  <line x1="-200" y1="-614.0003000000003" x2="1400" y2="-614.0003000000003" stroke="#457B9D" stroke-width="3" opacity="0.5" stroke-dasharray="24 14"/>
  <line x1="-200" y1="-1295.9680118128292" x2="1400" y2="-1295.9680118128292" stroke="#2F3A56" stroke-width="4" opacity="0.45"/>
  <line x1="-200" y1="682.0000000000005" x2="1400" y2="682.0000000000005" stroke="#ADB5BD" stroke-width="2" opacity="0.35"/>
  <path d="M 222.1,-1282.0 L 222.1,-1270.8 L 222.1,-1259.5 L 222.0,-1248.3 L 222.0,-1237.0 L 222.0,-1225.8 L 222.0,-1214.5 L 222.0,-1203.3 L 222.0,-1192.0 L 222.0,-1180.8 L 222.0,-1169.5 L 222.0,-1158.3 L 222.0,-1147.0 L 222.0,-1135.8 L 222.0,-1124.5 L 222.0,-1113.3 L 222.0,-1102.0 L 222.0,-1090.8 L 222.0,-1079.6 L 222.0,-1068.3 L 222.0,-1057.1 L 222.0,-1045.8 L 222.0,-1034.6 L 222.0,-1023.3 L 221.9,-1012.1 L 221.9,-1000.8 L 221.9,-989.6 L 221.9,-978.3 L 221.9,-967.1 L 221.9,-955.8 L 221.9,-944.6 L 221.9,-933.3 L 221.9,-922.1 L 221.9,-910.9 L 221.9,-899.6 L 221.9,-888.4 L 221.9,-877.1 L 221.9,-865.9 L 221.9,-854.6 L 221.9,-843.4 L 221.9,-832.1 L 221.9,-820.9 L 221.9,-809.6 L 221.9,-798.4 L 221.9,-787.1 L 221.8,-775.9 L 221.8,-764.6 L 221.8,-753.4 L 221.8,-742.1 L 221.8,-730.9 L 221.8,-719.7 L 221.8,-708.4 L 221.8,-697.2 L 221.8,-685.9 L 221.8,-674.7 L 221.8,-663.4 L 221.8,-652.2 L 221.8,-640.9 L 221.8,-629.7 L 221.8,-618.4 L 221.8,-607.2 L 221.8,-595.9 L 221.8,-584.7 L 221.8,-573.4 L 221.8,-562.2 L 221.8,-550.9 L 221.8,-539.7 L 221.7,-528.5 L 221.7,-517.2 L 221.7,-506.0 L 221.7,-494.7 L 221.7,-483.5 L 221.7,-472.2 L 221.7,-461.0 L 221.7,-449.7 L 221.7,-438.5 L 221.7,-427.2 L 221.7,-416.0 L 221.7,-404.7 L 221.7,-393.5 L 221.7,-382.2 L 221.7,-371.0 L 221.7,-359.8 L 221.7,-348.5 L 221.7,-337.3 L 221.7,-326.0 L 221.7,-314.8 L 221.7,-303.5 L 221.7,-292.3 L 221.7,-281.0 L 221.7,-269.8 L 221.6,-258.5 L 221.6,-247.3 L 221.6,-236.0 L 221.6,-224.8 L 221.6,-213.5 L 221.6,-202.3 L 221.6,-191.0 L 221.6,-179.8 L 221.5,-168.6 L 221.1,-157.3 L 220.4,-146.1 L 219.5,-134.9 L 218.1,-123.7 L 216.5,-112.6 L 214.4,-101.5 L 211.8,-90.6 L 208.7,-79.8 L 205.0,-69.2 L 200.5,-58.8 L 195.3,-48.9 L 189.3,-39.4 L 182.3,-30.6 L 174.3,-22.6 L 165.5,-15.7 L 155.8,-10.1 L 145.4,-5.7 L 134.6,-2.6 L 123.5,-0.8 L 112.3,-0.0 L 101.1,-0.2 L 89.9,-1.4 L 78.9,-3.8 L 68.3,-7.5 L 58.2,-12.5 L 49.0,-18.9 L 40.7,-26.5 L 33.4,-35.0" stroke="#FF6B6B" stroke-width="6" fill="none" opacity="0.85"/>
  <circle cx="222.1" cy="-1282.0" r="10" fill="#FF6B6B"/>
  <circle cx="33.4" cy="-35.0" r="6" fill="#FF6B6B" opacity="0.6"/>
  <text x="240.1" y="-1300.0" fill="#FF6B6B" font-size="36" font-family="monospace">1</text>
  <path d="M 95.1,-1245.0 L 104.5,-1248.4 L 114.0,-1251.8 L 123.4,-1255.2 L 132.9,-1258.4 L 142.5,-1261.6 L 152.0,-1264.7 L 161.6,-1267.8 L 171.2,-1270.7 L 180.8,-1273.5 L 190.5,-1276.2 L 200.2,-1278.8 L 210.0,-1281.2 L 219.7,-1283.5 L 229.6,-1285.6 L 239.4,-1287.5 L 249.3,-1289.3 L 259.2,-1290.8 L 269.2,-1292.2 L 279.1,-1293.3 L 289.1,-1294.3 L 299.2,-1295.0 L 309.2,-1295.6 L 319.2,-1296.1 L 329.3,-1296.3 L 339.3,-1296.5 L 349.3,-1296.4 L 359.4,-1296.1 L 369.4,-1295.5 L 379.4,-1294.5 L 389.4,-1293.2 L 399.3,-1291.5 L 409.1,-1289.5 L 418.9,-1287.2 L 428.5,-1284.5 L 438.1,-1281.5 L 447.6,-1278.2 L 456.9,-1274.5 L 466.1,-1270.5 L 475.2,-1266.1 L 484.1,-1261.4 L 492.8,-1256.5 L 501.3,-1251.2 L 509.7,-1245.6 L 517.8,-1239.7 L 525.7,-1233.5 L 533.4,-1227.1 L 540.9,-1220.3 L 548.1,-1213.4 L 555.1,-1206.1 L 561.8,-1198.6 L 568.2,-1190.9 L 574.3,-1183.0 L 580.2,-1174.8 L 585.8,-1166.5 L 591.1,-1157.9 L 596.0,-1149.2 L 600.7,-1140.3 L 605.1,-1131.3 L 609.1,-1122.1 L 612.8,-1112.8 L 616.2,-1103.3 L 619.3,-1093.7 L 622.0,-1084.1 L 624.4,-1074.3 L 626.5,-1064.5 L 628.2,-1054.6 L 629.6,-1044.7 L 630.6,-1034.7 L 631.3,-1024.7 L 631.7,-1014.6 L 631.8,-1004.6 L 631.6,-994.5 L 631.0,-984.5 L 630.2,-974.5 L 629.0,-964.5 L 627.5,-954.6 L 625.7,-944.7 L 623.5,-934.9 L 620.9,-925.2 L 617.9,-915.6 L 614.6,-906.2 L 610.8,-896.8 L 606.7,-887.7 L 602.1,-878.7 L 597.2,-870.0 L 591.9,-861.5 L 586.2,-853.2 L 580.2,-845.1 L 573.8,-837.4 L 567.1,-829.9 L 560.1,-822.7 L 552.9,-815.8 L 545.3,-809.2 L 537.5,-802.8 L 529.5,-796.7 L 521.3,-790.9 L 512.9,-785.4 L 504.4,-780.1 L 495.7,-775.1 L 487.0,-770.2 L 478.1,-765.5 L 469.1,-760.9 L 460.1,-756.6 L 450.8,-752.8 L 441.3,-749.5 L 431.6,-746.7 L 421.9,-744.2 L 412.1,-742.0 L 402.3,-740.1 L 392.4,-738.4 L 382.4,-736.9 L 372.5,-735.6 L 362.5,-734.4 L 352.5,-733.4 L 342.5,-732.5 L 332.5,-731.8 L 322.5,-731.1 L 312.4,-730.6 L 302.4,-730.2 L 292.4,-729.8 L 282.3,-729.6 L 272.3,-729.4 L 262.2,-729.4 L 252.2,-729.4 L 242.2,-729.5 L 232.1,-729.7 L 222.1,-730.0" stroke="#4ECDC4" stroke-width="6" fill="none" opacity="0.85"/>
  <circle cx="95.1" cy="-1245.0" r="10" fill="#4ECDC4"/>
  <circle cx="222.1" cy="-730.0" r="6" fill="#4ECDC4" opacity="0.6"/>
  <text x="113.1" y="-1263.0" fill="#4ECDC4" font-size="36" font-family="monospace">2</text>
  <path d="M 222.1,-730.0 L 233.6,-730.3 L 245.2,-730.5 L 256.7,-730.6 L 268.2,-730.7 L 279.8,-730.6 L 291.3,-730.5 L 302.8,-730.3 L 314.4,-730.1 L 325.9,-729.7 L 337.4,-729.3 L 349.0,-728.8 L 360.5,-728.2 L 372.0,-727.5 L 383.5,-726.6 L 395.0,-725.7 L 406.5,-724.6 L 418.0,-723.4 L 429.4,-722.0 L 440.9,-720.5 L 452.3,-718.7 L 463.6,-716.7 L 475.0,-714.4 L 486.2,-711.9 L 497.3,-708.9 L 508.3,-705.3 L 519.1,-701.1 L 529.6,-696.4 L 539.9,-691.2 L 550.0,-685.6 L 559.9,-679.7 L 569.6,-673.5 L 579.1,-666.9 L 588.4,-660.1 L 597.5,-653.0 L 606.3,-645.5 L 614.9,-637.8 L 623.3,-629.9 L 631.4,-621.7 L 639.2,-613.2 L 646.7,-604.5 L 654.0,-595.5 L 661.0,-586.3 L 667.6,-576.9 L 673.9,-567.2 L 679.9,-557.3 L 685.5,-547.3 L 690.8,-537.0 L 695.7,-526.6 L 700.3,-516.0 L 704.4,-505.2 L 708.2,-494.3 L 711.6,-483.2 L 714.5,-472.1 L 717.1,-460.9 L 719.3,-449.5 L 721.1,-438.1 L 722.5,-426.7 L 723.6,-415.2 L 724.2,-403.7 L 724.5,-392.1 L 724.5,-380.6 L 724.1,-369.1 L 723.5,-357.5 L 722.5,-346.1 L 721.2,-334.6 L 719.6,-323.2 L 717.7,-311.8 L 715.5,-300.5 L 712.9,-289.2 L 710.1,-278.0 L 706.9,-266.9 L 703.4,-255.9 L 699.6,-245.0 L 695.5,-234.3 L 691.0,-223.6 L 686.3,-213.1 L 681.2,-202.7 L 675.9,-192.5 L 670.2,-182.5 L 664.2,-172.6 L 657.9,-162.9 L 651.3,-153.5 L 644.5,-144.2 L 637.3,-135.1 L 629.9,-126.3 L 622.2,-117.7 L 614.2,-109.4 L 606.0,-101.3 L 597.5,-93.4 L 588.8,-85.9 L 579.8,-78.6 L 570.6,-71.6 L 561.2,-64.9 L 551.6,-58.5 L 541.8,-52.5 L 531.8,-46.7 L 521.7,-41.3 L 511.3,-36.1 L 500.8,-31.4 L 490.2,-26.9 L 479.4,-22.8 L 468.5,-19.0 L 457.5,-15.6 L 446.4,-12.5 L 435.2,-9.7 L 423.9,-7.3 L 412.5,-5.2 L 401.1,-3.5 L 389.7,-2.1 L 378.2,-1.1 L 366.7,-0.3 L 355.1,0.1 L 343.6,0.1 L 332.1,-0.0 L 320.5,-0.5 L 309.0,-1.4 L 297.5,-2.6 L 286.1,-4.4 L 274.8,-6.6 L 263.6,-9.3 L 252.5,-12.5 L 241.6,-16.2 L 230.8,-20.3 L 220.2,-24.8 L 209.7,-29.6 L 199.3,-34.7 L 189.1,-40.0" stroke="#45B7D1" stroke-width="6" fill="none" opacity="0.85"/>
  <circle cx="222.1" cy="-730.0" r="10" fill="#45B7D1"/>
  <circle cx="189.1" cy="-40.0" r="6" fill="#45B7D1" opacity="0.6"/>
  <text x="240.1" y="-748.0" fill="#45B7D1" font-size="36" font-family="monospace">3</text>
</svg>