<?xml version="1.0" encoding="UTF-8"?>
<svg xmlns="http://www.w3.org/2000/svg" viewBox="-200 -1495.9680118128292 1600 2377.96801181283">
  <title>cogncur strokes for d</title>
  <line x1="-200" y1="0" x2="1400" y2="0" stroke="#2F3A56" stroke-width="4" opacity="0.55"/>
  <line x1="-200" y1="-614.0003000000003" x2="1400" y2="-614.0003000000003" stroke="#457B9D" stroke-width="3" opacity="0.5" stroke-dasharray="24 14"/>
  <line x1="-200" y1="-1295.9680118128292" x2="1400" y2="-1295.9680118128292" stroke="#2F3A56" stroke-width="4" opacity="0.45"/>
  <line x1="-200" y1="682.0000000000005" x2="1400" y2="682.0000000000005" stroke="#ADB5BD" stroke-width="2" opacity="0.35"/>
  <path d="M 35.4,-1.0 L 39.7,-7.2 L 44.1,-13.4 L 48.4,-19.5 L 52.8,-25.7 L 57.2,-31.9 L 61.5,-38.1 L 65.9,-44.3 L 70.2,-50.4 L 74.6,-56.6 L 78.9,-62.8 L 83.3,-69.0 L 87.6,-75.2 L 92.0,-81.3 L 96.3,-87.5 L 100.7,-93.7 L 105.0,-99.9 L 109.4,-106.1 L 113.7,-112.2 L 118.1,-118.4 L 122.4,-124.6 L 126.8,-130.8 L 131.2,-137.0 L 135.5,-143.1 L 139.9,-149.3 L 144.2,-155.5 L 148.6,-161.7 L 152.9,-167.9 L 157.3,-174.1 L 161.6,-180.2 L 166.0,-186.4 L 170.3,-192.6 L 174.7,-198.8 L 179.0,-205.0 L 183.4,-211.1 L 187.7,-217.3 L 192.1,-223.5 L 196.4,-229.7 L 200.8,-235.9 L 205.1,-242.0 L 209.5,-248.2 L 213.8,-254.4 L 218.2,-260.6 L 222.6,-266.8 L 226.9,-272.9 L 231.3,-279.1 L 235.6,-285.3 L 240.0,-291.5 L 244.3,-297.7 L 248.7,-303.8 L 253.0,-310.0 L 257.4,-316.2 L 261.7,-322.4 L 266.1,-328.6 L 270.4,-334.8 L 274.8,-340.9 L 279.1,-347.1 L 283.5,-353.3 L 287.8,-359.5 L 292.2,-365.7 L 296.5,-371.8 L 300.9,-378.0 L 305.2,-384.2 L 309.6,-390.4 L 313.9,-396.6 L 318.3,-402.8 L 322.6,-408.9 L 327.0,-415.1 L 331.3,-421.3 L 335.7,-427.5 L 340.0,-433.7 L 344.4,-439.9 L 348.7,-446.0 L 353.1,-452.2 L 357.4,-458.4 L 361.8,-464.6 L 366.1,-470.8 L 370.4,-477.0 L 375.0,-483.0 L 379.8,-488.8 L 384.7,-494.6 L 389.7,-500.3 L 394.8,-505.8 L 400.1,-511.3 L 405.4,-516.6 L 410.9,-521.8 L 416.5,-526.9 L 422.2,-531.9 L 428.0,-536.7 L 433.9,-541.5 L 439.9,-546.0 L 446.0,-550.5 L 452.2,-554.8 L 458.5,-559.0 L 464.9,-563.0 L 471.4,-566.9 L 477.9,-570.7 L 484.6,-574.2 L 491.3,-577.7 L 498.1,-581.0 L 505.0,-584.1 L 512.0,-587.1 L 519.0,-589.9 L 526.0,-592.6 L 533.2,-595.1 L 540.4,-597.4 L 547.6,-599.6 L 554.9,-601.6 L 562.2,-603.5 L 569.6,-605.2 L 577.0,-606.8 L 584.4,-608.2 L 591.8,-609.4 L 599.3,-610.5 L 606.8,-611.5 L 614.3,-612.2 L 621.9,-612.9 L 629.4,-613.4 L 637.0,-613.7 L 644.5,-613.9 L 652.1,-614.0 L 659.6,-614.0 L 667.2,-614.0 L 674.8,-614.0 L 682.3,-614.0 L 689.9,-614.0 L 697.4,-614.0 L 705.0,-614.0" stroke="#FF6B6B" stroke-width="6" fill="none" opacity="0.85"/>
  <circle cx="35.4" cy="-1.0" r="10" fill="#FF6B6B"/>
  <circle cx="705.0" cy="-614.0" r="6" fill="#FF6B6B" opacity="0.6"/>
  <text x="53.4" y="-19.0" fill="#FF6B6B" font-size="36" font-family="monospace">1</text>
  <path d="M 705.0,-614.0 L 686.2,-614.0 L 667.5,-614.0 L 648.7,-614.0 L 630.0,-613.4 L 611.3,-612.0 L 592.7,-609.7 L 574.2,-606.4 L 555.9,-602.2 L 537.9,-597.1 L 520.2,-590.9 L 502.8,-583.8 L 485.9,-575.7 L 469.5,-566.7 L 453.6,-556.7 L 438.3,-545.8 L 423.7,-534.1 L 409.7,-521.6 L 396.4,-508.4 L 383.8,-494.5 L 372.0,-479.9 L 361.0,-464.8 L 350.7,-449.1 L 341.1,-433.0 L 332.3,-416.4 L 324.3,-399.5 L 317.0,-382.2 L 310.4,-364.6 L 304.6,-346.8 L 299.5,-328.7 L 295.2,-310.5 L 291.5,-292.1 L 288.6,-273.6 L 286.4,-254.9 L 284.9,-236.2 L 284.1,-217.5 L 284.1,-198.8 L 284.8,-180.0 L 286.4,-161.3 L 289.0,-142.8 L 292.7,-124.4 L 297.6,-106.3 L 303.9,-88.6 L 311.7,-71.6 L 321.2,-55.4 L 332.5,-40.5 L 345.7,-27.2 L 360.8,-16.1 L 377.6,-7.6 L 395.5,-2.3 L 414.1,-0.1 L 432.8,-0.7 L 451.4,-3.5 L 469.5,-8.3 L 487.1,-14.7 L 504.2,-22.5 L 520.6,-31.6 L 536.4,-41.7 L 551.5,-52.7 L 566.1,-64.5 L 580.1,-77.0 L 593.5,-90.1 L 606.4,-103.8 L 618.6,-118.0 L 630.3,-132.6 L 641.4,-147.8 L 651.9,-163.3 L 661.8,-179.2 L 671.0,-195.6 L 679.4,-212.4 L 687.0,-229.5 L 693.6,-247.1 L 699.0,-265.0 L 702.9,-283.3 L 704.9,-302.0 L 705.0,-320.7 L 705.0,-339.5 L 705.0,-358.2 L 704.9,-377.0 L 704.9,-395.8 L 704.9,-414.5 L 704.9,-433.3 L 704.9,-452.0 L 704.9,-470.8 L 704.8,-489.5 L 704.8,-508.3 L 704.8,-527.0 L 704.8,-545.8 L 704.8,-564.6 L 704.8,-583.3 L 704.8,-602.1 L 704.7,-620.8 L 704.7,-639.6 L 704.7,-658.3 L 704.7,-677.1 L 704.7,-695.8 L 704.7,-714.6 L 704.7,-733.3 L 704.7,-752.1 L 704.6,-770.9 L 704.6,-789.6 L 704.6,-808.4 L 704.6,-827.1 L 704.6,-845.9 L 704.6,-864.6 L 704.6,-883.4 L 704.6,-902.1 L 704.6,-920.9 L 704.6,-939.7 L 704.6,-958.4 L 704.6,-977.2 L 704.6,-995.9 L 704.6,-1014.7 L 704.6,-1033.4 L 704.6,-1052.2 L 704.6,-1070.9 L 704.6,-1089.7 L 704.6,-1108.5 L 704.6,-1127.2 L 704.6,-1146.0 L 704.6,-1164.7 L 704.6,-1183.5 L 704.6,-1202.2 L 704.6,-1221.0 L 704.7,-1239.7 L 704.7,-1258.5 L 704.8,-1277.3 L 705.0,-1296.0" stroke="#4ECDC4" stroke-width="6" fill="none" opacity="0.85"/>
  <circle cx="705.0" cy="-614.0" r="10" fill="#4ECDC4"/>
  <circle cx="705.0" cy="-1296.0" r="6" fill="#4ECDC4" opacity="0.6"/>
  <text x="723.0" y="-632.0" fill="#4ECDC4" font-size="36" font-family="monospace">2</text>
  <path d="M 705.0,-1296.0 L 704.8,-1284.0 L 704.8,-1272.0 L 704.7,-1260.0 L 704.7,-1248.0 L 704.7,-1236.0 L 704.6,-1224.0 L 704.6,-1212.0 L 704.6,-1200.0 L 704.6,-1188.0 L 704.6,-1176.0 L 704.6,-1164.0 L 704.6,-1152.0 L 704.6,-1140.0 L 704.5,-1128.0 L 704.5,-1116.0 L 704.5,-1104.0 L 704.5,-1092.0 L 704.5,-1080.0 L 704.5,-1068.0 L 704.5,-1056.0 L 704.5,-1044.0 L 704.5,-1032.0 L 704.5,-1020.0 L 704.5,-1008.0 L 704.5,-996.0 L 704.5,-984.0 L 704.5,-972.0 L 704.5,-960.0 L 704.5,-948.0 L 704.5,-936.0 L 704.5,-924.0 L 704.5,-912.0 L 704.5,-900.0 L 704.5,-887.9 L 704.5,-875.9 L 704.5,-863.9 L 704.5,-851.9 L 704.5,-839.9 L 704.5,-827.9 L 704.6,-815.9 L 704.6,-803.9 L 704.6,-791.9 L 704.6,-779.9 L 704.6,-767.9 L 704.6,-755.9 L 704.6,-743.9 L 704.6,-731.9 L 704.6,-719.9 L 704.6,-707.9 L 704.6,-695.9 L 704.6,-683.9 L 704.6,-671.9 L 704.6,-659.9 L 704.6,-647.9 L 704.6,-635.9 L 704.6,-623.9 L 704.6,-611.9 L 704.7,-599.9 L 704.7,-587.9 L 704.7,-575.9 L 704.7,-563.9 L 704.7,-551.9 L 704.7,-539.9 L 704.7,-527.9 L 704.7,-515.9 L 704.7,-503.9 L 704.7,-491.9 L 704.7,-479.9 L 704.7,-467.9 L 704.7,-455.9 L 704.7,-443.9 L 704.8,-431.9 L 704.8,-419.9 L 704.8,-407.9 L 704.8,-395.9 L 704.8,-383.9 L 704.8,-371.9 L 704.8,-359.9 L 704.8,-347.9 L 704.8,-335.9 L 704.8,-323.9 L 704.8,-311.9 L 704.8,-299.9 L 704.9,-287.9 L 704.9,-275.9 L 704.9,-263.9 L 704.9,-251.9 L 704.9,-239.9 L 704.9,-227.9 L 704.9,-215.9 L 704.9,-203.8 L 704.9,-191.8 L 704.9,-179.8 L 704.9,-167.8 L 705.0,-155.8 L 705.0,-143.8 L 705.0,-131.8 L 705.0,-119.8 L 705.0,-107.8 L 705.1,-95.8 L 705.7,-83.8 L 707.0,-71.9 L 709.2,-60.1 L 712.4,-48.6 L 716.8,-37.4 L 722.8,-27.0 L 730.5,-17.9 L 739.9,-10.4 L 750.6,-5.0 L 762.1,-1.7 L 774.0,-0.2 L 786.0,-0.3 L 797.7,-2.8 L 808.9,-7.2 L 819.1,-13.5 L 827.8,-21.7 L 835.2,-31.2 L 842.2,-40.9 L 848.6,-51.1 L 854.3,-61.6 L 859.7,-72.4 L 864.9,-83.1 L 870.2,-93.9 L 875.5,-104.7 L 880.8,-115.5 L 886.1,-126.2 L 891.4,-137.0" stroke="#45B7D1" stroke-width="6" fill="none" opacity="0.85"/>
  <circle cx="705.0" cy="-1296.0" r="10" fill="#45B7D1"/>
  <circle cx="891.4" cy="-137.0" r="6" fill="#45B7D1" opacity="0.6"/>
  <text x="723.0" y="-1314.0" fill="#45B7D1" font-size="36" font-family="monospace">3</text>
</svg>