<?xml version="1.0" encoding="UTF-8"?>
<svg xmlns="http://www.w3.org/2000/svg" viewBox="-200 -1495.9680118128292 1600 2377.96801181283">
  <title>cogncur strokes for h</title>
  <line x1="-200" y1="0" x2="1400" y2="0" stroke="#2F3A56" stroke-width="4" opacity="0.55"/>
  <line x1="-200" y1="-614.0003000000003" x2="1400" y2="-614.0003000000003" stroke="#457B9D" stroke-width="3" opacity="0.5" stroke-dasharray="24 14"/>
  <line x1="-200" y1="-1295.9680118128292" x2="1400" y2="-1295.9680118128292" stroke="#2F3A56" stroke-width="4" opacity="0.45"/>
  <line x1="-200" y1="682.0000000000005" x2="1400" y2="682.0000000000005" stroke="#ADB5BD" stroke-width="2" opacity="0.35"/>
  <path d="M 35.4,-1.0 L 45.3,-21.2 L 55.2,-41.4 L 65.2,-61.6 L 75.1,-81.8 L 85.0,-101.9 L 94.9,-122.1 L 104.9,-142.3 L 114.8,-162.5 L 124.7,-182.7 L 134.6,-202.9 L 144.6,-223.1 L 154.5,-243.3 L 164.4,-263.5 L 174.3,-283.6 L 184.3,-303.8 L 194.2,-324.0 L 204.1,-344.2 L 214.0,-364.4 L 224.0,-384.6 L 233.9,-404.8 L 243.8,-425.0 L 253.7,-445.2 L 263.7,-465.3 L 273.6,-485.5 L 283.5,-505.7 L 293.4,-525.9 L 303.4,-546.1 L 313.3,-566.3 L 323.2,-586.5 L 333.1,-606.7 L 343.1,-626.9 L 353.0,-647.0 L 362.9,-667.2 L 372.8,-687.4 L 382.8,-707.6 L 392.7,-727.8 L 402.6,-748.0 L 412.5,-768.2 L 422.4,-788.4 L 432.4,-808.6 L 442.3,-828.7 L 452.2,-848.9 L 462.1,-869.1 L 472.1,-889.3 L 482.0,-909.5 L 491.9,-929.7 L 501.8,-949.9 L 511.8,-970.1 L 521.7,-990.3 L 531.6,-1010.4 L 541.5,-1030.6 L 551.5,-1050.8 L 561.4,-1071.0 L 570.2,-1091.7 L 576.8,-1113.2 L 581.5,-1135.2 L 584.4,-1157.5 L 585.4,-1180.0 L 583.7,-1202.4 L 578.4,-1224.2 L 569.3,-1244.7 L 556.2,-1263.0 L 539.3,-1277.8 L 519.5,-1288.3 L 497.8,-1294.2 L 475.4,-1296.0 L 453.0,-1294.5 L 431.1,-1289.5 L 410.4,-1280.6 L 392.1,-1267.7 L 376.6,-1251.4 L 364.2,-1232.6 L 354.5,-1212.3 L 347.2,-1191.1 L 341.8,-1169.3 L 337.9,-1147.1 L 335.3,-1124.8 L 333.7,-1102.3 L 333.1,-1079.8 L 333.0,-1057.3 L 333.0,-1034.8 L 333.0,-1012.3 L 333.0,-989.8 L 333.0,-967.4 L 333.0,-944.9 L 333.0,-922.4 L 333.0,-899.9 L 333.0,-877.4 L 333.0,-854.9 L 333.0,-832.4 L 333.0,-809.9 L 333.0,-787.4 L 333.0,-764.9 L 333.0,-742.4 L 333.0,-719.9 L 333.0,-697.4 L 333.0,-674.9 L 333.0,-652.4 L 333.0,-629.9 L 333.0,-607.4 L 333.0,-584.9 L 333.0,-562.4 L 333.0,-539.9 L 333.0,-517.4 L 333.0,-494.9 L 333.0,-472.4 L 333.0,-449.9 L 333.0,-427.4 L 333.0,-404.9 L 333.0,-382.4 L 333.0,-359.9 L 333.0,-337.4 L 333.0,-315.0 L 333.0,-292.5 L 333.0,-270.0 L 333.0,-247.5 L 333.0,-225.0 L 333.0,-202.5 L 333.0,-180.0 L 333.0,-157.5 L 333.0,-135.0 L 333.0,-112.5 L 333.0,-90.0 L 333.0,-67.5 L 333.0,-45.0 L 333.0,-22.5 L 333.0,-0.0" stroke="#FF6B6B" stroke-width="6" fill="none" opacity="0.85"/>
  <circle cx="35.4" cy="-1.0" r="10" fill="#FF6B6B"/>
  <circle cx="333.0" cy="-0.0" r="6" fill="#FF6B6B" opacity="0.6"/>
  <text x="53.4" y="-19.0" fill="#FF6B6B" font-size="36" font-family="monospace">1</text>
  <path d="M 333.0,-0.0 L 333.0,-13.2 L 333.0,-26.4 L 333.0,-39.6 L 333.0,-52.8 L 333.0,-66.1 L 333.0,-79.3 L 333.0,-92.5 L 333.0,-105.7 L 333.0,-118.9 L 333.0,-132.1 L 333.0,-145.3 L 333.0,-158.5 L 333.0,-171.7 L 333.0,-184.9 L 333.0,-198.2 L 333.0,-211.4 L 333.0,-224.6 L 333.0,-237.8 L 333.0,-251.0 L 333.0,-264.2 L 333.0,-277.4 L 333.0,-290.6 L 333.0,-303.8 L 333.4,-317.0 L 335.0,-330.2 L 337.5,-343.1 L 340.9,-355.9 L 344.9,-368.5 L 349.5,-380.8 L 354.7,-393.0 L 360.2,-405.0 L 366.2,-416.8 L 372.5,-428.4 L 379.2,-439.8 L 386.2,-451.0 L 393.6,-461.9 L 401.2,-472.7 L 409.2,-483.3 L 417.4,-493.6 L 425.9,-503.7 L 434.7,-513.6 L 443.8,-523.2 L 453.1,-532.5 L 462.8,-541.5 L 472.7,-550.2 L 483.0,-558.6 L 493.5,-566.5 L 504.3,-574.1 L 515.5,-581.2 L 526.9,-587.8 L 538.7,-593.8 L 550.7,-599.2 L 563.1,-603.9 L 575.7,-607.8 L 588.5,-610.8 L 601.6,-612.9 L 614.7,-613.9 L 628.0,-613.8 L 641.1,-612.5 L 654.1,-610.1 L 666.8,-606.4 L 679.0,-601.5 L 690.7,-595.4 L 701.7,-588.1 L 711.9,-579.7 L 721.1,-570.2 L 729.3,-559.9 L 736.3,-548.7 L 742.2,-536.8 L 746.8,-524.5 L 750.3,-511.7 L 752.6,-498.7 L 753.8,-485.6 L 754.0,-472.4 L 754.0,-459.2 L 754.0,-446.0 L 754.0,-432.7 L 754.0,-419.5 L 754.0,-406.3 L 754.0,-393.1 L 754.0,-379.9 L 754.0,-366.7 L 754.0,-353.5 L 754.0,-340.3 L 754.0,-327.1 L 754.0,-313.9 L 754.0,-300.6 L 754.0,-287.4 L 754.0,-274.2 L 754.0,-261.0 L 754.0,-247.8 L 754.0,-234.6 L 754.0,-221.4 L 754.0,-208.2 L 754.0,-195.0 L 754.0,-181.7 L 754.0,-168.5 L 754.0,-155.3 L 754.0,-142.1 L 754.0,-128.9 L 754.0,-115.7 L 754.0,-102.5 L 754.4,-89.3 L 755.6,-76.1 L 757.8,-63.1 L 761.2,-50.3 L 766.1,-38.1 L 772.7,-26.7 L 781.4,-16.8 L 792.0,-8.9 L 804.1,-3.6 L 817.0,-0.8 L 830.1,-0.0 L 843.2,-1.6 L 855.7,-6.0 L 866.9,-12.9 L 876.7,-21.7 L 885.2,-31.8 L 892.7,-42.7 L 899.3,-54.2 L 905.4,-65.9 L 911.3,-77.7 L 917.1,-89.6 L 922.9,-101.4 L 928.7,-113.3 L 934.6,-125.1 L 940.4,-137.0" stroke="#4ECDC4" stroke-width="6" fill="none" opacity="0.85"/>
  <circle cx="333.0" cy="-0.0" r="10" fill="#4ECDC4"/>
  <circle cx="940.4" cy="-137.0" r="6" fill="#4ECDC4" opacity="0.6"/>
  <text x="351.0" y="-18.0" fill="#4ECDC4" font-size="36" font-family="monospace">2</text>
</svg>