<?xml version="1.0" encoding="UTF-8"?>
<svg xmlns="http://www.w3.org/2000/svg" viewBox="-200 -1495.9680118128292 1600 2377.96801181283">
  <title>cogncur strokes for H</title>
  <line x1="-200" y1="0" x2="1400" y2="0" stroke="#2F3A56" stroke-width="4" opacity="0.55"/>
  <line x1="-200" y1="-614.0003000000003" x2="1400" y2="-614.0003000000003" stroke="#457B9D" stroke-width="3" opacity="0.5" stroke-dasharray="24 14"/>
  <line x1="-200" y1="-1295.9680118128292" x2="1400" y2="-1295.9680118128292" stroke="#2F3A56" stroke-width="4" opacity="0.45"/>
  <line x1="-200" y1="682.0000000000005" x2="1400" y2="682.0000000000005" stroke="#ADB5BD" stroke-width="2" opacity="0.35"/>
  <path d="M 34.4,-1232.0 L 35.3,-1235.0 L 36.4,-1238.0 L 37.7,-1240.9 L 39.0,-1243.8 L 40.5,-1246.6 L 42.1,-1249.3 L 43.8,-1252.0 L 45.6,-1254.6 L 47.5,-1257.2 L 49.5,-1259.6 L 51.6,-1262.0 L 53.7,-1264.3 L 56.0,-1266.6 L 58.3,-1268.8 L 60.6,-1270.9 L 63.1,-1273.0 L 65.5,-1274.9 L 68.1,-1276.8 L 70.7,-1278.7 L 73.3,-1280.4 L 76.0,-1282.1 L 78.7,-1283.7 L 81.5,-1285.2 L 84.3,-1286.7 L 87.2,-1288.1 L 90.1,-1289.3 L 93.0,-1290.5 L 96.0,-1291.6 L 99.0,-1292.6 L 102.1,-1293.5 L 105.1,-1294.3 L 108.2,-1295.0 L 111.4,-1295.5 L 114.5,-1295.8 L 117.7,-1296.0 L 120.9,-1296.0 L 124.0,-1295.8 L 127.2,-1295.4 L 130.3,-1294.9 L 133.4,-1294.3 L 136.5,-1293.5 L 139.5,-1292.6 L 142.5,-1291.6 L 145.5,-1290.5 L 148.5,-1289.3 L 151.4,-1288.1 L 154.2,-1286.7 L 157.1,-1285.3 L 159.9,-1283.8 L 162.6,-1282.3 L 165.4,-1280.7 L 168.1,-1279.1 L 170.8,-1277.4 L 173.5,-1275.7 L 176.2,-1274.0 L 178.9,-1272.3 L 181.5,-1270.6 L 184.2,-1268.8 L 186.8,-1267.1 L 189.4,-1265.3 L 192.1,-1263.5 L 194.7,-1261.8 L 197.4,-1260.0 L 200.0,-1258.3 L 202.7,-1256.6 L 205.4,-1254.9 L 208.1,-1253.2 L 210.8,-1251.6 L 213.5,-1250.0 L 216.2,-1248.4 L 219.0,-1246.8 L 221.8,-1245.4 L 224.7,-1243.9 L 227.5,-1242.6 L 230.4,-1241.2 L 233.3,-1240.0 L 236.3,-1238.9 L 239.3,-1237.8 L 242.3,-1236.8 L 245.3,-1235.9 L 248.4,-1235.1 L 251.5,-1234.5 L 254.6,-1233.9 L 257.8,-1233.5 L 260.9,-1233.2 L 264.1,-1233.0 L 267.3,-1233.0 L 270.4,-1233.1 L 273.6,-1233.3 L 276.7,-1233.7 L 279.9,-1234.2 L 283.0,-1234.8 L 286.1,-1235.5 L 289.2,-1236.2 L 292.2,-1237.1 L 295.2,-1238.1 L 298.2,-1239.2 L 301.2,-1240.4 L 304.1,-1241.6 L 307.0,-1242.9 L 309.8,-1244.3 L 312.6,-1245.7 L 315.4,-1247.2 L 318.2,-1248.8 L 320.9,-1250.4 L 323.6,-1252.1 L 326.3,-1253.8 L 328.9,-1255.6 L 331.5,-1257.4 L 334.1,-1259.2 L 336.6,-1261.1 L 339.2,-1263.1 L 341.6,-1265.0 L 344.1,-1267.1 L 346.5,-1269.1 L 348.9,-1271.2 L 351.3,-1273.3 L 353.6,-1275.4 L 356.0,-1277.6 L 358.2,-1279.8 L 360.5,-1282.0 L 362.7,-1284.3 L 364.9,-1286.5 L 367.1,-1288.9 L 369.2,-1291.2 L 371.3,-1293.6 L 373.4,-1296.0" stroke="#FF6B6B" stroke-width="6" fill="none" opacity="0.85"/>
  <circle cx="34.4" cy="-1232.0" r="10" fill="#FF6B6B"/>
  <circle cx="373.4" cy="-1296.0" r="6" fill="#FF6B6B" opacity="0.6"/>
  <text x="52.4" y="-1250.0" fill="#FF6B6B" font-size="36" font-family="monospace">1</text>
  <path d="M 372.4,-1296.0 L 372.4,-1258.0 L 372.4,-1219.8 L 372.4,-1181.5 L 372.4,-1143.3 L 372.4,-1105.1 L 372.4,-1066.8 L 372.4,-1028.6 L 372.4,-990.4 L 372.4,-952.1 L 372.4,-913.9 L 372.4,-875.6 L 372.4,-837.4 L 372.4,-799.2 L 372.4,-760.9 L 372.4,-722.7 L 372.4,-684.5 L 372.4,-646.2 L 372.4,-608.0 L 372.4,-569.8 L 372.4,-531.5 L 372.4,-493.3 L 372.4,-455.1 L 372.4,-416.8 L 372.4,-378.6 L 372.4,-340.4 L 372.4,-302.1 L 372.4,-263.9 L 372.4,-225.7 L 371.4,-187.4 L 367.7,-149.4 L 360.4,-111.9 L 348.0,-75.8 L 328.3,-43.1 L 299.9,-17.8 L 264.6,-3.5 L 226.7,-0.1 L 189.3,-7.1 L 157.2,-27.4 L 135.8,-58.8 L 125.7,-95.6 L 125.1,-133.7 L 130.1,-171.6 L 138.9,-208.8 L 150.6,-245.2 L 164.8,-280.7 L 181.3,-315.2 L 199.9,-348.6 L 220.6,-380.7 L 243.1,-411.6 L 267.5,-441.0 L 293.6,-469.0 L 321.4,-495.3 L 350.6,-519.9 L 381.2,-542.8 L 413.1,-563.9 L 446.1,-583.2 L 480.1,-600.7 L 515.0,-616.3 L 550.6,-630.2 L 586.9,-642.3 L 623.6,-653.0 L 659.9,-665.0 L 695.6,-678.7 L 730.6,-694.1 L 764.7,-711.4 L 797.8,-730.4 L 829.8,-751.3 L 860.6,-774.0 L 890.0,-798.5 L 917.9,-824.6 L 944.1,-852.4 L 968.7,-881.7 L 991.4,-912.5 L 1012.1,-944.6 L 1030.8,-977.9 L 1047.3,-1012.4 L 1061.5,-1047.9 L 1073.1,-1084.3 L 1081.8,-1121.6 L 1086.9,-1159.4 L 1086.8,-1197.6 L 1077.3,-1234.5 L 1056.5,-1266.4 L 1025.1,-1287.7 L 987.9,-1295.8 L 949.9,-1293.2 L 914.2,-1279.9 L 885.3,-1255.2 L 865.0,-1222.9 L 852.1,-1187.0 L 844.5,-1149.5 L 840.6,-1111.5 L 839.4,-1073.3 L 839.4,-1035.0 L 839.4,-996.8 L 839.4,-958.6 L 839.4,-920.3 L 839.4,-882.1 L 839.4,-843.9 L 839.4,-805.6 L 839.4,-767.4 L 839.4,-729.2 L 839.4,-690.9 L 839.4,-652.7 L 839.4,-614.5 L 839.4,-576.2 L 839.4,-538.0 L 839.4,-499.8 L 839.4,-461.5 L 839.4,-423.3 L 839.4,-385.1 L 839.4,-346.8 L 839.4,-308.6 L 839.4,-270.4 L 839.4,-232.1 L 839.4,-193.9 L 839.4,-155.7 L 839.4,-117.4 L 840.6,-79.2 L 849.6,-42.2 L 872.4,-12.2 L 908.2,-0.2 L 944.9,-8.4 L 971.9,-35.1 L 990.7,-68.4 L 1007.5,-102.7 L 1024.4,-137.0" stroke="#4ECDC4" stroke-width="6" fill="none" opacity="0.85"/>
  <circle cx="372.4" cy="-1296.0" r="10" fill="#4ECDC4"/>
  <circle cx="1024.4" cy="-137.0" r="6" fill="#4ECDC4" opacity="0.6"/>
  <text x="390.4" y="-1314.0" fill="#4ECDC4" font-size="36" font-family="monospace">2</text>
</svg>