<?xml version="1.0" encoding="UTF-8"?>
<svg xmlns="http://www.w3.org/2000/svg" viewBox="-200 -1495.9680118128292 1600 2377.96801181283">
  <title>cogncur strokes for i</title>
  <line x1="-200" y1="0" x2="1400" y2="0" stroke="#2F3A56" stroke-width="4" opacity="0.55"/>
  <line x1="-200" y1="-614.0003000000003" x2="1400" y2="-614.0003000000003" stroke="#457B9D" stroke-width="3" opacity="0.5" stroke-dasharray="24 14"/>
  <line x1="-200" y1="-1295.9680118128292" x2="1400" y2="-1295.9680118128292" stroke="#2F3A56" stroke-width="4" opacity="0.45"/>
  <line x1="-200" y1="682.0000000000005" x2="1400" y2="682.0000000000005" stroke="#ADB5BD" stroke-width="2" opacity="0.35"/>
  <path d="M 35.4,-1.0 L 37.8,-5.8 L 40.1,-10.7 L 42.5,-15.5 L 44.9,-20.3 L 47.2,-25.2 L 49.6,-30.0 L 52.0,-34.8 L 54.3,-39.7 L 56.7,-44.5 L 59.1,-49.3 L 61.5,-54.2 L 63.8,-59.0 L 66.2,-63.9 L 68.6,-68.7 L 70.9,-73.5 L 73.3,-78.4 L 75.7,-83.2 L 78.0,-88.0 L 80.4,-92.9 L 82.8,-97.7 L 85.2,-102.5 L 87.5,-107.4 L 89.9,-112.2 L 92.3,-117.0 L 94.6,-121.9 L 97.0,-126.7 L 99.4,-131.5 L 101.7,-136.4 L 104.1,-141.2 L 106.5,-146.0 L 108.9,-150.9 L 111.2,-155.7 L 113.6,-160.5 L 116.0,-165.4 L 118.3,-170.2 L 120.7,-175.0 L 123.1,-179.9 L 125.5,-184.7 L 127.8,-189.6 L 130.2,-194.4 L 132.6,-199.2 L 134.9,-204.1 L 137.3,-208.9 L 139.7,-213.7 L 142.0,-218.6 L 144.4,-223.4 L 146.8,-228.2 L 149.2,-233.1 L 151.5,-237.9 L 153.9,-242.7 L 156.3,-247.6 L 158.6,-252.4 L 161.0,-257.2 L 163.4,-262.1 L 165.7,-266.9 L 168.1,-271.7 L 170.5,-276.6 L 172.9,-281.4 L 175.2,-286.2 L 177.6,-291.1 L 180.0,-295.9 L 182.3,-300.7 L 184.7,-305.6 L 187.1,-310.4 L 189.4,-315.3 L 191.8,-320.1 L 194.2,-324.9 L 196.6,-329.8 L 198.9,-334.6 L 201.3,-339.4 L 203.7,-344.3 L 206.0,-349.1 L 208.4,-353.9 L 210.8,-358.8 L 213.1,-363.6 L 215.5,-368.4 L 217.9,-373.3 L 220.3,-378.1 L 222.6,-382.9 L 225.0,-387.8 L 227.4,-392.6 L 229.7,-397.4 L 232.1,-402.3 L 234.5,-407.1 L 236.8,-411.9 L 239.2,-416.8 L 241.6,-421.6 L 244.0,-426.4 L 246.3,-431.3 L 248.7,-436.1 L 251.1,-441.0 L 253.4,-445.8 L 255.8,-450.6 L 258.2,-455.5 L 260.5,-460.3 L 262.9,-465.1 L 265.3,-470.0 L 267.7,-474.8 L 270.0,-479.6 L 272.4,-484.5 L 274.8,-489.3 L 277.1,-494.1 L 279.5,-499.0 L 281.9,-503.8 L 284.2,-508.6 L 286.6,-513.5 L 289.0,-518.3 L 291.4,-523.1 L 293.7,-528.0 L 296.1,-532.8 L 298.5,-537.6 L 300.8,-542.5 L 303.2,-547.3 L 305.6,-552.1 L 307.9,-557.0 L 310.3,-561.8 L 312.7,-566.7 L 315.1,-571.5 L 317.4,-576.3 L 319.8,-581.2 L 322.2,-586.0 L 324.5,-590.8 L 326.9,-595.7 L 329.3,-600.5 L 331.6,-605.3 L 334.0,-610.2 L 336.4,-615.0" stroke="#FF6B6B" stroke-width="6" fill="none" opacity="0.85"/>
  <circle cx="35.4" cy="-1.0" r="10" fill="#FF6B6B"/>
  <circle cx="336.4" cy="-615.0" r="6" fill="#FF6B6B" opacity="0.6"/>
  <text x="53.4" y="-19.0" fill="#FF6B6B" font-size="36" font-family="monospace">1</text>
  <path d="M 335.0,-614.0 L 335.0,-607.4 L 335.0,-600.8 L 335.0,-594.2 L 335.0,-587.6 L 335.0,-581.0 L 335.0,-574.4 L 335.0,-567.8 L 335.0,-561.2 L 335.0,-554.6 L 335.0,-548.0 L 335.0,-541.4 L 335.0,-534.8 L 335.0,-528.2 L 335.0,-521.6 L 335.0,-515.0 L 335.0,-508.4 L 335.0,-501.8 L 335.0,-495.2 L 335.0,-488.5 L 335.0,-481.9 L 335.0,-475.3 L 335.0,-468.7 L 335.0,-462.1 L 335.0,-455.5 L 335.0,-448.9 L 335.0,-442.3 L 335.0,-435.7 L 335.0,-429.1 L 335.0,-422.5 L 335.0,-415.9 L 335.0,-409.3 L 335.0,-402.7 L 335.0,-396.1 L 335.0,-389.5 L 335.0,-382.9 L 335.0,-376.3 L 335.0,-369.7 L 335.0,-363.1 L 335.0,-356.5 L 335.0,-349.9 L 335.0,-343.3 L 335.0,-336.7 L 335.0,-330.1 L 335.0,-323.5 L 335.0,-316.9 L 335.0,-310.3 L 335.0,-303.7 L 335.0,-297.1 L 335.0,-290.5 L 335.0,-283.9 L 335.0,-277.3 L 335.0,-270.7 L 335.0,-264.1 L 335.0,-257.5 L 335.0,-250.8 L 335.0,-244.2 L 335.0,-237.6 L 335.0,-231.0 L 335.0,-224.4 L 335.0,-217.8 L 335.0,-211.2 L 335.0,-204.6 L 335.0,-198.0 L 335.0,-191.4 L 335.0,-184.8 L 335.0,-178.2 L 335.0,-171.6 L 335.0,-165.0 L 335.0,-158.4 L 335.0,-151.8 L 335.0,-145.2 L 335.0,-138.6 L 335.0,-132.0 L 335.0,-125.4 L 335.0,-118.8 L 335.0,-112.2 L 335.0,-105.6 L 335.0,-99.0 L 335.2,-92.4 L 335.6,-85.8 L 336.1,-79.2 L 336.9,-72.7 L 337.9,-66.1 L 339.1,-59.7 L 340.7,-53.2 L 342.7,-46.9 L 345.0,-40.8 L 347.7,-34.8 L 351.0,-29.0 L 354.7,-23.6 L 359.0,-18.5 L 363.8,-14.0 L 369.1,-10.1 L 374.8,-6.8 L 380.9,-4.2 L 387.2,-2.3 L 393.7,-1.0 L 400.2,-0.2 L 406.8,-0.0 L 413.4,-0.3 L 420.0,-1.3 L 426.3,-3.1 L 432.4,-5.5 L 438.2,-8.7 L 443.7,-12.4 L 448.7,-16.7 L 453.4,-21.3 L 457.7,-26.3 L 461.7,-31.6 L 465.5,-37.0 L 469.0,-42.6 L 472.3,-48.3 L 475.4,-54.1 L 478.5,-60.0 L 481.4,-65.9 L 484.4,-71.8 L 487.3,-77.7 L 490.2,-83.7 L 493.1,-89.6 L 496.0,-95.5 L 498.9,-101.4 L 501.8,-107.4 L 504.7,-113.3 L 507.7,-119.2 L 510.6,-125.1 L 513.5,-131.1 L 516.4,-137.0" stroke="#4ECDC4" stroke-width="6" fill="none" opacity="0.85"/>
  <circle cx="335.0" cy="-614.0" r="10" fill="#4ECDC4"/>
  <circle cx="516.4" cy="-137.0" r="6" fill="#4ECDC4" opacity="0.6"/>
  <text x="353.0" y="-632.0" fill="#4ECDC4" font-size="36" font-family="monospace">2</text>
  <path d="M 335.0,-875.0 L 335.0,-875.0 L 335.0,-875.0 L 335.0,-875.0 L 335.0,-875.0 L 335.0,-875.0 L 335.0,-875.0 L 335.1,-875.0 L 335.1,-875.0 L 335.1,-875.0 L 335.1,-875.0 L 335.1,-875.0 L 335.1,-875.0 L 335.1,-875.0 L 335.1,-875.0 L 335.1,-875.0 L 335.1,-875.0 L 335.1,-875.0 L 335.1,-875.0 L 335.1,-875.0 L 335.2,-875.0 L 335.2,-875.0 L 335.2,-875.0 L 335.2,-875.0 L 335.2,-875.0 L 335.2,-875.0 L 335.2,-875.0 L 335.2,-875.0 L 335.2,-875.0 L 335.2,-875.0 L 335.2,-875.0 L 335.2,-875.0 L 335.3,-875.0 L 335.3,-875.0 L 335.3,-875.0 L 335.3,-875.0 L 335.3,-875.0 L 335.3,-875.0 L 335.3,-875.0 L 335.3,-875.0 L 335.3,-875.0 L 335.3,-875.0 L 335.3,-875.0 L 335.3,-875.0 L 335.3,-875.0 L 335.4,-875.0 L 335.4,-875.0 L 335.4,-875.0 L 335.4,-875.0 L 335.4,-875.0 L 335.4,-875.0 L 335.4,-875.0 L 335.4,-875.0 L 335.4,-875.0 L 335.4,-875.0 L 335.4,-875.0 L 335.4,-875.0 L 335.4,-875.0 L 335.5,-875.0 L 335.5,-875.0 L 335.5,-875.0 L 335.5,-875.0 L 335.5,-875.0 L 335.5,-875.0 L 335.5,-875.0 L 335.5,-875.0 L 335.5,-875.0 L 335.5,-875.0 L 335.5,-875.0 L 335.5,-875.0 L 335.6,-875.0 L 335.6,-875.0 L 335.6,-875.0 L 335.6,-875.0 L 335.6,-875.0 L 335.6,-875.0 L 335.6,-875.0 L 335.6,-875.0 L 335.6,-875.0 L 335.6,-875.0 L 335.6,-875.0 L 335.6,-875.0 L 335.6,-875.0 L 335.7,-875.0 L 335.7,-875.0 L 335.7,-875.0 L 335.7,-875.0 L 335.7,-875.0 L 335.7,-875.0 L 335.7,-875.0 L 335.7,-875.0 L 335.7,-875.0 L 335.7,-875.0 L 335.7,-875.0 L 335.7,-875.0 L 335.7,-875.0 L 335.8,-875.0 L 335.8,-875.0 L 335.8,-875.0 L 335.8,-875.0 L 335.8,-875.0 L 335.8,-875.0 L 335.8,-875.0 L 335.8,-875.0 L 335.8,-875.0 L 335.8,-875.0 L 335.8,-875.0 L 335.8,-875.0 L 335.9,-875.0 L 335.9,-875.0 L 335.9,-875.0 L 335.9,-875.0 L 335.9,-875.0 L 335.9,-875.0 L 335.9,-875.0 L 335.9,-875.0 L 335.9,-875.0 L 335.9,-875.0 L 335.9,-875.0 L 335.9,-875.0 L 335.9,-875.0 L 336.0,-875.0 L 336.0,-875.0 L 336.0,-875.0 L 336.0,-875.0 L 336.0,-875.0 L 336.0,-875.0 L 336.0,-875.0" stroke="#45B7D1" stroke-width="6" fill="none" opacity="0.85"/>
  <circle cx="335.0" cy="-875.0" r="10" fill="#45B7D1"/>
  <text x="353.0" y="-893.0" fill="#45B7D1" font-size="36" font-family="monospace">3</text>
</svg>