<?xml version="1.0" encoding="UTF-8"?>
<svg xmlns="http://www.w3.org/2000/svg" viewBox="-200 -1495.9680118128292 1600 2377.96801181283">
  <title>cogncur strokes for j</title>
  <line x1="-200" y1="0" x2="1400" y2="0" stroke="#2F3A56" stroke-width="4" opacity="0.55"/>
  <line x1="-200" y1="-614.0003000000003" x2="1400" y2="-614.0003000000003" stroke="#457B9D" stroke-width="3" opacity="0.5" stroke-dasharray="24 14"/>
  <line x1="-200" y1="-1295.9680118128292" x2="1400" y2="-1295.9680118128292" stroke="#2F3A56" stroke-width="4" opacity="0.45"/>
  <line x1="-200" y1="682.0000000000005" x2="1400" y2="682.0000000000005" stroke="#ADB5BD" stroke-width="2" opacity="0.35"/>
  <path d="M 35.4,-1.0 L 37.8,-5.8 L 40.1,-10.7 L 42.5,-15.5 L 44.9,-20.3 L 47.2,-25.2 L 49.6,-30.0 L 52.0,-34.8 L 54.3,-39.7 L 56.7,-44.5 L 59.1,-49.3 L 61.5,-54.2 L 63.8,-59.0 L 66.2,-63.9 L 68.6,-68.7 L 70.9,-73.5 L 73.3,-78.4 L 75.7,-83.2 L 78.0,-88.0 L 80.4,-92.9 L 82.8,-97.7 L 85.2,-102.5 L 87.5,-107.4 L 89.9,-112.2 L 92.3,-117.0 L 94.6,-121.9 L 97.0,-126.7 L 99.4,-131.5 L 101.7,-136.4 L 104.1,-141.2 L 106.5,-146.0 L 108.9,-150.9 L 111.2,-155.7 L 113.6,-160.5 L 116.0,-165.4 L 118.3,-170.2 L 120.7,-175.0 L 123.1,-179.9 L 125.5,-184.7 L 127.8,-189.6 L 130.2,-194.4 L 132.6,-199.2 L 134.9,-204.1 L 137.3,-208.9 L 139.7,-213.7 L 142.0,-218.6 L 144.4,-223.4 L 146.8,-228.2 L 149.2,-233.1 L 151.5,-237.9 L 153.9,-242.7 L 156.3,-247.6 L 158.6,-252.4 L 161.0,-257.2 L 163.4,-262.1 L 165.7,-266.9 L 168.1,-271.7 L 170.5,-276.6 L 172.9,-281.4 L 175.2,-286.2 L 177.6,-291.1 L 180.0,-295.9 L 182.3,-300.7 L 184.7,-305.6 L 187.1,-310.4 L 189.4,-315.3 L 191.8,-320.1 L 194.2,-324.9 L 196.6,-329.8 L 198.9,-334.6 L 201.3,-339.4 L 203.7,-344.3 L 206.0,-349.1 L 208.4,-353.9 L 210.8,-358.8 L 213.1,-363.6 L 215.5,-368.4 L 217.9,-373.3 L 220.3,-378.1 L 222.6,-382.9 L 225.0,-387.8 L 227.4,-392.6 L 229.7,-397.4 L 232.1,-402.3 L 234.5,-407.1 L 236.8,-411.9 L 239.2,-416.8 L 241.6,-421.6 L 244.0,-426.4 L 246.3,-431.3 L 248.7,-436.1 L 251.1,-441.0 L 253.4,-445.8 L 255.8,-450.6 L 258.2,-455.5 L 260.5,-460.3 L 262.9,-465.1 L 265.3,-470.0 L 267.7,-474.8 L 270.0,-479.6 L 272.4,-484.5 L 274.8,-489.3 L 277.1,-494.1 L 279.5,-499.0 L 281.9,-503.8 L 284.2,-508.6 L 286.6,-513.5 L 289.0,-518.3 L 291.4,-523.1 L 293.7,-528.0 L 296.1,-532.8 L 298.5,-537.6 L 300.8,-542.5 L 303.2,-547.3 L 305.6,-552.1 L 307.9,-557.0 L 310.3,-561.8 L 312.7,-566.7 L 315.1,-571.5 L 317.4,-576.3 L 319.8,-581.2 L 322.2,-586.0 L 324.5,-590.8 L 326.9,-595.7 L 329.3,-600.5 L 331.6,-605.3 L 334.0,-610.2 L 336.4,-615.0" stroke="#FF6B6B" stroke-width="6" fill="none" opacity="0.85"/>
  <circle cx="35.4" cy="-1.0" r="10" fill="#FF6B6B"/>
  <circle cx="336.4" cy="-615.0" r="6" fill="#FF6B6B" opacity="0.6"/>
  <text x="53.4" y="-19.0" fill="#FF6B6B" font-size="36" font-family="monospace">1</text>
  <path d="M 335.0,-614.0 L 335.0,-595.5 L 335.0,-576.9 L 335.0,-558.4 L 335.0,-539.8 L 335.0,-521.3 L 335.0,-502.8 L 335.0,-484.2 L 335.0,-465.7 L 335.0,-447.2 L 335.0,-428.6 L 335.0,-410.1 L 335.0,-391.5 L 335.0,-373.0 L 335.0,-354.5 L 335.0,-335.9 L 335.0,-317.4 L 335.0,-298.8 L 335.0,-280.3 L 335.0,-261.8 L 335.0,-243.2 L 335.0,-224.7 L 335.0,-206.2 L 335.0,-187.6 L 335.0,-169.1 L 335.0,-150.5 L 335.0,-132.0 L 335.0,-113.5 L 335.0,-94.9 L 335.0,-76.4 L 335.0,-57.8 L 335.0,-39.3 L 335.0,-20.8 L 335.0,-2.2 L 335.0,16.3 L 335.0,34.8 L 335.0,53.4 L 335.0,71.9 L 335.0,90.5 L 335.0,109.0 L 335.0,127.5 L 335.0,146.1 L 335.0,164.6 L 335.0,183.2 L 335.0,201.7 L 335.0,220.2 L 335.0,238.8 L 335.0,257.3 L 335.0,275.9 L 335.0,294.4 L 335.0,312.9 L 335.0,331.5 L 335.0,350.0 L 335.0,368.5 L 335.0,387.1 L 335.0,405.6 L 335.0,424.2 L 335.0,442.7 L 335.0,461.2 L 334.6,479.8 L 333.7,498.3 L 332.1,516.8 L 329.7,535.1 L 326.5,553.4 L 322.3,571.4 L 316.8,589.1 L 309.8,606.3 L 301.2,622.7 L 290.6,637.9 L 277.9,651.4 L 263.2,662.6 L 246.8,671.2 L 229.2,677.0 L 210.9,680.1 L 192.4,681.0 L 173.9,679.7 L 155.9,675.6 L 138.8,668.4 L 123.7,657.8 L 111.0,644.3 L 100.9,628.8 L 93.3,611.9 L 88.5,594.0 L 86.3,575.6 L 86.1,557.0 L 87.1,538.5 L 89.2,520.1 L 92.5,501.9 L 97.1,483.9 L 103.1,466.4 L 110.5,449.4 L 119.3,433.1 L 129.0,417.3 L 138.6,401.4 L 148.2,385.6 L 157.9,369.8 L 167.5,353.9 L 177.2,338.1 L 186.8,322.2 L 196.4,306.4 L 206.1,290.6 L 215.7,274.7 L 225.3,258.9 L 235.0,243.1 L 244.6,227.2 L 254.3,211.4 L 263.9,195.6 L 273.5,179.7 L 283.2,163.9 L 292.8,148.1 L 302.4,132.2 L 312.1,116.4 L 321.7,100.5 L 331.4,84.7 L 341.0,68.9 L 350.6,53.0 L 360.3,37.2 L 369.9,21.4 L 379.6,5.5 L 389.2,-10.3 L 398.8,-26.1 L 408.5,-42.0 L 418.1,-57.8 L 427.7,-73.7 L 437.4,-89.5 L 447.0,-105.3 L 456.7,-121.2 L 466.3,-137.0" stroke="#4ECDC4" stroke-width="6" fill="none" opacity="0.85"/>
  <circle cx="335.0" cy="-614.0" r="10" fill="#4ECDC4"/>
  <circle cx="466.3" cy="-137.0" r="6" fill="#4ECDC4" opacity="0.6"/>
  <text x="353.0" y="-632.0" fill="#4ECDC4" font-size="36" font-family="monospace">2</text>
  <path d="M 335.0,-875.0 L 335.0,-875.0 L 335.0,-875.0 L 335.0,-875.0 L 335.0,-875.0 L 335.0,-875.0 L 335.0,-875.0 L 335.1,-875.0 L 335.1,-875.0 L 335.1,-875.0 L 335.1,-875.0 L 335.1,-875.0 L 335.1,-875.0 L 335.1,-875.0 L 335.1,-875.0 L 335.1,-875.0 L 335.1,-875.0 L 335.1,-875.0 L 335.1,-875.0 L 335.1,-875.0 L 335.2,-875.0 L 335.2,-875.0 L 335.2,-875.0 L 335.2,-875.0 L 335.2,-875.0 L 335.2,-875.0 L 335.2,-875.0 L 335.2,-875.0 L 335.2,-875.0 L 335.2,-875.0 L 335.2,-875.0 L 335.2,-875.0 L 335.3,-875.0 L 335.3,-875.0 L 335.3,-875.0 L 335.3,-875.0 L 335.3,-875.0 L 335.3,-875.0 L 335.3,-875.0 L 335.3,-875.0 L 335.3,-875.0 L 335.3,-875.0 L 335.3,-875.0 L 335.3,-875.0 L 335.3,-875.0 L 335.4,-875.0 L 335.4,-875.0 L 335.4,-875.0 L 335.4,-875.0 L 335.4,-875.0 L 335.4,-875.0 L 335.4,-875.0 L 335.4,-875.0 L 335.4,-875.0 L 335.4,-875.0 L 335.4,-875.0 L 335.4,-875.0 L 335.4,-875.0 L 335.5,-875.0 L 335.5,-875.0 L 335.5,-875.0 L 335.5,-875.0 L 335.5,-875.0 L 335.5,-875.0 L 335.5,-875.0 L 335.5,-875.0 L 335.5,-875.0 L 335.5,-875.0 L 335.5,-875.0 L 335.5,-875.0 L 335.6,-875.0 L 335.6,-875.0 L 335.6,-875.0 L 335.6,-875.0 L 335.6,-875.0 L 335.6,-875.0 L 335.6,-875.0 L 335.6,-875.0 L 335.6,-875.0 L 335.6,-875.0 L 335.6,-875.0 L 335.6,-875.0 L 335.6,-875.0 L 335.7,-875.0 L 335.7,-875.0 L 335.7,-875.0 L 335.7,-875.0 L 335.7,-875.0 L 335.7,-875.0 L 335.7,-875.0 L 335.7,-875.0 L 335.7,-875.0 L 335.7,-875.0 L 335.7,-875.0 L 335.7,-875.0 L 335.7,-875.0 L 335.8,-875.0 L 335.8,-875.0 L 335.8,-875.0 L 335.8,-875.0 L 335.8,-875.0 L 335.8,-875.0 L 335.8,-875.0 L 335.8,-875.0 L 335.8,-875.0 L 335.8,-875.0 L 335.8,-875.0 L 335.8,-875.0 L 335.9,-875.0 L 335.9,-875.0 L 335.9,-875.0 L 335.9,-875.0 L 335.9,-875.0 L 335.9,-875.0 L 335.9,-875.0 L 335.9,-875.0 L 335.9,-875.0 L 335.9,-875.0 L 335.9,-875.0 L 335.9,-875.0 L 335.9,-875.0 L 336.0,-875.0 L 336.0,-875.0 L 336.0,-875.0 L 336.0,-875.0 L 336.0,-875.0 L 336.0,-875.0 L 336.0,-875.0" stroke="#45B7D1" stroke-width="6" fill="none" opacity="0.85"/>
  <circle cx="335.0" cy="-875.0" r="10" fill="#45B7D1"/>
  <text x="353.0" y="-893.0" fill="#45B7D1" font-size="36" font-family="monospace">3</text>
</svg>