<?xml version="1.0" encoding="UTF-8"?>
<svg xmlns="http://www.w3.org/2000/svg" viewBox="-200 -1495.9680118128292 1600 2377.96801181283">
  <title>cogncur strokes for k</title>
  <line x1="-200" y1="0" x2="1400" y2="0" stroke="#2F3A56" stroke-width="4" opacity="0.55"/>
  <line x1="-200" y1="-614.0003000000003" x2="1400" y2="-614.0003000000003" stroke="#457B9D" stroke-width="3" opacity="0.5" stroke-dasharray="24 14"/>
  <line x1="-200" y1="-1295.9680118128292" x2="1400" y2="-1295.9680118128292" stroke="#2F3A56" stroke-width="4" opacity="0.45"/>
  <line x1="-200" y1="682.0000000000005" x2="1400" y2="682.0000000000005" stroke="#ADB5BD" stroke-width="2" opacity="0.35"/>
  <path d="M 35.4,-1.0 L 45.3,-21.2 L 55.2,-41.4 L 65.2,-61.6 L 75.1,-81.8 L 85.0,-101.9 L 94.9,-122.1 L 104.9,-142.3 L 114.8,-162.5 L 124.7,-182.7 L 134.6,-202.9 L 144.6,-223.1 L 154.5,-243.3 L 164.4,-263.5 L 174.3,-283.6 L 184.3,-303.8 L 194.2,-324.0 L 204.1,-344.2 L 214.0,-364.4 L 224.0,-384.6 L 233.9,-404.8 L 243.8,-425.0 L 253.7,-445.2 L 263.7,-465.3 L 273.6,-485.5 L 283.5,-505.7 L 293.4,-525.9 L 303.4,-546.1 L 313.3,-566.3 L 323.2,-586.5 L 333.1,-606.7 L 343.1,-626.9 L 353.0,-647.0 L 362.9,-667.2 L 372.8,-687.4 L 382.8,-707.6 L 392.7,-727.8 L 402.6,-748.0 L 412.5,-768.2 L 422.4,-788.4 L 432.4,-808.6 L 442.3,-828.7 L 452.2,-848.9 L 462.1,-869.1 L 472.1,-889.3 L 482.0,-909.5 L 491.9,-929.7 L 501.8,-949.9 L 511.8,-970.1 L 521.7,-990.3 L 531.6,-1010.4 L 541.5,-1030.6 L 551.5,-1050.8 L 561.4,-1071.0 L 570.2,-1091.7 L 576.8,-1113.2 L 581.5,-1135.2 L 584.4,-1157.5 L 585.4,-1180.0 L 583.7,-1202.4 L 578.4,-1224.2 L 569.3,-1244.7 L 556.2,-1263.0 L 539.3,-1277.8 L 519.5,-1288.3 L 497.8,-1294.2 L 475.4,-1296.0 L 453.0,-1294.5 L 431.1,-1289.5 L 410.4,-1280.6 L 392.1,-1267.7 L 376.6,-1251.4 L 364.2,-1232.6 L 354.5,-1212.3 L 347.2,-1191.1 L 341.8,-1169.3 L 337.9,-1147.1 L 335.3,-1124.8 L 333.7,-1102.3 L 333.1,-1079.8 L 333.0,-1057.3 L 333.0,-1034.8 L 333.0,-1012.3 L 333.0,-989.8 L 333.0,-967.4 L 333.0,-944.9 L 333.0,-922.4 L 333.0,-899.9 L 333.0,-877.4 L 333.0,-854.9 L 333.0,-832.4 L 333.0,-809.9 L 333.0,-787.4 L 333.0,-764.9 L 333.0,-742.4 L 333.0,-719.9 L 333.0,-697.4 L 333.0,-674.9 L 333.0,-652.4 L 333.0,-629.9 L 333.0,-607.4 L 333.0,-584.9 L 333.0,-562.4 L 333.0,-539.9 L 333.0,-517.4 L 333.0,-494.9 L 333.0,-472.4 L 333.0,-449.9 L 333.0,-427.4 L 333.0,-404.9 L 333.0,-382.4 L 333.0,-359.9 L 333.0,-337.4 L 333.0,-315.0 L 333.0,-292.5 L 333.0,-270.0 L 333.0,-247.5 L 333.0,-225.0 L 333.0,-202.5 L 333.0,-180.0 L 333.0,-157.5 L 333.0,-135.0 L 333.0,-112.5 L 333.0,-90.0 L 333.0,-67.5 L 333.0,-45.0 L 333.0,-22.5 L 333.0,-0.0" stroke="#FF6B6B" stroke-width="6" fill="none" opacity="0.85"/>
  <circle cx="35.4" cy="-1.0" r="10" fill="#FF6B6B"/>
  <circle cx="333.0" cy="-0.0" r="6" fill="#FF6B6B" opacity="0.6"/>
  <text x="53.4" y="-19.0" fill="#FF6B6B" font-size="36" font-family="monospace">1</text>
  <path d="M 333.0,-0.0 L 333.0,-11.4 L 333.0,-22.9 L 333.0,-34.3 L 333.0,-45.7 L 333.0,-57.1 L 333.0,-68.6 L 333.0,-80.0 L 333.0,-91.4 L 333.0,-102.9 L 333.0,-114.3 L 333.0,-125.7 L 333.0,-137.1 L 333.0,-148.6 L 333.0,-160.0 L 333.0,-171.4 L 333.0,-182.9 L 333.0,-194.3 L 333.0,-205.7 L 333.0,-217.1 L 333.0,-228.6 L 333.0,-240.0 L 333.0,-251.4 L 333.0,-262.9 L 333.0,-274.3 L 333.0,-285.7 L 333.0,-297.1 L 333.0,-308.6 L 333.7,-320.0 L 335.2,-331.3 L 337.4,-342.5 L 340.2,-353.6 L 343.6,-364.5 L 347.4,-375.3 L 351.6,-385.9 L 356.2,-396.4 L 361.0,-406.7 L 366.2,-416.9 L 371.7,-426.9 L 377.4,-436.8 L 383.4,-446.6 L 389.6,-456.1 L 396.1,-465.6 L 402.8,-474.8 L 409.7,-484.0 L 416.8,-492.9 L 424.1,-501.7 L 431.7,-510.2 L 439.4,-518.6 L 447.4,-526.8 L 455.6,-534.8 L 464.0,-542.6 L 472.6,-550.1 L 481.4,-557.3 L 490.5,-564.3 L 499.7,-571.0 L 509.2,-577.3 L 519.0,-583.3 L 529.0,-588.9 L 539.1,-594.1 L 549.6,-598.7 L 560.2,-602.9 L 571.1,-606.5 L 582.1,-609.5 L 593.3,-611.7 L 604.6,-613.2 L 616.0,-613.9 L 627.5,-613.8 L 638.8,-612.8 L 650.1,-610.9 L 661.2,-608.0 L 672.0,-604.3 L 682.4,-599.7 L 692.5,-594.2 L 702.0,-587.9 L 711.0,-580.9 L 719.3,-573.0 L 726.9,-564.5 L 733.7,-555.3 L 739.6,-545.6 L 744.6,-535.3 L 748.6,-524.6 L 751.5,-513.6 L 753.3,-502.3 L 754.0,-490.9 L 753.6,-479.4 L 752.2,-468.1 L 749.5,-457.0 L 745.6,-446.3 L 740.2,-436.2 L 733.5,-426.9 L 725.8,-418.6 L 717.1,-411.1 L 707.7,-404.6 L 697.9,-398.8 L 687.7,-393.6 L 677.2,-389.0 L 666.6,-384.8 L 655.9,-380.9 L 645.0,-377.3 L 634.1,-374.0 L 623.1,-370.8 L 612.1,-367.7 L 601.1,-364.8 L 590.0,-361.9 L 578.9,-359.0 L 567.9,-356.2 L 556.8,-353.5 L 545.7,-350.8 L 534.5,-348.2 L 523.4,-345.6 L 512.2,-343.1 L 501.1,-340.7 L 489.9,-338.2 L 478.7,-335.8 L 467.6,-333.5 L 456.4,-331.1 L 445.2,-328.8 L 434.0,-326.6 L 422.8,-324.3 L 411.6,-322.1 L 400.4,-319.9 L 389.1,-317.7 L 377.9,-315.5 L 366.7,-313.3 L 355.5,-311.2 L 344.2,-309.1 L 333.0,-307.0" stroke="#4ECDC4" stroke-width="6" fill="none" opacity="0.85"/>
  <circle cx="333.0" cy="-0.0" r="10" fill="#4ECDC4"/>
  <circle cx="333.0" cy="-307.0" r="6" fill="#4ECDC4" opacity="0.6"/>
  <text x="351.0" y="-18.0" fill="#4ECDC4" font-size="36" font-family="monospace">2</text>
  <path d="M 333.0,-308.0 L 337.6,-304.5 L 342.3,-300.9 L 346.9,-297.4 L 351.6,-293.8 L 356.2,-290.3 L 360.8,-286.8 L 365.5,-283.2 L 370.1,-279.7 L 374.8,-276.1 L 379.4,-272.6 L 384.0,-269.1 L 388.7,-265.5 L 393.3,-262.0 L 397.9,-258.4 L 402.6,-254.9 L 407.2,-251.4 L 411.9,-247.8 L 416.5,-244.3 L 421.1,-240.7 L 425.8,-237.2 L 430.4,-233.7 L 435.1,-230.1 L 439.7,-226.6 L 444.3,-223.0 L 449.0,-219.5 L 453.6,-216.0 L 458.3,-212.4 L 462.9,-208.9 L 467.5,-205.3 L 472.2,-201.8 L 476.8,-198.3 L 481.5,-194.7 L 486.1,-191.2 L 490.7,-187.6 L 495.4,-184.1 L 500.0,-180.6 L 504.6,-177.0 L 509.3,-173.5 L 513.9,-169.9 L 518.6,-166.4 L 523.2,-162.9 L 527.9,-159.3 L 532.5,-155.8 L 537.1,-152.2 L 541.8,-148.7 L 546.4,-145.2 L 551.1,-141.6 L 555.7,-138.1 L 560.3,-134.6 L 565.0,-131.0 L 569.6,-127.5 L 574.3,-124.0 L 578.9,-120.4 L 583.5,-116.9 L 588.2,-113.3 L 592.8,-109.8 L 597.5,-106.3 L 602.1,-102.7 L 606.8,-99.2 L 611.4,-95.7 L 616.1,-92.1 L 620.7,-88.6 L 625.3,-85.1 L 630.0,-81.5 L 634.6,-78.0 L 639.3,-74.5 L 643.9,-71.0 L 648.6,-67.4 L 653.2,-63.9 L 657.9,-60.4 L 662.5,-56.9 L 667.2,-53.3 L 671.8,-49.8 L 676.5,-46.3 L 681.1,-42.8 L 685.8,-39.2 L 690.5,-35.7 L 695.1,-32.2 L 699.8,-28.7 L 704.4,-25.2 L 709.1,-21.7 L 713.8,-18.2 L 718.4,-14.7 L 723.2,-11.4 L 728.3,-8.4 L 733.6,-5.9 L 739.0,-3.9 L 744.7,-2.4 L 750.4,-1.4 L 756.2,-0.7 L 762.0,-0.3 L 767.8,-0.1 L 773.7,-0.0 L 779.5,0.0 L 785.4,0.0 L 791.2,-0.2 L 797.0,-0.9 L 802.7,-2.2 L 808.2,-4.1 L 813.5,-6.4 L 818.6,-9.3 L 823.4,-12.6 L 828.0,-16.2 L 832.2,-20.2 L 836.2,-24.5 L 840.0,-28.9 L 843.5,-33.6 L 846.8,-38.4 L 850.0,-43.3 L 853.0,-48.3 L 855.9,-53.4 L 858.6,-58.5 L 861.3,-63.7 L 864.0,-68.9 L 866.5,-74.1 L 869.1,-79.4 L 871.7,-84.6 L 874.2,-89.9 L 876.8,-95.1 L 879.4,-100.3 L 882.0,-105.6 L 884.5,-110.8 L 887.1,-116.0 L 889.7,-121.3 L 892.2,-126.5 L 894.8,-131.8 L 897.4,-137.0" stroke="#45B7D1" stroke-width="6" fill="none" opacity="0.85"/>
  <circle cx="333.0" cy="-308.0" r="10" fill="#45B7D1"/>
  <circle cx="897.4" cy="-137.0" r="6" fill="#45B7D1" opacity="0.6"/>
  <text x="351.0" y="-326.0" fill="#45B7D1" font-size="36" font-family="monospace">3</text>
</svg>