<?xml version="1.0" encoding="UTF-8"?>
<svg xmlns="http://www.w3.org/2000/svg" viewBox="-200 -1495.9680118128292 1600 2377.96801181283">
  <title>cogncur strokes for L</title>
  <line x1="-200" y1="0" x2="1400" y2="0" stroke="#2F3A56" stroke-width="4" opacity="0.55"/>
  <line x1="-200" y1="-614.0003000000003" x2="1400" y2="-614.0003000000003" stroke="#457B9D" stroke-width="3" opacity="0.5" stroke-dasharray="24 14"/>
  <line x1="-200" y1="-1295.9680118128292" x2="1400" y2="-1295.9680118128292" stroke="#2F3A56" stroke-width="4" opacity="0.45"/>
  <line x1="-200" y1="682.0000000000005" x2="1400" y2="682.0000000000005" stroke="#ADB5BD" stroke-width="2" opacity="0.35"/>
  <path d="M 240.4,-905.0 L 264.8,-883.5 L 291.8,-865.4 L 320.9,-850.8 L 351.4,-839.5 L 382.9,-831.6 L 415.2,-827.1 L 447.7,-826.0 L 480.2,-827.1 L 512.7,-829.6 L 545.0,-833.5 L 577.1,-838.7 L 609.0,-845.2 L 640.6,-852.9 L 671.9,-861.8 L 702.9,-871.9 L 733.4,-883.2 L 763.4,-895.8 L 792.9,-909.6 L 821.7,-924.8 L 849.6,-941.4 L 876.6,-959.6 L 902.4,-979.5 L 926.5,-1001.4 L 948.5,-1025.3 L 967.6,-1051.7 L 982.6,-1080.5 L 992.0,-1111.6 L 994.3,-1144.0 L 991.2,-1176.4 L 983.4,-1208.0 L 970.1,-1237.6 L 950.5,-1263.4 L 924.4,-1282.8 L 893.8,-1293.5 L 861.5,-1295.9 L 829.0,-1293.6 L 797.0,-1287.8 L 765.7,-1278.8 L 735.5,-1266.7 L 706.6,-1251.8 L 679.0,-1234.5 L 653.0,-1215.0 L 628.4,-1193.6 L 605.4,-1170.6 L 583.9,-1146.2 L 564.0,-1120.5 L 545.4,-1093.7 L 528.3,-1066.0 L 512.6,-1037.5 L 498.2,-1008.3 L 485.2,-978.5 L 473.4,-948.2 L 462.9,-917.4 L 453.7,-886.2 L 445.6,-854.6 L 438.8,-822.8 L 433.1,-790.8 L 428.6,-758.5 L 425.2,-726.2 L 423.0,-693.7 L 421.9,-661.2 L 421.8,-628.6 L 421.8,-596.1 L 421.8,-563.5 L 421.8,-531.0 L 421.8,-498.4 L 421.8,-465.9 L 421.9,-433.3 L 421.9,-400.8 L 422.0,-368.2 L 422.1,-335.7 L 422.2,-303.1 L 422.3,-270.6 L 422.3,-238.0 L 422.4,-205.5 L 422.4,-172.9 L 422.0,-140.4 L 415.9,-108.5 L 402.0,-79.2 L 380.7,-54.7 L 354.3,-35.7 L 325.0,-21.7 L 294.0,-11.8 L 262.1,-5.3 L 229.8,-1.4 L 197.3,-0.0 L 164.8,-1.9 L 132.9,-8.2 L 102.2,-18.8 L 73.5,-34.1 L 49.0,-55.3 L 34.4,-84.0 L 37.5,-116.0 L 56.1,-142.4 L 82.8,-160.9 L 112.8,-173.3 L 144.3,-181.4 L 176.5,-186.2 L 209.0,-188.6 L 241.5,-188.8 L 273.9,-185.7 L 305.9,-179.6 L 337.3,-171.0 L 368.1,-160.6 L 398.5,-148.9 L 428.4,-136.2 L 458.1,-122.9 L 487.7,-109.2 L 517.2,-95.5 L 546.8,-81.9 L 576.5,-68.6 L 606.4,-55.9 L 636.7,-43.9 L 667.3,-32.9 L 698.4,-23.1 L 729.8,-14.7 L 761.7,-8.0 L 793.8,-3.2 L 826.3,-0.5 L 858.8,-0.2 L 891.2,-3.4 L 922.7,-11.3 L 952.7,-24.0 L 980.8,-40.3 L 1007.4,-59.1 L 1032.4,-80.0 L 1055.3,-103.0" stroke="#FF6B6B" stroke-width="6" fill="none" opacity="0.85"/>
  <circle cx="240.4" cy="-905.0" r="10" fill="#FF6B6B"/>
  <circle cx="1055.3" cy="-103.0" r="6" fill="#FF6B6B" opacity="0.6"/>
  <text x="258.4" y="-923.0" fill="#FF6B6B" font-size="36" font-family="monospace">1</text>
</svg>