<?xml version="1.0" encoding="UTF-8"?>
<svg xmlns="http://www.w3.org/2000/svg" viewBox="-200 -1495.9680118128292 1600 2377.96801181283">
  <title>cogncur strokes for n</title>
  <line x1="-200" y1="0" x2="1400" y2="0" stroke="#2F3A56" stroke-width="4" opacity="0.55"/>
  <line x1="-200" y1="-614.0003000000003" x2="1400" y2="-614.0003000000003" stroke="#457B9D" stroke-width="3" opacity="0.5" stroke-dasharray="24 14"/>
  <line x1="-200" y1="-1295.9680118128292" x2="1400" y2="-1295.9680118128292" stroke="#2F3A56" stroke-width="4" opacity="0.45"/>
  <line x1="-200" y1="682.0000000000005" x2="1400" y2="682.0000000000005" stroke="#ADB5BD" stroke-width="2" opacity="0.35"/>
  <path d="M 35.4,-0.0 L 40.1,-9.7 L 44.9,-19.4 L 49.7,-29.1 L 54.4,-38.8 L 59.2,-48.5 L 63.9,-58.2 L 68.7,-67.9 L 73.5,-77.5 L 78.2,-87.2 L 83.0,-96.9 L 87.7,-106.6 L 92.5,-116.3 L 97.2,-126.0 L 102.0,-135.7 L 106.8,-145.4 L 111.5,-155.1 L 116.3,-164.8 L 121.0,-174.5 L 125.8,-184.2 L 130.5,-193.9 L 135.3,-203.6 L 140.1,-213.3 L 144.8,-222.9 L 149.6,-232.6 L 154.3,-242.3 L 159.1,-252.0 L 163.9,-261.7 L 168.6,-271.4 L 173.4,-281.1 L 178.1,-290.8 L 182.9,-300.5 L 187.6,-310.2 L 192.4,-319.9 L 197.2,-329.6 L 201.9,-339.3 L 206.7,-349.0 L 211.4,-358.7 L 216.2,-368.4 L 220.9,-378.0 L 225.7,-387.7 L 230.5,-397.4 L 235.2,-407.1 L 240.0,-416.8 L 244.7,-426.5 L 249.5,-436.2 L 254.3,-445.9 L 259.0,-455.6 L 263.8,-465.3 L 268.5,-475.0 L 273.3,-484.7 L 278.0,-494.4 L 282.8,-504.1 L 287.6,-513.8 L 292.3,-523.4 L 297.1,-533.1 L 301.8,-542.8 L 306.7,-552.5 L 311.7,-562.1 L 317.0,-571.5 L 322.7,-580.6 L 329.2,-589.2 L 336.6,-597.1 L 344.9,-603.9 L 354.4,-609.1 L 364.6,-612.5 L 375.3,-613.9 L 386.1,-613.7 L 396.8,-612.1 L 407.1,-609.0 L 416.8,-604.2 L 425.4,-597.8 L 432.7,-589.9 L 438.7,-580.9 L 443.4,-571.2 L 446.9,-561.0 L 449.5,-550.5 L 451.3,-539.8 L 452.4,-529.1 L 452.9,-518.3 L 453.1,-507.5 L 453.2,-496.7 L 453.3,-485.9 L 453.3,-475.1 L 453.4,-464.3 L 453.4,-453.5 L 453.4,-442.7 L 453.4,-431.9 L 453.4,-421.1 L 453.4,-410.3 L 453.4,-399.5 L 453.4,-388.7 L 453.4,-377.9 L 453.4,-367.1 L 453.4,-356.3 L 453.4,-345.5 L 453.4,-334.7 L 453.4,-323.9 L 453.4,-313.1 L 453.4,-302.4 L 453.4,-291.6 L 453.4,-280.8 L 453.4,-270.0 L 453.4,-259.2 L 453.4,-248.4 L 453.4,-237.6 L 453.3,-226.8 L 453.3,-216.0 L 453.3,-205.2 L 453.3,-194.4 L 453.3,-183.6 L 453.3,-172.8 L 453.3,-162.0 L 453.2,-151.2 L 453.2,-140.4 L 453.2,-129.6 L 453.2,-118.8 L 453.2,-108.0 L 453.2,-97.2 L 453.2,-86.4 L 453.1,-75.6 L 453.1,-64.8 L 453.1,-54.0 L 453.1,-43.2 L 453.1,-32.4 L 453.0,-21.6 L 453.0,-10.8 L 453.0,-0.0" stroke="#FF6B6B" stroke-width="6" fill="none" opacity="0.85"/>
  <circle cx="35.4" cy="-0.0" r="10" fill="#FF6B6B"/>
  <circle cx="453.0" cy="-0.0" r="6" fill="#FF6B6B" opacity="0.6"/>
  <text x="53.4" y="-18.0" fill="#FF6B6B" font-size="36" font-family="monospace">1</text>
  <path d="M 453.0,-0.0 L 453.0,-13.2 L 453.0,-26.4 L 453.0,-39.6 L 453.0,-52.9 L 453.0,-66.1 L 453.0,-79.3 L 453.0,-92.5 L 453.0,-105.7 L 453.0,-118.9 L 453.0,-132.1 L 453.0,-145.4 L 453.0,-158.6 L 453.0,-171.8 L 453.0,-185.0 L 453.0,-198.2 L 453.0,-211.4 L 453.0,-224.6 L 453.0,-237.9 L 453.0,-251.1 L 453.0,-264.3 L 453.0,-277.5 L 453.0,-290.7 L 453.0,-303.9 L 453.4,-317.1 L 455.0,-330.2 L 457.6,-343.2 L 461.0,-356.0 L 465.2,-368.5 L 469.9,-380.8 L 475.2,-392.9 L 480.9,-404.9 L 486.9,-416.6 L 493.3,-428.2 L 499.9,-439.6 L 506.9,-450.9 L 514.1,-461.9 L 521.7,-472.7 L 529.5,-483.4 L 537.6,-493.8 L 546.0,-504.1 L 554.7,-514.0 L 563.7,-523.7 L 573.1,-533.0 L 582.8,-541.9 L 592.8,-550.5 L 603.2,-558.7 L 613.8,-566.6 L 624.7,-574.1 L 635.8,-581.2 L 647.2,-587.9 L 659.0,-593.9 L 671.0,-599.4 L 683.3,-604.1 L 696.0,-608.0 L 708.8,-611.0 L 721.9,-613.0 L 735.1,-613.9 L 748.3,-613.8 L 761.4,-612.6 L 774.5,-610.3 L 787.2,-606.8 L 799.4,-601.9 L 811.1,-595.7 L 822.0,-588.2 L 832.0,-579.6 L 841.1,-570.0 L 849.2,-559.6 L 856.3,-548.4 L 862.2,-536.6 L 866.9,-524.3 L 870.4,-511.5 L 872.6,-498.5 L 873.8,-485.3 L 874.0,-472.1 L 874.0,-458.9 L 874.0,-445.7 L 874.0,-432.5 L 874.0,-419.3 L 874.0,-406.1 L 874.0,-392.8 L 874.0,-379.6 L 874.0,-366.4 L 874.0,-353.2 L 874.0,-340.0 L 874.0,-326.8 L 874.0,-313.6 L 874.0,-300.3 L 874.0,-287.1 L 874.0,-273.9 L 874.0,-260.7 L 874.0,-247.5 L 874.0,-234.3 L 874.0,-221.1 L 874.0,-207.8 L 874.0,-194.6 L 874.0,-181.4 L 874.0,-168.2 L 874.0,-155.0 L 874.0,-141.8 L 874.0,-128.6 L 874.0,-115.4 L 874.0,-102.1 L 874.4,-88.9 L 875.5,-75.8 L 877.6,-62.7 L 880.9,-49.9 L 885.7,-37.6 L 892.4,-26.2 L 901.1,-16.4 L 911.8,-8.7 L 924.0,-3.5 L 936.9,-0.7 L 950.0,-0.0 L 963.1,-1.8 L 975.6,-6.1 L 987.0,-12.7 L 996.7,-21.6 L 1004.8,-32.1 L 1012.5,-42.8 L 1019.3,-54.1 L 1025.4,-65.8 L 1031.3,-77.7 L 1037.1,-89.6 L 1042.9,-101.4 L 1048.7,-113.3 L 1054.6,-125.1 L 1060.4,-137.0" stroke="#4ECDC4" stroke-width="6" fill="none" opacity="0.85"/>
  <circle cx="453.0" cy="-0.0" r="10" fill="#4ECDC4"/>
  <circle cx="1060.4" cy="-137.0" r="6" fill="#4ECDC4" opacity="0.6"/>
  <text x="471.0" y="-18.0" fill="#4ECDC4" font-size="36" font-family="monospace">2</text>
</svg>