<?xml version="1.0" encoding="UTF-8"?>
<svg xmlns="http://www.w3.org/2000/svg" viewBox="-200 -1495.9680118128292 1600 2377.96801181283">
  <title>cogncur strokes for O</title>
  <line x1="-200" y1="0" x2="1400" y2="0" stroke="#2F3A56" stroke-width="4" opacity="0.55"/>
  <line x1="-200" y1="-614.0003000000003" x2="1400" y2="-614.0003000000003" stroke="#457B9D" stroke-width="3" opacity="0.5" stroke-dasharray="24 14"/>
  <line x1="-200" y1="-1295.9680118128292" x2="1400" y2="-1295.9680118128292" stroke="#2F3A56" stroke-width="4" opacity="0.45"/>
  <line x1="-200" y1="682.0000000000005" x2="1400" y2="682.0000000000005" stroke="#ADB5BD" stroke-width="2" opacity="0.35"/>
  <path d="M 600.2,-1271.9 L 567.4,-1283.0 L 533.7,-1291.0 L 499.4,-1295.3 L 464.9,-1295.6 L 430.5,-1292.0 L 396.7,-1284.5 L 364.0,-1273.4 L 332.5,-1259.1 L 302.6,-1241.8 L 274.3,-1221.9 L 247.7,-1199.7 L 222.8,-1175.7 L 199.7,-1150.0 L 178.3,-1122.8 L 158.5,-1094.4 L 140.3,-1065.0 L 123.7,-1034.7 L 108.6,-1003.5 L 95.0,-971.7 L 82.9,-939.3 L 72.2,-906.5 L 62.8,-873.2 L 54.8,-839.5 L 48.2,-805.5 L 42.8,-771.4 L 38.8,-737.0 L 36.1,-702.5 L 34.7,-668.0 L 34.5,-633.4 L 35.5,-598.8 L 37.9,-564.3 L 41.5,-529.9 L 46.5,-495.6 L 52.8,-461.6 L 60.4,-427.9 L 69.4,-394.5 L 79.8,-361.5 L 91.7,-329.0 L 104.9,-297.1 L 119.7,-265.8 L 136.0,-235.3 L 153.9,-205.7 L 173.4,-177.1 L 194.6,-149.8 L 217.5,-123.8 L 242.1,-99.5 L 268.4,-77.1 L 296.4,-56.8 L 326.1,-39.1 L 357.4,-24.2 L 389.9,-12.6 L 423.5,-4.5 L 457.8,-0.1 L 492.4,0.5 L 526.8,-2.9 L 560.6,-10.0 L 593.5,-20.7 L 625.1,-34.8 L 655.2,-51.8 L 683.7,-71.4 L 710.5,-93.3 L 735.5,-117.2 L 758.8,-142.8 L 780.4,-169.8 L 800.4,-198.0 L 818.7,-227.4 L 835.4,-257.6 L 850.6,-288.7 L 864.3,-320.5 L 876.6,-352.8 L 887.4,-385.7 L 896.8,-419.0 L 904.9,-452.6 L 911.6,-486.5 L 917.0,-520.7 L 921.1,-555.1 L 923.8,-589.5 L 925.3,-624.1 L 925.5,-658.7 L 924.5,-693.3 L 922.2,-727.8 L 918.6,-762.2 L 913.7,-796.4 L 907.5,-830.5 L 900.0,-864.2 L 891.1,-897.6 L 880.8,-930.7 L 869.1,-963.2 L 855.9,-995.2 L 841.3,-1026.6 L 825.2,-1057.2 L 807.5,-1086.9 L 788.2,-1115.6 L 767.3,-1143.1 L 744.6,-1169.3 L 720.3,-1193.9 L 694.2,-1216.6 L 666.4,-1237.2 L 636.9,-1255.3 L 605.7,-1270.0 L 572.2,-1278.3 L 537.7,-1277.4 L 505.6,-1265.0 L 479.6,-1242.4 L 461.4,-1213.2 L 450.9,-1180.3 L 448.1,-1145.9 L 454.5,-1112.0 L 468.9,-1080.6 L 489.5,-1052.9 L 514.7,-1029.3 L 543.6,-1010.3 L 575.4,-996.9 L 609.2,-989.8 L 643.8,-989.5 L 678.2,-992.7 L 712.3,-998.7 L 745.8,-1007.3 L 778.7,-1018.1 L 810.8,-1030.9 L 842.2,-1045.5 L 872.7,-1061.7 L 902.5,-1079.2 L 931.6,-1098.0 L 959.8,-1118.0 L 987.3,-1139.0 L 1014.0,-1161.0" stroke="#FF6B6B" stroke-width="6" fill="none" opacity="0.85"/>
  <circle cx="600.2" cy="-1271.9" r="10" fill="#FF6B6B"/>
  <circle cx="1014.0" cy="-1161.0" r="6" fill="#FF6B6B" opacity="0.6"/>
  <text x="618.2" y="-1289.9" fill="#FF6B6B" font-size="36" font-family="monospace">1</text>
</svg>