<?xml version="1.0" encoding="UTF-8"?>
<svg xmlns="http://www.w3.org/2000/svg" viewBox="-200 -1495.9680118128292 1600 2377.96801181283">
  <title>cogncur strokes for r</title>
  <line x1="-200" y1="0" x2="1400" y2="0" stroke="#2F3A56" stroke-width="4" opacity="0.55"/>
  <line x1="-200" y1="-614.0003000000003" x2="1400" y2="-614.0003000000003" stroke="#457B9D" stroke-width="3" opacity="0.5" stroke-dasharray="24 14"/>
  <line x1="-200" y1="-1295.9680118128292" x2="1400" y2="-1295.9680118128292" stroke="#2F3A56" stroke-width="4" opacity="0.45"/>
  <line x1="-200" y1="682.0000000000005" x2="1400" y2="682.0000000000005" stroke="#ADB5BD" stroke-width="2" opacity="0.35"/>
  <path d="M 35.4,-0.0 L 39.0,-7.4 L 42.6,-14.7 L 46.2,-22.1 L 49.8,-29.4 L 53.4,-36.8 L 57.0,-44.1 L 60.6,-51.5 L 64.3,-58.8 L 67.9,-66.2 L 71.5,-73.5 L 75.1,-80.9 L 78.7,-88.2 L 82.3,-95.6 L 85.9,-102.9 L 89.5,-110.3 L 93.1,-117.6 L 96.7,-125.0 L 100.3,-132.3 L 104.0,-139.7 L 107.6,-147.0 L 111.2,-154.4 L 114.8,-161.8 L 118.4,-169.1 L 122.0,-176.5 L 125.6,-183.8 L 129.2,-191.2 L 132.8,-198.5 L 136.4,-205.9 L 140.0,-213.2 L 143.7,-220.6 L 147.3,-227.9 L 150.9,-235.3 L 154.5,-242.6 L 158.1,-250.0 L 161.7,-257.3 L 165.3,-264.7 L 168.9,-272.0 L 172.5,-279.4 L 176.1,-286.7 L 179.7,-294.1 L 183.4,-301.4 L 187.0,-308.8 L 190.6,-316.2 L 194.2,-323.5 L 197.8,-330.9 L 201.4,-338.2 L 205.0,-345.6 L 208.6,-352.9 L 212.2,-360.3 L 215.8,-367.6 L 219.4,-375.0 L 223.1,-382.3 L 226.7,-389.7 L 230.3,-397.0 L 233.9,-404.4 L 237.5,-411.7 L 241.1,-419.1 L 244.7,-426.4 L 248.3,-433.8 L 251.9,-441.1 L 255.5,-448.5 L 259.1,-455.8 L 262.7,-463.2 L 266.4,-470.6 L 270.0,-477.9 L 273.6,-485.3 L 277.2,-492.6 L 280.8,-500.0 L 284.4,-507.3 L 288.0,-514.7 L 291.6,-522.0 L 295.2,-529.4 L 298.8,-536.7 L 302.4,-544.1 L 306.1,-551.4 L 309.9,-558.7 L 313.7,-565.9 L 317.7,-573.1 L 322.0,-580.0 L 326.7,-586.7 L 332.0,-593.0 L 337.7,-598.8 L 344.2,-603.9 L 351.2,-608.1 L 358.8,-611.2 L 366.7,-613.1 L 374.9,-614.0 L 383.0,-613.8 L 391.2,-612.9 L 399.2,-611.2 L 407.0,-608.7 L 414.5,-605.5 L 421.7,-601.6 L 428.6,-597.2 L 435.3,-592.4 L 441.8,-587.4 L 448.2,-582.3 L 454.6,-577.3 L 461.2,-572.4 L 468.1,-567.9 L 475.1,-563.6 L 482.1,-559.5 L 489.4,-555.8 L 496.9,-552.5 L 504.7,-549.9 L 512.7,-548.1 L 520.8,-547.0 L 528.9,-546.3 L 537.1,-546.1 L 545.3,-546.0 L 553.5,-546.6 L 561.6,-547.9 L 569.5,-549.9 L 577.3,-552.5 L 584.8,-555.6 L 592.2,-559.2 L 599.5,-563.0 L 606.5,-567.2 L 613.4,-571.6 L 620.1,-576.3 L 626.7,-581.2 L 633.1,-586.2 L 639.4,-591.5 L 645.6,-596.9 L 651.6,-602.4 L 657.5,-608.1 L 663.2,-614.0" stroke="#FF6B6B" stroke-width="6" fill="none" opacity="0.85"/>
  <circle cx="35.4" cy="-0.0" r="10" fill="#FF6B6B"/>
  <circle cx="663.2" cy="-614.0" r="6" fill="#FF6B6B" opacity="0.6"/>
  <text x="53.4" y="-18.0" fill="#FF6B6B" font-size="36" font-family="monospace">1</text>
  <path d="M 662.0,-614.0 L 662.0,-607.4 L 662.0,-600.8 L 662.0,-594.2 L 662.0,-587.6 L 662.0,-581.0 L 662.0,-574.4 L 662.0,-567.8 L 662.0,-561.2 L 662.0,-554.6 L 662.0,-548.0 L 662.0,-541.3 L 662.0,-534.7 L 662.0,-528.1 L 662.0,-521.5 L 662.0,-514.9 L 662.0,-508.3 L 662.0,-501.7 L 662.0,-495.1 L 662.0,-488.5 L 662.0,-481.9 L 662.0,-475.3 L 662.0,-468.7 L 662.0,-462.1 L 662.0,-455.5 L 662.0,-448.9 L 662.0,-442.3 L 662.0,-435.7 L 662.0,-429.1 L 662.0,-422.5 L 662.0,-415.9 L 662.0,-409.2 L 662.0,-402.6 L 662.0,-396.0 L 662.0,-389.4 L 662.0,-382.8 L 662.0,-376.2 L 662.0,-369.6 L 662.0,-363.0 L 662.0,-356.4 L 662.0,-349.8 L 662.0,-343.2 L 662.0,-336.6 L 662.0,-330.0 L 662.0,-323.4 L 662.0,-316.8 L 662.0,-310.2 L 662.0,-303.6 L 662.0,-297.0 L 662.0,-290.4 L 662.0,-283.8 L 662.0,-277.1 L 662.0,-270.5 L 662.0,-263.9 L 662.0,-257.3 L 662.0,-250.7 L 662.0,-244.1 L 662.0,-237.5 L 662.0,-230.9 L 662.0,-224.3 L 662.0,-217.7 L 662.0,-211.1 L 662.0,-204.5 L 662.0,-197.9 L 662.0,-191.3 L 662.0,-184.7 L 662.0,-178.1 L 662.0,-171.5 L 662.0,-164.9 L 662.0,-158.3 L 662.0,-151.7 L 662.0,-145.0 L 662.0,-138.4 L 662.0,-131.8 L 662.0,-125.2 L 662.0,-118.6 L 662.0,-112.0 L 662.0,-105.4 L 662.0,-98.8 L 662.2,-92.2 L 662.6,-85.6 L 663.1,-79.0 L 663.9,-72.5 L 664.9,-65.9 L 666.1,-59.5 L 667.7,-53.1 L 669.7,-46.7 L 672.0,-40.6 L 674.7,-34.6 L 678.0,-28.8 L 681.7,-23.4 L 686.0,-18.4 L 690.9,-13.9 L 696.2,-10.0 L 701.9,-6.7 L 708.0,-4.1 L 714.3,-2.2 L 720.8,-1.0 L 727.4,-0.2 L 734.0,0.0 L 740.6,-0.3 L 747.1,-1.2 L 753.5,-2.8 L 759.7,-5.2 L 765.5,-8.3 L 770.9,-12.0 L 775.9,-16.4 L 780.4,-21.2 L 784.5,-26.4 L 788.4,-31.7 L 792.3,-37.1 L 795.9,-42.6 L 799.2,-48.3 L 802.4,-54.1 L 805.4,-60.0 L 808.4,-65.9 L 811.4,-71.8 L 814.3,-77.7 L 817.2,-83.6 L 820.1,-89.6 L 823.0,-95.5 L 825.9,-101.4 L 828.8,-107.4 L 831.7,-113.3 L 834.6,-119.2 L 837.6,-125.1 L 840.5,-131.1 L 843.4,-137.0" stroke="#4ECDC4" stroke-width="6" fill="none" opacity="0.85"/>
  <circle cx="662.0" cy="-614.0" r="10" fill="#4ECDC4"/>
  <circle cx="843.4" cy="-137.0" r="6" fill="#4ECDC4" opacity="0.6"/>
  <text x="680.0" y="-632.0" fill="#4ECDC4" font-size="36" font-family="monospace">2</text>
</svg>