<?xml version="1.0" encoding="UTF-8"?>
<svg xmlns="http://www.w3.org/2000/svg" viewBox="-200 -1495.9680118128292 1600 2377.96801181283">
  <title>cogncur strokes for S</title>
  <line x1="-200" y1="0" x2="1400" y2="0" stroke="#2F3A56" stroke-width="4" opacity="0.55"/>
  <line x1="-200" y1="-614.0003000000003" x2="1400" y2="-614.0003000000003" stroke="#457B9D" stroke-width="3" opacity="0.5" stroke-dasharray="24 14"/>
  <line x1="-200" y1="-1295.9680118128292" x2="1400" y2="-1295.9680118128292" stroke="#2F3A56" stroke-width="4" opacity="0.45"/>
  <line x1="-200" y1="682.0000000000005" x2="1400" y2="682.0000000000005" stroke="#ADB5BD" stroke-width="2" opacity="0.35"/>
  <path d="M 614.4,-1223.9 L 599.1,-1235.7 L 583.1,-1246.4 L 566.4,-1256.2 L 549.2,-1264.9 L 531.5,-1272.6 L 513.3,-1279.1 L 494.8,-1284.6 L 476.0,-1289.0 L 457.0,-1292.4 L 437.8,-1294.7 L 418.5,-1296.0 L 399.2,-1296.2 L 379.9,-1295.5 L 360.7,-1293.7 L 341.6,-1290.8 L 322.7,-1286.9 L 304.0,-1281.9 L 285.7,-1275.8 L 267.7,-1268.7 L 250.2,-1260.6 L 233.2,-1251.5 L 216.8,-1241.4 L 201.0,-1230.3 L 185.8,-1218.3 L 171.4,-1205.4 L 157.8,-1191.7 L 145.0,-1177.3 L 133.1,-1162.1 L 121.9,-1146.3 L 111.6,-1130.0 L 102.2,-1113.2 L 93.6,-1095.8 L 86.1,-1078.0 L 79.7,-1059.8 L 74.5,-1041.2 L 70.5,-1022.3 L 67.8,-1003.2 L 66.5,-984.0 L 66.7,-964.6 L 68.4,-945.4 L 71.9,-926.4 L 77.1,-907.8 L 83.9,-889.8 L 92.2,-872.3 L 101.9,-855.6 L 112.8,-839.7 L 124.7,-824.5 L 137.6,-810.1 L 151.2,-796.4 L 165.5,-783.5 L 180.4,-771.2 L 195.8,-759.5 L 211.6,-748.4 L 227.8,-737.9 L 244.3,-727.8 L 261.1,-718.2 L 278.0,-709.0 L 295.2,-700.1 L 312.5,-691.5 L 329.8,-682.9 L 346.9,-674.0 L 364.2,-665.5 L 381.6,-657.0 L 398.8,-648.3 L 415.9,-639.3 L 432.8,-630.0 L 449.5,-620.3 L 465.9,-610.1 L 482.0,-599.5 L 497.8,-588.3 L 513.2,-576.6 L 528.1,-564.4 L 542.5,-551.5 L 556.3,-538.0 L 569.4,-523.8 L 581.7,-508.9 L 593.1,-493.3 L 603.4,-477.0 L 612.6,-460.0 L 620.4,-442.4 L 626.9,-424.2 L 631.9,-405.5 L 635.3,-386.5 L 637.2,-367.3 L 637.5,-348.0 L 636.5,-328.7 L 634.3,-309.5 L 630.8,-290.5 L 626.2,-271.8 L 620.4,-253.3 L 613.7,-235.3 L 605.9,-217.6 L 597.3,-200.3 L 587.8,-183.5 L 577.5,-167.2 L 566.4,-151.3 L 554.7,-136.0 L 542.2,-121.3 L 528.9,-107.3 L 514.9,-94.0 L 500.2,-81.4 L 484.9,-69.7 L 468.9,-58.8 L 452.5,-48.7 L 435.5,-39.6 L 418.0,-31.3 L 400.1,-24.0 L 381.9,-17.6 L 363.4,-12.2 L 344.6,-7.8 L 325.6,-4.4 L 306.4,-1.9 L 287.1,-0.4 L 267.8,0.1 L 248.5,-0.3 L 229.3,-1.7 L 210.1,-4.0 L 191.1,-7.3 L 172.3,-11.6 L 153.7,-16.9 L 135.4,-23.1 L 117.5,-30.4 L 100.0,-38.5 L 83.0,-47.7 L 66.5,-57.7 L 50.6,-68.7 L 35.3,-80.5" stroke="#FF6B6B" stroke-width="6" fill="none" opacity="0.85"/>
  <circle cx="614.4" cy="-1223.9" r="10" fill="#FF6B6B"/>
  <circle cx="35.3" cy="-80.5" r="6" fill="#FF6B6B" opacity="0.6"/>
  <text x="632.4" y="-1241.9" fill="#FF6B6B" font-size="36" font-family="monospace">1</text>
</svg>