<?xml version="1.0" encoding="UTF-8"?>
<svg xmlns="http://www.w3.org/2000/svg" viewBox="-200 -1495.9680118128292 1600 2377.96801181283">
  <title>cogncur strokes for U</title>
  <line x1="-200" y1="0" x2="1400" y2="0" stroke="#2F3A56" stroke-width="4" opacity="0.55"/>
  <line x1="-200" y1="-614.0003000000003" x2="1400" y2="-614.0003000000003" stroke="#457B9D" stroke-width="3" opacity="0.5" stroke-dasharray="24 14"/>
  <line x1="-200" y1="-1295.9680118128292" x2="1400" y2="-1295.9680118128292" stroke="#2F3A56" stroke-width="4" opacity="0.45"/>
  <line x1="-200" y1="682.0000000000005" x2="1400" y2="682.0000000000005" stroke="#ADB5BD" stroke-width="2" opacity="0.35"/>
  <path d="M 34.0,-1296.2 L 34.0,-1272.5 L 34.0,-1248.9 L 34.0,-1225.2 L 34.0,-1201.6 L 34.0,-1177.9 L 34.0,-1154.2 L 34.0,-1130.6 L 34.0,-1106.9 L 34.0,-1083.3 L 34.0,-1059.6 L 34.0,-1035.9 L 34.0,-1012.3 L 34.0,-988.6 L 34.0,-965.0 L 34.0,-941.3 L 34.0,-917.6 L 34.0,-894.0 L 34.0,-870.3 L 34.0,-846.7 L 34.0,-823.0 L 34.0,-799.3 L 34.0,-775.7 L 34.0,-752.0 L 34.0,-728.4 L 34.0,-704.7 L 34.0,-681.0 L 34.0,-657.4 L 34.0,-633.7 L 34.0,-610.0 L 34.0,-586.4 L 34.0,-562.7 L 34.0,-539.1 L 34.0,-515.4 L 34.0,-491.7 L 34.0,-468.1 L 34.0,-444.4 L 34.0,-420.8 L 34.0,-397.1 L 34.0,-373.4 L 34.0,-349.8 L 34.0,-326.1 L 34.0,-302.5 L 34.1,-278.8 L 35.7,-255.2 L 38.8,-231.8 L 43.8,-208.6 L 50.4,-185.9 L 58.8,-163.8 L 69.0,-142.5 L 81.0,-122.1 L 94.7,-102.8 L 110.1,-84.8 L 127.0,-68.3 L 145.4,-53.4 L 165.0,-40.2 L 185.8,-28.9 L 207.5,-19.4 L 229.9,-11.9 L 252.9,-6.3 L 276.2,-2.5 L 299.8,-0.4 L 323.4,-0.0 L 347.1,-1.0 L 370.6,-3.2 L 394.0,-6.6 L 417.2,-11.3 L 440.2,-17.1 L 462.7,-24.2 L 484.9,-32.5 L 506.6,-42.0 L 527.7,-52.5 L 548.3,-64.2 L 568.3,-76.9 L 587.6,-90.6 L 606.1,-105.3 L 623.8,-121.0 L 640.7,-137.6 L 656.6,-155.1 L 671.5,-173.4 L 685.3,-192.7 L 697.7,-212.8 L 708.6,-233.8 L 717.6,-255.7 L 724.2,-278.4 L 727.4,-301.8 L 727.6,-325.4 L 727.6,-349.1 L 727.6,-372.8 L 727.6,-396.4 L 727.6,-420.1 L 727.6,-443.8 L 727.7,-467.4 L 727.7,-491.1 L 727.7,-514.7 L 727.7,-538.4 L 727.7,-562.1 L 727.8,-585.7 L 727.8,-609.4 L 727.8,-633.0 L 727.8,-656.7 L 727.8,-680.4 L 727.8,-704.0 L 727.9,-727.7 L 727.9,-751.3 L 727.9,-775.0 L 727.9,-798.7 L 727.9,-822.3 L 728.0,-846.0 L 728.0,-869.6 L 728.0,-893.3 L 728.0,-917.0 L 728.0,-940.6 L 728.0,-964.3 L 728.1,-988.0 L 728.1,-1011.6 L 728.1,-1035.3 L 728.1,-1058.9 L 728.1,-1082.6 L 728.2,-1106.3 L 728.2,-1129.9 L 728.2,-1153.6 L 728.2,-1177.2 L 728.2,-1200.9 L 728.2,-1224.6 L 728.3,-1248.2 L 728.3,-1271.9 L 728.3,-1295.5" stroke="#FF6B6B" stroke-width="6" fill="none" opacity="0.85"/>
  <circle cx="34.0" cy="-1296.2" r="10" fill="#FF6B6B"/>
  <circle cx="728.3" cy="-1295.5" r="6" fill="#FF6B6B" opacity="0.6"/>
  <text x="52.0" y="-1314.2" fill="#FF6B6B" font-size="36" font-family="monospace">1</text>
  <path d="M 728.3,-1295.5 L 728.4,-1283.6 L 728.4,-1271.6 L 728.5,-1259.6 L 728.5,-1247.6 L 728.6,-1235.6 L 728.6,-1223.6 L 728.6,-1211.7 L 728.7,-1199.7 L 728.7,-1187.7 L 728.8,-1175.7 L 728.8,-1163.7 L 728.9,-1151.7 L 728.9,-1139.8 L 728.9,-1127.8 L 729.0,-1115.8 L 729.0,-1103.8 L 729.0,-1091.8 L 729.1,-1079.9 L 729.1,-1067.9 L 729.1,-1055.9 L 729.2,-1043.9 L 729.2,-1031.9 L 729.2,-1019.9 L 729.3,-1008.0 L 729.3,-996.0 L 729.3,-984.0 L 729.3,-972.0 L 729.4,-960.0 L 729.4,-948.0 L 729.4,-936.1 L 729.4,-924.1 L 729.5,-912.1 L 729.5,-900.1 L 729.5,-888.1 L 729.5,-876.1 L 729.5,-864.2 L 729.6,-852.2 L 729.6,-840.2 L 729.6,-828.2 L 729.6,-816.2 L 729.6,-804.3 L 729.6,-792.3 L 729.6,-780.3 L 729.6,-768.3 L 729.6,-756.3 L 729.7,-744.3 L 729.7,-732.4 L 729.7,-720.4 L 729.7,-708.4 L 729.7,-696.4 L 729.7,-684.4 L 729.7,-672.4 L 729.7,-660.5 L 729.7,-648.5 L 729.7,-636.5 L 729.7,-624.5 L 729.7,-612.5 L 729.6,-600.5 L 729.6,-588.6 L 729.6,-576.6 L 729.6,-564.6 L 729.6,-552.6 L 729.6,-540.6 L 729.6,-528.7 L 729.5,-516.7 L 729.5,-504.7 L 729.5,-492.7 L 729.5,-480.7 L 729.5,-468.7 L 729.4,-456.8 L 729.4,-444.8 L 729.4,-432.8 L 729.3,-420.8 L 729.3,-408.8 L 729.3,-396.8 L 729.2,-384.9 L 729.2,-372.9 L 729.1,-360.9 L 729.1,-348.9 L 729.0,-336.9 L 729.0,-324.9 L 728.9,-313.0 L 728.9,-301.0 L 728.8,-289.0 L 728.8,-277.0 L 728.7,-265.0 L 728.6,-253.1 L 728.6,-241.1 L 728.5,-229.1 L 728.4,-217.1 L 728.3,-205.1 L 728.2,-193.1 L 728.2,-181.2 L 728.1,-169.2 L 728.0,-157.2 L 727.9,-145.2 L 727.8,-133.2 L 727.6,-121.2 L 727.5,-109.3 L 727.5,-97.3 L 727.9,-85.3 L 729.2,-73.4 L 731.2,-61.6 L 734.3,-50.0 L 738.6,-38.9 L 744.4,-28.4 L 751.9,-19.0 L 761.0,-11.3 L 771.5,-5.5 L 782.9,-1.9 L 794.7,-0.2 L 806.7,-0.2 L 818.5,-2.5 L 829.5,-7.0 L 839.5,-13.6 L 848.3,-21.7 L 856.0,-30.9 L 862.8,-40.8 L 868.8,-51.1 L 874.4,-61.7 L 879.7,-72.5 L 885.0,-83.2 L 890.3,-94.0 L 895.5,-104.7 L 900.8,-115.5 L 906.1,-126.2 L 911.4,-137.0" stroke="#4ECDC4" stroke-width="6" fill="none" opacity="0.85"/>
  <circle cx="728.3" cy="-1295.5" r="10" fill="#4ECDC4"/>
  <circle cx="911.4" cy="-137.0" r="6" fill="#4ECDC4" opacity="0.6"/>
  <text x="746.3" y="-1313.5" fill="#4ECDC4" font-size="36" font-family="monospace">2</text>
</svg>