<?xml version="1.0" encoding="UTF-8"?>
<svg xmlns="http://www.w3.org/2000/svg" viewBox="-200 -1495.9680118128292 1600 2377.96801181283">
  <title>cogncur strokes for v</title>
  <line x1="-200" y1="0" x2="1400" y2="0" stroke="#2F3A56" stroke-width="4" opacity="0.55"/>
  <line x1="-200" y1="-614.0003000000003" x2="1400" y2="-614.0003000000003" stroke="#457B9D" stroke-width="3" opacity="0.5" stroke-dasharray="24 14"/>
  <line x1="-200" y1="-1295.9680118128292" x2="1400" y2="-1295.9680118128292" stroke="#2F3A56" stroke-width="4" opacity="0.45"/>
  <line x1="-200" y1="682.0000000000005" x2="1400" y2="682.0000000000005" stroke="#ADB5BD" stroke-width="2" opacity="0.35"/>
  <path d="M 35.4,-0.0 L 43.1,-15.6 L 50.7,-31.2 L 58.4,-46.9 L 66.1,-62.5 L 73.7,-78.1 L 81.4,-93.7 L 89.1,-109.3 L 96.7,-125.0 L 104.4,-140.6 L 112.1,-156.2 L 119.7,-171.8 L 127.4,-187.5 L 135.1,-203.1 L 142.7,-218.7 L 150.4,-234.3 L 158.1,-249.9 L 165.7,-265.6 L 173.4,-281.2 L 181.1,-296.8 L 188.7,-312.4 L 196.4,-328.0 L 204.1,-343.7 L 211.7,-359.3 L 219.4,-374.9 L 227.1,-390.5 L 234.7,-406.1 L 242.4,-421.8 L 250.1,-437.4 L 257.7,-453.0 L 265.4,-468.6 L 273.1,-484.3 L 280.7,-499.9 L 288.4,-515.5 L 296.1,-531.1 L 303.8,-546.7 L 311.8,-562.2 L 320.5,-577.2 L 330.9,-591.2 L 343.6,-603.0 L 359.0,-610.9 L 376.1,-614.0 L 393.4,-612.8 L 410.0,-607.8 L 424.6,-598.5 L 436.0,-585.3 L 443.9,-569.9 L 448.9,-553.2 L 451.7,-536.1 L 452.9,-518.7 L 453.2,-501.3 L 453.3,-483.9 L 453.4,-466.5 L 453.4,-449.1 L 453.4,-431.7 L 453.4,-414.3 L 453.4,-396.9 L 453.4,-379.5 L 453.4,-362.1 L 453.4,-344.7 L 453.4,-327.3 L 453.4,-309.9 L 453.3,-292.5 L 453.3,-275.1 L 453.3,-257.7 L 453.2,-240.3 L 453.2,-222.9 L 453.2,-205.5 L 453.1,-188.1 L 453.1,-170.7 L 453.0,-153.3 L 453.0,-135.9 L 454.1,-118.5 L 457.0,-101.4 L 462.0,-84.7 L 469.0,-68.8 L 478.0,-53.9 L 488.9,-40.4 L 501.6,-28.5 L 515.9,-18.6 L 531.4,-10.8 L 547.8,-5.1 L 564.9,-1.6 L 582.2,-0.1 L 599.6,-0.5 L 616.8,-2.6 L 633.8,-6.5 L 650.4,-11.8 L 666.4,-18.5 L 681.9,-26.3 L 696.9,-35.3 L 711.2,-45.2 L 724.8,-55.9 L 737.9,-67.4 L 750.3,-79.6 L 762.1,-92.4 L 773.3,-105.7 L 783.9,-119.5 L 793.9,-133.8 L 803.3,-148.4 L 812.1,-163.4 L 820.4,-178.7 L 828.0,-194.4 L 835.0,-210.3 L 841.5,-226.4 L 847.4,-242.8 L 852.7,-259.4 L 857.4,-276.1 L 861.5,-293.0 L 865.1,-310.1 L 868.0,-327.2 L 870.4,-344.5 L 872.2,-361.8 L 873.3,-379.1 L 873.9,-396.5 L 873.9,-413.9 L 873.4,-431.3 L 872.3,-448.7 L 870.6,-466.0 L 868.4,-483.3 L 865.6,-500.4 L 862.1,-517.5 L 858.0,-534.4 L 853.2,-551.1 L 847.5,-567.6 L 841.0,-583.7 L 833.3,-599.3 L 824.0,-614.0" stroke="#FF6B6B" stroke-width="6" fill="none" opacity="0.85"/>
  <circle cx="35.4" cy="-0.0" r="10" fill="#FF6B6B"/>
  <circle cx="824.0" cy="-614.0" r="6" fill="#FF6B6B" opacity="0.6"/>
  <text x="53.4" y="-18.0" fill="#FF6B6B" font-size="36" font-family="monospace">1</text>
  <path d="M 824.0,-614.0 L 825.6,-611.2 L 827.3,-608.5 L 828.9,-605.8 L 830.7,-603.1 L 832.5,-600.5 L 834.3,-597.8 L 836.2,-595.3 L 838.1,-592.7 L 840.1,-590.2 L 842.1,-587.8 L 844.2,-585.3 L 846.3,-583.0 L 848.5,-580.6 L 850.7,-578.4 L 853.0,-576.1 L 855.4,-573.9 L 857.7,-571.8 L 860.2,-569.7 L 862.6,-567.7 L 865.1,-565.7 L 867.7,-563.8 L 870.2,-561.9 L 872.9,-560.1 L 875.5,-558.3 L 878.2,-556.5 L 880.8,-554.8 L 883.6,-553.1 L 886.3,-551.5 L 889.0,-549.8 L 891.8,-548.2 L 894.6,-546.7 L 897.4,-545.2 L 900.2,-543.6 L 903.0,-542.2 L 905.9,-540.7 L 908.8,-539.3 L 911.7,-538.0 L 914.6,-536.7 L 917.5,-535.5 L 920.5,-534.4 L 923.5,-533.3 L 926.5,-532.2 L 929.6,-531.3 L 932.6,-530.4 L 935.7,-529.5 L 938.8,-528.7 L 941.9,-528.0 L 945.0,-527.3 L 948.2,-526.7 L 951.3,-526.1 L 954.5,-525.6 L 957.6,-525.2 L 960.8,-524.8 L 964.0,-524.4 L 967.1,-524.1 L 970.3,-523.8 L 973.5,-523.6 L 976.7,-523.4 L 979.9,-523.3 L 983.1,-523.2 L 986.3,-523.1 L 989.5,-523.0 L 992.7,-523.0 L 995.9,-523.0 L 999.0,-523.0 L 1002.2,-523.1 L 1005.4,-523.2 L 1008.6,-523.3 L 1011.8,-523.4 L 1015.0,-523.6 L 1018.2,-523.9 L 1021.4,-524.2 L 1024.5,-524.5 L 1027.7,-524.9 L 1030.9,-525.3 L 1034.0,-525.8 L 1037.2,-526.3 L 1040.3,-526.9 L 1043.4,-527.5 L 1046.5,-528.2 L 1049.7,-529.0 L 1052.7,-529.8 L 1055.8,-530.7 L 1058.9,-531.7 L 1061.9,-532.7 L 1064.9,-533.7 L 1067.9,-534.9 L 1070.8,-536.0 L 1073.8,-537.3 L 1076.7,-538.6 L 1079.6,-540.0 L 1082.4,-541.4 L 1085.3,-542.8 L 1088.1,-544.3 L 1090.9,-545.9 L 1093.7,-547.4 L 1096.5,-548.9 L 1099.3,-550.5 L 1102.0,-552.1 L 1104.8,-553.8 L 1107.5,-555.4 L 1110.2,-557.2 L 1112.9,-558.9 L 1115.5,-560.7 L 1118.1,-562.5 L 1120.7,-564.4 L 1123.3,-566.3 L 1125.8,-568.2 L 1128.3,-570.2 L 1130.8,-572.2 L 1133.2,-574.3 L 1135.5,-576.5 L 1137.9,-578.7 L 1140.1,-580.9 L 1142.4,-583.2 L 1144.5,-585.5 L 1146.7,-587.9 L 1148.7,-590.4 L 1150.7,-592.8 L 1152.7,-595.4 L 1154.6,-597.9 L 1156.5,-600.5 L 1158.3,-603.1 L 1160.0,-605.8 L 1161.7,-608.5 L 1163.4,-611.2 L 1165.0,-614.0" stroke="#4ECDC4" stroke-width="6" fill="none" opacity="0.85"/>
  <circle cx="824.0" cy="-614.0" r="10" fill="#4ECDC4"/>
  <circle cx="1165.0" cy="-614.0" r="6" fill="#4ECDC4" opacity="0.6"/>
  <text x="842.0" y="-632.0" fill="#4ECDC4" font-size="36" font-family="monospace">2</text>
</svg>