<?xml version="1.0" encoding="UTF-8"?>
<svg xmlns="http://www.w3.org/2000/svg" viewBox="-200 -1495.9680118128292 1600 2377.96801181283">
  <title>cogncur strokes for W</title>
  <line x1="-200" y1="0" x2="1400" y2="0" stroke="#2F3A56" stroke-width="4" opacity="0.55"/>
  <line x1="-200" y1="-614.0003000000003" x2="1400" y2="-614.0003000000003" stroke="#457B9D" stroke-width="3" opacity="0.5" stroke-dasharray="24 14"/>
  <line x1="-200" y1="-1295.9680118128292" x2="1400" y2="-1295.9680118128292" stroke="#2F3A56" stroke-width="4" opacity="0.45"/>
  <line x1="-200" y1="682.0000000000005" x2="1400" y2="682.0000000000005" stroke="#ADB5BD" stroke-width="2" opacity="0.35"/>
  <path d="M 34.4,-1296.2 L 34.4,-1272.5 L 34.4,-1248.9 L 34.4,-1225.2 L 34.4,-1201.5 L 34.4,-1177.9 L 34.4,-1154.2 L 34.4,-1130.5 L 34.4,-1106.9 L 34.4,-1083.2 L 34.4,-1059.5 L 34.4,-1035.9 L 34.4,-1012.2 L 34.4,-988.6 L 34.4,-964.9 L 34.4,-941.2 L 34.4,-917.6 L 34.4,-893.9 L 34.4,-870.2 L 34.4,-846.6 L 34.4,-822.9 L 34.4,-799.2 L 34.4,-775.6 L 34.4,-751.9 L 34.4,-728.2 L 34.4,-704.6 L 34.4,-680.9 L 34.4,-657.2 L 34.4,-633.6 L 34.4,-609.9 L 34.4,-586.2 L 34.4,-562.6 L 34.4,-538.9 L 34.4,-515.2 L 34.4,-491.6 L 34.4,-467.9 L 34.4,-444.2 L 34.4,-420.6 L 34.4,-396.9 L 34.4,-373.2 L 34.4,-349.6 L 34.4,-325.9 L 34.4,-302.2 L 34.5,-278.6 L 36.1,-255.0 L 39.3,-231.5 L 44.2,-208.4 L 50.9,-185.7 L 59.3,-163.6 L 69.6,-142.2 L 81.6,-121.9 L 95.3,-102.6 L 110.7,-84.6 L 127.6,-68.1 L 146.0,-53.2 L 165.7,-40.1 L 186.4,-28.7 L 208.1,-19.3 L 230.6,-11.8 L 253.6,-6.2 L 276.9,-2.4 L 300.5,-0.4 L 324.2,-0.1 L 347.8,-1.0 L 371.4,-3.2 L 394.8,-6.7 L 418.0,-11.3 L 440.9,-17.2 L 463.5,-24.4 L 485.6,-32.7 L 507.3,-42.1 L 528.5,-52.7 L 549.0,-64.4 L 569.0,-77.1 L 588.3,-90.8 L 606.8,-105.6 L 624.5,-121.3 L 641.4,-137.9 L 657.3,-155.4 L 672.2,-173.8 L 685.9,-193.0 L 698.3,-213.2 L 709.2,-234.2 L 718.2,-256.1 L 724.7,-278.8 L 727.8,-302.2 L 727.9,-325.9 L 727.9,-349.6 L 727.9,-373.2 L 727.9,-396.9 L 728.0,-420.6 L 728.0,-444.2 L 728.0,-467.9 L 728.0,-491.6 L 728.0,-515.2 L 728.0,-538.9 L 728.0,-562.6 L 728.0,-586.2 L 728.0,-609.9 L 728.0,-633.6 L 728.0,-657.2 L 728.0,-680.9 L 728.0,-704.6 L 728.0,-728.2 L 728.0,-751.9 L 728.1,-775.6 L 728.1,-799.2 L 728.1,-822.9 L 728.1,-846.6 L 728.1,-870.2 L 728.1,-893.9 L 728.1,-917.6 L 728.1,-941.2 L 728.1,-964.9 L 728.2,-988.6 L 728.2,-1012.2 L 728.2,-1035.9 L 728.2,-1059.5 L 728.2,-1083.2 L 728.2,-1106.9 L 728.2,-1130.5 L 728.3,-1154.2 L 728.3,-1177.9 L 728.3,-1201.5 L 728.3,-1225.2 L 728.3,-1248.9 L 728.4,-1272.5 L 728.4,-1296.2" stroke="#FF6B6B" stroke-width="6" fill="none" opacity="0.85"/>
  <circle cx="34.4" cy="-1296.2" r="10" fill="#FF6B6B"/>
  <circle cx="728.4" cy="-1296.2" r="6" fill="#FF6B6B" opacity="0.6"/>
  <text x="52.4" y="-1314.2" fill="#FF6B6B" font-size="36" font-family="monospace">1</text>
  <path d="M 728.4,-1296.2 L 728.4,-1272.7 L 728.4,-1249.2 L 728.4,-1225.7 L 728.4,-1202.2 L 728.4,-1178.7 L 728.4,-1155.1 L 728.4,-1131.6 L 728.4,-1108.1 L 728.4,-1084.6 L 728.4,-1061.1 L 728.4,-1037.6 L 728.4,-1014.1 L 728.4,-990.6 L 728.4,-967.1 L 728.4,-943.5 L 728.4,-920.0 L 728.4,-896.5 L 728.3,-873.0 L 728.3,-849.5 L 728.3,-826.0 L 728.3,-802.5 L 728.3,-779.0 L 728.3,-755.5 L 728.3,-731.9 L 728.3,-708.4 L 728.3,-684.9 L 728.3,-661.4 L 728.3,-637.9 L 728.3,-614.4 L 728.3,-590.9 L 728.3,-567.4 L 728.3,-543.9 L 728.3,-520.4 L 728.3,-496.8 L 728.3,-473.3 L 728.3,-449.8 L 728.3,-426.3 L 728.3,-402.8 L 728.3,-379.3 L 728.3,-355.8 L 728.3,-332.3 L 728.3,-308.8 L 728.4,-285.2 L 729.7,-261.8 L 732.7,-238.5 L 737.3,-215.4 L 743.6,-192.8 L 751.6,-170.6 L 761.2,-149.2 L 772.6,-128.6 L 785.5,-109.0 L 800.1,-90.6 L 816.3,-73.5 L 833.9,-58.0 L 852.8,-44.1 L 873.0,-31.9 L 894.2,-21.7 L 916.2,-13.5 L 938.8,-7.2 L 961.9,-3.0 L 985.3,-0.6 L 1008.8,-0.0 L 1032.3,-1.3 L 1055.6,-4.4 L 1078.6,-9.2 L 1101.2,-15.6 L 1123.4,-23.5 L 1145.0,-32.8 L 1165.9,-43.5 L 1186.2,-55.4 L 1205.7,-68.5 L 1224.4,-82.7 L 1242.4,-97.9 L 1259.5,-113.9 L 1275.8,-130.9 L 1291.3,-148.5 L 1306.0,-166.9 L 1320.0,-185.8 L 1333.1,-205.3 L 1345.4,-225.4 L 1356.6,-246.1 L 1366.7,-267.3 L 1376.0,-288.8 L 1384.6,-310.7 L 1392.5,-332.9 L 1399.8,-355.2 L 1406.6,-377.7 L 1412.9,-400.4 L 1418.7,-423.2 L 1424.1,-446.0 L 1429.2,-469.0 L 1433.8,-492.1 L 1438.1,-515.2 L 1442.1,-538.3 L 1445.7,-561.6 L 1449.0,-584.9 L 1452.0,-608.2 L 1454.7,-631.5 L 1457.0,-654.9 L 1459.1,-678.3 L 1460.9,-701.8 L 1462.4,-725.2 L 1463.6,-748.7 L 1464.5,-772.2 L 1465.1,-795.7 L 1465.4,-819.2 L 1465.3,-842.7 L 1464.9,-866.2 L 1464.1,-889.7 L 1462.8,-913.2 L 1461.1,-936.7 L 1459.0,-960.1 L 1456.5,-983.5 L 1453.5,-1006.8 L 1450.1,-1030.0 L 1446.2,-1053.2 L 1441.9,-1076.3 L 1437.0,-1099.4 L 1431.7,-1122.3 L 1425.9,-1145.0 L 1419.5,-1167.6 L 1412.5,-1190.1 L 1404.8,-1212.3 L 1396.3,-1234.2 L 1387.0,-1255.8 L 1376.5,-1276.8 L 1364.4,-1297.0" stroke="#4ECDC4" stroke-width="6" fill="none" opacity="0.85"/>
  <circle cx="728.4" cy="-1296.2" r="10" fill="#4ECDC4"/>
  <circle cx="1364.4" cy="-1297.0" r="6" fill="#4ECDC4" opacity="0.6"/>
  <text x="746.4" y="-1314.2" fill="#4ECDC4" font-size="36" font-family="monospace">2</text>
  <path d="M 1364.4,-1297.0 L 1366.0,-1294.3 L 1367.6,-1291.6 L 1369.3,-1288.9 L 1371.0,-1286.2 L 1372.8,-1283.6 L 1374.6,-1281.0 L 1376.5,-1278.5 L 1378.4,-1276.0 L 1380.3,-1273.5 L 1382.4,-1271.1 L 1384.5,-1268.7 L 1386.6,-1266.4 L 1388.8,-1264.1 L 1391.0,-1261.8 L 1393.3,-1259.7 L 1395.6,-1257.5 L 1398.0,-1255.5 L 1400.5,-1253.5 L 1402.9,-1251.5 L 1405.5,-1249.6 L 1408.0,-1247.7 L 1410.6,-1245.9 L 1413.2,-1244.1 L 1415.8,-1242.4 L 1418.5,-1240.7 L 1421.2,-1239.0 L 1423.9,-1237.4 L 1426.6,-1235.8 L 1429.4,-1234.2 L 1432.1,-1232.7 L 1434.9,-1231.2 L 1437.7,-1229.7 L 1440.5,-1228.2 L 1443.3,-1226.7 L 1446.1,-1225.3 L 1449.0,-1223.9 L 1451.8,-1222.6 L 1454.7,-1221.4 L 1457.7,-1220.2 L 1460.6,-1219.1 L 1463.6,-1218.0 L 1466.6,-1217.0 L 1469.6,-1216.1 L 1472.6,-1215.2 L 1475.7,-1214.4 L 1478.8,-1213.6 L 1481.8,-1212.9 L 1484.9,-1212.2 L 1488.0,-1211.6 L 1491.1,-1211.1 L 1494.3,-1210.6 L 1497.4,-1210.1 L 1500.5,-1209.7 L 1503.7,-1209.4 L 1506.8,-1209.1 L 1510.0,-1208.8 L 1513.1,-1208.6 L 1516.3,-1208.4 L 1519.4,-1208.3 L 1522.6,-1208.2 L 1525.7,-1208.1 L 1528.9,-1208.0 L 1532.1,-1208.0 L 1535.2,-1208.0 L 1538.4,-1208.0 L 1541.5,-1208.1 L 1544.7,-1208.2 L 1547.9,-1208.3 L 1551.0,-1208.4 L 1554.2,-1208.6 L 1557.3,-1208.9 L 1560.5,-1209.1 L 1563.6,-1209.5 L 1566.8,-1209.8 L 1569.9,-1210.2 L 1573.0,-1210.7 L 1576.1,-1211.2 L 1579.2,-1211.8 L 1582.3,-1212.4 L 1585.4,-1213.1 L 1588.5,-1213.9 L 1591.6,-1214.7 L 1594.6,-1215.5 L 1597.6,-1216.5 L 1600.6,-1217.4 L 1603.6,-1218.5 L 1606.6,-1219.6 L 1609.5,-1220.7 L 1612.4,-1222.0 L 1615.3,-1223.2 L 1618.2,-1224.6 L 1621.0,-1226.0 L 1623.8,-1227.4 L 1626.6,-1228.9 L 1629.4,-1230.4 L 1632.2,-1231.9 L 1635.0,-1233.4 L 1637.7,-1234.9 L 1640.5,-1236.5 L 1643.2,-1238.1 L 1645.9,-1239.7 L 1648.6,-1241.3 L 1651.3,-1243.0 L 1654.0,-1244.7 L 1656.6,-1246.5 L 1659.2,-1248.3 L 1661.8,-1250.1 L 1664.3,-1252.0 L 1666.8,-1253.9 L 1669.3,-1255.9 L 1671.7,-1257.9 L 1674.0,-1260.0 L 1676.4,-1262.2 L 1678.7,-1264.4 L 1680.9,-1266.6 L 1683.1,-1268.9 L 1685.2,-1271.2 L 1687.2,-1273.6 L 1689.2,-1276.1 L 1691.2,-1278.6 L 1693.1,-1281.1 L 1694.9,-1283.7 L 1696.7,-1286.3 L 1698.5,-1288.9 L 1700.2,-1291.6 L 1701.8,-1294.3 L 1703.4,-1297.0" stroke="#45B7D1" stroke-width="6" fill="none" opacity="0.85"/>
  <circle cx="1364.4" cy="-1297.0" r="10" fill="#45B7D1"/>
  <circle cx="1703.4" cy="-1297.0" r="6" fill="#45B7D1" opacity="0.6"/>
  <text x="1382.4" y="-1315.0" fill="#45B7D1" font-size="36" font-family="monospace">3</text>
</svg>