<?xml version="1.0" encoding="UTF-8"?>
<svg xmlns="http://www.w3.org/2000/svg" viewBox="-200 -1495.9680118128292 1600 2377.96801181283">
  <title>cogncur strokes for x</title>
  <line x1="-200" y1="0" x2="1400" y2="0" stroke="#2F3A56" stroke-width="4" opacity="0.55"/>
  <line x1="-200" y1="-614.0003000000003" x2="1400" y2="-614.0003000000003" stroke="#457B9D" stroke-width="3" opacity="0.5" stroke-dasharray="24 14"/>
  <line x1="-200" y1="-1295.9680118128292" x2="1400" y2="-1295.9680118128292" stroke="#2F3A56" stroke-width="4" opacity="0.45"/>
  <line x1="-200" y1="682.0000000000005" x2="1400" y2="682.0000000000005" stroke="#ADB5BD" stroke-width="2" opacity="0.35"/>
  <path d="M 35.4,-0.0 L 41.5,-12.4 L 47.6,-24.9 L 53.7,-37.3 L 59.8,-49.8 L 65.9,-62.2 L 72.0,-74.6 L 78.1,-87.1 L 84.2,-99.5 L 90.3,-112.0 L 96.4,-124.4 L 102.6,-136.8 L 108.7,-149.3 L 114.8,-161.7 L 120.9,-174.2 L 127.0,-186.6 L 133.1,-199.0 L 139.2,-211.5 L 145.3,-223.9 L 151.4,-236.4 L 157.5,-248.8 L 163.6,-261.2 L 169.7,-273.7 L 175.8,-286.1 L 181.9,-298.6 L 188.0,-311.0 L 194.1,-323.4 L 200.3,-335.9 L 206.4,-348.3 L 212.5,-360.8 L 218.6,-373.2 L 224.7,-385.6 L 230.8,-398.1 L 236.9,-410.5 L 243.0,-423.0 L 249.1,-435.4 L 255.2,-447.8 L 261.3,-460.3 L 267.4,-472.7 L 273.5,-485.2 L 279.6,-497.6 L 285.7,-510.0 L 291.8,-522.5 L 297.9,-534.9 L 304.1,-547.3 L 310.4,-559.7 L 317.1,-571.8 L 324.6,-583.5 L 333.4,-594.2 L 343.8,-603.3 L 355.9,-609.9 L 369.3,-613.4 L 383.1,-613.9 L 396.9,-612.3 L 410.2,-608.7 L 422.8,-603.0 L 434.4,-595.4 L 444.8,-586.2 L 454.2,-576.0 L 462.8,-565.2 L 471.0,-554.0 L 479.1,-542.8 L 487.6,-531.8 L 496.0,-520.8 L 504.5,-509.8 L 512.9,-498.9 L 521.4,-487.9 L 529.9,-476.9 L 538.3,-465.9 L 546.8,-455.0 L 555.2,-444.0 L 563.7,-433.0 L 572.2,-422.0 L 580.6,-411.1 L 589.1,-400.1 L 597.5,-389.1 L 606.0,-378.1 L 614.5,-367.2 L 622.9,-356.2 L 631.4,-345.2 L 639.8,-334.2 L 648.3,-323.3 L 656.8,-312.3 L 665.2,-301.3 L 673.7,-290.3 L 682.1,-279.4 L 690.6,-268.4 L 699.1,-257.4 L 707.5,-246.4 L 716.0,-235.5 L 724.4,-224.5 L 732.9,-213.5 L 741.4,-202.5 L 749.8,-191.6 L 758.3,-180.6 L 766.8,-169.6 L 775.2,-158.6 L 783.7,-147.7 L 792.1,-136.7 L 800.6,-125.7 L 809.1,-114.7 L 817.5,-103.8 L 826.0,-92.8 L 834.4,-81.8 L 842.9,-70.9 L 851.6,-60.0 L 860.1,-49.1 L 869.0,-38.5 L 878.5,-28.4 L 888.9,-19.3 L 900.5,-11.7 L 913.0,-5.9 L 926.4,-2.1 L 940.1,-0.3 L 953.9,-0.3 L 967.5,-3.1 L 980.0,-8.9 L 991.1,-17.2 L 1000.6,-27.3 L 1008.9,-38.4 L 1016.1,-50.2 L 1022.7,-62.4 L 1028.8,-74.8 L 1035.0,-87.2 L 1041.1,-99.7 L 1047.2,-112.1 L 1053.3,-124.6 L 1059.4,-137.0" stroke="#FF6B6B" stroke-width="6" fill="none" opacity="0.85"/>
  <circle cx="35.4" cy="-0.0" r="10" fill="#FF6B6B"/>
  <circle cx="1059.4" cy="-137.0" r="6" fill="#FF6B6B" opacity="0.6"/>
  <text x="53.4" y="-18.0" fill="#FF6B6B" font-size="36" font-family="monospace">1</text>
  <path d="M 453.0,-0.0 L 456.3,-4.8 L 459.6,-9.7 L 462.9,-14.5 L 466.2,-19.3 L 469.6,-24.2 L 472.9,-29.0 L 476.2,-33.9 L 479.5,-38.7 L 482.8,-43.5 L 486.1,-48.4 L 489.4,-53.2 L 492.8,-58.0 L 496.1,-62.9 L 499.4,-67.7 L 502.7,-72.5 L 506.0,-77.4 L 509.3,-82.2 L 512.6,-87.0 L 515.9,-91.9 L 519.3,-96.7 L 522.6,-101.6 L 525.9,-106.4 L 529.2,-111.2 L 532.5,-116.1 L 535.8,-120.9 L 539.1,-125.7 L 542.5,-130.6 L 545.8,-135.4 L 549.1,-140.2 L 552.4,-145.1 L 555.7,-149.9 L 559.0,-154.7 L 562.3,-159.6 L 565.7,-164.4 L 569.0,-169.2 L 572.3,-174.1 L 575.6,-178.9 L 578.9,-183.8 L 582.2,-188.6 L 585.5,-193.4 L 588.9,-198.3 L 592.2,-203.1 L 595.5,-207.9 L 598.8,-212.8 L 602.1,-217.6 L 605.4,-222.4 L 608.7,-227.3 L 612.1,-232.1 L 615.4,-236.9 L 618.7,-241.8 L 622.0,-246.6 L 625.3,-251.4 L 628.6,-256.3 L 632.0,-261.1 L 635.3,-265.9 L 638.6,-270.8 L 641.9,-275.6 L 645.2,-280.4 L 648.5,-285.3 L 651.8,-290.1 L 655.2,-295.0 L 658.5,-299.8 L 661.8,-304.6 L 665.1,-309.5 L 668.4,-314.3 L 671.7,-319.1 L 675.0,-324.0 L 678.4,-328.8 L 681.7,-333.6 L 685.0,-338.5 L 688.3,-343.3 L 691.6,-348.1 L 694.9,-353.0 L 698.3,-357.8 L 701.6,-362.6 L 704.9,-367.5 L 708.2,-372.3 L 711.5,-377.1 L 714.8,-382.0 L 718.1,-386.8 L 721.5,-391.6 L 724.8,-396.5 L 728.1,-401.3 L 731.4,-406.1 L 734.7,-411.0 L 738.0,-415.8 L 741.4,-420.6 L 744.7,-425.5 L 748.0,-430.3 L 751.3,-435.1 L 754.6,-440.0 L 757.9,-444.8 L 761.3,-449.6 L 764.6,-454.5 L 767.9,-459.3 L 771.2,-464.2 L 774.5,-469.0 L 777.8,-473.8 L 781.1,-478.7 L 784.5,-483.5 L 787.8,-488.3 L 791.1,-493.2 L 794.4,-498.0 L 797.7,-502.8 L 801.0,-507.7 L 804.4,-512.5 L 807.7,-517.3 L 811.0,-522.2 L 814.3,-527.0 L 817.6,-531.8 L 820.9,-536.7 L 824.3,-541.5 L 827.6,-546.3 L 830.9,-551.2 L 834.2,-556.0 L 837.5,-560.8 L 840.8,-565.7 L 844.2,-570.5 L 847.5,-575.3 L 850.8,-580.2 L 854.1,-585.0 L 857.4,-589.8 L 860.7,-594.7 L 864.0,-599.5 L 867.4,-604.3 L 870.7,-609.2 L 874.0,-614.0" stroke="#4ECDC4" stroke-width="6" fill="none" opacity="0.85"/>
  <circle cx="453.0" cy="-0.0" r="10" fill="#4ECDC4"/>
  <circle cx="874.0" cy="-614.0" r="6" fill="#4ECDC4" opacity="0.6"/>
  <text x="471.0" y="-18.0" fill="#4ECDC4" font-size="36" font-family="monospace">2</text>
</svg>