<?xml version="1.0" encoding="UTF-8"?>
<svg xmlns="http://www.w3.org/2000/svg" viewBox="-200 -1495.9680118128292 1600 2377.96801181283">
  <title>cogncur strokes for X</title>
  <line x1="-200" y1="0" x2="1400" y2="0" stroke="#2F3A56" stroke-width="4" opacity="0.55"/>
  <line x1="-200" y1="-614.0003000000003" x2="1400" y2="-614.0003000000003" stroke="#457B9D" stroke-width="3" opacity="0.5" stroke-dasharray="24 14"/>
  <line x1="-200" y1="-1295.9680118128292" x2="1400" y2="-1295.9680118128292" stroke="#2F3A56" stroke-width="4" opacity="0.45"/>
  <line x1="-200" y1="682.0000000000005" x2="1400" y2="682.0000000000005" stroke="#ADB5BD" stroke-width="2" opacity="0.35"/>
  <path d="M 34.6,-1103.0 L 41.8,-1117.5 L 48.9,-1132.1 L 56.0,-1146.6 L 63.2,-1161.1 L 70.3,-1175.7 L 77.4,-1190.2 L 84.6,-1204.7 L 91.7,-1219.3 L 99.0,-1233.8 L 106.8,-1247.9 L 115.5,-1261.6 L 125.8,-1274.1 L 138.0,-1284.7 L 152.3,-1292.2 L 168.0,-1295.7 L 184.2,-1295.4 L 199.9,-1291.6 L 214.4,-1284.4 L 227.2,-1274.6 L 238.4,-1262.9 L 248.3,-1250.1 L 257.4,-1236.7 L 266.2,-1223.1 L 275.1,-1209.6 L 284.0,-1196.0 L 292.9,-1182.5 L 301.8,-1169.0 L 310.6,-1155.4 L 319.5,-1141.9 L 328.4,-1128.4 L 337.3,-1114.8 L 346.2,-1101.3 L 355.0,-1087.7 L 363.9,-1074.2 L 372.8,-1060.7 L 381.7,-1047.1 L 390.6,-1033.6 L 399.4,-1020.0 L 408.3,-1006.5 L 417.2,-993.0 L 426.1,-979.4 L 434.9,-965.9 L 443.8,-952.3 L 452.7,-938.8 L 461.6,-925.3 L 470.5,-911.7 L 479.3,-898.2 L 488.2,-884.6 L 497.1,-871.1 L 506.0,-857.5 L 514.8,-844.0 L 523.7,-830.5 L 532.6,-816.9 L 541.5,-803.4 L 550.3,-789.8 L 559.2,-776.3 L 568.1,-762.7 L 577.0,-749.2 L 585.8,-735.7 L 594.7,-722.1 L 603.6,-708.6 L 612.5,-695.0 L 621.3,-681.5 L 630.2,-667.9 L 639.1,-654.4 L 648.0,-640.8 L 656.8,-627.3 L 665.7,-613.8 L 674.6,-600.2 L 683.4,-586.7 L 692.3,-573.1 L 701.2,-559.6 L 710.1,-546.0 L 718.9,-532.5 L 727.8,-519.0 L 736.7,-505.4 L 745.6,-491.9 L 754.4,-478.3 L 816.9,-382.9 L 772.2,-451.2 L 781.1,-437.7 L 789.9,-424.1 L 798.8,-410.6 L 807.7,-397.1 L 816.6,-383.5 L 825.4,-370.0 L 834.3,-356.4 L 843.2,-342.9 L 852.0,-329.3 L 860.9,-315.8 L 869.8,-302.3 L 878.7,-288.7 L 887.5,-275.2 L 896.4,-261.6 L 905.3,-248.1 L 914.2,-234.5 L 923.0,-221.0 L 931.9,-207.4 L 940.8,-193.9 L 949.6,-180.4 L 958.5,-166.8 L 967.4,-153.3 L 976.3,-139.7 L 985.1,-126.2 L 994.0,-112.6 L 1002.9,-99.1 L 1011.8,-85.5 L 1020.6,-72.0 L 1029.5,-58.4 L 1038.6,-45.1 L 1048.5,-32.3 L 1059.8,-20.7 L 1072.8,-11.0 L 1087.4,-4.2 L 1103.2,-0.6 L 1119.3,-0.3 L 1135.0,-4.3 L 1148.9,-12.4 L 1160.7,-23.4 L 1170.6,-36.2 L 1179.1,-50.0 L 1186.7,-64.3 L 1193.8,-78.9 L 1201.0,-93.4 L 1208.1,-107.9 L 1215.2,-122.5 L 1222.4,-137.0" stroke="#FF6B6B" stroke-width="6" fill="none" opacity="0.85"/>
  <circle cx="34.6" cy="-1103.0" r="10" fill="#FF6B6B"/>
  <circle cx="1222.4" cy="-137.0" r="6" fill="#FF6B6B" opacity="0.6"/>
  <text x="52.6" y="-1121.0" fill="#FF6B6B" font-size="36" font-family="monospace">1</text>
  <path d="M 270.1,-0.4 L 276.0,-10.6 L 282.0,-20.8 L 287.9,-31.0 L 293.8,-41.2 L 299.8,-51.4 L 305.7,-61.6 L 311.7,-71.9 L 317.6,-82.1 L 323.6,-92.3 L 329.5,-102.5 L 335.4,-112.7 L 341.4,-122.9 L 347.3,-133.1 L 353.3,-143.3 L 359.2,-153.5 L 365.2,-163.7 L 371.1,-173.9 L 377.1,-184.1 L 383.0,-194.3 L 388.9,-204.5 L 394.9,-214.7 L 400.8,-224.9 L 406.8,-235.1 L 412.7,-245.3 L 418.7,-255.5 L 424.6,-265.7 L 430.6,-275.9 L 436.5,-286.1 L 442.5,-296.3 L 448.4,-306.5 L 454.4,-316.7 L 460.3,-326.9 L 466.2,-337.1 L 472.2,-347.3 L 478.1,-357.5 L 484.1,-367.7 L 490.0,-377.9 L 496.0,-388.1 L 501.9,-398.3 L 507.9,-408.5 L 513.8,-418.7 L 519.8,-428.9 L 525.7,-439.1 L 531.7,-449.3 L 537.6,-459.5 L 543.6,-469.7 L 549.5,-479.9 L 555.5,-490.2 L 561.4,-500.4 L 567.4,-510.6 L 573.3,-520.8 L 579.3,-531.0 L 585.2,-541.2 L 591.2,-551.4 L 597.1,-561.6 L 603.1,-571.8 L 609.0,-582.0 L 615.0,-592.2 L 620.9,-602.4 L 626.9,-612.6 L 632.8,-622.8 L 638.8,-633.0 L 644.7,-643.2 L 650.7,-653.4 L 656.6,-663.6 L 662.6,-673.8 L 668.5,-684.0 L 674.5,-694.2 L 680.4,-704.4 L 686.4,-714.6 L 692.3,-724.8 L 698.3,-735.0 L 704.2,-745.2 L 710.2,-755.4 L 716.1,-765.6 L 722.1,-775.8 L 728.0,-786.0 L 734.0,-796.2 L 739.9,-806.4 L 745.9,-816.6 L 751.8,-826.8 L 757.8,-837.0 L 763.7,-847.1 L 769.7,-857.3 L 775.6,-867.5 L 781.6,-877.7 L 787.5,-887.9 L 793.5,-898.1 L 799.4,-908.3 L 805.4,-918.5 L 811.4,-928.7 L 817.3,-938.9 L 823.3,-949.1 L 829.2,-959.3 L 835.2,-969.5 L 841.1,-979.7 L 847.1,-989.9 L 853.0,-1000.1 L 859.0,-1010.3 L 864.9,-1020.5 L 870.9,-1030.7 L 876.8,-1040.9 L 882.8,-1051.1 L 888.7,-1061.3 L 894.7,-1071.5 L 900.6,-1081.7 L 906.6,-1091.9 L 912.5,-1102.1 L 918.5,-1112.3 L 924.5,-1122.5 L 930.4,-1132.7 L 936.4,-1142.9 L 942.3,-1153.1 L 948.3,-1163.3 L 954.2,-1173.5 L 960.2,-1183.7 L 966.1,-1193.9 L 972.1,-1204.1 L 978.0,-1214.3 L 984.0,-1224.5 L 989.9,-1234.7 L 995.9,-1244.9 L 1001.9,-1255.1 L 1007.8,-1265.3 L 1013.8,-1275.5 L 1019.7,-1285.7 L 1025.7,-1295.9" stroke="#4ECDC4" stroke-width="6" fill="none" opacity="0.85"/>
  <circle cx="270.1" cy="-0.4" r="10" fill="#4ECDC4"/>
  <circle cx="1025.7" cy="-1295.9" r="6" fill="#4ECDC4" opacity="0.6"/>
  <text x="288.1" y="-18.4" fill="#4ECDC4" font-size="36" font-family="monospace">2</text>
</svg>