<?xml version="1.0" encoding="UTF-8"?>
<svg xmlns="http://www.w3.org/2000/svg" viewBox="-200 -1495.9680118128292 1600 2377.96801181283">
  <title>cogncur strokes for z</title>
  <line x1="-200" y1="0" x2="1400" y2="0" stroke="#2F3A56" stroke-width="4" opacity="0.55"/>
  <line x1="-200" y1="-614.0003000000003" x2="1400" y2="-614.0003000000003" stroke="#457B9D" stroke-width="3" opacity="0.5" stroke-dasharray="24 14"/>
  <line x1="-200" y1="-1295.9680118128292" x2="1400" y2="-1295.9680118128292" stroke="#2F3A56" stroke-width="4" opacity="0.45"/>
  <line x1="-200" y1="682.0000000000005" x2="1400" y2="682.0000000000005" stroke="#ADB5BD" stroke-width="2" opacity="0.35"/>
  <path d="M 34.4,-0.0 L 39.8,-7.9 L 45.3,-15.8 L 50.7,-23.7 L 56.2,-31.6 L 61.6,-39.6 L 67.1,-47.5 L 72.5,-55.4 L 78.0,-63.3 L 83.4,-71.2 L 88.9,-79.1 L 94.3,-87.1 L 99.8,-95.0 L 105.2,-102.9 L 110.7,-110.8 L 116.1,-118.7 L 121.6,-126.6 L 127.0,-134.6 L 132.4,-142.5 L 137.9,-150.4 L 143.3,-158.3 L 148.8,-166.2 L 154.2,-174.1 L 159.7,-182.1 L 165.1,-190.0 L 170.5,-197.9 L 176.0,-205.8 L 181.4,-213.8 L 186.8,-221.7 L 192.3,-229.6 L 197.7,-237.5 L 203.2,-245.4 L 208.6,-253.4 L 214.0,-261.3 L 219.5,-269.2 L 224.9,-277.1 L 230.3,-285.1 L 235.8,-293.0 L 241.2,-300.9 L 246.6,-308.8 L 252.1,-316.8 L 257.5,-324.7 L 262.9,-332.6 L 268.3,-340.6 L 273.8,-348.5 L 279.2,-356.4 L 284.6,-364.3 L 290.0,-372.3 L 295.5,-380.2 L 300.9,-388.1 L 306.3,-396.1 L 311.7,-404.0 L 317.2,-411.9 L 322.6,-419.9 L 328.0,-427.8 L 333.4,-435.7 L 338.8,-443.7 L 344.3,-451.6 L 349.7,-459.5 L 355.1,-467.5 L 360.5,-475.4 L 365.9,-483.4 L 371.3,-491.3 L 376.7,-499.2 L 382.1,-507.2 L 387.6,-515.1 L 393.0,-523.1 L 398.4,-531.0 L 403.8,-539.0 L 409.2,-546.9 L 414.6,-554.8 L 420.0,-562.8 L 425.4,-570.7 L 430.8,-578.7 L 436.4,-586.4 L 442.6,-593.8 L 449.5,-600.5 L 457.2,-606.3 L 465.8,-610.5 L 475.0,-613.1 L 484.6,-614.0 L 494.2,-613.7 L 503.7,-612.5 L 513.1,-610.5 L 522.3,-607.6 L 531.2,-604.0 L 539.8,-599.8 L 548.2,-595.1 L 556.3,-589.9 L 564.3,-584.6 L 572.1,-579.1 L 580.0,-573.6 L 588.1,-568.3 L 596.5,-563.7 L 605.2,-559.7 L 614.2,-556.4 L 623.4,-553.6 L 632.8,-551.4 L 642.2,-549.7 L 651.8,-548.3 L 661.3,-547.3 L 670.9,-546.6 L 680.5,-546.2 L 690.1,-546.0 L 699.7,-546.0 L 709.3,-546.3 L 718.9,-546.7 L 728.5,-547.4 L 738.1,-548.3 L 747.6,-549.4 L 757.1,-550.7 L 766.6,-552.2 L 776.1,-554.0 L 785.5,-555.9 L 794.8,-558.1 L 804.1,-560.6 L 813.3,-563.2 L 822.5,-566.2 L 831.6,-569.3 L 840.5,-572.8 L 849.4,-576.5 L 858.1,-580.5 L 866.7,-584.8 L 875.1,-589.5 L 883.2,-594.7 L 890.9,-600.4 L 898.1,-606.7 L 904.4,-614.0" stroke="#FF6B6B" stroke-width="6" fill="none" opacity="0.85"/>
  <circle cx="34.4" cy="-0.0" r="10" fill="#FF6B6B"/>
  <circle cx="904.4" cy="-614.0" r="6" fill="#FF6B6B" opacity="0.6"/>
  <text x="52.4" y="-18.0" fill="#FF6B6B" font-size="36" font-family="monospace">1</text>
  <path d="M 904.4,-614.0 L 901.1,-609.2 L 897.8,-604.3 L 894.5,-599.5 L 891.2,-594.7 L 887.9,-589.8 L 884.5,-585.0 L 881.2,-580.2 L 877.9,-575.3 L 874.6,-570.5 L 871.3,-565.7 L 868.0,-560.8 L 864.7,-556.0 L 861.4,-551.1 L 858.1,-546.3 L 854.8,-541.5 L 851.5,-536.6 L 848.2,-531.8 L 844.9,-527.0 L 841.6,-522.1 L 838.2,-517.3 L 834.9,-512.5 L 831.6,-507.6 L 828.3,-502.8 L 825.0,-498.0 L 821.7,-493.1 L 818.4,-488.3 L 815.1,-483.5 L 811.8,-478.6 L 808.5,-473.8 L 805.2,-469.0 L 801.9,-464.1 L 798.6,-459.3 L 795.3,-454.5 L 791.9,-449.6 L 788.6,-444.8 L 785.3,-440.0 L 782.0,-435.1 L 778.7,-430.3 L 775.4,-425.4 L 772.1,-420.6 L 768.8,-415.8 L 765.5,-410.9 L 762.2,-406.1 L 758.9,-401.3 L 755.6,-396.4 L 752.3,-391.6 L 749.0,-386.8 L 745.6,-381.9 L 742.3,-377.1 L 739.0,-372.3 L 735.7,-367.4 L 732.4,-362.6 L 729.1,-357.8 L 725.8,-352.9 L 722.5,-348.1 L 719.2,-343.3 L 715.9,-338.4 L 712.6,-333.6 L 709.3,-328.8 L 706.0,-323.9 L 702.7,-319.1 L 699.3,-314.3 L 696.0,-309.4 L 692.7,-304.6 L 689.4,-299.7 L 686.1,-294.9 L 682.8,-290.1 L 679.5,-285.2 L 676.2,-280.4 L 672.9,-275.6 L 669.6,-270.7 L 666.3,-265.9 L 663.0,-261.1 L 659.7,-256.2 L 656.4,-251.4 L 653.0,-246.6 L 649.7,-241.7 L 646.4,-236.9 L 643.1,-232.1 L 639.8,-227.2 L 636.5,-222.4 L 633.2,-217.6 L 629.9,-212.7 L 626.6,-207.9 L 623.3,-203.1 L 620.0,-198.2 L 616.7,-193.4 L 613.4,-188.6 L 610.1,-183.7 L 606.7,-178.9 L 603.4,-174.0 L 600.1,-169.2 L 596.8,-164.4 L 593.5,-159.5 L 590.2,-154.7 L 586.9,-149.9 L 583.6,-145.0 L 580.3,-140.2 L 577.0,-135.4 L 573.7,-130.5 L 570.4,-125.7 L 567.1,-120.9 L 563.8,-116.0 L 560.5,-111.2 L 557.1,-106.4 L 553.8,-101.5 L 550.5,-96.7 L 547.2,-91.9 L 543.9,-87.0 L 540.6,-82.2 L 537.3,-77.4 L 534.0,-72.5 L 530.7,-67.7 L 527.4,-62.9 L 524.1,-58.0 L 520.8,-53.2 L 517.5,-48.3 L 514.2,-43.5 L 510.8,-38.7 L 507.5,-33.8 L 504.2,-29.0 L 500.9,-24.2 L 497.6,-19.3 L 494.3,-14.5 L 491.0,-9.7 L 487.7,-4.8 L 484.4,-0.0" stroke="#4ECDC4" stroke-width="6" fill="none" opacity="0.85"/>
  <circle cx="904.4" cy="-614.0" r="10" fill="#4ECDC4"/>
  <circle cx="484.4" cy="-0.0" r="6" fill="#4ECDC4" opacity="0.6"/>
  <text x="922.4" y="-632.0" fill="#4ECDC4" font-size="36" font-family="monospace">2</text>
  <path d="M 484.4,-0.0 L 488.1,-3.7 L 492.0,-7.3 L 496.0,-10.7 L 500.2,-14.0 L 504.4,-17.2 L 508.8,-20.2 L 513.2,-23.0 L 517.7,-25.8 L 522.3,-28.4 L 527.0,-30.9 L 531.7,-33.3 L 536.4,-35.6 L 541.2,-37.8 L 546.1,-39.9 L 550.9,-41.9 L 555.9,-43.8 L 560.8,-45.7 L 565.8,-47.4 L 570.8,-49.1 L 575.9,-50.7 L 580.9,-52.2 L 586.0,-53.6 L 591.1,-55.0 L 596.2,-56.2 L 601.4,-57.5 L 606.5,-58.6 L 611.7,-59.7 L 616.9,-60.7 L 622.1,-61.6 L 627.3,-62.5 L 632.5,-63.3 L 637.8,-64.1 L 643.0,-64.8 L 648.2,-65.4 L 653.5,-65.9 L 658.8,-66.4 L 664.0,-66.8 L 669.3,-67.2 L 674.6,-67.5 L 679.8,-67.7 L 685.1,-67.9 L 690.4,-68.0 L 695.7,-68.0 L 701.0,-68.0 L 706.2,-67.9 L 711.5,-67.7 L 716.8,-67.5 L 722.1,-67.2 L 727.3,-66.8 L 732.6,-66.3 L 737.9,-65.7 L 743.1,-65.0 L 748.3,-64.1 L 753.5,-63.2 L 758.7,-62.1 L 763.8,-60.9 L 768.9,-59.5 L 774.0,-58.0 L 779.0,-56.3 L 783.9,-54.4 L 788.8,-52.3 L 793.5,-50.0 L 798.2,-47.5 L 802.7,-44.8 L 807.2,-42.0 L 811.6,-39.1 L 816.0,-36.3 L 820.5,-33.4 L 825.0,-30.6 L 829.5,-27.9 L 834.0,-25.2 L 838.6,-22.5 L 843.2,-19.9 L 847.9,-17.5 L 852.6,-15.0 L 857.3,-12.7 L 862.1,-10.6 L 867.0,-8.5 L 871.9,-6.6 L 876.9,-4.9 L 882.0,-3.4 L 887.1,-2.1 L 892.3,-1.1 L 897.5,-0.4 L 902.8,-0.0 L 908.1,-0.0 L 913.4,-0.3 L 918.6,-0.8 L 923.9,-1.5 L 929.0,-2.5 L 934.2,-3.7 L 939.2,-5.2 L 944.2,-7.0 L 949.1,-9.0 L 953.9,-11.1 L 958.6,-13.5 L 963.2,-16.1 L 967.7,-18.9 L 972.1,-21.9 L 976.4,-25.0 L 980.6,-28.2 L 984.7,-31.6 L 988.6,-35.0 L 992.5,-38.6 L 996.3,-42.3 L 1000.0,-46.1 L 1003.6,-49.9 L 1007.2,-53.8 L 1010.6,-57.8 L 1014.0,-61.9 L 1017.3,-66.0 L 1020.6,-70.2 L 1023.7,-74.4 L 1026.9,-78.7 L 1029.9,-83.0 L 1032.9,-87.3 L 1035.9,-91.7 L 1038.8,-96.1 L 1041.7,-100.5 L 1044.5,-105.0 L 1047.2,-109.5 L 1050.0,-114.0 L 1052.6,-118.6 L 1055.3,-123.2 L 1057.9,-127.7 L 1060.5,-132.4 L 1063.0,-137.0" stroke="#45B7D1" stroke-width="6" fill="none" opacity="0.85"/>
  <circle cx="484.4" cy="-0.0" r="10" fill="#45B7D1"/>
  <circle cx="1063.0" cy="-137.0" r="6" fill="#45B7D1" opacity="0.6"/>
  <text x="502.4" y="-18.0" fill="#45B7D1" font-size="36" font-family="monospace">3</text>
</svg>