<?xml version="1.0" encoding="UTF-8"?>
<svg xmlns="http://www.w3.org/2000/svg" viewBox="-200 -1495.9680118128292 1600 2377.96801181283">
  <title>cogncur strokes for Z</title>
  <line x1="-200" y1="0" x2="1400" y2="0" stroke="#2F3A56" stroke-width="4" opacity="0.55"/>
  <line x1="-200" y1="-614.0003000000003" x2="1400" y2="-614.0003000000003" stroke="#457B9D" stroke-width="3" opacity="0.5" stroke-dasharray="24 14"/>
  <line x1="-200" y1="-1295.9680118128292" x2="1400" y2="-1295.9680118128292" stroke="#2F3A56" stroke-width="4" opacity="0.45"/>
  <line x1="-200" y1="682.0000000000005" x2="1400" y2="682.0000000000005" stroke="#ADB5BD" stroke-width="2" opacity="0.35"/>
  <path d="M 35.8,-1159.0 L 39.7,-1166.2 L 43.8,-1173.3 L 47.9,-1180.4 L 52.1,-1187.5 L 56.5,-1194.4 L 60.9,-1201.3 L 65.5,-1208.2 L 70.2,-1214.9 L 75.0,-1221.5 L 80.0,-1228.1 L 85.1,-1234.5 L 90.4,-1240.7 L 95.9,-1246.9 L 101.6,-1252.8 L 107.5,-1258.5 L 113.6,-1264.0 L 119.9,-1269.2 L 126.5,-1274.0 L 133.4,-1278.5 L 140.5,-1282.6 L 147.9,-1286.3 L 155.5,-1289.4 L 163.3,-1291.9 L 171.3,-1293.8 L 179.4,-1295.1 L 187.5,-1295.8 L 195.7,-1296.0 L 203.9,-1295.6 L 212.1,-1294.6 L 220.2,-1293.1 L 228.1,-1291.1 L 235.9,-1288.7 L 243.6,-1285.7 L 251.1,-1282.4 L 258.4,-1278.7 L 265.6,-1274.8 L 272.7,-1270.6 L 279.6,-1266.2 L 286.5,-1261.7 L 293.3,-1257.1 L 300.0,-1252.4 L 306.8,-1247.7 L 313.5,-1243.0 L 320.2,-1238.3 L 327.0,-1233.6 L 333.7,-1229.0 L 340.6,-1224.5 L 347.5,-1220.0 L 354.5,-1215.7 L 361.5,-1211.5 L 368.6,-1207.4 L 375.8,-1203.5 L 383.1,-1199.7 L 390.5,-1196.0 L 397.9,-1192.6 L 405.4,-1189.3 L 413.0,-1186.1 L 420.7,-1183.2 L 428.4,-1180.4 L 436.2,-1177.8 L 444.0,-1175.4 L 451.9,-1173.2 L 459.9,-1171.1 L 467.9,-1169.2 L 475.9,-1167.5 L 483.9,-1166.0 L 492.0,-1164.6 L 500.2,-1163.3 L 508.3,-1162.3 L 516.4,-1161.3 L 524.6,-1160.5 L 532.8,-1159.9 L 541.0,-1159.4 L 549.2,-1159.0 L 557.4,-1158.8 L 565.6,-1158.6 L 573.8,-1158.6 L 582.0,-1158.7 L 590.2,-1158.9 L 598.4,-1159.2 L 606.6,-1159.5 L 614.8,-1160.0 L 623.0,-1160.5 L 631.2,-1161.2 L 639.4,-1161.9 L 647.5,-1162.8 L 655.7,-1163.7 L 663.8,-1164.7 L 672.0,-1165.8 L 680.1,-1167.0 L 688.2,-1168.4 L 696.3,-1169.8 L 704.3,-1171.3 L 712.4,-1172.9 L 720.4,-1174.6 L 728.4,-1176.4 L 736.4,-1178.3 L 744.4,-1180.3 L 752.3,-1182.4 L 760.2,-1184.7 L 768.1,-1187.0 L 775.9,-1189.5 L 783.7,-1192.0 L 791.5,-1194.7 L 799.2,-1197.5 L 806.8,-1200.4 L 814.5,-1203.5 L 822.0,-1206.6 L 829.5,-1209.9 L 837.0,-1213.4 L 844.4,-1217.0 L 851.7,-1220.7 L 859.0,-1224.5 L 866.1,-1228.5 L 873.2,-1232.7 L 880.2,-1237.0 L 887.0,-1241.5 L 893.8,-1246.2 L 900.5,-1251.0 L 907.0,-1256.0 L 913.4,-1261.1 L 919.6,-1266.5 L 925.7,-1272.0 L 931.5,-1277.7 L 937.2,-1283.6 L 942.7,-1289.7 L 948.0,-1296.0" stroke="#FF6B6B" stroke-width="6" fill="none" opacity="0.85"/>
  <circle cx="35.8" cy="-1159.0" r="10" fill="#FF6B6B"/>
  <circle cx="948.0" cy="-1296.0" r="6" fill="#FF6B6B" opacity="0.6"/>
  <text x="53.8" y="-1177.0" fill="#FF6B6B" font-size="36" font-family="monospace">1</text>
  <path d="M 948.0,-1296.0 L 941.0,-1285.8 L 934.1,-1275.6 L 927.1,-1265.4 L 920.1,-1255.2 L 913.1,-1245.0 L 906.1,-1234.8 L 899.2,-1224.5 L 892.2,-1214.3 L 885.2,-1204.1 L 878.2,-1193.9 L 871.2,-1183.7 L 864.3,-1173.5 L 857.3,-1163.3 L 850.3,-1153.1 L 843.3,-1142.9 L 836.3,-1132.7 L 829.4,-1122.5 L 822.4,-1112.3 L 815.4,-1102.1 L 808.4,-1091.8 L 801.4,-1081.6 L 794.5,-1071.4 L 787.5,-1061.2 L 780.5,-1051.0 L 773.5,-1040.8 L 766.5,-1030.6 L 759.6,-1020.4 L 752.6,-1010.2 L 745.6,-1000.0 L 738.6,-989.8 L 731.6,-979.6 L 724.6,-969.4 L 717.7,-959.1 L 710.7,-948.9 L 703.7,-938.7 L 696.7,-928.5 L 689.7,-918.3 L 682.8,-908.1 L 675.8,-897.9 L 668.8,-887.7 L 661.8,-877.5 L 654.8,-867.3 L 647.9,-857.1 L 640.9,-846.9 L 633.9,-836.6 L 626.9,-826.4 L 619.9,-816.2 L 613.0,-806.0 L 606.0,-795.8 L 599.0,-785.6 L 592.0,-775.4 L 585.0,-765.2 L 578.1,-755.0 L 571.1,-744.8 L 564.1,-734.6 L 557.1,-724.4 L 550.1,-714.2 L 543.2,-703.9 L 536.2,-693.7 L 529.2,-683.5 L 522.2,-673.3 L 515.2,-663.1 L 508.3,-652.9 L 501.3,-642.7 L 494.3,-632.5 L 487.3,-622.3 L 480.3,-612.1 L 473.4,-601.9 L 466.4,-591.7 L 459.4,-581.5 L 452.4,-571.2 L 445.4,-561.0 L 438.4,-550.8 L 431.5,-540.6 L 424.5,-530.4 L 417.5,-520.2 L 410.5,-510.0 L 403.5,-499.8 L 396.6,-489.6 L 389.6,-479.4 L 382.6,-469.2 L 375.6,-459.0 L 368.6,-448.8 L 361.7,-438.5 L 354.7,-428.3 L 347.7,-418.1 L 340.7,-407.9 L 333.7,-397.7 L 326.8,-387.5 L 319.8,-377.3 L 312.8,-367.1 L 305.8,-356.9 L 298.8,-346.7 L 291.9,-336.5 L 284.9,-326.3 L 277.9,-316.1 L 270.9,-305.8 L 263.9,-295.6 L 257.0,-285.4 L 250.0,-275.2 L 243.0,-265.0 L 236.0,-254.8 L 229.0,-244.6 L 222.1,-234.4 L 215.1,-224.2 L 208.1,-214.0 L 201.1,-203.8 L 194.1,-193.6 L 187.2,-183.3 L 180.2,-173.1 L 173.2,-162.9 L 166.2,-152.7 L 159.2,-142.5 L 152.3,-132.3 L 145.3,-122.1 L 138.3,-111.9 L 131.3,-101.7 L 124.3,-91.5 L 117.3,-81.3 L 110.4,-71.1 L 103.4,-60.9 L 96.4,-50.6 L 89.4,-40.4 L 82.4,-30.2 L 75.5,-20.0 L 68.5,-9.8 L 61.5,0.4" stroke="#4ECDC4" stroke-width="6" fill="none" opacity="0.85"/>
  <circle cx="948.0" cy="-1296.0" r="10" fill="#4ECDC4"/>
  <circle cx="61.5" cy="0.4" r="6" fill="#4ECDC4" opacity="0.6"/>
  <text x="966.0" y="-1314.0" fill="#4ECDC4" font-size="36" font-family="monospace">2</text>
  <path d="M 61.5,0.4 L 66.8,-5.9 L 72.3,-12.0 L 78.0,-17.9 L 83.9,-23.6 L 90.0,-29.2 L 96.2,-34.5 L 102.6,-39.7 L 109.1,-44.7 L 115.8,-49.5 L 122.6,-54.1 L 129.4,-58.6 L 136.4,-62.9 L 143.5,-67.1 L 150.7,-71.1 L 157.9,-75.0 L 165.3,-78.7 L 172.7,-82.3 L 180.1,-85.7 L 187.6,-89.0 L 195.2,-92.2 L 202.8,-95.2 L 210.5,-98.2 L 218.3,-101.0 L 226.0,-103.7 L 233.8,-106.2 L 241.7,-108.7 L 249.5,-111.0 L 257.5,-113.2 L 265.4,-115.4 L 273.4,-117.4 L 281.4,-119.3 L 289.4,-121.1 L 297.4,-122.8 L 305.5,-124.4 L 313.5,-125.9 L 321.6,-127.3 L 329.7,-128.6 L 337.9,-129.8 L 346.0,-130.9 L 354.2,-132.0 L 362.3,-132.9 L 370.5,-133.7 L 378.7,-134.5 L 386.9,-135.1 L 395.1,-135.6 L 403.3,-136.1 L 411.5,-136.5 L 419.7,-136.7 L 427.9,-136.9 L 436.1,-137.0 L 444.4,-137.0 L 452.6,-136.8 L 460.8,-136.6 L 469.0,-136.2 L 477.2,-135.7 L 485.4,-135.0 L 493.6,-134.2 L 501.7,-133.3 L 509.9,-132.2 L 518.0,-131.0 L 526.1,-129.5 L 534.1,-128.0 L 542.2,-126.2 L 550.2,-124.3 L 558.1,-122.2 L 566.0,-120.0 L 573.9,-117.5 L 581.6,-114.9 L 589.4,-112.1 L 597.0,-109.1 L 604.6,-106.0 L 612.1,-102.6 L 619.6,-99.1 L 626.9,-95.5 L 634.2,-91.6 L 641.4,-87.7 L 648.5,-83.5 L 655.5,-79.3 L 662.5,-74.9 L 669.4,-70.5 L 676.2,-65.9 L 683.0,-61.3 L 689.7,-56.6 L 696.5,-51.9 L 703.2,-47.2 L 710.0,-42.5 L 716.7,-37.8 L 723.6,-33.3 L 730.5,-28.8 L 737.5,-24.5 L 744.6,-20.4 L 751.8,-16.5 L 759.2,-13.0 L 766.8,-9.8 L 774.5,-6.9 L 782.4,-4.6 L 790.4,-2.7 L 798.5,-1.3 L 806.6,-0.4 L 814.8,-0.0 L 823.1,-0.1 L 831.2,-0.8 L 839.3,-2.1 L 847.3,-4.1 L 855.2,-6.6 L 862.8,-9.7 L 870.1,-13.3 L 877.3,-17.4 L 884.1,-21.9 L 890.8,-26.8 L 897.1,-31.9 L 903.2,-37.4 L 909.1,-43.1 L 914.8,-49.1 L 920.3,-55.2 L 925.6,-61.5 L 930.8,-67.9 L 935.8,-74.4 L 940.6,-81.0 L 945.3,-87.8 L 949.8,-94.6 L 954.3,-101.5 L 958.6,-108.5 L 962.9,-115.5 L 967.0,-122.6 L 971.0,-129.8 L 975.0,-137.0" stroke="#45B7D1" stroke-width="6" fill="none" opacity="0.85"/>
  <circle cx="61.5" cy="0.4" r="10" fill="#45B7D1"/>
  <circle cx="975.0" cy="-137.0" r="6" fill="#45B7D1" opacity="0.6"/>
  <text x="79.5" y="-17.6" fill="#45B7D1" font-size="36" font-family="monospace">3</text>
</svg>