<?xml version="1.0" encoding="UTF-8"?>
<svg xmlns="http://www.w3.org/2000/svg" viewBox="-200 -1496.0 1600 2378.0" width="800" height="600" stroke-linecap="round" stroke-linejoin="round">
  <style>
    .guide { stroke-width: 4; opacity: 0.35; fill: none; }
    .guide.mid { stroke-dasharray: 24 14; opacity: 0.5; }
    .stroke { fill: none; stroke-width: 24; stroke-linecap: round; stroke-linejoin: round; }
  </style>
  <line class="guide" x1="-200" y1="0" x2="1400" y2="0" stroke="#2F3A56"/>
  <line class="guide mid" x1="-200" y1="-614.0" x2="1400" y2="-614.0" stroke="#457B9D"/>
  <line class="guide" x1="-200" y1="-1296.0" x2="1400" y2="-1296.0" stroke="#2F3A56"/>
  <line class="guide" x1="-200" y1="682.0" x2="1400" y2="682.0" stroke="#ADB5BD" stroke-width="2"/>
  <path class="stroke" d="M 626.711,-1211.020 C 573.533,-1262.859 499.733,-1296.480 418.149,-1296.480 C 254.470,-1295.847 123.125,-1166.810 123.125,-1007.814 C 123.125,-897.730 189.323,-796.894 282.142,-752.269 C 330.060,-729.231 442.246,-730.002 442.246,-730.002" stroke="#FF6B6B" pathLength="1" stroke-dasharray="1" stroke-dashoffset="1">
    <animate attributeName="stroke-dashoffset" values="1;0" dur="1.20s" begin="0.00s" fill="freeze"/>
  </path>
  <path class="stroke" d="M 442.246,-730.000 C 442.246,-730.000 313.235,-736.342 250.104,-707.452 C 124.521,-649.983 34.386,-517.552 34.386,-370.528 C 34.386,-164.778 204.355,0.136 413.998,-0.000 C 470.999,-0.000 515.125,-15.273 565.998,-52.060 C 589.809,-69.277 608.419,-86.557 623.322,-103.000" stroke="#4ECDC4" pathLength="1" stroke-dasharray="1" stroke-dashoffset="1">
    <animate attributeName="stroke-dashoffset" values="1;0" dur="1.20s" begin="1.35s" fill="freeze"/>
  </path>
</svg>