<?xml version="1.0" encoding="UTF-8"?>
<svg xmlns="http://www.w3.org/2000/svg" viewBox="-200 -1496.0 1600 2378.0" width="800" height="600" stroke-linecap="round" stroke-linejoin="round">
  <style>
    .guide { stroke-width: 4; opacity: 0.35; fill: none; }
    .guide.mid { stroke-dasharray: 24 14; opacity: 0.5; }
    .stroke { fill: none; stroke-width: 24; stroke-linecap: round; stroke-linejoin: round; }
  </style>
  <line class="guide" x1="-200" y1="0" x2="1400" y2="0" stroke="#2F3A56"/>
  <line class="guide mid" x1="-200" y1="-614.0" x2="1400" y2="-614.0" stroke="#457B9D"/>
  <line class="guide" x1="-200" y1="-1296.0" x2="1400" y2="-1296.0" stroke="#2F3A56"/>
  <line class="guide" x1="-200" y1="682.0" x2="1400" y2="682.0" stroke="#ADB5BD" stroke-width="2"/>
  <path class="stroke" d="M 483.386,-1262.000 C 483.386,-844.000 484.014,-281.867 484.014,-181.330 C 484.014,-71.995 452.467,0.338 371.466,0.004 C 338.486,0.004 313.595,-11.527 295.773,-35.041" stroke="#FF6B6B" pathLength="1" stroke-dasharray="1" stroke-dashoffset="1">
    <animate attributeName="stroke-dashoffset" values="1;0" dur="1.20s" begin="0.00s" fill="freeze"/>
  </path>
  <path class="stroke" d="M 34.386,-1228.000 C 53.307,-1244.929 79.664,-1261.857 109.386,-1274.590 C 139.357,-1287.429 172.750,-1296.000 205.386,-1296.000 C 237.439,-1296.000 287.139,-1290.642 337.386,-1283.941 C 393.737,-1276.427 450.777,-1266.225 483.386,-1262.000 C 516.995,-1256.775 574.034,-1247.573 630.386,-1240.059 C 680.633,-1233.358 730.333,-1228.000 762.386,-1228.000 C 795.021,-1228.000 828.414,-1236.571 858.386,-1249.410 C 888.107,-1262.143 914.465,-1279.071 933.386,-1296.000" stroke="#4ECDC4" pathLength="1" stroke-dasharray="1" stroke-dashoffset="1">
    <animate attributeName="stroke-dashoffset" values="1;0" dur="1.20s" begin="1.35s" fill="freeze"/>
  </path>
  <path class="stroke" d="M 273.386,-648.000 L 692.386,-648.000" stroke="#45B7D1" pathLength="1" stroke-dasharray="1" stroke-dashoffset="1">
    <animate attributeName="stroke-dashoffset" values="1;0" dur="1.05s" begin="2.70s" fill="freeze"/>
  </path>
</svg>