<?xml version="1.0" encoding="UTF-8"?>
<svg xmlns="http://www.w3.org/2000/svg" viewBox="-200 -1496.0 1600 2378.0" width="800" height="600" stroke-linecap="round" stroke-linejoin="round">
  <style>
    .guide { stroke-width: 4; opacity: 0.35; fill: none; }
    .guide.mid { stroke-dasharray: 24 14; opacity: 0.5; }
    .stroke { fill: none; stroke-width: 24; stroke-linecap: round; stroke-linejoin: round; }
  </style>
  <line class="guide" x1="-200" y1="0" x2="1400" y2="0" stroke="#2F3A56"/>
  <line class="guide mid" x1="-200" y1="-614.0" x2="1400" y2="-614.0" stroke="#457B9D"/>
  <line class="guide" x1="-200" y1="-1296.0" x2="1400" y2="-1296.0" stroke="#2F3A56"/>
  <line class="guide" x1="-200" y1="682.0" x2="1400" y2="682.0" stroke="#ADB5BD" stroke-width="2"/>
  <path class="stroke" d="M 35.387,-0.000 L 347.386,-512.000 C 386.058,-574.333 442.032,-614.000 504.000,-614.000 C 550.726,-614.000 594.046,-590.608 628.549,-554.013" stroke="#FF6B6B" pathLength="1" stroke-dasharray="1" stroke-dashoffset="1">
    <animate attributeName="stroke-dashoffset" values="1;0" dur="1.20s" begin="0.00s" fill="freeze"/>
  </path>
  <path class="stroke" d="M 628.701,-554.268 C 593.700,-591.786 550.540,-614.000 504.000,-614.000 C 388.000,-614.000 293.000,-475.000 293.000,-306.000 C 293.000,-137.000 388.000,0.000 504.000,0.000 C 531.602,0.000 558.017,-7.813 582.244,-22.000 C 659.832,-67.430 715.000,-178.214 715.000,-307.000 C 715.000,-408.195 680.938,-498.274 628.702,-554.268" stroke="#4ECDC4" pathLength="1" stroke-dasharray="1" stroke-dashoffset="1">
    <animate attributeName="stroke-dashoffset" values="1;0" dur="1.20s" begin="1.35s" fill="freeze"/>
  </path>
  <path class="stroke" d="M 628.549,-555.013 C 670.000,-520.000 708.989,-512.000 754.000,-512.000 C 782.104,-512.000 818.447,-520.679 850.000,-537.177 C 886.000,-556.000 912.000,-579.000 932.000,-614.000" stroke="#45B7D1" pathLength="1" stroke-dasharray="1" stroke-dashoffset="1">
    <animate attributeName="stroke-dashoffset" values="1;0" dur="0.88s" begin="2.70s" fill="freeze"/>
  </path>
</svg>