<?xml version="1.0" encoding="UTF-8"?>
<svg xmlns="http://www.w3.org/2000/svg" viewBox="-200 -1496.0 1600 2378.0" width="800" height="600" stroke-linecap="round" stroke-linejoin="round">
  <style>
    .guide { stroke-width: 4; opacity: 0.35; fill: none; }
    .guide.mid { stroke-dasharray: 24 14; opacity: 0.5; }
    .stroke { fill: none; stroke-width: 24; stroke-linecap: round; stroke-linejoin: round; }
  </style>
  <line class="guide" x1="-200" y1="0" x2="1400" y2="0" stroke="#2F3A56"/>
  <line class="guide mid" x1="-200" y1="-614.0" x2="1400" y2="-614.0" stroke="#457B9D"/>
  <line class="guide" x1="-200" y1="-1296.0" x2="1400" y2="-1296.0" stroke="#2F3A56"/>
  <line class="guide" x1="-200" y1="682.0" x2="1400" y2="682.0" stroke="#ADB5BD" stroke-width="2"/>
  <path class="stroke" d="M 35.387,-0.000 L 303.390,-546.000 C 318.749,-576.000 335.999,-614.000 377.999,-614.000 C 435.999,-614.000 457.876,-570.294 482.000,-539.000 L 842.000,-72.000 C 868.545,-40.062 889.999,-0.000 947.999,-0.000 C 990.004,-0.000 1011.004,-39.000 1026.004,-69.000 C 1026.000,-69.000 1059.381,-137.000 1059.381,-137.000" stroke="#FF6B6B" pathLength="1" stroke-dasharray="1" stroke-dashoffset="1">
    <animate attributeName="stroke-dashoffset" values="1;0" dur="1.20s" begin="0.00s" fill="freeze"/>
  </path>
  <path class="stroke" d="M 453.000,-0.000 C 616.000,-238.000 874.000,-614.000 874.000,-614.000" stroke="#4ECDC4" pathLength="1" stroke-dasharray="1" stroke-dashoffset="1">
    <animate attributeName="stroke-dashoffset" values="1;0" dur="1.20s" begin="1.35s" fill="freeze"/>
  </path>
</svg>