<?xml version="1.0" encoding="UTF-8"?>
<svg xmlns="http://www.w3.org/2000/svg" viewBox="-200 -1496.0 1600 2378.0" width="800" height="600" stroke-linecap="round" stroke-linejoin="round">
  <style>
    .guide { stroke-width: 4; opacity: 0.35; fill: none; }
    .guide.mid { stroke-dasharray: 24 14; opacity: 0.5; }
    .stroke { fill: none; stroke-width: 24; stroke-linecap: round; stroke-linejoin: round; }
  </style>
  <line class="guide" x1="-200" y1="0" x2="1400" y2="0" stroke="#2F3A56"/>
  <line class="guide mid" x1="-200" y1="-614.0" x2="1400" y2="-614.0" stroke="#457B9D"/>
  <line class="guide" x1="-200" y1="-1296.0" x2="1400" y2="-1296.0" stroke="#2F3A56"/>
  <line class="guide" x1="-200" y1="682.0" x2="1400" y2="682.0" stroke="#ADB5BD" stroke-width="2"/>
  <path class="stroke" d="M 35.387,-0.000 L 303.390,-546.000 C 318.749,-576.000 339.390,-614.000 380.999,-614.000 C 438.999,-614.000 452.999,-566.000 453.000,-512.000 L 453.000,-137.000 C 453.000,-61.000 505.000,-0.000 587.000,-0.000 C 729.000,-0.000 874.000,-200.000 874.000,-307.000 L 874.000,-614.000" stroke="#FF6B6B" pathLength="1" stroke-dasharray="1" stroke-dashoffset="1">
    <animate attributeName="stroke-dashoffset" values="1;0" dur="1.20s" begin="0.00s" fill="freeze"/>
  </path>
  <path class="stroke" d="M 873.999,-614.000 L 874.002,233.810 C 874.001,382.604 874.001,457.000 874.003,457.000 C 874.001,606.333 826.998,681.000 732.993,681.000 C 697.664,681.000 670.688,669.604 652.066,646.811 C 634.022,624.938 624.998,598.000 624.993,566.000 C 624.998,513.902 636.331,469.235 658.993,432.000 L 1005.294,-137.000" stroke="#4ECDC4" pathLength="1" stroke-dasharray="1" stroke-dashoffset="1">
    <animate attributeName="stroke-dashoffset" values="1;0" dur="1.20s" begin="1.35s" fill="freeze"/>
  </path>
</svg>